<?xml version="1.0" encoding="UTF-8" standalone="no"?><svg xmlns="http://www.w3.org/2000/svg" xmlns:xlink="http://www.w3.org/1999/xlink" clip-rule="evenodd" stroke-miterlimit="4.00" viewBox="0 0 111 51"><desc>SVG generated by Keynote</desc><defs></defs><g transform="matrix(1.00, 0.00, -0.00, -1.00, 0.0, 51.0)"><text xml:space="preserve" font-family="Helvetica-Bold" font-weight="bold" font-size="24.0" fill="#FF2600" transform="matrix(1.00, 0.00, -0.00, -1.00, 1.6, 30.5)">C</text><text xml:space="preserve" font-family="Helvetica-Bold" font-weight="bold" font-size="24.0" fill="#FF2600" transform="matrix(1.00, 0.00, -0.00, -1.00, 18.9, 30.5)">l</text><text xml:space="preserve" font-family="Helvetica-Bold" font-weight="bold" font-size="24.0" fill="#FF2600" transform="matrix(1.00, 0.00, -0.00, -1.00, 25.6, 30.5)">e</text><text xml:space="preserve" font-family="Helvetica-Bold" font-weight="bold" font-size="24.0" fill="#FF2600" transform="matrix(1.00, 0.00, -0.00, -1.00, 39.0, 30.5)">a</text><text xml:space="preserve" font-family="Helvetica-Bold" font-weight="bold" font-size="24.0" fill="#FF2600" transform="matrix(1.00, 0.00, -0.00, -1.00, 52.3, 30.5)">n</text><text xml:space="preserve" font-family="Helvetica-Bold" font-weight="bold" font-size="24.0" fill="#FF2600" transform="matrix(1.00, 0.00, -0.00, -1.00, 67.0, 30.5)"> </text><text xml:space="preserve" font-family="Helvetica-Bold" font-weight="bold" font-size="24.0" fill="#FF2600" transform="matrix(1.00, 0.00, -0.00, -1.00, 73.6, 30.5)">t</text><text xml:space="preserve" font-family="Helvetica-Bold" font-weight="bold" font-size="24.0" fill="#FF2600" transform="matrix(1.00, 0.00, -0.00, -1.00, 81.6, 30.5)">h</text><text xml:space="preserve" font-family="Helvetica-Bold" font-weight="bold" font-size="24.0" fill="#FF2600" transform="matrix(1.00, 0.00, -0.00, -1.00, 96.3, 30.5)">e</text><text xml:space="preserve" font-family="Helvetica-Bold" font-weight="bold" font-size="24.0" fill="#FF2600" transform="matrix(1.00, 0.00, -0.00, -1.00, 109.6, 30.5)"> </text><text xml:space="preserve" font-family="Helvetica-Bold" font-weight="bold" font-size="24.0" fill="#FF2600" transform="matrix(1.00, 0.00, -0.00, -1.00, 21.6, 1.5)">c</text><text xml:space="preserve" font-family="Helvetica-Bold" font-weight="bold" font-size="24.0" fill="#FF2600" transform="matrix(1.00, 0.00, -0.00, -1.00, 35.0, 1.5)">o</text><text xml:space="preserve" font-family="Helvetica-Bold" font-weight="bold" font-size="24.0" fill="#FF2600" transform="matrix(1.00, 0.00, -0.00, -1.00, 49.6, 1.5)">u</text><text xml:space="preserve" font-family="Helvetica-Bold" font-weight="bold" font-size="24.0" fill="#FF2600" transform="matrix(1.00, 0.00, -0.00, -1.00, 64.3, 1.5)">n</text><text xml:space="preserve" font-family="Helvetica-Bold" font-weight="bold" font-size="24.0" fill="#FF2600" transform="matrix(1.00, 0.00, -0.00, -1.00, 78.9, 1.5)">t</text><text xml:space="preserve" font-family="Helvetica-Bold" font-weight="bold" font-size="24.0" fill="#FF2600" transform="matrix(1.00, 0.00, -0.00, -1.00, 86.9, 1.5)">e</text><text xml:space="preserve" font-family="Helvetica-Bold" font-weight="bold" font-size="24.0" fill="#FF2600" transform="matrix(1.00, 0.00, -0.00, -1.00, 100.3, 1.5)">r</text></g></svg>