<?xml version="1.0" encoding="UTF-8" standalone="no"?><svg xmlns="http://www.w3.org/2000/svg" xmlns:xlink="http://www.w3.org/1999/xlink" clip-rule="evenodd" stroke-miterlimit="4.00" viewBox="0 0 91 112"><desc>SVG generated by Keynote</desc><defs></defs><g transform="matrix(1.00, 0.00, -0.00, -1.00, 0.0, 112.0)"><path d="M 72.4 12.6 C 72.7 12.5 73.0 13.0 73.7 13.1 C 74.4 13.2 75.3 13.2 75.1 12.9 C 74.9 12.6 74.6 12.4 75.0 11.9 C 75.4 11.5 75.7 10.8 75.2 10.6 C 74.7 10.3 72.6 9.8 72.0 10.2 C 71.4 10.6 71.2 10.8 70.8 11.1 C 70.4 11.4 70.6 10.5 70.6 10.5 C 70.6 10.5 69.5 10.5 68.7 10.6 C 67.9 10.6 67.0 10.7 67.0 10.9 C 66.9 11.0 66.7 11.3 66.7 11.3 C 66.7 11.3 66.2 11.0 65.6 11.0 C 65.1 11.0 65.3 11.2 65.4 11.4 C 65.5 11.5 66.3 12.0 66.0 12.0 C 65.8 12.0 64.9 11.3 64.5 11.3 C 64.1 11.3 63.3 11.5 63.3 11.5 C 63.3 11.5 63.4 11.9 63.3 12.0 C 63.3 12.2 62.4 12.4 62.4 12.2 C 62.3 12.1 62.3 11.6 61.9 11.6 C 60.5 11.8 60.9 12.6 60.7 12.7 C 60.6 12.7 60.5 12.0 60.2 12.0 C 59.8 11.9 57.3 12.6 57.2 12.8 C 57.1 13.0 56.1 12.6 55.9 13.1 C 55.6 13.6 55.5 13.7 55.5 13.8 C 55.4 14.0 55.1 14.7 54.8 14.5 C 54.5 14.3 55.3 13.4 55.0 13.2 C 54.6 13.1 53.1 13.5 52.9 13.7 C 52.6 14.1 52.7 14.8 52.4 14.8 C 52.2 14.9 51.1 14.3 51.1 14.5 C 51.1 14.6 51.2 15.3 51.2 15.5 C 51.3 15.6 51.3 16.9 51.6 17.0 C 51.8 17.1 52.8 17.3 52.6 17.0 C 52.4 16.7 52.0 16.3 52.3 16.1 C 52.6 15.8 52.7 15.7 52.8 15.8 C 53.0 15.9 52.8 16.1 53.4 16.2 C 54.0 16.3 53.8 16.7 54.3 16.5 C 54.8 16.4 55.2 16.2 55.1 15.9 C 55.0 15.7 55.4 15.1 55.8 15.1 C 56.1 15.0 55.7 15.7 56.9 15.7 C 58.0 15.7 58.8 15.6 59.1 15.3 C 59.4 15.0 59.3 14.2 59.9 14.4 C 60.5 14.6 60.2 14.9 61.0 14.7 C 61.8 14.6 62.0 13.9 62.5 13.8 C 62.9 13.7 63.1 13.7 63.1 13.7 C 63.1 13.7 63.0 14.6 64.1 14.4 C 65.2 14.3 65.5 14.3 65.1 13.8 C 64.8 13.2 65.7 13.1 65.8 13.4 C 65.9 13.8 66.6 14.0 67.0 14.0 C 67.4 14.0 67.4 13.0 67.5 12.9 C 67.7 12.9 68.2 12.9 68.0 13.2 C 67.9 13.6 68.3 13.6 68.7 13.7 C 69.1 13.7 70.2 13.5 70.1 13.4 C 70.1 13.2 69.5 12.6 70.3 12.8 C 71.0 13.1 71.3 13.6 72.0 13.5 C 72.7 13.4 72.0 12.8 72.4 12.6 C 72.4 12.6 72.4 12.6 72.4 12.6 Z M 51.3 17.4 C 52.3 17.0 50.9 14.7 50.3 14.3 C 49.7 14.0 49.1 14.5 48.3 14.7 C 47.6 14.8 48.1 15.5 47.8 15.9 C 47.4 16.3 47.4 15.7 47.1 15.4 C 46.8 15.1 45.8 15.8 45.2 16.0 C 44.5 16.2 44.2 17.3 43.7 17.6 C 43.2 17.8 44.3 17.8 43.4 18.1 C 42.5 18.5 42.8 17.8 43.7 17.2 C 44.6 16.5 43.1 16.9 42.5 17.0 C 41.9 17.2 41.1 17.9 40.7 18.1 C 40.2 18.2 41.0 18.6 40.4 18.9 C 39.8 19.1 39.8 18.4 39.1 18.6 C 38.4 18.8 38.8 19.3 38.6 19.6 C 38.3 19.9 38.2 19.5 37.9 19.6 C 37.6 19.7 37.1 19.8 36.6 20.2 C 36.1 20.7 36.4 20.7 36.1 20.9 C 35.9 21.1 35.5 21.4 35.5 21.4 C 35.3 21.2 35.2 21.0 35.0 20.8 C 35.0 20.8 34.0 21.4 33.7 21.5 C 33.4 21.7 32.8 22.3 33.1 22.3 C 33.4 22.4 32.9 23.1 32.7 23.2 C 32.5 23.2 31.9 23.2 31.5 23.3 C 31.0 23.4 32.1 24.8 32.2 25.0 C 32.4 25.2 32.7 26.0 33.0 26.0 C 33.4 25.8 33.4 25.4 33.5 25.6 C 33.6 25.9 34.3 25.1 34.5 25.0 C 34.7 24.8 34.7 24.1 34.7 24.1 C 34.7 24.1 34.6 23.5 35.0 23.3 C 35.4 23.1 36.1 23.9 36.1 23.9 C 36.1 23.9 36.7 23.8 37.1 23.5 C 37.6 23.2 37.7 22.1 37.7 21.9 C 37.7 21.6 38.1 22.4 38.5 22.3 C 38.9 22.2 39.5 22.1 39.6 22.0 C 39.8 21.9 39.8 21.3 39.8 21.3 C 39.8 21.3 40.3 20.6 40.5 20.6 C 40.6 20.5 40.7 21.3 40.7 21.3 C 40.7 21.3 42.2 20.9 42.5 20.8 C 42.8 20.7 43.2 20.3 43.4 20.2 C 43.6 20.0 43.5 19.0 43.9 18.9 C 44.3 18.9 43.8 19.7 44.2 19.6 C 44.5 19.6 45.2 19.5 45.4 19.5 C 45.5 19.4 45.6 19.0 45.9 18.8 C 46.1 18.7 46.3 17.8 46.7 17.7 C 47.2 17.5 47.5 17.8 47.7 17.9 C 48.0 17.9 48.3 18.5 48.6 18.4 C 49.0 18.3 48.6 17.9 48.9 17.8 C 49.3 17.7 49.1 17.2 49.5 17.2 C 49.9 17.2 49.9 18.0 50.3 17.8 C 50.4 17.7 50.3 17.8 51.3 17.4 C 51.3 17.4 51.3 17.4 51.3 17.4 Z M 32.3 26.3 C 32.9 26.4 33.0 25.8 32.7 25.5 C 32.5 25.2 31.8 24.5 31.8 24.2 C 31.8 23.8 31.9 22.9 31.1 23.3 C 30.3 23.7 30.3 24.0 30.4 24.2 C 30.5 24.4 31.0 25.3 30.8 25.4 C 30.5 25.5 30.2 25.4 30.1 25.3 C 29.9 25.2 29.1 24.6 28.8 25.0 C 28.6 25.3 28.4 25.8 28.4 25.8 C 28.3 25.9 28.1 26.1 28.0 26.2 C 28.0 26.2 27.1 26.1 26.9 26.5 C 26.6 26.9 26.2 27.2 25.9 27.4 C 25.6 27.6 25.4 27.9 25.5 28.1 C 25.6 28.3 25.9 29.3 25.9 29.3 C 25.9 29.3 25.7 29.8 25.4 29.8 C 25.1 29.9 24.8 29.6 24.7 29.4 C 24.6 29.2 24.3 28.9 23.9 29.1 C 23.6 29.2 22.2 29.9 22.3 30.3 C 22.3 30.7 22.6 30.9 22.5 31.1 C 22.5 31.3 21.9 32.0 21.6 31.9 C 21.4 31.8 21.1 31.4 20.9 31.6 C 20.7 31.9 20.3 32.2 20.4 32.3 C 20.5 32.4 20.4 32.6 20.6 32.8 C 20.8 33.0 20.6 33.6 20.6 33.8 C 20.7 34.0 20.4 34.3 20.4 34.3 C 20.2 34.4 19.9 34.4 19.7 34.5 C 19.7 34.5 19.5 33.9 19.6 33.7 C 19.6 33.5 19.2 33.5 19.0 33.6 C 18.9 33.7 18.3 34.6 18.3 34.6 C 18.5 34.8 18.8 35.1 19.1 35.4 C 19.0 35.6 18.9 35.9 18.8 36.1 C 18.8 36.1 17.8 35.2 17.5 35.6 C 17.2 36.0 16.8 36.5 16.8 36.5 C 16.8 36.5 16.9 37.3 16.8 37.4 C 16.8 37.5 17.7 38.3 17.7 38.3 C 18.1 38.5 18.5 38.8 18.9 39.0 C 18.9 39.0 19.6 38.8 19.7 38.4 C 19.7 38.1 19.2 38.0 19.0 37.8 C 18.9 37.6 19.0 37.1 19.0 37.1 C 19.3 37.1 19.7 37.0 20.0 37.0 C 20.0 37.0 20.3 37.0 20.7 37.0 C 21.0 37.0 21.6 36.5 21.6 36.2 C 21.7 36.0 21.6 35.6 21.6 35.3 C 21.6 34.9 21.3 34.7 21.7 34.7 C 22.2 34.6 22.6 34.8 22.7 34.6 C 22.8 34.5 22.9 33.7 22.9 33.7 C 23.0 33.5 23.0 33.2 23.1 33.0 C 23.1 33.0 23.3 32.5 23.6 32.6 C 23.8 32.8 24.3 31.8 24.3 31.8 C 24.3 31.8 24.8 32.4 25.1 32.3 C 25.4 32.3 25.9 32.1 26.1 31.7 C 26.3 31.3 26.0 30.5 26.0 30.5 C 26.3 30.5 26.5 30.6 26.7 30.7 C 27.1 30.4 27.4 30.2 27.8 30.0 C 27.8 30.0 28.4 29.4 28.3 29.3 C 28.3 29.1 27.7 28.7 27.7 28.5 C 27.6 28.3 27.8 27.8 28.0 28.0 C 28.2 28.1 28.9 28.3 28.9 28.3 C 28.9 28.3 29.5 28.4 29.7 28.3 C 30.0 28.2 30.2 27.7 30.2 27.5 C 30.2 27.4 30.3 26.7 30.3 26.7 C 30.5 26.8 30.7 26.9 30.9 27.0 C 30.9 27.0 31.3 26.3 32.3 26.3 C 32.3 26.3 32.3 26.3 32.3 26.3 Z M 19.0 39.6 C 19.5 38.8 17.0 37.7 16.4 37.8 C 15.7 37.8 15.6 38.5 15.1 39.0 C 14.6 39.6 15.5 39.8 15.4 40.3 C 15.4 40.8 15.0 40.3 14.6 40.3 C 14.2 40.2 13.9 41.3 13.5 41.8 C 13.2 42.3 13.6 43.4 13.4 43.9 C 13.2 44.3 14.0 43.7 13.5 44.5 C 13.0 45.2 12.8 44.6 13.1 43.6 C 13.4 42.5 12.5 43.7 12.1 44.1 C 11.7 44.6 11.6 45.7 11.3 46.1 C 11.1 46.5 12.0 46.2 11.6 46.8 C 11.3 47.4 10.8 46.8 10.5 47.4 C 10.0 48.0 10.7 48.2 10.7 48.6 C 10.6 49.0 10.3 48.7 10.1 49.0 C 10.0 49.2 9.6 49.6 9.5 50.2 C 9.3 50.9 9.6 50.8 9.5 51.1 C 9.4 51.4 9.2 51.9 9.2 51.9 C 9.0 51.9 8.8 51.8 8.6 51.8 C 8.6 51.8 8.1 52.9 7.9 53.2 C 7.7 53.5 7.7 54.4 7.9 54.3 C 8.1 54.1 8.3 55.0 8.1 55.2 C 8.0 55.3 7.4 55.8 7.1 56.2 C 6.9 56.5 8.5 57.0 8.8 57.0 C 9.0 57.1 9.8 57.6 10.0 57.3 C 10.2 57.0 10.0 56.6 10.2 56.8 C 10.4 56.9 10.5 55.8 10.6 55.5 C 10.7 55.2 10.3 54.7 10.3 54.7 C 10.3 54.7 9.9 54.2 10.0 53.8 C 10.2 53.3 11.3 53.6 11.3 53.6 C 11.3 53.6 11.7 53.1 11.9 52.5 C 12.0 52.0 11.5 51.0 11.3 50.9 C 11.2 50.7 11.9 51.0 12.2 50.7 C 12.5 50.4 12.9 49.9 13.0 49.8 C 13.0 49.6 12.6 49.1 12.6 49.1 C 12.6 49.1 12.6 48.3 12.7 48.1 C 12.8 48.0 13.4 48.6 13.4 48.6 C 13.4 48.6 14.3 47.3 14.5 47.1 C 14.7 46.8 14.7 46.3 14.8 46.1 C 14.8 45.8 14.1 45.1 14.4 44.8 C 14.6 44.6 14.8 45.4 15.0 45.2 C 15.3 44.9 15.7 44.5 15.8 44.4 C 15.9 44.2 15.7 43.9 15.8 43.6 C 15.9 43.3 15.5 42.6 15.8 42.2 C 16.0 41.9 16.5 41.9 16.7 41.8 C 16.8 41.7 17.4 42.0 17.6 41.7 C 17.8 41.5 17.3 41.4 17.5 41.1 C 17.7 40.9 17.3 40.6 17.6 40.4 C 17.8 40.2 18.4 40.8 18.5 40.4 C 18.5 40.3 18.5 40.4 19.0 39.6 C 19.0 39.6 19.0 39.6 19.0 39.6 Z M 9.6 58.1 C 10.1 57.8 9.9 57.2 9.5 57.1 C 9.1 57.1 8.1 56.9 7.9 56.7 C 7.7 56.4 7.3 55.6 6.8 56.4 C 6.4 57.3 6.6 57.6 6.8 57.6 C 7.1 57.7 8.0 58.2 7.8 58.4 C 7.7 58.6 7.3 58.8 7.2 58.8 C 7.0 58.8 6.0 58.9 6.0 59.4 C 6.0 59.9 6.1 60.4 6.1 60.4 C 6.1 60.6 6.0 60.8 6.0 61.1 C 6.0 61.1 5.2 61.5 5.2 62.1 C 5.2 62.6 5.1 63.2 5.0 63.6 C 4.8 64.0 4.8 64.4 5.0 64.5 C 5.2 64.6 5.9 65.3 5.9 65.3 C 5.9 65.3 6.0 65.9 5.9 66.2 C 5.7 66.4 5.2 66.4 5.0 66.2 C 4.9 66.2 4.4 66.1 4.2 66.5 C 4.0 66.9 3.2 68.5 3.5 68.8 C 3.7 69.2 4.1 69.2 4.1 69.4 C 4.2 69.6 4.0 70.8 3.8 70.8 C 3.5 70.9 3.1 70.7 3.0 71.1 C 3.0 71.4 2.8 72.1 2.9 72.1 C 3.1 72.2 3.2 72.4 3.4 72.5 C 3.7 72.5 3.8 73.3 4.0 73.4 C 4.1 73.6 4.0 74.1 4.0 74.1 C 3.9 74.3 3.7 74.5 3.5 74.8 C 3.5 74.8 3.0 74.3 3.0 74.1 C 2.9 73.8 2.6 74.1 2.5 74.4 C 2.4 74.6 2.3 75.9 2.3 75.9 C 2.7 76.0 3.1 76.1 3.5 76.1 C 3.5 76.5 3.6 76.8 3.6 77.1 C 3.6 77.1 2.3 76.9 2.2 77.5 C 2.1 78.2 2.1 79.0 2.1 79.0 C 2.1 79.0 2.5 79.7 2.5 79.9 C 2.6 80.0 3.8 80.2 3.8 80.2 C 4.2 80.2 4.7 80.2 5.2 80.2 C 5.2 80.2 5.7 79.4 5.5 79.0 C 5.4 78.6 4.9 78.9 4.6 78.8 C 4.4 78.7 4.3 78.0 4.3 78.0 C 4.5 77.7 4.8 77.5 5.1 77.2 C 5.1 77.2 5.4 77.0 5.6 76.7 C 5.9 76.5 6.2 75.5 6.1 75.2 C 6.0 75.0 5.8 74.6 5.6 74.3 C 5.4 73.9 5.0 73.9 5.3 73.5 C 5.7 73.2 6.1 73.0 6.1 72.8 C 6.2 72.6 5.9 71.7 5.9 71.7 C 5.8 71.4 5.7 71.2 5.7 70.9 C 5.7 70.9 5.5 70.2 5.8 70.2 C 6.1 70.1 6.0 68.8 6.0 68.8 C 6.0 68.8 6.8 69.1 7.0 68.7 C 7.2 68.5 7.5 68.0 7.5 67.4 C 7.4 66.9 6.7 66.3 6.7 66.3 C 7.0 66.2 7.2 66.1 7.5 66.0 C 7.6 65.5 7.8 65.1 7.9 64.6 C 7.9 64.6 8.2 63.6 8.0 63.5 C 7.9 63.5 7.2 63.4 7.0 63.3 C 6.9 63.2 6.8 62.6 7.0 62.6 C 7.3 62.6 8.0 62.3 8.0 62.3 C 8.0 62.3 8.5 62.0 8.6 61.7 C 8.8 61.4 8.7 60.8 8.6 60.7 C 8.5 60.5 8.1 59.9 8.1 59.9 C 8.4 59.8 8.6 59.8 8.9 59.7 C 8.9 59.7 8.8 58.8 9.6 58.1 C 9.6 58.1 9.6 58.1 9.6 58.1 Z M 5.5 80.7 C 5.6 79.5 2.9 80.1 2.3 80.6 C 1.7 81.0 2.0 81.9 1.9 82.8 C 1.7 83.7 2.6 83.4 2.8 84.0 C 3.0 84.5 2.5 84.3 2.1 84.5 C 1.7 84.7 1.9 86.1 1.9 86.9 C 1.8 87.8 2.7 88.7 2.7 89.4 C 2.7 90.0 3.2 88.8 3.1 90.0 C 3.0 91.2 2.6 90.6 2.3 89.2 C 2.1 87.8 1.8 89.7 1.7 90.5 C 1.6 91.3 2.0 92.6 1.9 93.3 C 1.9 93.9 2.6 93.1 2.6 94.0 C 2.5 94.9 1.9 94.5 1.8 95.4 C 1.7 96.3 2.3 96.2 2.5 96.7 C 2.6 97.2 2.3 97.1 2.2 97.5 C 2.2 97.9 2.0 98.5 2.2 99.4 C 2.4 100.3 2.6 100.1 2.6 100.5 C 2.7 100.9 2.7 101.6 2.7 101.6 C 2.5 101.7 2.3 101.7 2.1 101.8 C 2.1 101.8 2.1 103.5 2.1 104.0 C 2.1 104.5 2.5 105.6 2.6 105.3 C 2.7 105.0 3.2 106.1 3.2 106.3 C 3.1 106.6 2.8 107.5 2.7 108.1 C 2.6 108.7 4.3 108.4 4.6 108.3 C 4.8 108.3 5.8 108.6 5.8 108.1 C 5.9 107.5 5.5 107.2 5.7 107.2 C 6.0 107.3 5.6 105.8 5.6 105.4 C 5.6 105.0 4.9 104.5 4.9 104.5 C 4.9 104.5 4.3 104.2 4.3 103.5 C 4.2 102.8 5.3 102.5 5.3 102.5 C 5.3 102.5 5.4 101.7 5.4 100.9 C 5.3 100.1 4.3 99.2 4.1 99.1 C 3.9 98.9 4.8 98.9 4.8 98.4 C 4.9 97.8 5.1 97.0 5.1 96.7 C 5.0 96.5 4.5 96.1 4.5 96.1 C 4.5 96.1 4.1 95.1 4.1 94.9 C 4.1 94.6 4.9 95.0 4.9 95.0 C 4.9 95.0 5.1 92.9 5.2 92.5 C 5.2 92.0 5.0 91.4 5.0 91.1 C 4.9 90.8 3.9 90.3 4.0 89.9 C 4.2 89.4 4.7 90.3 4.8 89.9 C 4.9 89.4 5.1 88.6 5.1 88.4 C 5.1 88.1 4.8 87.8 4.7 87.5 C 4.7 87.1 4.0 86.5 4.0 85.9 C 4.0 85.4 4.5 85.1 4.6 84.9 C 4.7 84.7 5.3 84.5 5.4 84.1 C 5.4 83.6 5.0 83.9 5.0 83.5 C 5.0 83.1 4.5 83.0 4.7 82.6 C 4.8 82.2 5.6 82.5 5.5 82.0 C 5.5 81.8 5.5 82.0 5.5 80.7 C 5.5 80.7 5.5 80.7 5.5 80.7 Z M 5.5 80.7 " fill="#FF2600"></path><path d="M 74.5 20.8 C 74.4 21.2 73.3 21.6 74.1 20.9 C 74.1 20.8 74.5 20.7 74.5 20.8 Z M 76.1 19.8 C 76.0 19.9 75.9 19.9 75.8 19.9 C 75.4 19.7 76.6 19.5 76.1 19.8 Z M 73.5 21.0 C 73.5 21.0 73.0 21.4 73.0 21.2 C 73.1 21.1 73.5 20.9 73.5 21.0 Z M 77.2 18.2 C 77.3 18.4 76.8 18.7 76.6 18.7 C 76.2 18.7 77.1 17.9 77.2 18.2 Z M 72.6 15.5 C 72.6 15.4 72.6 15.4 72.6 15.3 C 72.6 15.4 72.6 15.4 72.6 15.5 Z M 85.2 13.7 C 85.1 13.8 84.8 13.8 84.8 13.7 C 84.7 13.5 85.5 13.5 85.2 13.7 Z M 72.0 4.4 C 72.0 4.4 71.9 4.7 71.8 4.6 C 71.7 4.5 71.9 4.4 72.0 4.4 Z M 71.8 4.4 C 71.7 4.5 71.6 4.3 71.7 4.3 C 71.9 4.3 71.9 4.4 71.8 4.4 Z M 80.8 6.6 C 80.9 6.6 81.0 6.6 80.9 6.6 C 80.8 6.7 80.7 6.5 80.8 6.6 Z M 80.5 6.6 C 80.3 6.7 80.3 6.4 80.4 6.5 C 80.6 6.5 80.6 6.5 80.5 6.6 Z M 79.2 4.9 C 79.3 4.9 79.3 4.9 79.3 5.0 C 79.2 5.0 79.1 4.9 79.2 4.9 Z M 71.7 9.0 C 71.6 8.9 71.7 8.6 71.8 8.6 C 72.0 8.6 71.8 9.1 71.7 9.0 Z M 71.5 8.5 C 71.4 8.6 71.4 8.3 71.5 8.4 C 71.6 8.4 71.7 8.5 71.5 8.5 Z M 71.8 9.9 C 72.0 9.9 72.0 10.3 72.0 10.4 C 72.0 10.5 71.9 10.7 71.9 10.8 C 71.8 10.9 71.6 9.9 71.8 9.9 Z M 72.1 12.9 C 72.0 12.9 72.0 12.9 72.1 12.7 C 72.1 12.6 72.2 12.9 72.1 12.9 Z M 72.0 11.2 C 71.9 11.2 71.8 11.2 71.9 11.1 C 72.0 10.9 72.0 11.2 72.0 11.2 Z M 80.6 16.6 C 80.7 16.7 80.2 16.9 80.2 16.9 C 80.1 16.8 80.3 16.7 80.2 16.8 C 80.0 16.8 80.1 16.3 80.6 16.6 Z M 77.1 19.2 C 77.0 19.2 76.9 19.2 76.9 19.1 C 76.9 19.0 77.3 18.9 77.1 19.2 Z M 79.7 16.5 C 79.7 16.5 79.6 16.5 79.6 16.5 C 79.6 16.5 79.7 16.4 79.7 16.5 Z M 79.9 16.2 C 79.9 16.3 79.6 16.3 79.6 16.1 C 79.5 15.9 80.2 15.9 79.9 16.2 Z M 81.2 16.4 C 81.0 16.5 81.0 16.5 81.1 16.4 C 81.1 16.3 81.2 16.4 81.2 16.4 Z M 79.2 18.0 C 79.0 18.0 79.0 18.0 79.1 18.0 C 79.1 17.9 79.2 18.0 79.2 18.0 Z M 82.0 15.6 C 82.0 15.6 81.8 15.9 81.6 15.7 C 81.3 15.4 82.0 15.6 82.0 15.6 Z M 83.3 14.3 C 83.2 14.4 83.2 14.2 83.3 14.2 C 83.4 14.2 83.4 14.3 83.3 14.3 Z M 83.5 13.5 C 83.7 13.4 83.9 13.5 83.7 13.6 C 83.4 13.7 83.3 13.5 83.5 13.5 Z M 83.3 13.8 C 83.3 13.7 83.4 13.7 83.4 13.7 C 83.5 13.8 83.3 13.8 83.3 13.8 Z M 82.3 14.9 C 82.2 15.1 82.0 15.0 82.1 14.8 C 82.3 14.7 82.3 14.8 82.3 14.9 Z M 71.9 17.0 C 71.9 17.1 71.7 17.1 71.7 17.0 C 71.6 17.0 71.8 16.9 71.9 17.0 Z M 72.4 10.6 C 72.3 10.7 72.3 10.6 72.3 10.5 C 72.4 10.3 72.5 10.5 72.4 10.6 Z M 72.6 6.6 C 72.5 6.7 72.5 6.6 72.6 6.4 C 72.6 6.3 72.7 6.5 72.6 6.6 Z M 72.4 12.3 C 72.4 12.3 72.0 11.9 72.3 11.6 C 72.6 11.4 72.7 12.1 72.4 12.3 Z M 75.7 16.2 C 75.8 16.2 75.7 16.2 75.7 16.2 C 75.7 16.1 75.7 16.1 75.7 16.2 Z M 72.9 11.3 C 72.9 11.4 72.8 11.4 72.7 11.3 C 72.6 11.3 72.8 11.2 72.9 11.3 Z M 72.4 7.3 C 72.3 7.5 72.1 7.4 72.0 7.3 C 71.7 7.0 72.0 6.7 72.2 6.5 C 72.3 6.3 72.4 7.2 72.4 7.3 Z M 72.5 18.0 C 72.5 17.9 72.6 17.8 72.6 17.7 C 72.5 17.7 72.5 17.6 72.6 17.5 C 72.5 17.1 72.1 16.9 72.0 16.7 C 71.8 16.1 72.6 15.8 72.6 15.5 C 72.6 15.6 72.6 15.7 72.7 15.7 C 72.9 15.9 72.8 14.4 72.8 14.4 C 72.5 13.2 72.4 14.6 72.0 14.6 C 71.8 14.6 72.2 13.8 72.3 13.7 C 72.4 13.4 72.0 13.3 72.2 13.0 C 72.2 12.8 73.1 12.3 73.0 12.2 C 72.9 12.1 73.0 11.7 73.0 11.6 C 73.0 11.4 73.0 11.0 72.6 11.2 C 72.4 11.4 72.1 11.4 72.4 11.1 C 72.5 10.9 73.1 9.5 72.4 9.5 C 72.3 9.5 72.1 9.8 72.1 9.9 C 72.0 9.5 72.2 8.3 71.9 8.0 C 71.3 7.4 72.3 8.2 72.4 7.9 C 72.7 7.3 72.9 7.0 72.8 6.3 C 72.8 6.2 72.7 5.5 72.4 5.8 C 72.1 6.1 72.0 5.9 71.9 6.3 C 71.5 5.8 72.2 5.5 72.1 5.5 C 71.9 5.3 71.7 5.6 71.8 5.3 C 71.8 4.9 71.7 5.0 72.1 5.0 C 72.2 4.9 72.2 4.6 72.2 4.6 C 72.3 4.6 72.3 4.6 72.3 4.6 C 72.3 4.2 71.6 3.8 71.8 3.7 C 71.9 3.6 72.3 3.8 72.5 3.7 C 72.5 3.7 72.5 3.7 72.5 3.7 C 72.4 3.5 72.2 3.2 72.2 3.1 C 72.3 3.1 72.9 3.3 72.7 3.2 C 72.5 3.0 72.7 2.3 72.9 2.3 C 73.1 2.2 73.9 2.0 74.0 1.9 C 74.0 1.7 74.4 2.0 74.5 2.0 C 74.6 2.1 74.7 2.4 74.8 2.5 C 74.8 2.5 75.1 2.7 75.1 2.7 C 75.1 2.7 75.3 2.7 75.5 2.8 C 75.8 2.9 75.9 3.2 76.1 3.4 C 76.4 3.7 76.6 3.5 76.9 3.7 C 77.2 3.8 77.2 4.4 77.4 4.6 C 77.6 4.8 77.8 4.4 78.1 4.6 C 78.4 4.7 78.6 4.9 78.4 4.9 C 78.3 4.9 78.3 5.0 78.4 5.1 C 78.5 5.1 78.8 5.4 79.0 5.5 C 79.1 5.5 78.4 4.6 79.5 5.3 C 80.1 5.7 80.3 6.3 80.1 6.2 C 79.7 6.0 80.2 7.0 80.3 6.9 C 80.5 6.7 81.4 7.3 81.3 6.8 C 81.3 6.7 82.4 7.1 82.5 7.3 C 82.6 7.4 83.1 7.6 83.0 8.0 C 83.0 8.1 83.8 8.1 83.9 8.1 C 84.0 8.2 84.8 8.7 84.9 8.9 C 85.0 9.0 84.6 8.8 84.5 8.7 C 84.3 8.6 84.1 8.3 84.0 8.3 C 83.8 8.2 84.0 8.6 84.2 8.7 C 84.4 8.8 84.4 9.0 84.5 9.1 C 84.6 9.1 84.7 9.2 84.8 9.3 C 84.9 9.4 85.0 9.4 85.0 9.3 C 85.1 9.2 85.0 9.1 85.1 9.1 C 85.1 9.0 85.3 9.0 85.5 9.2 C 85.8 9.3 85.9 9.4 86.2 9.7 C 86.5 10.0 86.6 9.9 86.8 10.0 C 87.0 10.1 87.2 10.3 87.2 10.3 C 87.2 10.4 86.9 10.3 86.8 10.4 C 86.8 10.4 87.0 10.7 87.1 10.8 C 87.6 11.2 86.9 11.4 87.4 11.8 C 87.7 12.1 87.3 12.0 87.0 12.1 C 87.0 12.2 87.0 12.2 86.8 12.4 C 86.8 12.5 86.4 12.7 86.2 12.8 C 86.1 12.9 85.5 13.5 85.8 13.0 C 85.9 13.0 85.9 12.9 85.9 12.9 C 85.9 12.9 85.9 12.9 85.9 12.9 C 85.9 12.9 85.9 12.5 85.9 12.5 C 85.9 12.5 85.9 12.9 85.9 12.9 C 85.7 12.8 85.6 12.8 85.5 12.7 C 85.5 12.8 85.4 12.8 85.4 12.9 C 85.4 12.9 85.4 12.9 85.4 12.9 C 85.4 12.9 85.4 12.9 85.4 12.9 C 85.5 13.0 85.5 13.0 85.4 13.1 C 85.2 13.4 84.5 13.5 84.2 13.6 C 84.4 12.6 83.4 13.3 83.0 13.6 C 82.7 13.9 83.2 14.7 83.4 14.6 C 83.1 14.7 83.0 14.7 82.8 14.5 C 82.8 14.5 82.2 14.3 82.2 14.2 C 81.5 14.4 82.0 14.9 81.9 15.1 C 81.8 15.3 81.6 15.4 81.4 15.6 C 81.2 15.7 81.5 15.8 81.5 15.9 C 81.4 16.3 80.6 16.0 80.4 16.1 C 80.6 16.0 80.7 15.8 80.8 15.6 C 80.7 15.9 80.3 15.6 80.2 15.7 C 80.0 15.7 79.7 15.9 79.5 16.0 C 79.2 16.3 78.9 16.6 78.6 16.8 C 78.7 16.8 79.5 16.9 79.5 16.9 C 79.4 17.0 79.0 17.1 79.3 17.3 C 79.8 17.6 78.8 17.9 78.6 18.0 C 78.1 18.2 77.9 19.0 77.2 18.8 C 77.2 18.8 77.8 18.2 77.7 18.2 C 77.3 17.9 77.0 17.8 76.6 18.2 C 76.5 18.2 76.0 19.0 76.0 19.0 C 76.0 18.9 77.3 19.5 76.5 19.5 C 76.3 19.5 76.5 19.2 76.3 19.2 C 76.0 19.3 75.8 19.5 75.5 19.6 C 75.5 19.7 75.0 19.8 75.0 19.8 C 75.0 20.0 75.1 20.2 75.0 20.3 C 75.0 20.5 74.7 20.5 74.6 20.3 C 74.6 20.3 74.6 20.3 74.6 20.3 C 74.5 20.3 74.5 20.3 74.4 20.2 C 74.4 20.3 74.3 20.3 74.2 20.3 C 74.1 20.3 74.3 20.1 74.4 20.1 C 74.4 20.1 74.4 20.0 74.3 20.0 C 74.2 20.1 74.0 20.3 74.0 20.3 C 73.8 20.7 73.9 20.8 73.2 20.7 C 72.6 20.7 72.3 19.4 72.4 18.6 C 72.4 18.4 72.4 18.2 72.5 18.0 Z M 85.1 9.8 C 85.1 9.8 85.1 9.7 85.0 9.7 C 85.0 9.8 85.0 9.9 84.9 10.0 C 85.1 10.1 85.0 9.8 85.1 9.9 C 85.3 10.1 85.3 10.0 85.1 9.8 Z M 85.0 11.6 C 85.2 11.6 85.1 11.6 85.1 11.5 C 85.0 11.5 85.0 11.6 85.0 11.6 Z M 85.4 12.3 C 85.6 12.1 85.1 12.1 84.8 12.4 C 85.1 12.4 85.3 12.4 85.4 12.3 Z M 85.1 13.0 C 85.0 12.9 85.0 12.9 85.0 12.8 C 85.0 12.7 84.8 13.0 84.8 12.9 C 84.8 12.8 85.0 12.6 84.8 12.6 C 84.7 12.6 84.7 12.6 84.6 12.6 C 84.6 12.6 84.6 12.7 84.6 12.7 C 84.5 12.9 84.9 13.1 85.1 13.0 Z M 83.8 9.7 C 83.9 9.7 83.8 9.6 83.8 9.6 C 83.6 9.6 83.6 9.7 83.8 9.7 Z M 82.8 8.3 C 82.9 8.4 83.0 8.5 83.0 8.3 C 82.9 8.2 82.7 8.2 82.8 8.3 Z M 80.9 10.4 C 80.9 10.4 80.9 10.4 80.8 10.4 C 80.7 10.3 80.8 10.5 80.9 10.4 Z M 80.8 11.9 C 80.7 12.0 80.9 12.2 80.9 12.1 C 80.9 12.0 80.9 11.8 80.8 11.9 Z M 80.9 8.5 C 80.8 8.5 80.8 8.6 80.9 8.6 C 81.0 8.6 81.0 8.5 80.9 8.5 Z M 81.3 10.5 C 81.2 10.4 81.1 10.4 81.1 10.5 C 81.0 10.5 81.0 10.6 81.2 10.7 C 81.3 10.8 81.4 10.7 81.3 10.5 Z M 81.4 11.8 C 81.1 12.0 81.1 12.2 81.5 11.8 C 81.9 11.5 81.6 11.7 81.4 11.8 Z M 82.0 7.3 C 82.0 7.4 82.3 7.4 82.3 7.4 C 82.3 7.4 81.8 7.0 82.0 7.3 Z M 81.4 15.2 C 81.5 15.1 81.5 14.9 81.3 15.0 C 81.1 15.1 81.2 15.2 81.4 15.2 Z M 80.6 14.6 C 80.9 14.8 81.2 14.7 81.2 14.7 C 81.2 14.7 81.1 14.4 81.2 14.4 C 81.3 14.1 81.8 14.2 81.9 13.9 C 82.0 13.5 81.5 13.8 81.4 13.9 C 81.5 13.9 81.5 13.8 81.4 13.7 C 81.3 13.6 81.3 13.7 81.2 13.8 C 81.2 13.9 80.3 14.3 80.6 14.6 Z M 80.6 11.0 C 80.7 11.1 80.9 11.0 80.7 10.8 C 80.6 10.7 80.5 10.6 80.4 10.6 C 80.4 10.7 80.4 11.0 80.6 11.0 Z M 80.4 9.9 C 80.6 9.8 80.5 9.8 80.4 9.8 C 80.1 9.7 80.2 10.0 80.4 9.9 Z M 78.2 5.2 C 78.1 5.2 78.3 5.4 78.4 5.3 C 78.4 5.2 78.3 5.2 78.2 5.2 Z M 78.3 7.1 C 78.0 7.0 78.3 7.3 78.3 7.3 C 78.4 7.3 78.5 7.1 78.3 7.1 Z M 79.5 8.2 C 79.3 8.1 79.5 8.3 79.5 8.3 C 79.6 8.2 79.5 8.2 79.5 8.2 Z M 79.6 8.9 C 79.5 8.8 79.5 9.0 79.7 9.0 C 79.8 9.0 79.7 8.9 79.6 8.9 Z M 79.2 14.9 C 79.2 14.9 79.1 14.7 79.0 14.9 C 78.9 15.1 78.9 15.1 79.2 14.9 Z M 79.6 12.8 C 79.8 12.6 80.0 12.5 79.8 11.9 C 79.6 11.3 79.4 11.5 79.4 11.9 C 79.3 12.2 79.0 11.3 78.8 12.0 C 78.8 12.3 79.5 12.9 79.6 12.8 Z M 78.5 9.0 C 78.7 9.3 79.3 9.2 79.0 9.0 C 78.6 8.7 78.3 8.7 78.5 9.0 Z M 78.5 8.7 C 78.5 8.7 78.5 8.7 78.4 8.6 C 78.3 8.5 78.4 8.7 78.5 8.7 Z M 79.0 17.6 C 79.5 17.0 78.6 17.1 78.6 17.1 C 77.8 17.3 78.4 18.1 79.0 17.6 Z M 72.6 4.9 C 72.6 4.9 72.6 5.0 72.6 5.0 C 72.6 5.0 72.6 5.0 72.6 5.0 C 72.7 5.1 72.9 4.9 72.9 4.9 C 72.8 4.8 72.7 4.8 72.6 4.9 Z M 72.5 8.8 C 72.6 8.6 72.5 8.5 72.4 8.4 C 72.1 8.4 72.1 9.6 72.7 9.2 C 72.8 9.1 73.3 8.3 73.0 8.3 C 72.8 8.2 72.6 9.1 72.5 8.8 Z M 73.0 7.5 C 73.0 8.0 73.5 7.1 73.2 7.3 C 73.1 7.3 73.0 7.4 73.0 7.5 Z M 74.0 4.1 C 73.7 3.5 72.8 3.6 73.3 4.6 C 73.8 5.5 74.2 5.6 74.1 5.1 C 73.9 4.6 74.4 5.0 74.0 4.1 Z M 74.1 9.1 C 73.4 9.0 73.6 9.3 74.1 9.5 C 74.3 9.5 74.5 9.2 74.1 9.1 Z M 74.2 10.5 C 74.2 10.7 74.2 10.7 74.3 10.6 C 74.4 10.4 74.3 10.3 74.2 10.5 Z M 74.9 3.1 C 74.8 2.8 74.5 2.7 74.7 2.7 C 74.8 2.7 74.8 2.6 74.6 2.5 C 74.5 2.3 74.5 2.7 74.5 2.8 C 74.6 2.9 75.0 3.3 74.9 3.1 Z M 77.2 8.4 C 77.1 8.3 77.2 8.5 77.3 8.5 C 77.4 8.5 77.4 8.4 77.2 8.4 Z M 78.1 13.7 C 78.1 13.7 78.0 13.5 77.9 13.6 C 77.9 13.8 77.9 13.8 78.1 13.7 Z M 77.9 17.9 C 78.0 17.8 77.7 17.8 77.8 17.6 C 77.8 17.5 77.9 17.6 77.9 17.6 C 77.9 17.6 77.8 17.1 77.6 17.4 C 77.6 17.6 77.7 18.2 77.9 17.9 Z M 77.1 9.9 C 77.3 10.1 77.5 9.2 77.6 9.3 C 77.8 9.5 77.8 9.4 77.6 9.2 C 77.4 9.0 76.9 9.6 77.1 9.9 Z M 76.9 7.6 C 76.9 7.7 77.4 8.1 77.3 7.9 C 77.2 7.7 76.9 7.5 77.1 7.5 C 77.2 7.5 77.1 7.4 77.0 7.3 C 76.9 7.1 76.9 7.5 76.9 7.6 Z M 76.7 3.8 C 76.7 3.9 77.0 4.1 76.9 3.9 C 76.8 3.8 76.6 3.8 76.7 3.8 Z M 76.7 14.3 C 76.7 14.2 76.7 14.1 76.5 14.3 C 76.4 14.4 76.6 14.5 76.7 14.3 Z M 76.0 4.2 C 76.3 4.4 76.1 4.1 76.3 4.2 C 76.4 4.3 76.5 4.3 76.2 4.1 C 76.1 3.9 75.8 4.0 76.0 4.2 Z M 76.2 17.8 C 76.2 17.7 76.1 17.5 76.0 17.6 C 76.0 17.7 76.1 17.9 76.2 17.8 Z M 75.6 16.4 C 75.7 16.3 75.7 16.3 75.8 16.3 C 76.7 15.6 75.0 16.2 75.6 16.4 Z M 75.7 14.2 C 75.7 14.5 75.9 14.1 75.9 14.1 C 75.8 14.1 75.7 14.1 75.7 14.2 Z M 75.6 11.8 C 75.5 11.8 75.5 12.0 75.6 12.0 C 75.8 11.9 75.7 11.9 75.6 11.8 Z M 75.4 19.5 C 75.5 19.5 75.5 19.4 75.4 19.4 C 75.3 19.4 75.2 19.6 75.4 19.5 Z M 75.1 13.6 C 75.2 13.6 75.2 13.6 75.2 13.5 C 75.1 13.4 75.1 13.5 75.1 13.6 Z M 74.9 6.3 C 75.0 6.4 75.1 6.5 75.1 6.5 C 75.2 6.4 75.3 6.0 75.4 6.0 C 75.4 6.0 75.4 6.0 75.5 6.0 C 75.5 6.0 75.5 6.0 75.5 6.0 C 75.6 6.0 75.6 6.1 75.6 6.1 C 75.6 6.2 75.6 6.2 75.6 6.3 C 75.8 6.2 75.9 6.0 75.8 5.9 C 75.6 5.8 75.3 5.7 75.0 5.8 C 75.0 5.8 75.0 5.9 74.9 6.0 C 74.9 6.0 75.0 6.0 75.0 6.1 C 75.1 6.1 75.2 6.3 75.1 6.3 C 75.0 6.3 74.9 6.2 74.9 6.2 C 74.9 6.2 74.9 6.3 74.9 6.3 Z M 74.8 12.7 C 74.9 12.9 74.9 12.7 75.0 12.5 C 75.0 12.3 74.7 12.5 74.8 12.7 Z M 75.1 19.2 C 75.1 19.2 75.1 19.1 75.0 19.1 C 75.0 19.1 75.0 19.1 75.0 19.2 C 75.0 19.3 74.9 19.4 74.9 19.6 C 75.1 19.5 75.2 19.5 75.1 19.2 Z M 74.4 17.2 C 74.4 17.2 74.4 18.1 74.6 17.9 C 74.9 17.7 75.2 18.1 75.1 17.4 C 75.0 17.1 74.5 16.9 74.5 16.6 C 74.1 15.1 74.1 17.0 74.0 17.4 C 74.0 17.5 74.3 17.1 74.4 17.2 Z M 73.9 15.2 C 73.7 15.1 73.6 15.3 73.6 15.4 C 73.6 15.8 74.1 15.3 73.9 15.2 Z M 73.8 19.5 C 73.8 19.5 73.8 19.5 73.9 19.5 C 73.8 19.4 73.8 19.4 73.7 19.4 C 73.7 19.4 73.7 19.4 73.8 19.5 Z M 73.6 20.5 C 74.1 20.1 73.2 20.2 73.0 20.3 C 72.7 20.4 73.4 20.7 73.6 20.5 Z M 73.2 16.3 C 73.2 16.0 72.3 15.7 72.3 16.2 C 72.4 16.7 73.1 17.0 73.2 16.3 Z M 72.0 13.2 C 72.1 13.3 71.9 13.6 71.8 13.4 C 71.7 13.3 71.9 13.1 72.0 13.2 Z M 71.6 17.9 C 71.6 17.8 71.7 17.9 71.7 17.9 C 71.6 18.0 71.6 18.0 71.6 17.9 Z M 72.2 17.5 C 72.2 17.6 72.1 17.8 72.1 17.9 C 72.1 18.0 72.0 17.7 72.0 17.7 C 72.0 17.6 72.2 17.5 72.2 17.5 Z M 72.3 14.9 C 72.2 15.1 72.1 14.9 72.2 14.8 C 72.2 14.7 72.3 14.8 72.3 14.9 Z M 72.1 15.5 C 72.1 15.5 72.2 15.5 72.2 15.6 C 72.2 15.8 72.0 15.6 72.1 15.5 Z M 72.5 14.5 C 72.6 14.7 72.7 15.1 72.5 15.1 C 72.3 15.1 72.4 14.0 72.5 14.5 Z M 72.5 14.5 " fill="#FF2600"></path></g></svg>