<?xml version="1.0" encoding="UTF-8" standalone="no"?><svg xmlns="http://www.w3.org/2000/svg" xmlns:xlink="http://www.w3.org/1999/xlink" clip-rule="evenodd" stroke-miterlimit="4.00" viewBox="0 0 1024 768"><desc>SVG generated by Keynote</desc><defs></defs><g transform="matrix(1.00, 0.00, -0.00, -1.00, 0.0, 768.0)"><path d="M 0.0 768.0 L 1024.0 768.0 L 1024.0 0.0 L 0.0 0.0 Z M 0.0 768.0 " fill="#FEFFFF"></path><text xml:space="preserve" font-family="Helvetica-Bold" font-weight="bold" font-size="80.0" fill="#000000" transform="matrix(1.00, 0.00, -0.00, -1.00, 83.0, 618.0)">R</text><text xml:space="preserve" font-family="Helvetica-Bold" font-weight="bold" font-size="80.0" fill="#000000" transform="matrix(1.00, 0.00, -0.00, -1.00, 140.8, 618.0)">e</text><text xml:space="preserve" font-family="Helvetica-Bold" font-weight="bold" font-size="80.0" fill="#000000" transform="matrix(1.00, 0.00, -0.00, -1.00, 185.3, 618.0)">s</text><text xml:space="preserve" font-family="Helvetica-Bold" font-weight="bold" font-size="80.0" fill="#000000" transform="matrix(1.00, 0.00, -0.00, -1.00, 229.8, 618.0)">u</text><text xml:space="preserve" font-family="Helvetica-Bold" font-weight="bold" font-size="80.0" fill="#000000" transform="matrix(1.00, 0.00, -0.00, -1.00, 278.7, 618.0)">l</text><text xml:space="preserve" font-family="Helvetica-Bold" font-weight="bold" font-size="80.0" fill="#000000" transform="matrix(1.00, 0.00, -0.00, -1.00, 300.9, 618.0)">t</text><text xml:space="preserve" font-family="Helvetica-Bold" font-weight="bold" font-size="80.0" fill="#000000" transform="matrix(1.00, 0.00, -0.00, -1.00, 327.5, 618.0)"> </text><text xml:space="preserve" font-family="Helvetica-Bold" font-weight="bold" font-size="80.0" fill="#000000" transform="matrix(1.00, 0.00, -0.00, -1.00, 349.7, 618.0)">a</text><text xml:space="preserve" font-family="Helvetica-Bold" font-weight="bold" font-size="80.0" fill="#000000" transform="matrix(1.00, 0.00, -0.00, -1.00, 394.2, 618.0)">n</text><text xml:space="preserve" font-family="Helvetica-Bold" font-weight="bold" font-size="80.0" fill="#000000" transform="matrix(1.00, 0.00, -0.00, -1.00, 443.1, 618.0)">d</text><text xml:space="preserve" font-family="Helvetica-Bold" font-weight="bold" font-size="80.0" fill="#000000" transform="matrix(1.00, 0.00, -0.00, -1.00, 491.9, 618.0)"> </text><text xml:space="preserve" font-family="Helvetica-Bold" font-weight="bold" font-size="80.0" fill="#000000" transform="matrix(1.00, 0.00, -0.00, -1.00, 514.1, 618.0)">D</text><text xml:space="preserve" font-family="Helvetica-Bold" font-weight="bold" font-size="80.0" fill="#000000" transform="matrix(1.00, 0.00, -0.00, -1.00, 571.9, 618.0)">i</text><text xml:space="preserve" font-family="Helvetica-Bold" font-weight="bold" font-size="80.0" fill="#000000" transform="matrix(1.00, 0.00, -0.00, -1.00, 594.1, 618.0)">s</text><text xml:space="preserve" font-family="Helvetica-Bold" font-weight="bold" font-size="80.0" fill="#000000" transform="matrix(1.00, 0.00, -0.00, -1.00, 638.6, 618.0)">c</text><text xml:space="preserve" font-family="Helvetica-Bold" font-weight="bold" font-size="80.0" fill="#000000" transform="matrix(1.00, 0.00, -0.00, -1.00, 683.2, 618.0)">u</text><text xml:space="preserve" font-family="Helvetica-Bold" font-weight="bold" font-size="80.0" fill="#000000" transform="matrix(1.00, 0.00, -0.00, -1.00, 732.0, 618.0)">s</text><text xml:space="preserve" font-family="Helvetica-Bold" font-weight="bold" font-size="80.0" fill="#000000" transform="matrix(1.00, 0.00, -0.00, -1.00, 776.5, 618.0)">s</text><text xml:space="preserve" font-family="Helvetica-Bold" font-weight="bold" font-size="80.0" fill="#000000" transform="matrix(1.00, 0.00, -0.00, -1.00, 821.0, 618.0)">i</text><text xml:space="preserve" font-family="Helvetica-Bold" font-weight="bold" font-size="80.0" fill="#000000" transform="matrix(1.00, 0.00, -0.00, -1.00, 843.2, 618.0)">o</text><text xml:space="preserve" font-family="Helvetica-Bold" font-weight="bold" font-size="80.0" fill="#000000" transform="matrix(1.00, 0.00, -0.00, -1.00, 892.1, 618.0)">n</text><g opacity="0.05"><g><clipPath id="clip-1528"><path d="M 396.0 639.0 L 1172.0 639.0 L 1172.0 -129.0 L 396.0 -129.0 Z M 396.5 639.4 "></path></clipPath><g clip-path="url(#clip-1528)"><g><clipPath id="clip-1529"><path d="M 395.0 0.0 L 1024.0 0.0 L 1024.0 641.0 L 395.0 641.0 Z M 395.0 0.0 "></path></clipPath><g clip-path="url(#clip-1529)"><image xlink:href="../../615F7CD4-E262-41F7-8138-806EC6AB1FAB/assets/9A6F1F7F57DE1899BBA6D829851F14E0.png" width="546.00" height="540.00" transform="matrix(1.42, 0.00, -0.00, -1.42, 396.0, 639.0)"></image></g></g></g></g></g><g><clipPath id="clip-1530"><path d="M 0.2 705.8 L 55.1 705.8 L 55.1 768.2 L 0.2 768.2 Z M 0.2 705.8 "></path></clipPath><g clip-path="url(#clip-1530)"><image xlink:href="../../615F7CD4-E262-41F7-8138-806EC6AB1FAB/assets/FCA65AB6163C3244B97FA67EDF156BF9.png" width="55.00" height="63.00" transform="matrix(1.00, 0.00, -0.00, -0.98, 0.0, 768.0)"></image></g></g><g><clipPath id="clip-1531"><path d="M 53.7 704.8 L 1026.5 704.8 L 1026.5 769.2 L 53.7 769.2 Z M 53.7 704.8 "></path></clipPath><g clip-path="url(#clip-1531)"><path d="M 54.7 768.2 L 1025.5 768.2 L 1025.5 705.8 L 54.7 705.8 Z M 54.7 768.2 " fill="#F15F18"></path></g></g><g><clipPath id="clip-1532"><path d="M 43.0 304.3 L 362.0 304.3 L 362.0 543.6 L 43.0 543.6 Z M 43.0 304.3 "></path></clipPath><g clip-path="url(#clip-1532)"><path d="M 43.0 544.0 L 362.0 544.0 L 362.0 304.0 L 43.0 304.0 Z M 43.0 544.0 " fill="#000000" fill-opacity="0.00"></path></g></g><g><clipPath id="clip-1533"><path d="M 43.0 304.3 L 362.0 304.3 L 362.0 543.6 L 43.0 543.6 Z M 43.0 304.3 "></path></clipPath><g clip-path="url(#clip-1533)"><g><g><clipPath id="clip-1534"><path d="M 42.0 304.0 L 363.0 304.0 L 363.0 544.0 L 42.0 544.0 Z M 42.0 304.0 "></path></clipPath><g clip-path="url(#clip-1534)"><path d="M 193.0 406.0 L 193.0 507.0 C 137.2 507.0 92.0 461.8 92.0 406.0 C 92.0 396.4 93.4 386.9 96.0 377.7 Z M 193.0 406.0 " fill="#6D6F72"></path><path d="M 193.0 406.0 L 96.0 377.7 C 111.6 324.2 167.7 293.4 221.3 309.0 C 244.1 315.7 263.8 330.2 277.0 350.0 Z M 193.0 406.0 " fill="#ADAFB3"></path><path d="M 193.0 406.0 L 277.0 350.0 C 308.0 396.4 295.4 459.1 249.0 490.0 C 232.4 501.1 212.9 507.0 193.0 507.0 Z M 193.0 406.0 " fill="#8F9297"></path></g></g></g></g></g><g><clipPath id="clip-1535"><path d="M 43.0 304.3 L 362.0 304.3 L 362.0 543.6 L 43.0 543.6 Z M 43.0 304.3 "></path></clipPath><g clip-path="url(#clip-1535)"><g><g><clipPath id="clip-1536"><path d="M 112.0 430.0 L 166.0 430.0 L 166.0 462.0 L 112.0 462.0 Z M 112.0 430.0 "></path></clipPath><g clip-path="url(#clip-1536)"><text xml:space="preserve" font-family="Helvetica-Light" font-size="26.0" fill="#FEFFFE" transform="matrix(1.00, 0.00, -0.00, -1.00, 113.0, 437.0)">3</text><text xml:space="preserve" font-family="Helvetica-Light" font-size="26.0" fill="#FEFFFE" transform="matrix(1.00, 0.00, -0.00, -1.00, 127.5, 437.0)">0</text><text xml:space="preserve" font-family="Helvetica-Light" font-size="26.0" fill="#FEFFFE" transform="matrix(1.00, 0.00, -0.00, -1.00, 141.9, 437.0)">%</text></g></g></g></g></g><g><clipPath id="clip-1537"><path d="M 43.0 304.3 L 362.0 304.3 L 362.0 543.6 L 43.0 543.6 Z M 43.0 304.3 "></path></clipPath><g clip-path="url(#clip-1537)"><g><g><clipPath id="clip-1538"><path d="M 156.0 323.0 L 210.0 323.0 L 210.0 355.0 L 156.0 355.0 Z M 156.0 323.0 "></path></clipPath><g clip-path="url(#clip-1538)"><text xml:space="preserve" font-family="Helvetica-Light" font-size="26.0" fill="#FEFFFE" transform="matrix(1.00, 0.00, -0.00, -1.00, 157.0, 329.0)">3</text><text xml:space="preserve" font-family="Helvetica-Light" font-size="26.0" fill="#FEFFFE" transform="matrix(1.00, 0.00, -0.00, -1.00, 171.5, 329.0)">6</text><text xml:space="preserve" font-family="Helvetica-Light" font-size="26.0" fill="#FEFFFE" transform="matrix(1.00, 0.00, -0.00, -1.00, 185.9, 329.0)">%</text></g></g></g></g></g><g><clipPath id="clip-1539"><path d="M 43.0 304.3 L 362.0 304.3 L 362.0 543.6 L 43.0 543.6 Z M 43.0 304.3 "></path></clipPath><g clip-path="url(#clip-1539)"><g><g><clipPath id="clip-1540"><path d="M 226.0 422.0 L 280.0 422.0 L 280.0 454.0 L 226.0 454.0 Z M 226.0 422.0 "></path></clipPath><g clip-path="url(#clip-1540)"><text xml:space="preserve" font-family="Helvetica-Light" font-size="26.0" fill="#FEFFFE" transform="matrix(1.00, 0.00, -0.00, -1.00, 227.0, 428.0)">3</text><text xml:space="preserve" font-family="Helvetica-Light" font-size="26.0" fill="#FEFFFE" transform="matrix(1.00, 0.00, -0.00, -1.00, 241.5, 428.0)">4</text><text xml:space="preserve" font-family="Helvetica-Light" font-size="26.0" fill="#FEFFFE" transform="matrix(1.00, 0.00, -0.00, -1.00, 255.9, 428.0)">%</text></g></g></g></g></g><g><clipPath id="clip-1541"><path d="M 89.0 530.5 C 89.0 525.8 85.2 522.0 80.5 522.0 C 75.8 522.0 72.0 525.8 72.0 530.5 C 72.0 535.2 75.8 539.0 80.5 539.0 C 85.2 539.0 89.0 535.2 89.0 530.5 Z M 89.0 530.5 "></path></clipPath><g clip-path="url(#clip-1541)"><g><clipPath id="clip-1542"><path d="M 43.0 304.3 L 362.0 304.3 L 362.0 543.6 L 43.0 543.6 Z M 43.0 304.3 "></path></clipPath><g clip-path="url(#clip-1542)"><path d="M 89.0 530.5 C 89.0 525.8 85.2 522.0 80.5 522.0 C 75.8 522.0 72.0 525.8 72.0 530.5 C 72.0 535.2 75.8 539.0 80.5 539.0 C 85.2 539.0 89.0 535.2 89.0 530.5 Z M 89.0 530.5 " fill="#8F9297"></path></g></g></g></g><g><clipPath id="clip-1543"><path d="M 43.0 304.3 L 362.0 304.3 L 362.0 543.6 L 43.0 543.6 Z M 43.0 304.3 "></path></clipPath><g clip-path="url(#clip-1543)"><text xml:space="preserve" font-family="Helvetica-Light" font-size="22.0" fill="#000000" transform="matrix(1.00, 0.00, -0.00, -1.00, 102.0, 523.0)">t</text><text xml:space="preserve" font-family="Helvetica-Light" font-size="22.0" fill="#000000" transform="matrix(1.00, 0.00, -0.00, -1.00, 108.1, 523.0)">a</text><text xml:space="preserve" font-family="Helvetica-Light" font-size="22.0" fill="#000000" transform="matrix(1.00, 0.00, -0.00, -1.00, 120.3, 523.0)">p</text></g></g><g><clipPath id="clip-1544"><path d="M 180.0 530.5 C 180.0 525.8 176.4 522.0 172.0 522.0 C 167.6 522.0 164.0 525.8 164.0 530.5 C 164.0 535.2 167.6 539.0 172.0 539.0 C 176.4 539.0 180.0 535.2 180.0 530.5 Z M 180.0 530.5 "></path></clipPath><g clip-path="url(#clip-1544)"><g><clipPath id="clip-1545"><path d="M 43.0 304.3 L 362.0 304.3 L 362.0 543.6 L 43.0 543.6 Z M 43.0 304.3 "></path></clipPath><g clip-path="url(#clip-1545)"><path d="M 180.0 530.5 C 180.0 525.8 176.4 522.0 172.0 522.0 C 167.6 522.0 164.0 525.8 164.0 530.5 C 164.0 535.2 167.6 539.0 172.0 539.0 C 176.4 539.0 180.0 535.2 180.0 530.5 Z M 180.0 530.5 " fill="#ADAFB3"></path></g></g></g></g><g><clipPath id="clip-1546"><path d="M 43.0 304.3 L 362.0 304.3 L 362.0 543.6 L 43.0 543.6 Z M 43.0 304.3 "></path></clipPath><g clip-path="url(#clip-1546)"><text xml:space="preserve" font-family="Helvetica-Light" font-size="22.0" fill="#000000" transform="matrix(1.00, 0.00, -0.00, -1.00, 193.0, 523.0)">s</text><text xml:space="preserve" font-family="Helvetica-Light" font-size="22.0" fill="#000000" transform="matrix(1.00, 0.00, -0.00, -1.00, 204.0, 523.0)">w</text><text xml:space="preserve" font-family="Helvetica-Light" font-size="22.0" fill="#000000" transform="matrix(1.00, 0.00, -0.00, -1.00, 219.9, 523.0)">i</text><text xml:space="preserve" font-family="Helvetica-Light" font-size="22.0" fill="#000000" transform="matrix(1.00, 0.00, -0.00, -1.00, 224.8, 523.0)">p</text><text xml:space="preserve" font-family="Helvetica-Light" font-size="22.0" fill="#000000" transform="matrix(1.00, 0.00, -0.00, -1.00, 238.2, 523.0)">e</text></g></g><g><clipPath id="clip-1547"><path d="M 297.0 530.5 C 297.0 525.8 293.2 522.0 288.5 522.0 C 283.8 522.0 280.0 525.8 280.0 530.5 C 280.0 535.2 283.8 539.0 288.5 539.0 C 293.2 539.0 297.0 535.2 297.0 530.5 Z M 297.0 530.5 "></path></clipPath><g clip-path="url(#clip-1547)"><g><clipPath id="clip-1548"><path d="M 43.0 304.3 L 362.0 304.3 L 362.0 543.6 L 43.0 543.6 Z M 43.0 304.3 "></path></clipPath><g clip-path="url(#clip-1548)"><path d="M 297.0 530.5 C 297.0 525.8 293.2 522.0 288.5 522.0 C 283.8 522.0 280.0 525.8 280.0 530.5 C 280.0 535.2 283.8 539.0 288.5 539.0 C 293.2 539.0 297.0 535.2 297.0 530.5 Z M 297.0 530.5 " fill="#6D6F72"></path></g></g></g></g><g><clipPath id="clip-1549"><path d="M 43.0 304.3 L 362.0 304.3 L 362.0 543.6 L 43.0 543.6 Z M 43.0 304.3 "></path></clipPath><g clip-path="url(#clip-1549)"><text xml:space="preserve" font-family="Helvetica-Light" font-size="22.0" fill="#000000" transform="matrix(1.00, 0.00, -0.00, -1.00, 310.0, 523.0)">t</text><text xml:space="preserve" font-family="Helvetica-Light" font-size="22.0" fill="#000000" transform="matrix(1.00, 0.00, -0.00, -1.00, 316.1, 523.0)">i</text><text xml:space="preserve" font-family="Helvetica-Light" font-size="22.0" fill="#000000" transform="matrix(1.00, 0.00, -0.00, -1.00, 321.0, 523.0)">l</text><text xml:space="preserve" font-family="Helvetica-Light" font-size="22.0" fill="#000000" transform="matrix(1.00, 0.00, -0.00, -1.00, 325.9, 523.0)">t</text></g></g><g><clipPath id="clip-1550"><path d="M 160.5 552.1 L 244.5 552.1 L 244.5 591.6 L 160.5 591.6 Z M 160.5 552.1 "></path></clipPath><g clip-path="url(#clip-1550)"><text xml:space="preserve" font-family="Helvetica-Bold" font-weight="bold" font-size="23.0" fill="#000000" transform="matrix(1.00, 0.00, -0.00, -1.00, 167.0, 563.0)">S</text><text xml:space="preserve" font-family="Helvetica-Bold" font-weight="bold" font-size="23.0" fill="#000000" transform="matrix(1.00, 0.00, -0.00, -1.00, 182.3, 563.0)">i</text><text xml:space="preserve" font-family="Helvetica-Bold" font-weight="bold" font-size="23.0" fill="#000000" transform="matrix(1.00, 0.00, -0.00, -1.00, 188.7, 563.0)">t</text><text xml:space="preserve" font-family="Helvetica-Bold" font-weight="bold" font-size="23.0" fill="#000000" transform="matrix(1.00, 0.00, -0.00, -1.00, 196.4, 563.0)">t</text><text xml:space="preserve" font-family="Helvetica-Bold" font-weight="bold" font-size="23.0" fill="#000000" transform="matrix(1.00, 0.00, -0.00, -1.00, 204.0, 563.0)">i</text><text xml:space="preserve" font-family="Helvetica-Bold" font-weight="bold" font-size="23.0" fill="#000000" transform="matrix(1.00, 0.00, -0.00, -1.00, 210.4, 563.0)">n</text><text xml:space="preserve" font-family="Helvetica-Bold" font-weight="bold" font-size="23.0" fill="#000000" transform="matrix(1.00, 0.00, -0.00, -1.00, 224.5, 563.0)">g</text></g></g><g><clipPath id="clip-1551"><path d="M 347.9 302.3 L 707.9 302.3 L 707.9 543.6 L 347.9 543.6 Z M 347.9 302.3 "></path></clipPath><g clip-path="url(#clip-1551)"><path d="M 348.0 544.0 L 708.0 544.0 L 708.0 302.0 L 348.0 302.0 Z M 348.0 544.0 " fill="#000000" fill-opacity="0.00"></path></g></g><g><clipPath id="clip-1552"><path d="M 347.9 302.3 L 707.9 302.3 L 707.9 543.6 L 347.9 543.6 Z M 347.9 302.3 "></path></clipPath><g clip-path="url(#clip-1552)"><g><g><clipPath id="clip-1553"><path d="M 347.0 302.0 L 708.0 302.0 L 708.0 544.0 L 347.0 544.0 Z M 347.0 302.0 "></path></clipPath><g clip-path="url(#clip-1553)"><path d="M 528.0 404.0 L 528.0 505.0 C 472.2 505.0 427.0 459.8 427.0 404.0 C 427.0 391.5 429.3 379.2 433.8 367.6 Z M 528.0 404.0 " fill="#6D6F72"></path><path d="M 528.0 404.0 L 433.8 367.6 C 453.9 315.5 512.4 289.7 564.4 309.8 C 577.4 314.8 589.2 322.4 599.0 332.2 Z M 528.0 404.0 " fill="#ADAFB3"></path><path d="M 528.0 404.0 L 599.0 332.2 C 638.7 371.4 639.0 435.4 599.8 475.0 C 580.8 494.2 555.0 505.0 528.0 505.0 Z M 528.0 404.0 " fill="#8F9297"></path></g></g></g></g></g><g><clipPath id="clip-1554"><path d="M 347.9 302.3 L 707.9 302.3 L 707.9 543.6 L 347.9 543.6 Z M 347.9 302.3 "></path></clipPath><g clip-path="url(#clip-1554)"><g><g><clipPath id="clip-1555"><path d="M 445.0 426.0 L 499.0 426.0 L 499.0 458.0 L 445.0 458.0 Z M 445.0 426.0 "></path></clipPath><g clip-path="url(#clip-1555)"><text xml:space="preserve" font-family="Helvetica-Light" font-size="26.0" fill="#FEFFFE" transform="matrix(1.00, 0.00, -0.00, -1.00, 446.0, 433.0)">3</text><text xml:space="preserve" font-family="Helvetica-Light" font-size="26.0" fill="#FEFFFE" transform="matrix(1.00, 0.00, -0.00, -1.00, 460.5, 433.0)">1</text><text xml:space="preserve" font-family="Helvetica-Light" font-size="26.0" fill="#FEFFFE" transform="matrix(1.00, 0.00, -0.00, -1.00, 474.9, 433.0)">%</text></g></g></g></g></g><g><clipPath id="clip-1556"><path d="M 347.9 302.3 L 707.9 302.3 L 707.9 543.6 L 347.9 543.6 Z M 347.9 302.3 "></path></clipPath><g clip-path="url(#clip-1556)"><g><g><clipPath id="clip-1557"><path d="M 487.0 322.0 L 541.0 322.0 L 541.0 354.0 L 487.0 354.0 Z M 487.0 322.0 "></path></clipPath><g clip-path="url(#clip-1557)"><text xml:space="preserve" font-family="Helvetica-Light" font-size="26.0" fill="#FEFFFE" transform="matrix(1.00, 0.00, -0.00, -1.00, 488.0, 328.0)">3</text><text xml:space="preserve" font-family="Helvetica-Light" font-size="26.0" fill="#FEFFFE" transform="matrix(1.00, 0.00, -0.00, -1.00, 502.5, 328.0)">2</text><text xml:space="preserve" font-family="Helvetica-Light" font-size="26.0" fill="#FEFFFE" transform="matrix(1.00, 0.00, -0.00, -1.00, 516.9, 328.0)">%</text></g></g></g></g></g><g><clipPath id="clip-1558"><path d="M 347.9 302.3 L 707.9 302.3 L 707.9 543.6 L 347.9 543.6 Z M 347.9 302.3 "></path></clipPath><g clip-path="url(#clip-1558)"><g><g><clipPath id="clip-1559"><path d="M 563.0 414.0 L 617.0 414.0 L 617.0 446.0 L 563.0 446.0 Z M 563.0 414.0 "></path></clipPath><g clip-path="url(#clip-1559)"><text xml:space="preserve" font-family="Helvetica-Light" font-size="26.0" fill="#FEFFFE" transform="matrix(1.00, 0.00, -0.00, -1.00, 564.0, 420.0)">3</text><text xml:space="preserve" font-family="Helvetica-Light" font-size="26.0" fill="#FEFFFE" transform="matrix(1.00, 0.00, -0.00, -1.00, 578.5, 420.0)">8</text><text xml:space="preserve" font-family="Helvetica-Light" font-size="26.0" fill="#FEFFFE" transform="matrix(1.00, 0.00, -0.00, -1.00, 592.9, 420.0)">%</text></g></g></g></g></g><g><clipPath id="clip-1560"><path d="M 404.0 530.5 C 404.0 525.8 400.2 522.0 395.5 522.0 C 390.8 522.0 387.0 525.8 387.0 530.5 C 387.0 535.2 390.8 539.0 395.5 539.0 C 400.2 539.0 404.0 535.2 404.0 530.5 Z M 404.0 530.5 "></path></clipPath><g clip-path="url(#clip-1560)"><g><clipPath id="clip-1561"><path d="M 347.9 302.3 L 707.9 302.3 L 707.9 543.6 L 347.9 543.6 Z M 347.9 302.3 "></path></clipPath><g clip-path="url(#clip-1561)"><path d="M 404.0 530.5 C 404.0 525.8 400.2 522.0 395.5 522.0 C 390.8 522.0 387.0 525.8 387.0 530.5 C 387.0 535.2 390.8 539.0 395.5 539.0 C 400.2 539.0 404.0 535.2 404.0 530.5 Z M 404.0 530.5 " fill="#8F9297"></path></g></g></g></g><g><clipPath id="clip-1562"><path d="M 347.9 302.3 L 707.9 302.3 L 707.9 543.6 L 347.9 543.6 Z M 347.9 302.3 "></path></clipPath><g clip-path="url(#clip-1562)"><text xml:space="preserve" font-family="Helvetica-Light" font-size="22.0" fill="#000000" transform="matrix(1.00, 0.00, -0.00, -1.00, 417.0, 523.0)">t</text><text xml:space="preserve" font-family="Helvetica-Light" font-size="22.0" fill="#000000" transform="matrix(1.00, 0.00, -0.00, -1.00, 423.1, 523.0)">a</text><text xml:space="preserve" font-family="Helvetica-Light" font-size="22.0" fill="#000000" transform="matrix(1.00, 0.00, -0.00, -1.00, 435.3, 523.0)">p</text></g></g><g><clipPath id="clip-1563"><path d="M 506.0 530.5 C 506.0 525.8 502.2 522.0 497.5 522.0 C 492.8 522.0 489.0 525.8 489.0 530.5 C 489.0 535.2 492.8 539.0 497.5 539.0 C 502.2 539.0 506.0 535.2 506.0 530.5 Z M 506.0 530.5 "></path></clipPath><g clip-path="url(#clip-1563)"><g><clipPath id="clip-1564"><path d="M 347.9 302.3 L 707.9 302.3 L 707.9 543.6 L 347.9 543.6 Z M 347.9 302.3 "></path></clipPath><g clip-path="url(#clip-1564)"><path d="M 506.0 530.5 C 506.0 525.8 502.2 522.0 497.5 522.0 C 492.8 522.0 489.0 525.8 489.0 530.5 C 489.0 535.2 492.8 539.0 497.5 539.0 C 502.2 539.0 506.0 535.2 506.0 530.5 Z M 506.0 530.5 " fill="#ADAFB3"></path></g></g></g></g><g><clipPath id="clip-1565"><path d="M 347.9 302.3 L 707.9 302.3 L 707.9 543.6 L 347.9 543.6 Z M 347.9 302.3 "></path></clipPath><g clip-path="url(#clip-1565)"><text xml:space="preserve" font-family="Helvetica-Light" font-size="22.0" fill="#000000" transform="matrix(1.00, 0.00, -0.00, -1.00, 519.0, 523.0)">s</text><text xml:space="preserve" font-family="Helvetica-Light" font-size="22.0" fill="#000000" transform="matrix(1.00, 0.00, -0.00, -1.00, 530.0, 523.0)">w</text><text xml:space="preserve" font-family="Helvetica-Light" font-size="22.0" fill="#000000" transform="matrix(1.00, 0.00, -0.00, -1.00, 545.9, 523.0)">i</text><text xml:space="preserve" font-family="Helvetica-Light" font-size="22.0" fill="#000000" transform="matrix(1.00, 0.00, -0.00, -1.00, 550.8, 523.0)">p</text><text xml:space="preserve" font-family="Helvetica-Light" font-size="22.0" fill="#000000" transform="matrix(1.00, 0.00, -0.00, -1.00, 564.2, 523.0)">e</text></g></g><g><clipPath id="clip-1566"><path d="M 633.0 530.5 C 633.0 525.8 629.2 522.0 624.5 522.0 C 619.8 522.0 616.0 525.8 616.0 530.5 C 616.0 535.2 619.8 539.0 624.5 539.0 C 629.2 539.0 633.0 535.2 633.0 530.5 Z M 633.0 530.5 "></path></clipPath><g clip-path="url(#clip-1566)"><g><clipPath id="clip-1567"><path d="M 347.9 302.3 L 707.9 302.3 L 707.9 543.6 L 347.9 543.6 Z M 347.9 302.3 "></path></clipPath><g clip-path="url(#clip-1567)"><path d="M 633.0 530.5 C 633.0 525.8 629.2 522.0 624.5 522.0 C 619.8 522.0 616.0 525.8 616.0 530.5 C 616.0 535.2 619.8 539.0 624.5 539.0 C 629.2 539.0 633.0 535.2 633.0 530.5 Z M 633.0 530.5 " fill="#6D6F72"></path></g></g></g></g><g><clipPath id="clip-1568"><path d="M 347.9 302.3 L 707.9 302.3 L 707.9 543.6 L 347.9 543.6 Z M 347.9 302.3 "></path></clipPath><g clip-path="url(#clip-1568)"><text xml:space="preserve" font-family="Helvetica-Light" font-size="22.0" fill="#000000" transform="matrix(1.00, 0.00, -0.00, -1.00, 646.0, 523.0)">t</text><text xml:space="preserve" font-family="Helvetica-Light" font-size="22.0" fill="#000000" transform="matrix(1.00, 0.00, -0.00, -1.00, 652.1, 523.0)">i</text><text xml:space="preserve" font-family="Helvetica-Light" font-size="22.0" fill="#000000" transform="matrix(1.00, 0.00, -0.00, -1.00, 657.0, 523.0)">l</text><text xml:space="preserve" font-family="Helvetica-Light" font-size="22.0" fill="#000000" transform="matrix(1.00, 0.00, -0.00, -1.00, 661.9, 523.0)">t</text></g></g><g><clipPath id="clip-1569"><path d="M 472.4 552.1 L 583.3 552.1 L 583.3 591.6 L 472.4 591.6 Z M 472.4 552.1 "></path></clipPath><g clip-path="url(#clip-1569)"><text xml:space="preserve" font-family="Helvetica-Bold" font-weight="bold" font-size="23.0" fill="#000000" transform="matrix(1.00, 0.00, -0.00, -1.00, 479.0, 563.0)">S</text><text xml:space="preserve" font-family="Helvetica-Bold" font-weight="bold" font-size="23.0" fill="#000000" transform="matrix(1.00, 0.00, -0.00, -1.00, 494.3, 563.0)">t</text><text xml:space="preserve" font-family="Helvetica-Bold" font-weight="bold" font-size="23.0" fill="#000000" transform="matrix(1.00, 0.00, -0.00, -1.00, 502.0, 563.0)">a</text><text xml:space="preserve" font-family="Helvetica-Bold" font-weight="bold" font-size="23.0" fill="#000000" transform="matrix(1.00, 0.00, -0.00, -1.00, 514.8, 563.0)">n</text><text xml:space="preserve" font-family="Helvetica-Bold" font-weight="bold" font-size="23.0" fill="#000000" transform="matrix(1.00, 0.00, -0.00, -1.00, 528.8, 563.0)">d</text><text xml:space="preserve" font-family="Helvetica-Bold" font-weight="bold" font-size="23.0" fill="#000000" transform="matrix(1.00, 0.00, -0.00, -1.00, 542.9, 563.0)">i</text><text xml:space="preserve" font-family="Helvetica-Bold" font-weight="bold" font-size="23.0" fill="#000000" transform="matrix(1.00, 0.00, -0.00, -1.00, 549.3, 563.0)">n</text><text xml:space="preserve" font-family="Helvetica-Bold" font-weight="bold" font-size="23.0" fill="#000000" transform="matrix(1.00, 0.00, -0.00, -1.00, 563.3, 563.0)">g</text></g></g><g><clipPath id="clip-1570"><path d="M 667.7 301.0 L 1027.7 301.0 L 1027.7 542.3 L 667.7 542.3 Z M 667.7 301.0 "></path></clipPath><g clip-path="url(#clip-1570)"><path d="M 668.0 542.0 L 1028.0 542.0 L 1028.0 301.0 L 668.0 301.0 Z M 668.0 542.0 " fill="#000000" fill-opacity="0.00"></path></g></g><g><clipPath id="clip-1571"><path d="M 667.7 301.0 L 1027.7 301.0 L 1027.7 542.3 L 667.7 542.3 Z M 667.7 301.0 "></path></clipPath><g clip-path="url(#clip-1571)"><g><g><clipPath id="clip-1572"><path d="M 667.0 301.0 L 1024.0 301.0 L 1024.0 543.0 L 667.0 543.0 Z M 667.0 301.0 "></path></clipPath><g clip-path="url(#clip-1572)"><path d="M 848.0 403.0 L 848.0 504.0 C 792.2 504.0 747.0 458.8 747.0 403.0 C 747.0 392.4 748.7 381.9 751.9 371.8 Z M 848.0 403.0 " fill="#6D6F72"></path><path d="M 848.0 403.0 L 751.9 371.8 C 769.2 318.7 826.2 289.7 879.2 306.9 C 896.1 312.4 911.2 322.2 923.1 335.4 Z M 848.0 403.0 " fill="#ADAFB3"></path><path d="M 848.0 403.0 L 923.1 335.4 C 960.4 376.9 957.0 440.7 915.6 478.1 C 897.0 494.8 873.0 504.0 848.0 504.0 Z M 848.0 403.0 " fill="#8F9297"></path></g></g></g></g></g><g><clipPath id="clip-1573"><path d="M 667.7 301.0 L 1027.7 301.0 L 1027.7 542.3 L 667.7 542.3 Z M 667.7 301.0 "></path></clipPath><g clip-path="url(#clip-1573)"><g><g><clipPath id="clip-1574"><path d="M 766.0 426.0 L 820.0 426.0 L 820.0 458.0 L 766.0 458.0 Z M 766.0 426.0 "></path></clipPath><g clip-path="url(#clip-1574)"><text xml:space="preserve" font-family="Helvetica-Light" font-size="26.0" fill="#FEFFFE" transform="matrix(1.00, 0.00, -0.00, -1.00, 767.0, 433.0)">3</text><text xml:space="preserve" font-family="Helvetica-Light" font-size="26.0" fill="#FEFFFE" transform="matrix(1.00, 0.00, -0.00, -1.00, 781.5, 433.0)">0</text><text xml:space="preserve" font-family="Helvetica-Light" font-size="26.0" fill="#FEFFFE" transform="matrix(1.00, 0.00, -0.00, -1.00, 795.9, 433.0)">%</text></g></g></g></g></g><g><clipPath id="clip-1575"><path d="M 667.7 301.0 L 1027.7 301.0 L 1027.7 542.3 L 667.7 542.3 Z M 667.7 301.0 "></path></clipPath><g clip-path="url(#clip-1575)"><g><g><clipPath id="clip-1576"><path d="M 807.0 320.0 L 861.0 320.0 L 861.0 352.0 L 807.0 352.0 Z M 807.0 320.0 "></path></clipPath><g clip-path="url(#clip-1576)"><text xml:space="preserve" font-family="Helvetica-Light" font-size="26.0" fill="#FEFFFE" transform="matrix(1.00, 0.00, -0.00, -1.00, 808.0, 327.0)">3</text><text xml:space="preserve" font-family="Helvetica-Light" font-size="26.0" fill="#FEFFFE" transform="matrix(1.00, 0.00, -0.00, -1.00, 822.5, 327.0)">3</text><text xml:space="preserve" font-family="Helvetica-Light" font-size="26.0" fill="#FEFFFE" transform="matrix(1.00, 0.00, -0.00, -1.00, 836.9, 327.0)">%</text></g></g></g></g></g><g><clipPath id="clip-1577"><path d="M 667.7 301.0 L 1027.7 301.0 L 1027.7 542.3 L 667.7 542.3 Z M 667.7 301.0 "></path></clipPath><g clip-path="url(#clip-1577)"><g><g><clipPath id="clip-1578"><path d="M 883.0 414.0 L 937.0 414.0 L 937.0 446.0 L 883.0 446.0 Z M 883.0 414.0 "></path></clipPath><g clip-path="url(#clip-1578)"><text xml:space="preserve" font-family="Helvetica-Light" font-size="26.0" fill="#FEFFFE" transform="matrix(1.00, 0.00, -0.00, -1.00, 884.0, 421.0)">3</text><text xml:space="preserve" font-family="Helvetica-Light" font-size="26.0" fill="#FEFFFE" transform="matrix(1.00, 0.00, -0.00, -1.00, 898.5, 421.0)">7</text><text xml:space="preserve" font-family="Helvetica-Light" font-size="26.0" fill="#FEFFFE" transform="matrix(1.00, 0.00, -0.00, -1.00, 912.9, 421.0)">%</text></g></g></g></g></g><g><clipPath id="clip-1579"><path d="M 724.0 529.5 C 724.0 524.8 720.2 521.0 715.5 521.0 C 710.8 521.0 707.0 524.8 707.0 529.5 C 707.0 534.2 710.8 538.0 715.5 538.0 C 720.2 538.0 724.0 534.2 724.0 529.5 Z M 724.0 529.5 "></path></clipPath><g clip-path="url(#clip-1579)"><g><clipPath id="clip-1580"><path d="M 667.7 301.0 L 1027.7 301.0 L 1027.7 542.3 L 667.7 542.3 Z M 667.7 301.0 "></path></clipPath><g clip-path="url(#clip-1580)"><path d="M 724.0 529.5 C 724.0 524.8 720.2 521.0 715.5 521.0 C 710.8 521.0 707.0 524.8 707.0 529.5 C 707.0 534.2 710.8 538.0 715.5 538.0 C 720.2 538.0 724.0 534.2 724.0 529.5 Z M 724.0 529.5 " fill="#8F9297"></path></g></g></g></g><g><clipPath id="clip-1581"><path d="M 667.7 301.0 L 1027.7 301.0 L 1027.7 542.3 L 667.7 542.3 Z M 667.7 301.0 "></path></clipPath><g clip-path="url(#clip-1581)"><text xml:space="preserve" font-family="Helvetica-Light" font-size="22.0" fill="#000000" transform="matrix(1.00, 0.00, -0.00, -1.00, 737.0, 521.0)">t</text><text xml:space="preserve" font-family="Helvetica-Light" font-size="22.0" fill="#000000" transform="matrix(1.00, 0.00, -0.00, -1.00, 743.1, 521.0)">a</text><text xml:space="preserve" font-family="Helvetica-Light" font-size="22.0" fill="#000000" transform="matrix(1.00, 0.00, -0.00, -1.00, 755.3, 521.0)">p</text></g></g><g><clipPath id="clip-1582"><path d="M 826.0 529.5 C 826.0 524.8 822.2 521.0 817.5 521.0 C 812.8 521.0 809.0 524.8 809.0 529.5 C 809.0 534.2 812.8 538.0 817.5 538.0 C 822.2 538.0 826.0 534.2 826.0 529.5 Z M 826.0 529.5 "></path></clipPath><g clip-path="url(#clip-1582)"><g><clipPath id="clip-1583"><path d="M 667.7 301.0 L 1027.7 301.0 L 1027.7 542.3 L 667.7 542.3 Z M 667.7 301.0 "></path></clipPath><g clip-path="url(#clip-1583)"><path d="M 826.0 529.5 C 826.0 524.8 822.2 521.0 817.5 521.0 C 812.8 521.0 809.0 524.8 809.0 529.5 C 809.0 534.2 812.8 538.0 817.5 538.0 C 822.2 538.0 826.0 534.2 826.0 529.5 Z M 826.0 529.5 " fill="#ADAFB3"></path></g></g></g></g><g><clipPath id="clip-1584"><path d="M 667.7 301.0 L 1027.7 301.0 L 1027.7 542.3 L 667.7 542.3 Z M 667.7 301.0 "></path></clipPath><g clip-path="url(#clip-1584)"><text xml:space="preserve" font-family="Helvetica-Light" font-size="22.0" fill="#000000" transform="matrix(1.00, 0.00, -0.00, -1.00, 839.0, 521.0)">s</text><text xml:space="preserve" font-family="Helvetica-Light" font-size="22.0" fill="#000000" transform="matrix(1.00, 0.00, -0.00, -1.00, 850.0, 521.0)">w</text><text xml:space="preserve" font-family="Helvetica-Light" font-size="22.0" fill="#000000" transform="matrix(1.00, 0.00, -0.00, -1.00, 865.9, 521.0)">i</text><text xml:space="preserve" font-family="Helvetica-Light" font-size="22.0" fill="#000000" transform="matrix(1.00, 0.00, -0.00, -1.00, 870.8, 521.0)">p</text><text xml:space="preserve" font-family="Helvetica-Light" font-size="22.0" fill="#000000" transform="matrix(1.00, 0.00, -0.00, -1.00, 884.2, 521.0)">e</text></g></g><g><clipPath id="clip-1585"><path d="M 953.0 529.5 C 953.0 524.8 949.2 521.0 944.5 521.0 C 939.8 521.0 936.0 524.8 936.0 529.5 C 936.0 534.2 939.8 538.0 944.5 538.0 C 949.2 538.0 953.0 534.2 953.0 529.5 Z M 953.0 529.5 "></path></clipPath><g clip-path="url(#clip-1585)"><g><clipPath id="clip-1586"><path d="M 667.7 301.0 L 1027.7 301.0 L 1027.7 542.3 L 667.7 542.3 Z M 667.7 301.0 "></path></clipPath><g clip-path="url(#clip-1586)"><path d="M 953.0 529.5 C 953.0 524.8 949.2 521.0 944.5 521.0 C 939.8 521.0 936.0 524.8 936.0 529.5 C 936.0 534.2 939.8 538.0 944.5 538.0 C 949.2 538.0 953.0 534.2 953.0 529.5 Z M 953.0 529.5 " fill="#6D6F72"></path></g></g></g></g><g><clipPath id="clip-1587"><path d="M 667.7 301.0 L 1027.7 301.0 L 1027.7 542.3 L 667.7 542.3 Z M 667.7 301.0 "></path></clipPath><g clip-path="url(#clip-1587)"><text xml:space="preserve" font-family="Helvetica-Light" font-size="22.0" fill="#000000" transform="matrix(1.00, 0.00, -0.00, -1.00, 966.0, 521.0)">t</text><text xml:space="preserve" font-family="Helvetica-Light" font-size="22.0" fill="#000000" transform="matrix(1.00, 0.00, -0.00, -1.00, 972.1, 521.0)">i</text><text xml:space="preserve" font-family="Helvetica-Light" font-size="22.0" fill="#000000" transform="matrix(1.00, 0.00, -0.00, -1.00, 977.0, 521.0)">l</text><text xml:space="preserve" font-family="Helvetica-Light" font-size="22.0" fill="#000000" transform="matrix(1.00, 0.00, -0.00, -1.00, 981.9, 521.0)">t</text></g></g><g><clipPath id="clip-1588"><path d="M 811.2 553.4 L 884.2 553.4 L 884.2 592.9 L 811.2 592.9 Z M 811.2 553.4 "></path></clipPath><g clip-path="url(#clip-1588)"><text xml:space="preserve" font-family="Helvetica-Bold" font-weight="bold" font-size="23.0" fill="#000000" transform="matrix(1.00, 0.00, -0.00, -1.00, 817.0, 564.0)">L</text><text xml:space="preserve" font-family="Helvetica-Bold" font-weight="bold" font-size="23.0" fill="#000000" transform="matrix(1.00, 0.00, -0.00, -1.00, 830.2, 564.0)">y</text><text xml:space="preserve" font-family="Helvetica-Bold" font-weight="bold" font-size="23.0" fill="#000000" transform="matrix(1.00, 0.00, -0.00, -1.00, 843.0, 564.0)">i</text><text xml:space="preserve" font-family="Helvetica-Bold" font-weight="bold" font-size="23.0" fill="#000000" transform="matrix(1.00, 0.00, -0.00, -1.00, 849.4, 564.0)">n</text><text xml:space="preserve" font-family="Helvetica-Bold" font-weight="bold" font-size="23.0" fill="#000000" transform="matrix(1.00, 0.00, -0.00, -1.00, 863.4, 564.0)">g</text></g></g><g><clipPath id="clip-1589"><path d="M 22.5 15.3 L 382.5 15.3 L 382.5 250.1 L 22.5 250.1 Z M 22.5 15.3 "></path></clipPath><g clip-path="url(#clip-1589)"><path d="M 22.0 250.0 L 382.0 250.0 L 382.0 15.0 L 22.0 15.0 Z M 22.0 250.0 " fill="#000000" fill-opacity="0.00"></path></g></g><g><clipPath id="clip-1590"><path d="M 22.5 15.3 L 382.5 15.3 L 382.5 250.1 L 22.5 250.1 Z M 22.5 15.3 "></path></clipPath><g clip-path="url(#clip-1590)"><g><g><clipPath id="clip-1591"><path d="M 22.0 15.0 L 383.0 15.0 L 383.0 251.0 L 22.0 251.0 Z M 22.0 15.0 "></path></clipPath><g clip-path="url(#clip-1591)"><path d="M 202.0 117.0 L 202.0 218.0 C 146.2 218.0 101.0 172.8 101.0 117.0 C 101.0 95.2 108.0 74.0 121.1 56.6 Z M 202.0 117.0 " fill="#6D6F72"></path><path d="M 202.0 117.0 L 121.1 56.6 C 154.4 11.9 217.7 2.7 262.4 36.1 C 274.8 45.3 284.9 57.3 292.0 71.1 Z M 202.0 117.0 " fill="#ADAFB3"></path><path d="M 202.0 117.0 L 292.0 71.1 C 317.3 120.8 297.6 181.6 247.9 207.0 C 233.7 214.2 218.0 218.0 202.0 218.0 Z M 202.0 117.0 " fill="#8F9297"></path></g></g></g></g></g><g><clipPath id="clip-1592"><path d="M 22.5 15.3 L 382.5 15.3 L 382.5 250.1 L 22.5 250.1 Z M 22.5 15.3 "></path></clipPath><g clip-path="url(#clip-1592)"><g><g><clipPath id="clip-1593"><path d="M 115.0 131.0 L 169.0 131.0 L 169.0 163.0 L 115.0 163.0 Z M 115.0 131.0 "></path></clipPath><g clip-path="url(#clip-1593)"><text xml:space="preserve" font-family="Helvetica-Light" font-size="26.0" fill="#FEFFFE" transform="matrix(1.00, 0.00, -0.00, -1.00, 116.0, 138.0)">3</text><text xml:space="preserve" font-family="Helvetica-Light" font-size="26.0" fill="#FEFFFE" transform="matrix(1.00, 0.00, -0.00, -1.00, 130.5, 138.0)">5</text><text xml:space="preserve" font-family="Helvetica-Light" font-size="26.0" fill="#FEFFFE" transform="matrix(1.00, 0.00, -0.00, -1.00, 144.9, 138.0)">%</text></g></g></g></g></g><g><clipPath id="clip-1594"><path d="M 22.5 15.3 L 382.5 15.3 L 382.5 250.1 L 22.5 250.1 Z M 22.5 15.3 "></path></clipPath><g clip-path="url(#clip-1594)"><g><g><clipPath id="clip-1595"><path d="M 181.0 33.0 L 235.0 33.0 L 235.0 65.0 L 181.0 65.0 Z M 181.0 33.0 "></path></clipPath><g clip-path="url(#clip-1595)"><text xml:space="preserve" font-family="Helvetica-Light" font-size="26.0" fill="#FEFFFE" transform="matrix(1.00, 0.00, -0.00, -1.00, 182.0, 40.0)">3</text><text xml:space="preserve" font-family="Helvetica-Light" font-size="26.0" fill="#FEFFFE" transform="matrix(1.00, 0.00, -0.00, -1.00, 196.5, 40.0)">2</text><text xml:space="preserve" font-family="Helvetica-Light" font-size="26.0" fill="#FEFFFE" transform="matrix(1.00, 0.00, -0.00, -1.00, 210.9, 40.0)">%</text></g></g></g></g></g><g><clipPath id="clip-1596"><path d="M 22.5 15.3 L 382.5 15.3 L 382.5 250.1 L 22.5 250.1 Z M 22.5 15.3 "></path></clipPath><g clip-path="url(#clip-1596)"><g><g><clipPath id="clip-1597"><path d="M 233.0 136.0 L 287.0 136.0 L 287.0 168.0 L 233.0 168.0 Z M 233.0 136.0 "></path></clipPath><g clip-path="url(#clip-1597)"><text xml:space="preserve" font-family="Helvetica-Light" font-size="26.0" fill="#FEFFFE" transform="matrix(1.00, 0.00, -0.00, -1.00, 234.0, 143.0)">3</text><text xml:space="preserve" font-family="Helvetica-Light" font-size="26.0" fill="#FEFFFE" transform="matrix(1.00, 0.00, -0.00, -1.00, 248.5, 143.0)">3</text><text xml:space="preserve" font-family="Helvetica-Light" font-size="26.0" fill="#FEFFFE" transform="matrix(1.00, 0.00, -0.00, -1.00, 262.9, 143.0)">%</text></g></g></g></g></g><g><clipPath id="clip-1598"><path d="M 79.0 237.5 C 79.0 232.8 75.2 229.0 70.5 229.0 C 65.8 229.0 62.0 232.8 62.0 237.5 C 62.0 242.2 65.8 246.0 70.5 246.0 C 75.2 246.0 79.0 242.2 79.0 237.5 Z M 79.0 237.5 "></path></clipPath><g clip-path="url(#clip-1598)"><g><clipPath id="clip-1599"><path d="M 22.5 15.3 L 382.5 15.3 L 382.5 250.1 L 22.5 250.1 Z M 22.5 15.3 "></path></clipPath><g clip-path="url(#clip-1599)"><path d="M 79.0 237.5 C 79.0 232.8 75.2 229.0 70.5 229.0 C 65.8 229.0 62.0 232.8 62.0 237.5 C 62.0 242.2 65.8 246.0 70.5 246.0 C 75.2 246.0 79.0 242.2 79.0 237.5 Z M 79.0 237.5 " fill="#8F9297"></path></g></g></g></g><g><clipPath id="clip-1600"><path d="M 22.5 15.3 L 382.5 15.3 L 382.5 250.1 L 22.5 250.1 Z M 22.5 15.3 "></path></clipPath><g clip-path="url(#clip-1600)"><text xml:space="preserve" font-family="Helvetica-Light" font-size="22.0" fill="#000000" transform="matrix(1.00, 0.00, -0.00, -1.00, 92.0, 229.0)">t</text><text xml:space="preserve" font-family="Helvetica-Light" font-size="22.0" fill="#000000" transform="matrix(1.00, 0.00, -0.00, -1.00, 98.1, 229.0)">a</text><text xml:space="preserve" font-family="Helvetica-Light" font-size="22.0" fill="#000000" transform="matrix(1.00, 0.00, -0.00, -1.00, 110.3, 229.0)">p</text></g></g><g><clipPath id="clip-1601"><path d="M 180.0 237.5 C 180.0 232.8 176.4 229.0 172.0 229.0 C 167.6 229.0 164.0 232.8 164.0 237.5 C 164.0 242.2 167.6 246.0 172.0 246.0 C 176.4 246.0 180.0 242.2 180.0 237.5 Z M 180.0 237.5 "></path></clipPath><g clip-path="url(#clip-1601)"><g><clipPath id="clip-1602"><path d="M 22.5 15.3 L 382.5 15.3 L 382.5 250.1 L 22.5 250.1 Z M 22.5 15.3 "></path></clipPath><g clip-path="url(#clip-1602)"><path d="M 180.0 237.5 C 180.0 232.8 176.4 229.0 172.0 229.0 C 167.6 229.0 164.0 232.8 164.0 237.5 C 164.0 242.2 167.6 246.0 172.0 246.0 C 176.4 246.0 180.0 242.2 180.0 237.5 Z M 180.0 237.5 " fill="#ADAFB3"></path></g></g></g></g><g><clipPath id="clip-1603"><path d="M 22.5 15.3 L 382.5 15.3 L 382.5 250.1 L 22.5 250.1 Z M 22.5 15.3 "></path></clipPath><g clip-path="url(#clip-1603)"><text xml:space="preserve" font-family="Helvetica-Light" font-size="22.0" fill="#000000" transform="matrix(1.00, 0.00, -0.00, -1.00, 193.0, 229.0)">s</text><text xml:space="preserve" font-family="Helvetica-Light" font-size="22.0" fill="#000000" transform="matrix(1.00, 0.00, -0.00, -1.00, 204.0, 229.0)">w</text><text xml:space="preserve" font-family="Helvetica-Light" font-size="22.0" fill="#000000" transform="matrix(1.00, 0.00, -0.00, -1.00, 219.9, 229.0)">i</text><text xml:space="preserve" font-family="Helvetica-Light" font-size="22.0" fill="#000000" transform="matrix(1.00, 0.00, -0.00, -1.00, 224.8, 229.0)">p</text><text xml:space="preserve" font-family="Helvetica-Light" font-size="22.0" fill="#000000" transform="matrix(1.00, 0.00, -0.00, -1.00, 238.2, 229.0)">e</text></g></g><g><clipPath id="clip-1604"><path d="M 308.0 237.5 C 308.0 232.8 304.2 229.0 299.5 229.0 C 294.8 229.0 291.0 232.8 291.0 237.5 C 291.0 242.2 294.8 246.0 299.5 246.0 C 304.2 246.0 308.0 242.2 308.0 237.5 Z M 308.0 237.5 "></path></clipPath><g clip-path="url(#clip-1604)"><g><clipPath id="clip-1605"><path d="M 22.5 15.3 L 382.5 15.3 L 382.5 250.1 L 22.5 250.1 Z M 22.5 15.3 "></path></clipPath><g clip-path="url(#clip-1605)"><path d="M 308.0 237.5 C 308.0 232.8 304.2 229.0 299.5 229.0 C 294.8 229.0 291.0 232.8 291.0 237.5 C 291.0 242.2 294.8 246.0 299.5 246.0 C 304.2 246.0 308.0 242.2 308.0 237.5 Z M 308.0 237.5 " fill="#6D6F72"></path></g></g></g></g><g><clipPath id="clip-1606"><path d="M 22.5 15.3 L 382.5 15.3 L 382.5 250.1 L 22.5 250.1 Z M 22.5 15.3 "></path></clipPath><g clip-path="url(#clip-1606)"><text xml:space="preserve" font-family="Helvetica-Light" font-size="22.0" fill="#000000" transform="matrix(1.00, 0.00, -0.00, -1.00, 321.0, 229.0)">t</text><text xml:space="preserve" font-family="Helvetica-Light" font-size="22.0" fill="#000000" transform="matrix(1.00, 0.00, -0.00, -1.00, 327.1, 229.0)">i</text><text xml:space="preserve" font-family="Helvetica-Light" font-size="22.0" fill="#000000" transform="matrix(1.00, 0.00, -0.00, -1.00, 332.0, 229.0)">l</text><text xml:space="preserve" font-family="Helvetica-Light" font-size="22.0" fill="#000000" transform="matrix(1.00, 0.00, -0.00, -1.00, 336.9, 229.0)">t</text></g></g><g><clipPath id="clip-1607"><path d="M 152.6 246.3 L 252.4 246.3 L 252.4 285.8 L 152.6 285.8 Z M 152.6 246.3 "></path></clipPath><g clip-path="url(#clip-1607)"><text xml:space="preserve" font-family="Helvetica-Bold" font-weight="bold" font-size="23.0" fill="#000000" transform="matrix(1.00, 0.00, -0.00, -1.00, 159.0, 257.0)">W</text><text xml:space="preserve" font-family="Helvetica-Bold" font-weight="bold" font-size="23.0" fill="#000000" transform="matrix(1.00, 0.00, -0.00, -1.00, 179.9, 257.0)">a</text><text xml:space="preserve" font-family="Helvetica-Bold" font-weight="bold" font-size="23.0" fill="#000000" transform="matrix(1.00, 0.00, -0.00, -1.00, 192.7, 257.0)">l</text><text xml:space="preserve" font-family="Helvetica-Bold" font-weight="bold" font-size="23.0" fill="#000000" transform="matrix(1.00, 0.00, -0.00, -1.00, 199.1, 257.0)">k</text><text xml:space="preserve" font-family="Helvetica-Bold" font-weight="bold" font-size="23.0" fill="#000000" transform="matrix(1.00, 0.00, -0.00, -1.00, 211.8, 257.0)">i</text><text xml:space="preserve" font-family="Helvetica-Bold" font-weight="bold" font-size="23.0" fill="#000000" transform="matrix(1.00, 0.00, -0.00, -1.00, 218.2, 257.0)">n</text><text xml:space="preserve" font-family="Helvetica-Bold" font-weight="bold" font-size="23.0" fill="#000000" transform="matrix(1.00, 0.00, -0.00, -1.00, 232.3, 257.0)">g</text></g></g><g><clipPath id="clip-1608"><path d="M 347.9 15.0 L 707.9 15.0 L 707.9 249.8 L 347.9 249.8 Z M 347.9 15.0 "></path></clipPath><g clip-path="url(#clip-1608)"><path d="M 348.0 250.0 L 708.0 250.0 L 708.0 15.0 L 348.0 15.0 Z M 348.0 250.0 " fill="#000000" fill-opacity="0.00"></path></g></g><g><clipPath id="clip-1609"><path d="M 347.9 15.0 L 707.9 15.0 L 707.9 249.8 L 347.9 249.8 Z M 347.9 15.0 "></path></clipPath><g clip-path="url(#clip-1609)"><g><g><clipPath id="clip-1610"><path d="M 347.0 15.0 L 708.0 15.0 L 708.0 250.0 L 347.0 250.0 Z M 347.0 15.0 "></path></clipPath><g clip-path="url(#clip-1610)"><path d="M 528.0 117.0 L 528.0 218.0 C 472.2 218.0 427.0 172.8 427.0 117.0 C 427.0 96.6 433.2 76.6 444.8 59.8 Z M 528.0 117.0 " fill="#6D6F72"></path><path d="M 528.0 117.0 L 444.8 59.8 C 476.3 13.8 539.2 2.2 585.2 33.8 C 597.6 42.3 608.0 53.5 615.5 66.6 Z M 528.0 117.0 " fill="#ADAFB3"></path><path d="M 528.0 117.0 L 615.5 66.6 C 643.4 114.9 626.8 176.7 578.4 204.5 C 563.1 213.3 545.7 218.0 528.0 218.0 Z M 528.0 117.0 " fill="#8F9297"></path></g></g></g></g></g><g><clipPath id="clip-1611"><path d="M 347.9 15.0 L 707.9 15.0 L 707.9 249.8 L 347.9 249.8 Z M 347.9 15.0 "></path></clipPath><g clip-path="url(#clip-1611)"><g><g><clipPath id="clip-1612"><path d="M 441.0 132.0 L 495.0 132.0 L 495.0 164.0 L 441.0 164.0 Z M 441.0 132.0 "></path></clipPath><g clip-path="url(#clip-1612)"><text xml:space="preserve" font-family="Helvetica-Light" font-size="26.0" fill="#FEFFFE" transform="matrix(1.00, 0.00, -0.00, -1.00, 442.0, 138.0)">3</text><text xml:space="preserve" font-family="Helvetica-Light" font-size="26.0" fill="#FEFFFE" transform="matrix(1.00, 0.00, -0.00, -1.00, 456.5, 138.0)">5</text><text xml:space="preserve" font-family="Helvetica-Light" font-size="26.0" fill="#FEFFFE" transform="matrix(1.00, 0.00, -0.00, -1.00, 470.9, 138.0)">%</text></g></g></g></g></g><g><clipPath id="clip-1613"><path d="M 347.9 15.0 L 707.9 15.0 L 707.9 249.8 L 347.9 249.8 Z M 347.9 15.0 "></path></clipPath><g clip-path="url(#clip-1613)"><g><g><clipPath id="clip-1614"><path d="M 504.0 33.0 L 558.0 33.0 L 558.0 65.0 L 504.0 65.0 Z M 504.0 33.0 "></path></clipPath><g clip-path="url(#clip-1614)"><text xml:space="preserve" font-family="Helvetica-Light" font-size="26.0" fill="#FEFFFE" transform="matrix(1.00, 0.00, -0.00, -1.00, 505.0, 39.0)">3</text><text xml:space="preserve" font-family="Helvetica-Light" font-size="26.0" fill="#FEFFFE" transform="matrix(1.00, 0.00, -0.00, -1.00, 519.5, 39.0)">2</text><text xml:space="preserve" font-family="Helvetica-Light" font-size="26.0" fill="#FEFFFE" transform="matrix(1.00, 0.00, -0.00, -1.00, 533.9, 39.0)">%</text></g></g></g></g></g><g><clipPath id="clip-1615"><path d="M 347.9 15.0 L 707.9 15.0 L 707.9 249.8 L 347.9 249.8 Z M 347.9 15.0 "></path></clipPath><g clip-path="url(#clip-1615)"><g><g><clipPath id="clip-1616"><path d="M 559.0 134.0 L 613.0 134.0 L 613.0 166.0 L 559.0 166.0 Z M 559.0 134.0 "></path></clipPath><g clip-path="url(#clip-1616)"><text xml:space="preserve" font-family="Helvetica-Light" font-size="26.0" fill="#FEFFFE" transform="matrix(1.00, 0.00, -0.00, -1.00, 560.0, 141.0)">3</text><text xml:space="preserve" font-family="Helvetica-Light" font-size="26.0" fill="#FEFFFE" transform="matrix(1.00, 0.00, -0.00, -1.00, 574.5, 141.0)">3</text><text xml:space="preserve" font-family="Helvetica-Light" font-size="26.0" fill="#FEFFFE" transform="matrix(1.00, 0.00, -0.00, -1.00, 588.9, 141.0)">%</text></g></g></g></g></g><g><clipPath id="clip-1617"><path d="M 404.0 236.5 C 404.0 231.8 400.2 228.0 395.5 228.0 C 390.8 228.0 387.0 231.8 387.0 236.5 C 387.0 241.2 390.8 245.0 395.5 245.0 C 400.2 245.0 404.0 241.2 404.0 236.5 Z M 404.0 236.5 "></path></clipPath><g clip-path="url(#clip-1617)"><g><clipPath id="clip-1618"><path d="M 347.9 15.0 L 707.9 15.0 L 707.9 249.8 L 347.9 249.8 Z M 347.9 15.0 "></path></clipPath><g clip-path="url(#clip-1618)"><path d="M 404.0 236.5 C 404.0 231.8 400.2 228.0 395.5 228.0 C 390.8 228.0 387.0 231.8 387.0 236.5 C 387.0 241.2 390.8 245.0 395.5 245.0 C 400.2 245.0 404.0 241.2 404.0 236.5 Z M 404.0 236.5 " fill="#8F9297"></path></g></g></g></g><g><clipPath id="clip-1619"><path d="M 347.9 15.0 L 707.9 15.0 L 707.9 249.8 L 347.9 249.8 Z M 347.9 15.0 "></path></clipPath><g clip-path="url(#clip-1619)"><text xml:space="preserve" font-family="Helvetica-Light" font-size="22.0" fill="#000000" transform="matrix(1.00, 0.00, -0.00, -1.00, 417.0, 229.0)">t</text><text xml:space="preserve" font-family="Helvetica-Light" font-size="22.0" fill="#000000" transform="matrix(1.00, 0.00, -0.00, -1.00, 423.1, 229.0)">a</text><text xml:space="preserve" font-family="Helvetica-Light" font-size="22.0" fill="#000000" transform="matrix(1.00, 0.00, -0.00, -1.00, 435.3, 229.0)">p</text></g></g><g><clipPath id="clip-1620"><path d="M 506.0 236.5 C 506.0 231.8 502.2 228.0 497.5 228.0 C 492.8 228.0 489.0 231.8 489.0 236.5 C 489.0 241.2 492.8 245.0 497.5 245.0 C 502.2 245.0 506.0 241.2 506.0 236.5 Z M 506.0 236.5 "></path></clipPath><g clip-path="url(#clip-1620)"><g><clipPath id="clip-1621"><path d="M 347.9 15.0 L 707.9 15.0 L 707.9 249.8 L 347.9 249.8 Z M 347.9 15.0 "></path></clipPath><g clip-path="url(#clip-1621)"><path d="M 506.0 236.5 C 506.0 231.8 502.2 228.0 497.5 228.0 C 492.8 228.0 489.0 231.8 489.0 236.5 C 489.0 241.2 492.8 245.0 497.5 245.0 C 502.2 245.0 506.0 241.2 506.0 236.5 Z M 506.0 236.5 " fill="#ADAFB3"></path></g></g></g></g><g><clipPath id="clip-1622"><path d="M 347.9 15.0 L 707.9 15.0 L 707.9 249.8 L 347.9 249.8 Z M 347.9 15.0 "></path></clipPath><g clip-path="url(#clip-1622)"><text xml:space="preserve" font-family="Helvetica-Light" font-size="22.0" fill="#000000" transform="matrix(1.00, 0.00, -0.00, -1.00, 519.0, 229.0)">s</text><text xml:space="preserve" font-family="Helvetica-Light" font-size="22.0" fill="#000000" transform="matrix(1.00, 0.00, -0.00, -1.00, 530.0, 229.0)">w</text><text xml:space="preserve" font-family="Helvetica-Light" font-size="22.0" fill="#000000" transform="matrix(1.00, 0.00, -0.00, -1.00, 545.9, 229.0)">i</text><text xml:space="preserve" font-family="Helvetica-Light" font-size="22.0" fill="#000000" transform="matrix(1.00, 0.00, -0.00, -1.00, 550.8, 229.0)">p</text><text xml:space="preserve" font-family="Helvetica-Light" font-size="22.0" fill="#000000" transform="matrix(1.00, 0.00, -0.00, -1.00, 564.2, 229.0)">e</text></g></g><g><clipPath id="clip-1623"><path d="M 633.0 236.5 C 633.0 231.8 629.2 228.0 624.5 228.0 C 619.8 228.0 616.0 231.8 616.0 236.5 C 616.0 241.2 619.8 245.0 624.5 245.0 C 629.2 245.0 633.0 241.2 633.0 236.5 Z M 633.0 236.5 "></path></clipPath><g clip-path="url(#clip-1623)"><g><clipPath id="clip-1624"><path d="M 347.9 15.0 L 707.9 15.0 L 707.9 249.8 L 347.9 249.8 Z M 347.9 15.0 "></path></clipPath><g clip-path="url(#clip-1624)"><path d="M 633.0 236.5 C 633.0 231.8 629.2 228.0 624.5 228.0 C 619.8 228.0 616.0 231.8 616.0 236.5 C 616.0 241.2 619.8 245.0 624.5 245.0 C 629.2 245.0 633.0 241.2 633.0 236.5 Z M 633.0 236.5 " fill="#6D6F72"></path></g></g></g></g><g><clipPath id="clip-1625"><path d="M 347.9 15.0 L 707.9 15.0 L 707.9 249.8 L 347.9 249.8 Z M 347.9 15.0 "></path></clipPath><g clip-path="url(#clip-1625)"><text xml:space="preserve" font-family="Helvetica-Light" font-size="22.0" fill="#000000" transform="matrix(1.00, 0.00, -0.00, -1.00, 646.0, 229.0)">t</text><text xml:space="preserve" font-family="Helvetica-Light" font-size="22.0" fill="#000000" transform="matrix(1.00, 0.00, -0.00, -1.00, 652.1, 229.0)">i</text><text xml:space="preserve" font-family="Helvetica-Light" font-size="22.0" fill="#000000" transform="matrix(1.00, 0.00, -0.00, -1.00, 657.0, 229.0)">l</text><text xml:space="preserve" font-family="Helvetica-Light" font-size="22.0" fill="#000000" transform="matrix(1.00, 0.00, -0.00, -1.00, 661.9, 229.0)">t</text></g></g><g><clipPath id="clip-1626"><path d="M 475.0 246.6 L 580.7 246.6 L 580.7 286.1 L 475.0 286.1 Z M 475.0 246.6 "></path></clipPath><g clip-path="url(#clip-1626)"><text xml:space="preserve" font-family="Helvetica-Bold" font-weight="bold" font-size="23.0" fill="#000000" transform="matrix(1.00, 0.00, -0.00, -1.00, 481.0, 258.0)">R</text><text xml:space="preserve" font-family="Helvetica-Bold" font-weight="bold" font-size="23.0" fill="#000000" transform="matrix(1.00, 0.00, -0.00, -1.00, 497.6, 258.0)">u</text><text xml:space="preserve" font-family="Helvetica-Bold" font-weight="bold" font-size="23.0" fill="#000000" transform="matrix(1.00, 0.00, -0.00, -1.00, 511.7, 258.0)">n</text><text xml:space="preserve" font-family="Helvetica-Bold" font-weight="bold" font-size="23.0" fill="#000000" transform="matrix(1.00, 0.00, -0.00, -1.00, 525.7, 258.0)">n</text><text xml:space="preserve" font-family="Helvetica-Bold" font-weight="bold" font-size="23.0" fill="#000000" transform="matrix(1.00, 0.00, -0.00, -1.00, 539.8, 258.0)">i</text><text xml:space="preserve" font-family="Helvetica-Bold" font-weight="bold" font-size="23.0" fill="#000000" transform="matrix(1.00, 0.00, -0.00, -1.00, 546.2, 258.0)">n</text><text xml:space="preserve" font-family="Helvetica-Bold" font-weight="bold" font-size="23.0" fill="#000000" transform="matrix(1.00, 0.00, -0.00, -1.00, 560.2, 258.0)">g</text></g></g><text xml:space="preserve" font-family="Helvetica-Bold" font-weight="bold" font-size="23.0" fill="#000000" transform="matrix(1.00, 0.00, -0.00, -1.00, 744.0, 197.0)">U</text><text xml:space="preserve" font-family="Helvetica-Bold" font-weight="bold" font-size="23.0" fill="#000000" transform="matrix(1.00, 0.00, -0.00, -1.00, 760.6, 197.0)">s</text><text xml:space="preserve" font-family="Helvetica-Bold" font-weight="bold" font-size="23.0" fill="#000000" transform="matrix(1.00, 0.00, -0.00, -1.00, 773.4, 197.0)">e</text><text xml:space="preserve" font-family="Helvetica-Bold" font-weight="bold" font-size="23.0" fill="#000000" transform="matrix(1.00, 0.00, -0.00, -1.00, 786.2, 197.0)">r</text><text xml:space="preserve" font-family="Helvetica-Bold" font-weight="bold" font-size="23.0" fill="#000000" transform="matrix(1.00, 0.00, -0.00, -1.00, 795.2, 197.0)"> </text><text xml:space="preserve" font-family="Helvetica-Bold" font-weight="bold" font-size="23.0" fill="#000000" transform="matrix(1.00, 0.00, -0.00, -1.00, 801.5, 197.0)">P</text><text xml:space="preserve" font-family="Helvetica-Bold" font-weight="bold" font-size="23.0" fill="#000000" transform="matrix(1.00, 0.00, -0.00, -1.00, 816.9, 197.0)">r</text><text xml:space="preserve" font-family="Helvetica-Bold" font-weight="bold" font-size="23.0" fill="#000000" transform="matrix(1.00, 0.00, -0.00, -1.00, 825.8, 197.0)">e</text><text xml:space="preserve" font-family="Helvetica-Bold" font-weight="bold" font-size="23.0" fill="#000000" transform="matrix(1.00, 0.00, -0.00, -1.00, 838.6, 197.0)">f</text><text xml:space="preserve" font-family="Helvetica-Bold" font-weight="bold" font-size="23.0" fill="#000000" transform="matrix(1.00, 0.00, -0.00, -1.00, 846.3, 197.0)">e</text><text xml:space="preserve" font-family="Helvetica-Bold" font-weight="bold" font-size="23.0" fill="#000000" transform="matrix(1.00, 0.00, -0.00, -1.00, 859.1, 197.0)">r</text><text xml:space="preserve" font-family="Helvetica-Bold" font-weight="bold" font-size="23.0" fill="#000000" transform="matrix(1.00, 0.00, -0.00, -1.00, 868.1, 197.0)">e</text><text xml:space="preserve" font-family="Helvetica-Bold" font-weight="bold" font-size="23.0" fill="#000000" transform="matrix(1.00, 0.00, -0.00, -1.00, 880.8, 197.0)">n</text><text xml:space="preserve" font-family="Helvetica-Bold" font-weight="bold" font-size="23.0" fill="#000000" transform="matrix(1.00, 0.00, -0.00, -1.00, 894.9, 197.0)">c</text><text xml:space="preserve" font-family="Helvetica-Bold" font-weight="bold" font-size="23.0" fill="#000000" transform="matrix(1.00, 0.00, -0.00, -1.00, 907.7, 197.0)">e</text><text xml:space="preserve" font-family="Helvetica-Bold" font-weight="bold" font-size="23.0" fill="#000000" transform="matrix(1.00, 0.00, -0.00, -1.00, 920.5, 197.0)"> </text><text xml:space="preserve" font-family="Helvetica-Bold" font-weight="bold" font-size="23.0" fill="#000000" transform="matrix(1.00, 0.00, -0.00, -1.00, 926.9, 197.0)">i</text><text xml:space="preserve" font-family="Helvetica-Bold" font-weight="bold" font-size="23.0" fill="#000000" transform="matrix(1.00, 0.00, -0.00, -1.00, 933.3, 197.0)">n</text><text xml:space="preserve" font-family="Helvetica-Bold" font-weight="bold" font-size="23.0" fill="#000000" transform="matrix(1.00, 0.00, -0.00, -1.00, 947.3, 197.0)"> </text><text xml:space="preserve" font-family="Helvetica-Bold" font-weight="bold" font-size="23.0" fill="#000000" transform="matrix(1.00, 0.00, -0.00, -1.00, 740.0, 169.0)">D</text><text xml:space="preserve" font-family="Helvetica-Bold" font-weight="bold" font-size="23.0" fill="#000000" transform="matrix(1.00, 0.00, -0.00, -1.00, 756.6, 169.0)">i</text><text xml:space="preserve" font-family="Helvetica-Bold" font-weight="bold" font-size="23.0" fill="#000000" transform="matrix(1.00, 0.00, -0.00, -1.00, 763.0, 169.0)">f</text><text xml:space="preserve" font-family="Helvetica-Bold" font-weight="bold" font-size="23.0" fill="#000000" transform="matrix(1.00, 0.00, -0.00, -1.00, 770.7, 169.0)">f</text><text xml:space="preserve" font-family="Helvetica-Bold" font-weight="bold" font-size="23.0" fill="#000000" transform="matrix(1.00, 0.00, -0.00, -1.00, 778.3, 169.0)">e</text><text xml:space="preserve" font-family="Helvetica-Bold" font-weight="bold" font-size="23.0" fill="#000000" transform="matrix(1.00, 0.00, -0.00, -1.00, 791.1, 169.0)">r</text><text xml:space="preserve" font-family="Helvetica-Bold" font-weight="bold" font-size="23.0" fill="#000000" transform="matrix(1.00, 0.00, -0.00, -1.00, 800.1, 169.0)">e</text><text xml:space="preserve" font-family="Helvetica-Bold" font-weight="bold" font-size="23.0" fill="#000000" transform="matrix(1.00, 0.00, -0.00, -1.00, 812.9, 169.0)">n</text><text xml:space="preserve" font-family="Helvetica-Bold" font-weight="bold" font-size="23.0" fill="#000000" transform="matrix(1.00, 0.00, -0.00, -1.00, 826.9, 169.0)">t</text><text xml:space="preserve" font-family="Helvetica-Bold" font-weight="bold" font-size="23.0" fill="#000000" transform="matrix(1.00, 0.00, -0.00, -1.00, 834.6, 169.0)"> </text><text xml:space="preserve" font-family="Helvetica-Bold" font-weight="bold" font-size="23.0" fill="#000000" transform="matrix(1.00, 0.00, -0.00, -1.00, 841.0, 169.0)">S</text><text xml:space="preserve" font-family="Helvetica-Bold" font-weight="bold" font-size="23.0" fill="#000000" transform="matrix(1.00, 0.00, -0.00, -1.00, 856.3, 169.0)">c</text><text xml:space="preserve" font-family="Helvetica-Bold" font-weight="bold" font-size="23.0" fill="#000000" transform="matrix(1.00, 0.00, -0.00, -1.00, 869.1, 169.0)">e</text><text xml:space="preserve" font-family="Helvetica-Bold" font-weight="bold" font-size="23.0" fill="#000000" transform="matrix(1.00, 0.00, -0.00, -1.00, 881.9, 169.0)">n</text><text xml:space="preserve" font-family="Helvetica-Bold" font-weight="bold" font-size="23.0" fill="#000000" transform="matrix(1.00, 0.00, -0.00, -1.00, 895.9, 169.0)">a</text><text xml:space="preserve" font-family="Helvetica-Bold" font-weight="bold" font-size="23.0" fill="#000000" transform="matrix(1.00, 0.00, -0.00, -1.00, 908.7, 169.0)">r</text><text xml:space="preserve" font-family="Helvetica-Bold" font-weight="bold" font-size="23.0" fill="#000000" transform="matrix(1.00, 0.00, -0.00, -1.00, 917.7, 169.0)">i</text><text xml:space="preserve" font-family="Helvetica-Bold" font-weight="bold" font-size="23.0" fill="#000000" transform="matrix(1.00, 0.00, -0.00, -1.00, 924.1, 169.0)">o</text><text xml:space="preserve" font-family="Helvetica-Bold" font-weight="bold" font-size="23.0" fill="#000000" transform="matrix(1.00, 0.00, -0.00, -1.00, 938.1, 169.0)">s</text><text xml:space="preserve" font-family="Helvetica-Bold" font-weight="bold" font-size="23.0" fill="#000000" transform="matrix(1.00, 0.00, -0.00, -1.00, 950.9, 169.0)"> </text></g></svg>