<?xml version="1.0" encoding="UTF-8" standalone="no"?><svg xmlns="http://www.w3.org/2000/svg" xmlns:xlink="http://www.w3.org/1999/xlink" clip-rule="evenodd" stroke-miterlimit="4.00" viewBox="0 0 1024 768"><desc>SVG generated by Keynote</desc><defs></defs><g transform="matrix(1.00, 0.00, -0.00, -1.00, 0.0, 768.0)"><path d="M 0.0 768.0 L 1024.0 768.0 L 1024.0 0.0 L 0.0 0.0 Z M 0.0 768.0 " fill="#FEFFFF"></path><text xml:space="preserve" font-family="Helvetica-Bold" font-weight="bold" font-size="80.0" fill="#000000" transform="matrix(1.00, 0.00, -0.00, -1.00, 150.0, 618.0)">E</text><text xml:space="preserve" font-family="Helvetica-Bold" font-weight="bold" font-size="80.0" fill="#000000" transform="matrix(1.00, 0.00, -0.00, -1.00, 203.4, 618.0)">x</text><text xml:space="preserve" font-family="Helvetica-Bold" font-weight="bold" font-size="80.0" fill="#000000" transform="matrix(1.00, 0.00, -0.00, -1.00, 247.9, 618.0)">p</text><text xml:space="preserve" font-family="Helvetica-Bold" font-weight="bold" font-size="80.0" fill="#000000" transform="matrix(1.00, 0.00, -0.00, -1.00, 296.7, 618.0)">e</text><text xml:space="preserve" font-family="Helvetica-Bold" font-weight="bold" font-size="80.0" fill="#000000" transform="matrix(1.00, 0.00, -0.00, -1.00, 341.2, 618.0)">r</text><text xml:space="preserve" font-family="Helvetica-Bold" font-weight="bold" font-size="80.0" fill="#000000" transform="matrix(1.00, 0.00, -0.00, -1.00, 372.4, 618.0)">i</text><text xml:space="preserve" font-family="Helvetica-Bold" font-weight="bold" font-size="80.0" fill="#000000" transform="matrix(1.00, 0.00, -0.00, -1.00, 394.6, 618.0)">m</text><text xml:space="preserve" font-family="Helvetica-Bold" font-weight="bold" font-size="80.0" fill="#000000" transform="matrix(1.00, 0.00, -0.00, -1.00, 465.7, 618.0)">e</text><text xml:space="preserve" font-family="Helvetica-Bold" font-weight="bold" font-size="80.0" fill="#000000" transform="matrix(1.00, 0.00, -0.00, -1.00, 510.2, 618.0)">n</text><text xml:space="preserve" font-family="Helvetica-Bold" font-weight="bold" font-size="80.0" fill="#000000" transform="matrix(1.00, 0.00, -0.00, -1.00, 559.1, 618.0)">t</text><text xml:space="preserve" font-family="Helvetica-Bold" font-weight="bold" font-size="80.0" fill="#000000" transform="matrix(1.00, 0.00, -0.00, -1.00, 585.7, 618.0)"> </text><text xml:space="preserve" font-family="Helvetica-Bold" font-weight="bold" font-size="80.0" fill="#000000" transform="matrix(1.00, 0.00, -0.00, -1.00, 607.9, 618.0)">D</text><text xml:space="preserve" font-family="Helvetica-Bold" font-weight="bold" font-size="80.0" fill="#000000" transform="matrix(1.00, 0.00, -0.00, -1.00, 665.7, 618.0)">e</text><text xml:space="preserve" font-family="Helvetica-Bold" font-weight="bold" font-size="80.0" fill="#000000" transform="matrix(1.00, 0.00, -0.00, -1.00, 710.2, 618.0)">s</text><text xml:space="preserve" font-family="Helvetica-Bold" font-weight="bold" font-size="80.0" fill="#000000" transform="matrix(1.00, 0.00, -0.00, -1.00, 754.8, 618.0)">i</text><text xml:space="preserve" font-family="Helvetica-Bold" font-weight="bold" font-size="80.0" fill="#000000" transform="matrix(1.00, 0.00, -0.00, -1.00, 777.0, 618.0)">g</text><text xml:space="preserve" font-family="Helvetica-Bold" font-weight="bold" font-size="80.0" fill="#000000" transform="matrix(1.00, 0.00, -0.00, -1.00, 825.8, 618.0)">n</text><g opacity="0.05"><g><clipPath id="clip-1054"><path d="M 396.0 639.0 L 1172.0 639.0 L 1172.0 -129.0 L 396.0 -129.0 Z M 396.5 639.4 "></path></clipPath><g clip-path="url(#clip-1054)"><g><clipPath id="clip-1055"><path d="M 395.0 0.0 L 1024.0 0.0 L 1024.0 641.0 L 395.0 641.0 Z M 395.0 0.0 "></path></clipPath><g clip-path="url(#clip-1055)"><image xlink:href="../../615F7CD4-E262-41F7-8138-806EC6AB1FAB/assets/9A6F1F7F57DE1899BBA6D829851F14E0.png" width="546.00" height="540.00" transform="matrix(1.42, 0.00, -0.00, -1.42, 396.0, 639.0)"></image></g></g></g></g></g><g><clipPath id="clip-1056"><path d="M 0.2 705.8 L 55.1 705.8 L 55.1 768.2 L 0.2 768.2 Z M 0.2 705.8 "></path></clipPath><g clip-path="url(#clip-1056)"><image xlink:href="../../615F7CD4-E262-41F7-8138-806EC6AB1FAB/assets/FCA65AB6163C3244B97FA67EDF156BF9.png" width="55.00" height="63.00" transform="matrix(1.00, 0.00, -0.00, -0.98, 0.0, 768.0)"></image></g></g><g><clipPath id="clip-1057"><path d="M 53.7 704.8 L 1026.5 704.8 L 1026.5 769.2 L 53.7 769.2 Z M 53.7 704.8 "></path></clipPath><g clip-path="url(#clip-1057)"><path d="M 54.7 768.2 L 1025.5 768.2 L 1025.5 705.8 L 54.7 705.8 Z M 54.7 768.2 " fill="#F15F18"></path></g></g><text xml:space="preserve" font-family="Helvetica-Bold" font-weight="bold" font-size="36.0" fill="#000000" transform="matrix(1.00, 0.00, -0.00, -1.00, 395.0, 559.0)">T</text><text xml:space="preserve" font-family="Helvetica-Bold" font-weight="bold" font-size="36.0" fill="#000000" transform="matrix(1.00, 0.00, -0.00, -1.00, 414.3, 559.0)">e</text><text xml:space="preserve" font-family="Helvetica-Bold" font-weight="bold" font-size="36.0" fill="#000000" transform="matrix(1.00, 0.00, -0.00, -1.00, 434.4, 559.0)">s</text><text xml:space="preserve" font-family="Helvetica-Bold" font-weight="bold" font-size="36.0" fill="#000000" transform="matrix(1.00, 0.00, -0.00, -1.00, 454.4, 559.0)">t</text><text xml:space="preserve" font-family="Helvetica-Bold" font-weight="bold" font-size="36.0" fill="#000000" transform="matrix(1.00, 0.00, -0.00, -1.00, 466.4, 559.0)">i</text><text xml:space="preserve" font-family="Helvetica-Bold" font-weight="bold" font-size="36.0" fill="#000000" transform="matrix(1.00, 0.00, -0.00, -1.00, 476.4, 559.0)">n</text><text xml:space="preserve" font-family="Helvetica-Bold" font-weight="bold" font-size="36.0" fill="#000000" transform="matrix(1.00, 0.00, -0.00, -1.00, 498.4, 559.0)">g</text><text xml:space="preserve" font-family="Helvetica-Bold" font-weight="bold" font-size="36.0" fill="#000000" transform="matrix(1.00, 0.00, -0.00, -1.00, 520.3, 559.0)"> </text><text xml:space="preserve" font-family="Helvetica-Bold" font-weight="bold" font-size="36.0" fill="#000000" transform="matrix(1.00, 0.00, -0.00, -1.00, 530.3, 559.0)">G</text><text xml:space="preserve" font-family="Helvetica-Bold" font-weight="bold" font-size="36.0" fill="#000000" transform="matrix(1.00, 0.00, -0.00, -1.00, 558.3, 559.0)">a</text><text xml:space="preserve" font-family="Helvetica-Bold" font-weight="bold" font-size="36.0" fill="#000000" transform="matrix(1.00, 0.00, -0.00, -1.00, 578.4, 559.0)">m</text><text xml:space="preserve" font-family="Helvetica-Bold" font-weight="bold" font-size="36.0" fill="#000000" transform="matrix(1.00, 0.00, -0.00, -1.00, 610.4, 559.0)">e</text><image xlink:href="B562B7A66E6AD03DB1C66A7DB01A88A2.png" width="304.00" height="501.00" transform="matrix(1.00, 0.00, -0.00, -1.00, 12.1, 539.7)" opacity="0.70"></image><image xlink:href="3195FAC4CAD682674F7901992D9E3A6B.png" width="294.00" height="491.00" transform="matrix(1.00, 0.00, -0.00, -1.00, 16.0, 536.0)"></image><path d="M -0.1 0.5 L 293.9 0.5 L 293.9 490.5 L -0.1 490.5 Z M -0.1 0.5 " fill="none" stroke="#F2F6F5" stroke-width="2.00" transform="matrix(1.00, 0.00, 0.00, -1.00, 16.1, 536.5)"></path><path d="M 0.0 0.0 L 55.7 0.0 L 55.7 32.3 L 0.0 32.3 Z M 0.0 0.0 " fill="none" stroke="#FF2600" stroke-width="4.00" transform="matrix(1.00, 0.00, 0.00, -1.00, 21.8, 516.9)"></path><path d="M 0.0 0.0 L 55.7 0.0 L 55.7 58.4 L 0.0 58.4 Z M 0.0 0.0 " fill="none" stroke="#FF2600" stroke-width="4.00" transform="matrix(1.00, 0.00, 0.00, -1.00, 134.4, 302.3)"></path><path d="M 0.0 0.0 L 55.7 0.0 L 55.7 58.4 L 0.0 58.4 Z M 0.0 0.0 " fill="none" stroke="#FF2600" stroke-width="4.00" transform="matrix(1.00, 0.00, 0.00, -1.00, 186.5, 250.2)"></path><path d="M 0.0 0.0 L 55.7 0.0 L 55.7 58.4 L 0.0 58.4 Z M 0.0 0.0 " fill="none" stroke="#FF2600" stroke-width="4.00" transform="matrix(1.00, 0.00, 0.00, -1.00, 135.4, 197.2)"></path><path d="M 0.0 0.0 L 55.7 0.0 L 55.7 58.4 L 0.0 58.4 Z M 0.0 0.0 " fill="none" stroke="#FF2600" stroke-width="4.00" transform="matrix(1.00, 0.00, 0.00, -1.00, 83.2, 250.2)"></path><image xlink:href="8B117DFE11E5C2FC66862B346B79AAF4.png" width="480.00" height="324.00" transform="matrix(1.43, 0.00, -0.00, -1.43, 325.0, 523.0)"></image><path d="M 68.8 15.2 C 69.1 15.1 69.3 15.6 70.1 15.8 C 70.9 16.0 71.9 16.2 71.7 15.8 C 71.5 15.5 71.3 15.3 71.7 14.9 C 72.2 14.5 72.8 13.9 72.2 13.6 C 71.6 13.3 69.4 12.4 68.6 12.7 C 67.9 13.0 67.7 13.2 67.2 13.4 C 66.6 13.6 67.0 12.8 67.0 12.8 C 67.0 12.8 65.8 12.7 64.9 12.7 C 64.1 12.6 63.1 12.6 63.0 12.7 C 62.9 12.9 62.6 13.2 62.6 13.2 C 62.6 13.2 62.2 12.8 61.5 12.8 C 60.9 12.7 61.1 12.9 61.2 13.1 C 61.3 13.3 62.1 13.8 61.8 13.8 C 61.6 13.8 60.8 13.0 60.3 13.0 C 59.9 13.0 58.9 13.1 58.9 13.1 C 58.9 13.1 59.1 13.5 59.0 13.6 C 58.9 13.8 58.0 13.9 58.0 13.8 C 57.9 13.6 57.9 13.1 57.5 13.1 C 56.0 13.2 56.3 14.1 56.2 14.1 C 56.1 14.2 56.0 13.5 55.7 13.5 C 55.3 13.4 52.6 14.0 52.6 14.2 C 52.5 14.4 51.4 14.0 51.2 14.5 C 50.9 15.0 50.8 15.2 50.8 15.3 C 50.7 15.4 50.5 16.2 50.2 16.0 C 49.9 15.9 50.6 14.8 50.3 14.7 C 49.9 14.6 48.3 15.1 48.2 15.3 C 47.9 15.7 48.0 16.4 47.8 16.5 C 47.6 16.5 46.5 16.1 46.5 16.2 C 46.4 16.4 46.6 17.1 46.7 17.2 C 46.7 17.3 46.9 18.6 47.2 18.7 C 47.4 18.8 48.4 18.9 48.1 18.6 C 47.9 18.3 47.5 17.9 47.8 17.7 C 48.0 17.4 48.2 17.3 48.3 17.4 C 48.4 17.5 48.3 17.7 48.9 17.8 C 49.4 17.8 49.3 18.2 49.7 18.0 C 50.2 17.8 50.6 17.6 50.5 17.4 C 50.4 17.1 50.8 16.6 51.1 16.5 C 51.5 16.5 51.0 17.2 52.2 17.1 C 53.4 17.1 54.1 17.0 54.4 16.7 C 54.7 16.4 54.7 15.7 55.3 15.9 C 55.9 16.1 55.6 16.3 56.4 16.2 C 57.2 16.1 57.4 15.5 57.9 15.4 C 58.4 15.3 58.6 15.3 58.6 15.3 C 58.6 15.3 58.4 16.1 59.6 16.1 C 60.8 16.0 61.0 16.1 60.7 15.5 C 60.5 14.9 61.4 14.8 61.4 15.2 C 61.5 15.6 62.2 15.8 62.7 15.9 C 63.1 15.9 63.2 14.9 63.4 14.9 C 63.5 14.8 64.0 14.9 63.9 15.2 C 63.7 15.5 64.2 15.6 64.5 15.7 C 64.9 15.8 66.1 15.8 66.1 15.6 C 66.1 15.4 65.5 14.7 66.3 15.1 C 67.1 15.4 67.3 15.9 68.1 15.9 C 68.9 16.0 68.2 15.3 68.8 15.2 C 68.8 15.2 68.8 15.2 68.8 15.2 Z M 47.0 19.1 C 47.9 18.7 46.2 16.5 45.6 16.2 C 45.0 15.9 44.4 16.5 43.7 16.8 C 43.0 17.0 43.6 17.6 43.3 18.1 C 43.1 18.5 42.9 17.9 42.6 17.7 C 42.2 17.4 41.4 18.3 40.8 18.6 C 40.2 19.0 40.1 20.1 39.7 20.5 C 39.3 20.8 40.3 20.6 39.5 21.1 C 38.7 21.6 38.8 21.0 39.6 20.1 C 40.3 19.2 38.9 19.9 38.3 20.2 C 37.8 20.5 37.2 21.5 36.8 21.8 C 36.4 22.1 37.3 22.2 36.8 22.6 C 36.3 23.1 36.1 22.4 35.5 22.8 C 34.9 23.2 35.4 23.6 35.3 24.0 C 35.1 24.4 34.9 24.0 34.7 24.2 C 34.4 24.4 33.9 24.7 33.6 25.3 C 33.3 25.9 33.6 25.9 33.4 26.2 C 33.2 26.4 32.9 26.9 32.9 26.9 C 32.7 26.8 32.5 26.7 32.3 26.5 C 32.3 26.5 31.5 27.6 31.2 27.8 C 31.0 28.1 30.8 29.0 31.0 28.9 C 31.3 28.8 31.2 29.8 31.0 29.9 C 30.8 30.0 30.2 30.4 29.9 30.7 C 29.5 31.0 31.1 31.7 31.3 31.8 C 31.5 32.0 32.2 32.6 32.5 32.3 C 32.7 32.1 32.6 31.6 32.8 31.8 C 32.9 32.0 33.3 30.9 33.4 30.7 C 33.6 30.5 33.2 29.8 33.2 29.8 C 33.2 29.8 32.9 29.3 33.2 28.9 C 33.5 28.5 34.5 29.0 34.5 29.0 C 34.5 29.0 35.0 28.6 35.3 28.1 C 35.6 27.7 35.3 26.6 35.2 26.4 C 35.1 26.2 35.8 26.7 36.1 26.5 C 36.4 26.3 37.0 26.0 37.1 25.8 C 37.2 25.7 37.0 25.1 37.0 25.1 C 37.0 25.1 37.3 24.3 37.4 24.2 C 37.5 24.1 37.8 24.9 37.8 24.9 C 37.8 24.9 39.1 24.0 39.4 23.9 C 39.7 23.7 39.9 23.2 40.1 23.1 C 40.2 22.9 39.9 21.9 40.2 21.8 C 40.5 21.6 40.3 22.5 40.6 22.4 C 41.0 22.2 41.6 22.0 41.7 21.9 C 41.8 21.9 41.8 21.4 42.1 21.2 C 42.3 21.1 42.2 20.2 42.6 20.0 C 43.0 19.7 43.4 20.0 43.6 20.0 C 43.8 20.0 44.2 20.5 44.6 20.4 C 44.9 20.2 44.5 19.9 44.8 19.8 C 45.1 19.6 44.9 19.2 45.2 19.1 C 45.6 19.1 45.7 19.9 46.0 19.6 C 46.2 19.5 46.0 19.6 47.0 19.1 C 47.0 19.1 47.0 19.1 47.0 19.1 Z M 32.0 33.1 C 32.5 32.8 32.3 32.2 32.0 32.1 C 31.6 31.9 30.7 31.6 30.5 31.3 C 30.4 31.0 30.1 30.1 29.5 30.9 C 28.9 31.7 29.1 32.1 29.3 32.2 C 29.5 32.3 30.3 32.9 30.1 33.1 C 29.9 33.3 29.5 33.4 29.4 33.4 C 29.2 33.4 28.2 33.3 28.1 33.8 C 28.0 34.4 28.1 34.9 28.1 34.9 C 28.0 35.1 28.0 35.4 27.9 35.6 C 27.9 35.6 27.1 36.0 27.0 36.6 C 26.9 37.2 26.7 37.8 26.5 38.2 C 26.4 38.6 26.3 39.0 26.5 39.2 C 26.7 39.3 27.4 40.1 27.4 40.1 C 27.4 40.1 27.4 40.8 27.2 41.0 C 27.0 41.3 26.5 41.2 26.4 41.1 C 26.2 41.0 25.7 40.9 25.5 41.3 C 25.3 41.7 24.4 43.6 24.6 43.9 C 24.8 44.3 25.2 44.3 25.3 44.5 C 25.3 44.8 25.1 46.1 24.9 46.2 C 24.6 46.2 24.1 46.1 24.1 46.5 C 24.1 46.9 23.8 47.6 24.0 47.7 C 24.1 47.7 24.2 48.0 24.5 48.0 C 24.7 48.1 24.9 48.9 25.0 49.1 C 25.1 49.3 25.1 49.9 25.1 49.9 C 24.9 50.2 24.7 50.4 24.5 50.7 C 24.5 50.7 24.1 50.1 24.0 49.9 C 23.9 49.6 23.6 50.0 23.5 50.2 C 23.4 50.5 23.3 52.1 23.3 52.1 C 23.7 52.1 24.1 52.2 24.5 52.3 C 24.5 52.7 24.6 53.1 24.6 53.5 C 24.6 53.5 23.3 53.2 23.2 54.0 C 23.2 54.7 23.1 55.7 23.1 55.7 C 23.1 55.7 23.6 56.6 23.6 56.8 C 23.7 57.0 24.9 57.1 24.9 57.1 C 25.3 57.1 25.8 57.0 26.3 57.0 C 26.3 57.0 26.8 56.1 26.6 55.6 C 26.5 55.0 25.9 55.4 25.7 55.3 C 25.5 55.2 25.3 54.5 25.3 54.5 C 25.6 54.1 25.9 53.8 26.1 53.5 C 26.1 53.5 26.4 53.2 26.7 52.9 C 26.9 52.6 27.2 51.5 27.1 51.1 C 27.0 50.8 26.8 50.5 26.6 50.0 C 26.4 49.6 26.0 49.6 26.4 49.2 C 26.7 48.8 27.1 48.6 27.2 48.4 C 27.2 48.2 26.9 47.1 26.9 47.1 C 26.9 46.8 26.8 46.5 26.7 46.2 C 26.7 46.2 26.6 45.5 26.9 45.4 C 27.2 45.4 27.2 43.9 27.2 43.9 C 27.2 43.9 28.0 44.2 28.2 43.9 C 28.4 43.5 28.7 43.0 28.7 42.4 C 28.7 41.9 28.1 41.3 28.1 41.3 C 28.3 41.1 28.6 41.0 28.8 40.9 C 29.0 40.4 29.2 40.0 29.4 39.5 C 29.4 39.5 29.7 38.4 29.6 38.4 C 29.5 38.3 28.8 38.2 28.6 38.1 C 28.5 38.0 28.5 37.3 28.7 37.3 C 28.9 37.3 29.7 37.1 29.7 37.1 C 29.7 37.1 30.3 36.8 30.5 36.5 C 30.6 36.2 30.6 35.6 30.5 35.5 C 30.5 35.3 30.2 34.6 30.2 34.6 C 30.4 34.6 30.7 34.6 31.0 34.5 C 31.0 34.5 31.0 33.6 32.0 33.1 C 32.0 33.1 32.0 33.1 32.0 33.1 Z M 32.0 33.1 " fill="#FF2600"></path><path d="M 69.7 23.5 C 69.6 23.9 68.4 24.1 69.3 23.5 C 69.3 23.5 69.8 23.4 69.7 23.5 Z M 71.5 22.8 C 71.4 22.9 71.3 22.9 71.1 22.8 C 70.8 22.6 72.0 22.6 71.5 22.8 Z M 68.7 23.5 C 68.7 23.6 68.1 23.8 68.2 23.7 C 68.2 23.5 68.7 23.5 68.7 23.5 Z M 72.9 21.5 C 72.9 21.6 72.3 21.8 72.2 21.8 C 71.8 21.7 72.8 21.1 72.9 21.5 Z M 68.8 17.9 C 68.8 17.9 68.8 17.8 68.8 17.8 C 68.8 17.9 68.8 17.9 68.8 17.9 Z M 81.4 18.4 C 81.3 18.5 81.1 18.4 81.1 18.3 C 81.1 18.1 81.8 18.2 81.4 18.4 Z M 70.1 7.0 C 70.1 7.0 70.0 7.2 69.9 7.1 C 69.8 7.0 70.0 6.9 70.1 7.0 Z M 69.9 7.0 C 69.8 7.0 69.8 6.7 69.9 6.8 C 70.0 6.9 70.1 6.9 69.9 7.0 Z M 78.4 10.6 C 78.5 10.7 78.5 10.7 78.5 10.7 C 78.4 10.7 78.3 10.6 78.4 10.6 Z M 78.1 10.6 C 77.9 10.7 77.9 10.4 78.0 10.4 C 78.2 10.5 78.2 10.6 78.1 10.6 Z M 77.1 8.7 C 77.2 8.8 77.3 8.8 77.2 8.8 C 77.1 8.8 77.0 8.6 77.1 8.7 Z M 69.0 11.4 C 68.9 11.3 69.1 11.0 69.2 11.0 C 69.4 11.1 69.1 11.5 69.0 11.4 Z M 69.0 10.9 C 68.8 11.0 68.8 10.7 69.0 10.8 C 69.0 10.9 69.1 10.9 69.0 10.9 Z M 69.0 12.4 C 69.2 12.4 69.1 12.8 69.1 12.8 C 69.0 13.0 68.9 13.1 68.9 13.2 C 68.8 13.3 68.8 12.3 69.0 12.4 Z M 68.7 15.3 C 68.7 15.3 68.6 15.3 68.7 15.1 C 68.8 15.0 68.8 15.3 68.7 15.3 Z M 68.9 13.6 C 68.8 13.6 68.8 13.6 68.9 13.5 C 68.9 13.4 69.0 13.7 68.9 13.6 Z M 76.4 20.5 C 76.5 20.5 76.0 20.6 76.0 20.6 C 75.9 20.6 76.1 20.5 76.0 20.5 C 75.8 20.5 76.0 20.1 76.4 20.5 Z M 72.5 22.4 C 72.4 22.4 72.3 22.3 72.4 22.2 C 72.4 22.2 72.8 22.2 72.5 22.4 Z M 75.6 20.2 C 75.6 20.2 75.5 20.2 75.5 20.2 C 75.5 20.2 75.6 20.1 75.6 20.2 Z M 75.9 20.0 C 75.8 20.0 75.5 20.0 75.5 19.8 C 75.5 19.6 76.2 19.7 75.9 20.0 Z M 77.0 20.4 C 76.9 20.5 76.9 20.5 77.0 20.4 C 77.0 20.3 77.0 20.4 77.0 20.4 Z M 74.8 21.6 C 74.7 21.6 74.7 21.6 74.7 21.5 C 74.8 21.4 74.8 21.6 74.8 21.6 Z M 78.0 19.7 C 78.0 19.7 77.8 20.0 77.6 19.8 C 77.4 19.4 78.0 19.7 78.0 19.7 Z M 79.5 18.7 C 79.4 18.7 79.4 18.6 79.5 18.6 C 79.6 18.6 79.6 18.7 79.5 18.7 Z M 79.9 17.9 C 80.1 17.9 80.3 18.0 80.0 18.1 C 79.7 18.1 79.6 17.9 79.9 17.9 Z M 79.6 18.1 C 79.6 18.1 79.7 18.1 79.7 18.1 C 79.8 18.2 79.6 18.2 79.6 18.1 Z M 78.4 19.1 C 78.3 19.2 78.1 19.1 78.3 19.0 C 78.5 18.9 78.5 19.0 78.4 19.1 Z M 67.8 19.3 C 67.8 19.4 67.6 19.4 67.6 19.3 C 67.5 19.2 67.7 19.2 67.8 19.3 Z M 69.4 13.1 C 69.3 13.2 69.3 13.1 69.4 13.0 C 69.4 12.8 69.5 13.1 69.4 13.1 Z M 70.4 9.2 C 70.2 9.3 70.2 9.2 70.3 9.0 C 70.4 8.9 70.5 9.1 70.4 9.2 Z M 69.2 14.8 C 69.1 14.8 68.8 14.3 69.2 14.1 C 69.5 13.9 69.4 14.6 69.2 14.8 Z M 71.7 19.2 C 71.8 19.3 71.7 19.2 71.7 19.2 C 71.7 19.1 71.7 19.1 71.7 19.2 Z M 69.8 13.9 C 69.8 14.0 69.6 14.0 69.6 13.9 C 69.5 13.8 69.7 13.8 69.8 13.9 Z M 70.0 9.9 C 69.9 10.0 69.7 9.9 69.6 9.8 C 69.4 9.4 69.7 9.2 70.0 9.0 C 70.1 8.9 70.1 9.8 70.0 9.9 Z M 68.2 20.4 C 68.3 20.3 68.3 20.2 68.3 20.1 C 68.3 20.1 68.3 20.0 68.4 20.0 C 68.4 19.6 68.1 19.3 68.0 19.0 C 67.9 18.4 68.7 18.3 68.8 17.9 C 68.7 18.0 68.7 18.1 68.8 18.2 C 69.0 18.4 69.1 17.0 69.1 16.9 C 69.1 15.6 68.7 17.1 68.3 17.0 C 68.1 17.0 68.7 16.2 68.7 16.2 C 69.0 15.8 68.6 15.7 68.8 15.4 C 68.9 15.3 69.9 15.0 69.7 14.8 C 69.7 14.7 69.8 14.3 69.8 14.2 C 69.9 14.0 69.9 13.6 69.5 13.7 C 69.3 13.9 69.0 13.9 69.3 13.6 C 69.5 13.4 70.3 12.1 69.6 12.1 C 69.5 12.1 69.3 12.3 69.3 12.3 C 69.2 11.9 69.6 10.8 69.4 10.5 C 68.9 9.7 69.7 10.7 69.9 10.4 C 70.3 9.9 70.6 9.7 70.6 9.0 C 70.6 8.8 70.6 8.2 70.2 8.4 C 70.0 8.6 69.8 8.4 69.7 8.8 C 69.4 8.3 70.1 8.1 70.0 8.0 C 69.8 7.8 69.7 8.1 69.8 7.8 C 69.9 7.4 69.7 7.5 70.1 7.5 C 70.2 7.5 70.3 7.1 70.3 7.1 C 70.4 7.2 70.4 7.2 70.4 7.2 C 70.4 6.8 69.9 6.2 70.0 6.2 C 70.2 6.1 70.6 6.4 70.7 6.4 C 70.7 6.3 70.7 6.3 70.7 6.3 C 70.7 6.2 70.5 5.8 70.6 5.7 C 70.6 5.7 71.2 6.0 71.1 5.9 C 70.9 5.7 71.2 5.0 71.4 5.0 C 71.6 5.0 72.4 4.9 72.5 4.8 C 72.6 4.7 72.9 5.0 73.0 5.1 C 73.1 5.1 73.2 5.5 73.2 5.5 C 73.2 5.6 73.5 5.8 73.5 5.8 C 73.5 5.8 73.7 5.8 73.9 6.0 C 74.1 6.1 74.2 6.4 74.4 6.7 C 74.6 7.0 74.8 6.9 75.1 7.1 C 75.3 7.3 75.2 7.8 75.4 8.1 C 75.6 8.3 75.8 8.0 76.1 8.2 C 76.4 8.4 76.5 8.6 76.4 8.5 C 76.2 8.5 76.3 8.7 76.3 8.7 C 76.4 8.8 76.6 9.2 76.8 9.2 C 77.0 9.2 76.4 8.3 77.4 9.2 C 77.9 9.6 77.9 10.2 77.8 10.1 C 77.4 9.9 77.8 11.0 77.9 10.8 C 78.1 10.7 78.9 11.4 78.9 11.0 C 78.9 10.8 79.8 11.5 79.9 11.6 C 80.0 11.8 80.5 12.0 80.4 12.4 C 80.3 12.6 81.1 12.6 81.2 12.7 C 81.3 12.8 81.9 13.4 82.0 13.6 C 82.1 13.8 81.8 13.5 81.6 13.4 C 81.5 13.2 81.4 12.9 81.2 12.9 C 81.1 12.8 81.2 13.1 81.4 13.3 C 81.6 13.5 81.5 13.6 81.6 13.8 C 81.7 13.8 81.8 13.9 81.9 14.1 C 82.0 14.1 82.0 14.1 82.1 14.1 C 82.1 14.0 82.1 13.8 82.2 13.8 C 82.2 13.8 82.4 13.8 82.6 14.0 C 82.8 14.2 83.0 14.4 83.2 14.7 C 83.4 15.0 83.5 15.0 83.7 15.1 C 83.9 15.2 84.1 15.4 84.0 15.5 C 84.0 15.5 83.7 15.4 83.7 15.4 C 83.6 15.4 83.7 15.8 83.8 15.9 C 84.3 16.4 83.5 16.5 84.0 17.0 C 84.2 17.2 83.8 17.1 83.5 17.2 C 83.5 17.2 83.5 17.3 83.3 17.5 C 83.3 17.5 82.9 17.6 82.7 17.7 C 82.6 17.8 81.8 18.2 82.2 17.8 C 82.3 17.8 82.3 17.8 82.3 17.8 C 82.3 17.7 82.3 17.7 82.3 17.7 C 82.3 17.7 82.4 17.4 82.4 17.4 C 82.4 17.3 82.3 17.7 82.3 17.7 C 82.1 17.6 82.0 17.6 81.9 17.5 C 81.9 17.6 81.9 17.6 81.9 17.7 C 81.8 17.7 81.8 17.7 81.8 17.7 C 81.8 17.7 81.8 17.7 81.8 17.7 C 81.9 17.8 81.9 17.8 81.7 17.8 C 81.5 18.1 80.8 18.1 80.5 18.1 C 80.9 17.2 79.7 17.7 79.4 18.0 C 79.0 18.2 79.3 19.0 79.5 18.9 C 79.2 19.1 79.1 19.0 79.0 18.8 C 79.0 18.8 78.4 18.4 78.5 18.4 C 77.7 18.4 78.1 19.1 78.0 19.2 C 77.8 19.4 77.6 19.5 77.4 19.6 C 77.2 19.7 77.5 19.8 77.4 19.9 C 77.3 20.3 76.6 19.9 76.4 20.0 C 76.5 19.8 76.7 19.7 76.8 19.5 C 76.6 19.8 76.3 19.5 76.2 19.5 C 76.0 19.5 75.7 19.6 75.5 19.7 C 75.1 19.9 74.8 20.1 74.4 20.4 C 74.6 20.4 75.3 20.6 75.4 20.6 C 75.2 20.6 74.8 20.7 75.1 20.9 C 75.5 21.3 74.4 21.4 74.3 21.5 C 73.7 21.6 73.4 22.3 72.7 22.0 C 72.7 22.0 73.4 21.6 73.3 21.5 C 73.0 21.1 72.7 21.0 72.2 21.3 C 72.1 21.4 71.5 22.0 71.5 22.0 C 71.5 22.0 72.7 22.7 71.9 22.6 C 71.7 22.6 71.9 22.3 71.7 22.3 C 71.5 22.3 71.2 22.5 70.9 22.6 C 70.9 22.6 70.4 22.6 70.4 22.6 C 70.4 22.8 70.4 23.0 70.3 23.2 C 70.2 23.3 70.0 23.2 69.9 23.1 C 69.9 23.1 69.9 23.1 69.9 23.0 C 69.8 23.0 69.8 23.0 69.8 22.9 C 69.7 23.0 69.6 23.0 69.5 23.0 C 69.4 22.9 69.6 22.8 69.7 22.8 C 69.7 22.8 69.7 22.7 69.7 22.7 C 69.5 22.8 69.3 22.9 69.3 22.9 C 69.0 23.3 69.1 23.4 68.4 23.2 C 67.9 23.1 67.8 21.7 68.0 21.0 C 68.0 20.8 68.1 20.6 68.2 20.4 Z M 82.1 14.5 C 82.1 14.5 82.0 14.5 82.0 14.5 C 82.0 14.6 81.9 14.6 81.9 14.7 C 82.0 14.8 81.9 14.5 82.1 14.7 C 82.2 14.9 82.2 14.8 82.1 14.5 Z M 81.7 16.3 C 81.8 16.4 81.8 16.3 81.8 16.2 C 81.7 16.2 81.7 16.3 81.7 16.3 Z M 81.9 17.1 C 82.1 17.0 81.6 16.8 81.3 17.0 C 81.6 17.1 81.8 17.1 81.9 17.1 Z M 81.5 17.7 C 81.5 17.7 81.5 17.6 81.5 17.6 C 81.5 17.4 81.3 17.7 81.2 17.6 C 81.2 17.5 81.4 17.2 81.3 17.3 C 81.2 17.3 81.1 17.3 81.1 17.2 C 81.1 17.3 81.1 17.3 81.0 17.3 C 81.0 17.5 81.3 17.7 81.5 17.7 Z M 80.8 14.2 C 80.9 14.3 80.8 14.2 80.8 14.1 C 80.7 14.1 80.6 14.2 80.8 14.2 Z M 80.1 12.7 C 80.1 12.8 80.2 12.9 80.2 12.7 C 80.2 12.6 80.0 12.5 80.1 12.7 Z M 77.8 14.4 C 77.9 14.4 77.8 14.4 77.8 14.4 C 77.6 14.3 77.7 14.5 77.8 14.4 Z M 77.5 15.9 C 77.4 16.0 77.5 16.2 77.6 16.1 C 77.6 16.0 77.5 15.8 77.5 15.9 Z M 78.2 12.6 C 78.1 12.5 78.1 12.7 78.2 12.7 C 78.3 12.7 78.3 12.6 78.2 12.6 Z M 78.2 14.6 C 78.1 14.4 78.0 14.5 78.0 14.5 C 77.9 14.5 77.9 14.7 78.1 14.7 C 78.2 14.8 78.3 14.8 78.2 14.6 Z M 78.1 15.9 C 77.7 16.0 77.8 16.2 78.2 15.9 C 78.6 15.7 78.3 15.8 78.1 15.9 Z M 79.5 11.6 C 79.5 11.6 79.7 11.7 79.7 11.7 C 79.7 11.7 79.3 11.3 79.5 11.6 Z M 77.5 19.2 C 77.6 19.2 77.6 19.0 77.4 19.0 C 77.2 19.1 77.3 19.2 77.5 19.2 Z M 76.8 18.5 C 77.1 18.7 77.4 18.7 77.4 18.7 C 77.3 18.7 77.3 18.4 77.4 18.4 C 77.6 18.2 78.0 18.3 78.2 18.0 C 78.4 17.7 77.8 17.9 77.7 18.0 C 77.8 17.9 77.8 17.8 77.8 17.8 C 77.7 17.7 77.6 17.7 77.5 17.8 C 77.5 17.9 76.5 18.2 76.8 18.5 Z M 77.4 15.0 C 77.5 15.1 77.7 15.0 77.6 14.8 C 77.5 14.6 77.4 14.5 77.3 14.5 C 77.3 14.6 77.3 14.9 77.4 15.0 Z M 77.4 13.8 C 77.6 13.8 77.5 13.8 77.4 13.7 C 77.2 13.6 77.3 13.9 77.4 13.8 Z M 76.1 8.8 C 76.0 8.8 76.2 9.0 76.2 9.0 C 76.3 8.9 76.2 8.8 76.1 8.8 Z M 75.9 10.7 C 75.6 10.6 75.8 10.9 75.9 10.9 C 75.9 10.9 76.1 10.8 75.9 10.7 Z M 76.8 12.0 C 76.7 11.9 76.8 12.1 76.9 12.1 C 77.0 12.1 76.9 12.0 76.8 12.0 Z M 76.8 12.7 C 76.7 12.6 76.7 12.8 76.9 12.8 C 77.0 12.9 76.9 12.8 76.8 12.7 Z M 75.3 18.6 C 75.3 18.6 75.3 18.3 75.2 18.5 C 75.0 18.7 75.0 18.7 75.3 18.6 Z M 76.2 16.5 C 76.4 16.4 76.6 16.3 76.5 15.6 C 76.4 15.0 76.2 15.2 76.0 15.6 C 75.9 15.9 75.8 14.9 75.5 15.6 C 75.4 15.9 76.0 16.6 76.2 16.5 Z M 75.7 12.6 C 75.9 13.0 76.4 13.0 76.2 12.7 C 75.9 12.4 75.6 12.2 75.7 12.6 Z M 75.7 12.3 C 75.8 12.3 75.8 12.3 75.7 12.2 C 75.6 12.1 75.6 12.3 75.7 12.3 Z M 74.7 21.1 C 75.3 20.7 74.4 20.6 74.4 20.6 C 73.6 20.7 74.0 21.6 74.7 21.1 Z M 70.7 7.5 C 70.7 7.6 70.7 7.6 70.6 7.6 C 70.6 7.6 70.6 7.6 70.7 7.7 C 70.7 7.8 70.9 7.5 70.9 7.5 C 70.8 7.5 70.7 7.5 70.7 7.5 Z M 69.9 11.3 C 70.0 11.2 69.9 11.1 69.9 10.9 C 69.5 10.9 69.3 12.1 70.0 11.7 C 70.1 11.7 70.7 11.0 70.4 10.9 C 70.3 10.9 69.8 11.7 69.9 11.3 Z M 70.6 10.2 C 70.5 10.7 71.1 9.9 70.8 10.0 C 70.7 10.0 70.6 10.1 70.6 10.2 Z M 72.2 7.0 C 72.0 6.4 71.1 6.3 71.4 7.3 C 71.7 8.4 72.1 8.5 72.1 8.0 C 72.0 7.5 72.4 7.9 72.2 7.0 Z M 71.4 11.9 C 70.7 11.7 70.9 12.0 71.3 12.3 C 71.4 12.4 71.8 12.1 71.4 11.9 Z M 71.3 13.3 C 71.2 13.5 71.2 13.5 71.3 13.4 C 71.5 13.3 71.4 13.2 71.3 13.3 Z M 73.2 6.2 C 73.1 5.9 72.9 5.7 73.1 5.7 C 73.2 5.7 73.2 5.7 73.1 5.5 C 72.9 5.3 72.9 5.7 72.9 5.8 C 72.9 5.9 73.3 6.4 73.2 6.2 Z M 74.6 11.8 C 74.5 11.7 74.5 11.9 74.6 11.9 C 74.7 11.9 74.7 11.9 74.6 11.8 Z M 74.5 17.1 C 74.5 17.1 74.4 17.0 74.4 17.1 C 74.3 17.2 74.3 17.2 74.5 17.1 Z M 73.6 21.3 C 73.7 21.2 73.4 21.1 73.5 20.9 C 73.5 20.8 73.6 21.0 73.6 21.0 C 73.6 21.0 73.6 20.4 73.4 20.8 C 73.3 20.9 73.3 21.5 73.6 21.3 Z M 74.2 13.2 C 74.4 13.5 74.7 12.6 74.8 12.8 C 75.0 13.0 75.0 12.9 74.8 12.6 C 74.7 12.4 74.0 12.9 74.2 13.2 Z M 74.4 11.0 C 74.4 11.1 74.8 11.6 74.7 11.3 C 74.6 11.1 74.4 10.9 74.6 10.9 C 74.7 10.9 74.7 10.8 74.6 10.7 C 74.5 10.5 74.4 10.8 74.4 11.0 Z M 74.8 7.2 C 74.8 7.3 75.1 7.5 75.0 7.3 C 75.0 7.2 74.8 7.1 74.8 7.2 Z M 73.0 17.5 C 73.1 17.4 73.0 17.3 72.8 17.4 C 72.7 17.6 72.9 17.7 73.0 17.5 Z M 74.1 7.5 C 74.3 7.7 74.2 7.3 74.4 7.5 C 74.5 7.7 74.5 7.6 74.4 7.4 C 74.2 7.1 74.0 7.2 74.1 7.5 Z M 71.9 20.8 C 71.9 20.7 71.9 20.6 71.8 20.7 C 71.7 20.8 71.8 20.9 71.9 20.8 Z M 71.6 19.4 C 71.6 19.3 71.7 19.3 71.8 19.3 C 72.7 18.8 71.0 19.0 71.6 19.4 Z M 72.0 17.2 C 72.0 17.5 72.2 17.2 72.2 17.2 C 72.1 17.1 72.1 17.1 72.0 17.2 Z M 72.4 14.9 C 72.3 14.8 72.3 15.0 72.4 15.0 C 72.5 15.0 72.5 14.9 72.4 14.9 Z M 70.8 22.4 C 70.9 22.4 70.9 22.3 70.8 22.3 C 70.7 22.3 70.6 22.4 70.8 22.4 Z M 71.6 16.5 C 71.6 16.6 71.7 16.6 71.6 16.4 C 71.6 16.3 71.5 16.5 71.6 16.5 Z M 72.7 9.4 C 72.7 9.4 72.8 9.5 72.8 9.6 C 73.0 9.5 73.1 9.1 73.2 9.1 C 73.2 9.1 73.2 9.1 73.2 9.1 C 73.3 9.1 73.3 9.1 73.3 9.1 C 73.4 9.1 73.4 9.2 73.3 9.2 C 73.4 9.3 73.4 9.4 73.4 9.5 C 73.5 9.4 73.7 9.2 73.6 9.1 C 73.5 8.9 73.2 8.8 72.9 8.8 C 72.8 8.9 72.8 9.0 72.7 9.1 C 72.7 9.1 72.8 9.1 72.8 9.1 C 72.9 9.2 73.0 9.3 72.8 9.3 C 72.8 9.3 72.7 9.3 72.7 9.2 C 72.7 9.3 72.7 9.3 72.7 9.4 Z M 71.4 15.6 C 71.5 15.8 71.6 15.7 71.7 15.4 C 71.7 15.3 71.3 15.4 71.4 15.6 Z M 70.6 22.1 C 70.6 22.0 70.6 22.0 70.5 21.9 C 70.5 21.9 70.5 22.0 70.5 22.0 C 70.4 22.1 70.4 22.3 70.3 22.4 C 70.5 22.4 70.6 22.3 70.6 22.1 Z M 70.2 19.9 C 70.2 20.0 70.1 20.9 70.3 20.7 C 70.6 20.5 70.9 21.0 70.8 20.3 C 70.8 20.0 70.4 19.7 70.4 19.4 C 70.3 17.8 69.9 19.7 69.8 20.1 C 69.8 20.2 70.2 19.8 70.2 19.9 Z M 70.1 17.9 C 70.0 17.8 69.8 18.0 69.7 18.1 C 69.7 18.5 70.2 18.0 70.1 17.9 Z M 69.2 22.1 C 69.2 22.1 69.2 22.1 69.3 22.1 C 69.3 22.1 69.2 22.0 69.2 22.0 C 69.2 22.0 69.2 22.0 69.2 22.1 Z M 68.9 23.1 C 69.4 22.8 68.6 22.7 68.4 22.8 C 68.0 22.8 68.6 23.3 68.9 23.1 Z M 69.2 18.9 C 69.3 18.6 68.4 18.1 68.4 18.7 C 68.3 19.2 69.0 19.6 69.2 18.9 Z M 68.6 15.6 C 68.7 15.7 68.4 16.0 68.3 15.8 C 68.3 15.7 68.5 15.5 68.6 15.6 Z M 67.4 20.2 C 67.4 20.1 67.4 20.2 67.4 20.2 C 67.3 20.3 67.3 20.3 67.4 20.2 Z M 68.1 19.9 C 68.0 20.0 67.9 20.2 67.8 20.3 C 67.8 20.4 67.8 20.1 67.8 20.0 C 67.8 19.9 68.0 19.9 68.1 19.9 Z M 68.5 17.4 C 68.4 17.5 68.4 17.3 68.5 17.2 C 68.5 17.1 68.6 17.3 68.5 17.4 Z M 68.2 17.9 C 68.3 17.8 68.4 17.9 68.3 18.0 C 68.3 18.2 68.2 18.0 68.2 17.9 Z M 68.9 17.0 C 68.9 17.2 68.9 17.6 68.7 17.5 C 68.6 17.5 68.8 16.4 68.9 17.0 Z M 68.9 17.0 " fill="#FF2600"></path><text xml:space="preserve" font-family="Helvetica-Bold" font-weight="bold" font-size="24.0" fill="#FF2600" transform="matrix(1.00, 0.00, -0.00, -1.00, 98.0, 7.0)">S</text><text xml:space="preserve" font-family="Helvetica-Bold" font-weight="bold" font-size="24.0" fill="#FF2600" transform="matrix(1.00, 0.00, -0.00, -1.00, 114.0, 7.0)">c</text><text xml:space="preserve" font-family="Helvetica-Bold" font-weight="bold" font-size="24.0" fill="#FF2600" transform="matrix(1.00, 0.00, -0.00, -1.00, 127.4, 7.0)">o</text><text xml:space="preserve" font-family="Helvetica-Bold" font-weight="bold" font-size="24.0" fill="#FF2600" transform="matrix(1.00, 0.00, -0.00, -1.00, 142.0, 7.0)">r</text><text xml:space="preserve" font-family="Helvetica-Bold" font-weight="bold" font-size="24.0" fill="#FF2600" transform="matrix(1.00, 0.00, -0.00, -1.00, 151.4, 7.0)">e</text></g></svg>