<?xml version="1.0" encoding="UTF-8" standalone="no"?><svg xmlns="http://www.w3.org/2000/svg" xmlns:xlink="http://www.w3.org/1999/xlink" clip-rule="evenodd" stroke-miterlimit="4.00" viewBox="0 0 314 113"><desc>SVG generated by Keynote</desc><defs></defs><g transform="matrix(1.00, 0.00, -0.00, -1.00, 0.0, 113.0)"><path d="M 19.2 10.1 C 18.9 10.2 18.6 9.8 17.8 9.7 C 17.0 9.7 16.0 9.8 16.3 10.1 C 16.5 10.4 16.8 10.5 16.5 11.0 C 16.1 11.4 15.8 12.2 16.3 12.4 C 16.9 12.6 19.2 12.9 19.8 12.5 C 20.4 12.0 20.6 11.8 21.1 11.5 C 21.5 11.2 21.3 12.0 21.3 12.0 C 21.3 12.0 22.5 12.0 23.3 11.9 C 24.2 11.8 25.2 11.7 25.3 11.5 C 25.3 11.4 25.6 11.1 25.6 11.1 C 25.6 11.1 26.1 11.4 26.7 11.4 C 27.4 11.3 27.1 11.2 27.0 11.0 C 26.9 10.8 26.1 10.4 26.3 10.4 C 26.6 10.3 27.5 11.0 28.0 11.0 C 28.4 11.0 29.4 10.8 29.4 10.8 C 29.4 10.8 29.3 10.4 29.3 10.3 C 29.4 10.2 30.4 10.0 30.4 10.1 C 30.5 10.3 30.5 10.8 31.0 10.7 C 32.5 10.6 32.2 9.8 32.3 9.7 C 32.5 9.7 32.5 10.4 32.9 10.4 C 33.3 10.5 36.2 10.0 36.4 9.8 C 36.5 9.6 37.6 10.1 38.0 9.6 C 38.4 9.2 38.5 9.0 38.5 8.9 C 38.6 8.8 39.1 8.0 39.4 8.2 C 39.7 8.5 38.6 9.4 39.0 9.6 C 39.4 9.7 41.2 9.5 41.5 9.3 C 41.9 8.9 42.0 8.3 42.2 8.3 C 42.5 8.2 43.6 8.9 43.7 8.8 C 43.8 8.7 43.8 7.9 43.8 7.8 C 43.8 7.7 44.0 6.4 43.8 6.2 C 43.5 6.1 42.4 5.8 42.5 6.1 C 42.7 6.4 43.0 6.9 42.7 7.1 C 42.3 7.3 42.1 7.3 42.0 7.2 C 41.9 7.1 42.1 6.9 41.4 6.7 C 40.7 6.6 41.0 6.3 40.4 6.4 C 39.8 6.5 39.2 6.6 39.3 6.9 C 39.4 7.1 38.8 7.6 38.4 7.6 C 37.9 7.7 38.6 7.0 37.2 6.9 C 35.8 6.8 34.9 6.9 34.5 7.2 C 34.1 7.5 34.2 8.2 33.4 8.0 C 32.7 7.8 33.1 7.5 32.2 7.7 C 31.3 7.8 31.0 8.4 30.4 8.5 C 29.9 8.6 29.7 8.6 29.7 8.6 C 29.7 8.6 29.9 7.7 28.6 7.9 C 27.3 8.0 27.0 8.0 27.4 8.6 C 27.7 9.1 26.7 9.3 26.6 8.9 C 26.5 8.5 25.7 8.4 25.3 8.4 C 24.8 8.4 24.8 9.4 24.6 9.5 C 24.5 9.5 23.9 9.5 24.1 9.2 C 24.3 8.8 23.7 8.9 23.3 8.8 C 22.9 8.7 21.7 9.0 21.7 9.2 C 21.8 9.4 22.5 9.9 21.6 9.7 C 20.7 9.5 20.4 9.0 19.7 9.2 C 18.9 9.3 19.7 9.8 19.2 10.1 C 19.2 10.1 19.2 10.1 19.2 10.1 Z M 44.2 5.9 C 42.8 6.1 44.0 8.6 44.6 9.1 C 45.2 9.5 46.1 9.1 47.0 9.1 C 47.9 9.1 47.5 8.3 48.0 8.0 C 48.5 7.7 48.3 8.2 48.6 8.6 C 48.9 9.0 50.2 8.5 51.0 8.4 C 51.8 8.4 52.6 7.4 53.3 7.3 C 53.9 7.2 52.6 6.9 53.8 6.8 C 55.0 6.8 54.5 7.3 53.1 7.7 C 51.8 8.1 53.7 8.2 54.5 8.2 C 55.2 8.2 56.4 7.7 57.0 7.7 C 57.6 7.7 56.8 7.1 57.7 7.0 C 58.5 7.0 58.1 7.7 59.0 7.7 C 59.9 7.7 59.7 7.1 60.1 6.9 C 60.5 6.7 60.5 7.1 60.9 7.2 C 61.2 7.2 61.8 7.3 62.6 7.1 C 63.4 6.9 63.2 6.7 63.5 6.6 C 63.9 6.6 64.5 6.5 64.5 6.5 C 64.6 6.7 64.6 6.9 64.7 7.2 C 64.7 7.2 66.2 7.1 66.6 7.1 C 67.0 7.1 68.0 6.8 67.7 6.6 C 67.4 6.5 68.4 6.0 68.6 6.1 C 68.8 6.2 69.6 6.5 70.1 6.6 C 70.6 6.7 70.3 5.0 70.3 4.7 C 70.3 4.5 70.5 3.5 70.1 3.5 C 69.6 3.4 69.3 3.8 69.3 3.5 C 69.4 3.3 68.1 3.6 67.8 3.6 C 67.4 3.7 67.0 4.3 67.0 4.3 C 67.0 4.3 66.7 4.9 66.1 4.9 C 65.5 5.0 65.2 3.9 65.2 3.9 C 65.2 3.9 64.5 3.8 63.8 3.9 C 63.1 4.0 62.3 5.0 62.2 5.2 C 62.1 5.4 62.0 4.6 61.5 4.5 C 61.0 4.4 60.2 4.3 60.0 4.3 C 59.8 4.4 59.5 5.0 59.5 5.0 C 59.5 5.0 58.6 5.4 58.3 5.4 C 58.1 5.4 58.4 4.6 58.4 4.6 C 58.4 4.6 56.4 4.6 56.0 4.5 C 55.6 4.5 54.9 4.8 54.7 4.9 C 54.4 4.9 54.0 6.0 53.6 5.9 C 53.1 5.9 54.0 5.2 53.5 5.2 C 53.1 5.1 52.2 5.0 52.0 5.1 C 51.8 5.1 51.5 5.4 51.2 5.5 C 50.8 5.6 50.4 6.4 49.8 6.5 C 49.2 6.5 48.8 6.1 48.6 6.1 C 48.4 6.0 48.1 5.4 47.7 5.4 C 47.2 5.4 47.6 5.8 47.1 5.9 C 46.7 5.9 46.7 6.4 46.3 6.4 C 45.8 6.3 46.0 5.5 45.5 5.7 C 45.3 5.7 45.5 5.7 44.2 5.9 C 44.2 5.9 44.2 5.9 44.2 5.9 Z M 71.1 3.5 C 70.5 3.2 70.0 3.7 70.1 4.0 C 70.2 4.4 70.5 5.3 70.3 5.6 C 70.1 5.9 69.4 6.7 70.5 6.7 C 71.6 6.8 71.8 6.5 71.8 6.3 C 71.8 6.1 71.9 5.0 72.2 5.1 C 72.5 5.2 72.8 5.4 72.9 5.6 C 73.0 5.7 73.4 6.6 73.9 6.5 C 74.5 6.3 74.9 6.0 74.9 6.0 C 75.2 5.9 75.4 5.9 75.7 5.9 C 75.7 5.9 76.5 6.4 77.0 6.3 C 77.6 6.1 78.2 6.1 78.6 6.1 C 79.1 6.1 79.5 6.0 79.6 5.8 C 79.6 5.5 80.1 4.7 80.1 4.7 C 80.1 4.7 80.8 4.4 81.0 4.5 C 81.3 4.7 81.4 5.1 81.4 5.3 C 81.3 5.5 81.4 5.9 81.8 6.0 C 82.3 6.1 84.1 6.5 84.4 6.2 C 84.7 5.9 84.6 5.5 84.8 5.4 C 85.0 5.3 86.2 5.2 86.3 5.5 C 86.4 5.7 86.3 6.2 86.7 6.1 C 87.0 6.1 87.7 6.2 87.7 6.0 C 87.7 5.9 88.0 5.8 88.0 5.5 C 88.0 5.2 88.7 4.9 88.8 4.8 C 89.0 4.7 89.5 4.6 89.5 4.6 C 89.7 4.7 90.0 4.9 90.2 5.0 C 90.2 5.0 89.8 5.6 89.6 5.7 C 89.4 5.8 89.8 6.1 90.0 6.1 C 90.2 6.2 91.5 6.0 91.5 6.0 C 91.5 5.6 91.5 5.3 91.5 4.9 C 91.8 4.8 92.2 4.7 92.5 4.6 C 92.5 4.6 92.4 6.0 93.0 5.9 C 93.6 5.9 94.4 5.9 94.4 5.9 C 94.4 5.9 95.0 5.4 95.2 5.3 C 95.3 5.3 95.4 4.1 95.4 4.1 C 95.3 3.6 95.3 3.2 95.2 2.7 C 95.2 2.7 94.4 2.2 94.0 2.4 C 93.6 2.6 94.0 3.1 93.9 3.4 C 93.9 3.6 93.2 3.8 93.2 3.8 C 92.9 3.6 92.7 3.3 92.4 3.1 C 92.4 3.1 92.1 2.9 91.8 2.6 C 91.5 2.4 90.6 2.3 90.3 2.4 C 90.0 2.5 89.7 2.8 89.4 3.1 C 89.0 3.3 89.1 3.7 88.7 3.4 C 88.3 3.1 88.0 2.8 87.8 2.8 C 87.6 2.8 86.7 3.3 86.7 3.3 C 86.5 3.4 86.2 3.5 86.0 3.6 C 86.0 3.6 85.3 3.9 85.2 3.6 C 85.1 3.3 83.7 3.7 83.7 3.7 C 83.7 3.7 83.8 2.9 83.5 2.8 C 83.1 2.6 82.5 2.5 82.0 2.6 C 81.4 2.8 81.0 3.6 81.0 3.6 C 80.8 3.4 80.6 3.2 80.4 3.0 C 79.9 3.0 79.4 3.0 78.8 2.9 C 78.8 2.9 77.6 3.0 77.6 3.2 C 77.6 3.3 77.8 4.0 77.8 4.2 C 77.7 4.4 77.1 4.6 77.0 4.4 C 76.9 4.2 76.3 3.6 76.3 3.6 C 76.3 3.6 75.8 3.2 75.4 3.2 C 75.0 3.1 74.5 3.4 74.3 3.6 C 74.2 3.7 73.6 4.3 73.6 4.3 C 73.5 4.1 73.3 3.8 73.1 3.6 C 73.1 3.6 72.2 4.0 71.1 3.5 C 71.1 3.5 71.1 3.5 71.1 3.5 Z M 95.7 2.3 C 94.5 2.3 95.4 5.0 95.8 5.5 C 96.3 6.0 97.1 5.7 97.9 5.7 C 98.8 5.8 98.5 5.0 98.9 4.8 C 99.4 4.5 99.3 5.1 99.5 5.4 C 99.7 5.8 100.9 5.5 101.6 5.5 C 102.4 5.5 103.2 4.7 103.8 4.6 C 104.4 4.6 103.2 4.1 104.3 4.2 C 105.4 4.2 104.8 4.7 103.6 5.0 C 102.4 5.3 104.1 5.5 104.8 5.6 C 105.4 5.7 106.6 5.3 107.1 5.4 C 107.6 5.4 107.0 4.7 107.7 4.8 C 108.5 4.8 108.1 5.5 108.9 5.6 C 109.6 5.7 109.6 5.1 110.0 4.9 C 110.3 4.8 110.3 5.2 110.6 5.2 C 110.9 5.3 111.4 5.5 112.2 5.3 C 112.9 5.2 112.7 5.0 113.0 5.0 C 113.3 4.9 113.9 4.9 113.9 4.9 C 114.0 5.2 114.0 5.4 114.0 5.6 C 114.0 5.6 115.3 5.7 115.7 5.8 C 116.1 5.8 117.0 5.6 116.8 5.4 C 116.5 5.2 117.4 4.8 117.6 4.9 C 117.8 5.0 118.5 5.4 118.9 5.6 C 119.4 5.7 119.3 4.0 119.3 3.8 C 119.3 3.5 119.6 2.6 119.2 2.5 C 118.8 2.4 118.5 2.7 118.6 2.5 C 118.6 2.2 117.5 2.4 117.1 2.4 C 116.8 2.4 116.4 3.0 116.4 3.0 C 116.4 3.0 116.1 3.6 115.5 3.6 C 115.0 3.5 114.8 2.5 114.8 2.5 C 114.8 2.5 114.2 2.2 113.5 2.3 C 112.9 2.3 112.1 3.2 112.0 3.4 C 111.9 3.6 111.9 2.8 111.4 2.6 C 111.0 2.5 110.3 2.3 110.1 2.3 C 109.9 2.4 109.6 2.9 109.6 2.9 C 109.6 2.9 108.7 3.2 108.5 3.2 C 108.3 3.2 108.7 2.4 108.7 2.4 C 108.7 2.4 106.8 2.2 106.5 2.1 C 106.1 2.1 105.5 2.3 105.2 2.3 C 105.0 2.4 104.6 3.4 104.2 3.3 C 103.8 3.2 104.6 2.6 104.2 2.5 C 103.8 2.4 103.0 2.2 102.8 2.2 C 102.6 2.2 102.4 2.6 102.0 2.6 C 101.7 2.7 101.2 3.4 100.7 3.4 C 100.1 3.4 99.9 3.0 99.7 2.9 C 99.5 2.8 99.3 2.2 98.9 2.1 C 98.5 2.1 98.8 2.6 98.4 2.6 C 98.0 2.6 98.0 3.1 97.6 3.0 C 97.2 2.9 97.4 2.1 96.9 2.2 C 96.7 2.2 96.9 2.2 95.7 2.3 C 95.7 2.3 95.7 2.3 95.7 2.3 Z M 120.2 2.6 C 119.6 2.2 119.1 2.7 119.2 3.0 C 119.2 3.4 119.4 4.4 119.2 4.7 C 119.0 4.9 118.3 5.6 119.3 5.8 C 120.2 6.0 120.5 5.7 120.5 5.5 C 120.5 5.2 120.7 4.2 121.0 4.3 C 121.2 4.4 121.5 4.7 121.5 4.9 C 121.6 5.0 121.9 6.0 122.4 5.9 C 122.9 5.7 123.3 5.5 123.3 5.5 C 123.6 5.5 123.8 5.5 124.0 5.5 C 124.0 5.5 124.7 6.1 125.2 6.0 C 125.7 5.9 126.3 5.9 126.7 6.0 C 127.0 6.1 127.4 6.0 127.5 5.8 C 127.6 5.5 128.1 4.7 128.1 4.7 C 128.1 4.7 128.7 4.5 129.0 4.7 C 129.2 4.8 129.3 5.3 129.2 5.5 C 129.1 5.7 129.1 6.1 129.5 6.3 C 129.9 6.4 131.5 6.9 131.8 6.7 C 132.1 6.4 132.0 6.0 132.2 6.0 C 132.4 5.9 133.5 5.9 133.6 6.2 C 133.7 6.4 133.6 6.9 133.9 6.9 C 134.2 6.9 134.8 7.0 134.8 6.9 C 134.8 6.8 135.0 6.6 135.1 6.4 C 135.1 6.1 135.8 5.9 135.9 5.8 C 136.1 5.7 136.6 5.7 136.6 5.7 C 136.8 5.8 136.9 6.0 137.1 6.2 C 137.1 6.2 136.7 6.6 136.5 6.7 C 136.3 6.8 136.6 7.1 136.8 7.2 C 137.0 7.3 138.2 7.3 138.2 7.3 C 138.2 6.9 138.3 6.5 138.3 6.1 C 138.6 6.1 138.9 6.0 139.2 6.0 C 139.2 6.0 139.0 7.3 139.6 7.4 C 140.1 7.4 140.8 7.5 140.8 7.5 C 140.8 7.5 141.4 7.0 141.6 7.0 C 141.7 7.0 141.9 5.8 141.9 5.8 C 141.9 5.3 141.9 4.8 141.9 4.4 C 141.9 4.4 141.3 3.8 140.9 4.0 C 140.5 4.1 140.7 4.7 140.7 4.9 C 140.6 5.1 140.0 5.3 140.0 5.3 C 139.8 5.0 139.5 4.7 139.3 4.4 C 139.3 4.4 139.1 4.2 138.9 3.9 C 138.6 3.7 137.8 3.5 137.5 3.5 C 137.2 3.6 137.0 3.9 136.6 4.1 C 136.3 4.3 136.3 4.7 136.0 4.4 C 135.6 4.0 135.5 3.7 135.3 3.6 C 135.1 3.6 134.2 4.0 134.2 4.0 C 134.0 4.1 133.7 4.2 133.5 4.3 C 133.5 4.3 132.9 4.5 132.8 4.2 C 132.7 3.9 131.5 4.2 131.5 4.2 C 131.5 4.2 131.6 3.3 131.3 3.2 C 131.0 3.0 130.5 2.8 130.0 2.9 C 129.5 3.0 129.0 3.8 129.0 3.8 C 128.9 3.6 128.7 3.3 128.6 3.1 C 128.1 3.0 127.6 2.9 127.2 2.9 C 127.2 2.9 126.0 2.8 126.0 3.0 C 126.0 3.1 126.1 3.8 126.1 4.0 C 126.0 4.2 125.4 4.4 125.3 4.2 C 125.3 3.9 124.8 3.2 124.8 3.2 C 124.8 3.2 124.4 2.8 124.0 2.7 C 123.7 2.7 123.2 2.9 123.0 3.0 C 122.9 3.2 122.4 3.6 122.4 3.6 C 122.2 3.4 122.1 3.2 122.0 3.0 C 122.0 3.0 121.1 3.3 120.2 2.6 C 120.2 2.6 120.2 2.6 120.2 2.6 Z M 142.4 4.0 C 141.3 3.9 141.8 6.6 142.1 7.2 C 142.5 7.8 143.3 7.5 144.0 7.7 C 144.7 7.9 144.6 7.0 145.0 6.8 C 145.5 6.6 145.3 7.2 145.4 7.6 C 145.5 8.0 146.7 7.8 147.3 7.9 C 148.0 8.0 148.8 7.2 149.4 7.2 C 149.9 7.2 148.9 6.7 149.9 6.8 C 150.8 7.0 150.3 7.4 149.2 7.6 C 148.0 7.7 149.6 8.1 150.1 8.3 C 150.7 8.5 151.8 8.2 152.2 8.3 C 152.7 8.4 152.2 7.7 152.9 7.8 C 153.6 7.9 153.1 8.5 153.8 8.7 C 154.5 8.9 154.5 8.3 154.9 8.2 C 155.3 8.1 155.1 8.5 155.4 8.6 C 155.7 8.7 156.1 8.9 156.8 8.9 C 157.5 8.8 157.3 8.6 157.6 8.6 C 157.9 8.6 158.4 8.7 158.4 8.7 C 158.5 8.9 158.5 9.1 158.5 9.4 C 158.5 9.4 159.6 9.6 160.0 9.7 C 160.3 9.8 161.1 9.6 160.9 9.5 C 160.8 9.3 161.6 9.0 161.8 9.1 C 161.9 9.2 162.5 9.6 162.8 9.9 C 163.2 10.1 163.4 8.4 163.4 8.1 C 163.5 7.9 163.9 7.0 163.5 6.8 C 163.2 6.7 162.8 7.0 162.9 6.8 C 163.0 6.5 161.9 6.6 161.7 6.5 C 161.4 6.5 160.9 7.1 160.9 7.1 C 160.9 7.1 160.5 7.6 160.1 7.5 C 159.6 7.4 159.6 6.3 159.6 6.3 C 159.6 6.3 159.0 6.0 158.4 6.0 C 157.8 5.9 157.1 6.7 156.9 6.9 C 156.8 7.1 156.9 6.3 156.5 6.1 C 156.1 6.0 155.5 5.6 155.3 5.6 C 155.2 5.7 154.8 6.2 154.8 6.2 C 154.8 6.2 154.0 6.4 153.8 6.4 C 153.6 6.3 154.0 5.6 154.0 5.6 C 154.0 5.6 152.4 5.1 152.1 5.0 C 151.8 4.9 151.2 5.1 151.0 5.1 C 150.7 5.1 150.2 6.1 149.9 5.9 C 149.5 5.8 150.3 5.3 150.0 5.2 C 149.6 5.0 149.0 4.8 148.8 4.8 C 148.6 4.7 148.3 5.0 148.0 5.1 C 147.7 5.1 147.2 5.7 146.7 5.7 C 146.3 5.6 146.1 5.2 145.9 5.1 C 145.7 4.9 145.7 4.3 145.3 4.2 C 144.9 4.2 145.1 4.6 144.8 4.6 C 144.4 4.5 144.3 5.0 144.0 4.9 C 143.6 4.8 143.9 4.0 143.5 4.1 C 143.3 4.1 143.5 4.1 142.4 4.0 C 142.4 4.0 142.4 4.0 142.4 4.0 Z M 165.6 8.0 C 165.4 8.0 165.3 7.5 164.8 7.3 C 164.2 7.0 163.5 6.9 163.6 7.2 C 163.7 7.5 163.8 7.8 163.5 8.1 C 163.1 8.5 162.6 9.1 163.0 9.4 C 163.4 9.8 164.8 10.7 165.4 10.4 C 165.9 10.2 166.1 10.0 166.5 9.9 C 166.9 9.7 166.6 10.5 166.6 10.5 C 166.6 10.5 167.4 10.7 168.0 10.9 C 168.6 11.0 169.3 11.2 169.4 11.1 C 169.5 11.0 169.8 10.7 169.8 10.7 C 169.8 10.7 170.1 11.2 170.5 11.3 C 170.9 11.5 170.8 11.2 170.8 11.0 C 170.8 10.8 170.3 10.2 170.5 10.3 C 170.7 10.3 171.1 11.2 171.4 11.4 C 171.8 11.5 172.5 11.6 172.5 11.6 C 172.5 11.6 172.5 11.1 172.6 11.0 C 172.7 11.0 173.4 11.0 173.4 11.2 C 173.4 11.4 173.2 11.8 173.6 11.9 C 174.7 12.2 174.7 11.4 174.8 11.3 C 174.9 11.3 174.8 12.0 175.0 12.2 C 175.3 12.3 177.5 12.7 177.6 12.6 C 177.8 12.4 178.3 13.2 178.8 12.9 C 179.2 12.5 179.3 12.4 179.4 12.3 C 179.5 12.2 180.0 11.7 180.2 12.0 C 180.3 12.3 179.3 12.8 179.5 13.1 C 179.7 13.3 181.0 13.7 181.3 13.6 C 181.7 13.3 181.9 12.7 182.1 12.8 C 182.3 12.8 182.9 13.8 183.0 13.7 C 183.1 13.6 183.3 12.9 183.4 12.8 C 183.4 12.7 184.0 11.5 183.8 11.3 C 183.7 11.1 183.0 10.5 183.0 10.8 C 183.1 11.2 183.1 11.7 182.8 11.8 C 182.5 11.9 182.3 11.9 182.3 11.7 C 182.3 11.6 182.5 11.4 182.0 11.1 C 181.6 10.8 181.9 10.5 181.5 10.5 C 181.0 10.4 180.6 10.4 180.6 10.6 C 180.6 10.9 180.0 11.2 179.7 11.1 C 179.4 11.0 180.0 10.5 179.1 10.1 C 178.1 9.6 177.5 9.4 177.1 9.6 C 176.8 9.7 176.6 10.4 176.1 10.0 C 175.7 9.6 176.0 9.5 175.4 9.3 C 174.7 9.2 174.3 9.7 173.9 9.7 C 173.5 9.6 173.3 9.6 173.3 9.6 C 173.3 9.6 173.8 8.8 172.8 8.5 C 171.8 8.3 171.7 8.2 171.7 8.8 C 171.8 9.5 171.1 9.4 171.1 9.0 C 171.2 8.6 170.7 8.2 170.3 8.1 C 170.0 8.0 169.7 9.0 169.6 9.0 C 169.5 9.0 169.1 8.8 169.3 8.5 C 169.5 8.2 169.1 8.1 168.9 7.9 C 168.6 7.7 167.7 7.7 167.7 7.8 C 167.6 8.0 167.9 8.8 167.4 8.3 C 166.9 7.9 166.8 7.4 166.2 7.3 C 165.6 7.2 166.0 7.9 165.6 8.0 C 165.6 8.0 165.6 8.0 165.6 8.0 Z M 184.7 11.3 C 184.3 10.9 183.7 11.2 183.7 11.6 C 183.7 11.9 183.6 12.9 183.4 13.2 C 183.1 13.4 182.4 13.9 183.2 14.3 C 184.0 14.6 184.2 14.4 184.3 14.1 C 184.4 13.9 184.8 13.0 185.0 13.1 C 185.2 13.3 185.3 13.6 185.3 13.7 C 185.4 13.9 185.4 14.9 185.9 14.9 C 186.3 14.8 186.7 14.7 186.7 14.7 C 186.9 14.7 187.1 14.7 187.3 14.8 C 187.3 14.8 187.7 15.5 188.2 15.5 C 188.7 15.5 189.1 15.6 189.5 15.7 C 189.8 15.9 190.1 15.9 190.2 15.7 C 190.3 15.5 191.0 14.8 191.0 14.8 C 191.0 14.8 191.5 14.7 191.7 14.9 C 191.9 15.1 191.8 15.5 191.7 15.7 C 191.6 15.9 191.5 16.3 191.8 16.5 C 192.1 16.7 193.4 17.5 193.7 17.3 C 194.0 17.1 194.0 16.7 194.2 16.7 C 194.4 16.7 195.3 16.9 195.3 17.1 C 195.3 17.4 195.1 17.8 195.4 17.9 C 195.7 17.9 196.1 18.2 196.2 18.1 C 196.2 17.9 196.4 17.9 196.5 17.6 C 196.6 17.3 197.2 17.3 197.4 17.2 C 197.5 17.1 198.0 17.2 198.0 17.2 C 198.1 17.4 198.2 17.6 198.3 17.8 C 198.3 17.8 197.9 18.2 197.7 18.2 C 197.5 18.2 197.7 18.6 197.8 18.7 C 198.0 18.8 199.0 19.0 199.0 19.0 C 199.1 18.7 199.2 18.3 199.4 18.0 C 199.6 18.0 199.9 18.0 200.2 18.0 C 200.2 18.0 199.7 19.2 200.1 19.4 C 200.6 19.5 201.2 19.7 201.2 19.7 C 201.2 19.7 201.8 19.4 201.9 19.4 C 202.1 19.4 202.5 18.3 202.5 18.3 C 202.6 17.8 202.7 17.4 202.8 16.9 C 202.8 16.9 202.4 16.3 202.0 16.3 C 201.7 16.4 201.8 17.0 201.6 17.2 C 201.5 17.4 201.0 17.5 201.0 17.5 C 200.9 17.1 200.7 16.8 200.6 16.5 C 200.6 16.5 200.5 16.2 200.3 15.9 C 200.2 15.6 199.5 15.3 199.2 15.3 C 199.0 15.3 198.7 15.6 198.4 15.7 C 198.0 15.8 198.0 16.2 197.7 15.8 C 197.5 15.4 197.5 15.0 197.3 15.0 C 197.2 14.9 196.3 15.2 196.3 15.2 C 196.1 15.2 195.9 15.3 195.6 15.3 C 195.6 15.3 195.1 15.4 195.1 15.1 C 195.1 14.8 193.9 14.8 193.9 14.8 C 193.9 14.8 194.3 14.0 194.0 13.8 C 193.8 13.6 193.4 13.3 193.0 13.3 C 192.5 13.3 192.0 14.0 192.0 14.0 C 191.9 13.8 191.8 13.5 191.7 13.3 C 191.3 13.1 190.9 12.9 190.5 12.8 C 190.5 12.8 189.6 12.6 189.6 12.7 C 189.5 12.8 189.5 13.5 189.4 13.7 C 189.3 13.9 188.7 14.0 188.7 13.7 C 188.7 13.5 188.5 12.7 188.5 12.7 C 188.5 12.7 188.2 12.2 187.9 12.1 C 187.7 12.0 187.2 12.1 187.0 12.2 C 186.9 12.3 186.3 12.7 186.3 12.7 C 186.2 12.5 186.2 12.2 186.1 12.0 C 186.1 12.0 185.3 12.1 184.7 11.3 C 184.7 11.3 184.7 11.3 184.7 11.3 Z M 203.4 16.6 C 202.4 16.4 202.2 19.1 202.4 19.7 C 202.6 20.3 203.3 20.2 203.8 20.5 C 204.4 20.8 204.5 20.0 204.9 19.9 C 205.4 19.7 205.1 20.2 205.1 20.6 C 205.1 21.1 206.1 21.1 206.7 21.3 C 207.2 21.5 208.1 20.9 208.6 21.0 C 209.0 21.1 208.3 20.4 209.1 20.8 C 209.9 21.1 209.3 21.4 208.3 21.4 C 207.3 21.3 208.5 22.0 209.0 22.2 C 209.4 22.5 210.4 22.5 210.8 22.7 C 211.1 22.9 210.9 22.0 211.5 22.3 C 212.0 22.5 211.5 23.0 212.0 23.4 C 212.6 23.7 212.7 23.1 213.1 23.0 C 213.4 23.0 213.2 23.4 213.4 23.5 C 213.7 23.6 214.0 24.0 214.6 24.1 C 215.1 24.1 215.1 23.9 215.3 23.9 C 215.6 24.0 216.0 24.2 216.0 24.2 C 216.0 24.4 215.9 24.6 215.9 24.8 C 215.9 24.8 216.8 25.3 217.1 25.5 C 217.3 25.6 218.1 25.6 218.0 25.4 C 217.9 25.2 218.7 25.1 218.8 25.2 C 218.9 25.4 219.2 25.9 219.5 26.2 C 219.8 26.5 220.4 24.9 220.5 24.6 C 220.6 24.4 221.1 23.6 220.9 23.4 C 220.6 23.2 220.3 23.4 220.4 23.2 C 220.6 23.0 219.6 22.9 219.3 22.8 C 219.1 22.6 218.6 23.1 218.6 23.1 C 218.6 23.1 218.1 23.5 217.7 23.3 C 217.3 23.2 217.6 22.1 217.6 22.1 C 217.6 22.1 217.2 21.7 216.7 21.6 C 216.2 21.4 215.3 22.0 215.1 22.2 C 215.0 22.3 215.3 21.6 215.0 21.3 C 214.7 21.1 214.3 20.7 214.1 20.7 C 213.9 20.6 213.5 21.0 213.5 21.0 C 213.5 21.0 212.7 21.1 212.6 21.1 C 212.4 21.0 213.0 20.4 213.0 20.4 C 213.0 20.4 211.7 19.6 211.4 19.5 C 211.2 19.3 210.7 19.3 210.5 19.3 C 210.2 19.3 209.6 20.1 209.3 19.9 C 209.1 19.7 209.8 19.4 209.6 19.2 C 209.3 19.0 208.8 18.6 208.7 18.6 C 208.5 18.5 208.2 18.7 207.9 18.7 C 207.7 18.7 207.1 19.2 206.7 19.1 C 206.3 18.9 206.2 18.4 206.1 18.3 C 206.0 18.1 206.1 17.5 205.8 17.4 C 205.5 17.2 205.5 17.7 205.2 17.6 C 204.9 17.5 204.8 18.0 204.5 17.8 C 204.2 17.6 204.7 16.9 204.3 16.9 C 204.1 16.9 204.3 16.9 203.4 16.6 C 203.4 16.6 203.4 16.6 203.4 16.6 Z M 221.6 23.8 C 221.3 23.3 220.8 23.6 220.7 23.9 C 220.6 24.3 220.3 25.2 220.1 25.4 C 219.8 25.6 219.0 26.0 219.7 26.5 C 220.4 26.9 220.6 26.7 220.7 26.5 C 220.8 26.3 221.4 25.4 221.5 25.6 C 221.7 25.8 221.8 26.1 221.8 26.3 C 221.7 26.4 221.6 27.4 222.0 27.5 C 222.4 27.5 222.9 27.4 222.9 27.4 C 223.0 27.4 223.2 27.5 223.4 27.6 C 223.4 27.6 223.6 28.3 224.0 28.4 C 224.5 28.4 224.9 28.6 225.2 28.8 C 225.4 29.0 225.7 29.0 225.9 28.9 C 226.0 28.7 226.8 28.1 226.8 28.1 C 226.8 28.1 227.3 28.1 227.4 28.3 C 227.6 28.5 227.4 29.0 227.3 29.1 C 227.1 29.2 227.0 29.7 227.2 29.9 C 227.5 30.1 228.5 31.1 228.8 31.0 C 229.1 30.8 229.2 30.5 229.4 30.4 C 229.5 30.4 230.4 30.8 230.3 31.0 C 230.3 31.3 230.0 31.7 230.3 31.8 C 230.5 31.8 230.9 32.2 231.0 32.1 C 231.0 32.0 231.2 31.9 231.4 31.7 C 231.5 31.4 232.1 31.5 232.2 31.4 C 232.4 31.3 232.8 31.5 232.8 31.5 C 232.9 31.7 232.9 31.9 233.0 32.1 C 233.0 32.1 232.5 32.4 232.3 32.4 C 232.2 32.4 232.2 32.8 232.3 33.0 C 232.5 33.1 233.4 33.4 233.4 33.4 C 233.6 33.1 233.7 32.8 233.9 32.4 C 234.2 32.5 234.4 32.5 234.7 32.6 C 234.7 32.6 234.0 33.7 234.4 33.9 C 234.8 34.2 235.3 34.4 235.3 34.4 C 235.3 34.4 235.9 34.2 236.0 34.2 C 236.2 34.2 236.8 33.2 236.8 33.2 C 237.0 32.8 237.2 32.4 237.4 31.9 C 237.4 31.9 237.1 31.3 236.7 31.3 C 236.4 31.3 236.4 31.9 236.2 32.0 C 236.1 32.2 235.5 32.2 235.5 32.2 C 235.5 31.9 235.4 31.5 235.3 31.2 C 235.3 31.2 235.3 30.9 235.2 30.6 C 235.2 30.3 234.6 29.8 234.3 29.8 C 234.1 29.8 233.8 30.0 233.4 30.1 C 233.1 30.2 233.0 30.6 232.8 30.1 C 232.7 29.7 232.7 29.3 232.6 29.2 C 232.5 29.2 231.7 29.3 231.7 29.3 C 231.4 29.3 231.2 29.3 231.0 29.3 C 231.0 29.3 230.4 29.3 230.5 29.0 C 230.6 28.7 229.5 28.5 229.5 28.5 C 229.5 28.5 230.0 27.8 229.8 27.6 C 229.6 27.4 229.3 27.0 228.9 27.0 C 228.5 26.9 227.8 27.5 227.8 27.5 C 227.8 27.2 227.8 27.0 227.7 26.7 C 227.4 26.5 227.1 26.3 226.7 26.1 C 226.7 26.1 225.9 25.7 225.9 25.9 C 225.8 26.0 225.6 26.7 225.5 26.8 C 225.3 27.0 224.8 27.0 224.9 26.7 C 224.9 26.5 224.8 25.7 224.8 25.7 C 224.8 25.7 224.7 25.2 224.4 25.1 C 224.2 24.9 223.7 24.9 223.6 25.0 C 223.4 25.1 222.8 25.4 222.8 25.4 C 222.8 25.2 222.8 24.9 222.8 24.7 C 222.8 24.7 222.0 24.7 221.6 23.8 C 221.6 23.8 221.6 23.8 221.6 23.8 Z M 237.9 31.8 C 237.1 31.4 236.3 34.0 236.4 34.6 C 236.4 35.3 237.1 35.2 237.6 35.6 C 238.1 36.0 238.3 35.2 238.7 35.1 C 239.2 35.1 238.8 35.5 238.7 35.9 C 238.7 36.3 239.6 36.5 240.1 36.8 C 240.5 37.1 241.5 36.7 241.9 36.8 C 242.3 37.0 241.8 36.2 242.5 36.7 C 243.1 37.2 242.5 37.4 241.6 37.1 C 240.7 36.9 241.7 37.8 242.0 38.1 C 242.4 38.4 243.3 38.5 243.7 38.8 C 244.0 39.0 243.9 38.2 244.4 38.5 C 244.9 38.8 244.2 39.3 244.7 39.7 C 245.1 40.1 245.4 39.5 245.7 39.5 C 246.1 39.6 245.8 39.9 246.0 40.0 C 246.2 40.2 246.4 40.6 246.9 40.8 C 247.5 40.9 247.5 40.7 247.7 40.8 C 247.9 40.9 248.3 41.1 248.3 41.1 C 248.2 41.3 248.1 41.5 248.0 41.7 C 248.0 41.7 248.8 42.3 249.0 42.5 C 249.2 42.7 250.0 42.9 249.9 42.6 C 249.8 42.4 250.6 42.4 250.7 42.6 C 250.8 42.8 251.0 43.3 251.2 43.6 C 251.4 44.0 252.3 42.5 252.4 42.3 C 252.5 42.1 253.2 41.4 253.1 41.2 C 252.9 40.9 252.5 41.1 252.6 40.9 C 252.8 40.7 251.9 40.4 251.7 40.3 C 251.5 40.1 250.9 40.5 250.9 40.5 C 250.9 40.5 250.4 40.8 250.1 40.6 C 249.7 40.4 250.2 39.4 250.2 39.4 C 250.2 39.4 249.9 38.9 249.4 38.7 C 249.0 38.5 248.1 38.9 247.9 39.0 C 247.7 39.1 248.1 38.5 247.9 38.2 C 247.7 37.9 247.3 37.4 247.2 37.4 C 247.0 37.3 246.5 37.7 246.5 37.7 C 246.5 37.7 245.8 37.6 245.7 37.5 C 245.6 37.4 246.2 36.9 246.2 36.9 C 246.2 36.9 245.1 36.0 244.9 35.8 C 244.7 35.6 244.2 35.5 244.0 35.5 C 243.8 35.4 243.1 36.1 242.9 35.9 C 242.7 35.6 243.4 35.5 243.2 35.2 C 243.0 35.0 242.7 34.5 242.5 34.5 C 242.4 34.4 242.0 34.6 241.8 34.5 C 241.6 34.4 240.9 34.9 240.5 34.7 C 240.2 34.5 240.2 34.0 240.1 33.8 C 240.1 33.6 240.3 33.0 240.0 32.9 C 239.8 32.7 239.7 33.2 239.5 33.0 C 239.2 32.9 239.0 33.3 238.8 33.1 C 238.5 32.8 239.1 32.2 238.7 32.2 C 238.6 32.1 238.7 32.2 237.9 31.8 C 237.9 31.8 237.9 31.8 237.9 31.8 Z M 253.6 41.7 C 253.5 41.1 252.9 41.3 252.7 41.6 C 252.6 42.0 252.1 42.8 251.8 43.0 C 251.6 43.1 250.8 43.4 251.3 44.0 C 251.8 44.5 252.1 44.4 252.2 44.2 C 252.4 44.0 253.1 43.2 253.2 43.4 C 253.3 43.6 253.3 44.0 253.3 44.1 C 253.2 44.2 252.9 45.2 253.3 45.3 C 253.7 45.4 254.1 45.4 254.1 45.4 C 254.3 45.5 254.4 45.5 254.6 45.6 C 254.6 45.6 254.6 46.4 255.0 46.5 C 255.4 46.7 255.8 46.9 256.0 47.1 C 256.2 47.4 256.5 47.5 256.7 47.3 C 256.9 47.2 257.7 46.7 257.7 46.7 C 257.7 46.7 258.2 46.8 258.3 47.0 C 258.3 47.3 258.1 47.7 257.9 47.8 C 257.8 47.9 257.5 48.3 257.7 48.6 C 257.9 48.8 258.6 50.0 259.0 49.9 C 259.3 49.8 259.5 49.4 259.7 49.5 C 259.8 49.5 260.5 50.0 260.5 50.2 C 260.4 50.4 260.0 50.8 260.2 50.9 C 260.5 51.0 260.8 51.4 260.8 51.3 C 260.9 51.2 261.1 51.2 261.3 51.0 C 261.5 50.8 262.1 50.9 262.2 50.9 C 262.4 50.8 262.7 51.1 262.7 51.1 C 262.7 51.3 262.8 51.5 262.8 51.7 C 262.8 51.7 262.3 51.9 262.1 51.9 C 261.9 51.9 261.9 52.3 262.0 52.4 C 262.1 52.6 262.9 53.1 262.9 53.1 C 263.1 52.8 263.4 52.5 263.6 52.2 C 263.9 52.3 264.1 52.4 264.3 52.5 C 264.3 52.5 263.4 53.5 263.7 53.7 C 264.1 54.0 264.5 54.4 264.5 54.4 C 264.5 54.4 265.2 54.3 265.3 54.3 C 265.4 54.4 266.2 53.5 266.2 53.5 C 266.5 53.1 266.8 52.7 267.0 52.3 C 267.0 52.3 266.9 51.6 266.6 51.6 C 266.2 51.5 266.1 52.1 265.9 52.2 C 265.7 52.4 265.2 52.3 265.2 52.3 C 265.2 51.9 265.2 51.6 265.2 51.3 C 265.2 51.3 265.2 51.0 265.2 50.7 C 265.2 50.4 264.8 49.8 264.6 49.7 C 264.3 49.7 264.0 49.8 263.6 49.8 C 263.3 49.9 263.1 50.2 263.0 49.8 C 263.0 49.3 263.1 48.9 263.0 48.9 C 262.9 48.8 262.1 48.7 262.1 48.7 C 261.9 48.7 261.7 48.7 261.5 48.6 C 261.5 48.6 260.9 48.5 261.0 48.3 C 261.2 48.0 260.2 47.6 260.2 47.6 C 260.2 47.6 260.8 47.0 260.7 46.8 C 260.5 46.5 260.3 46.1 259.9 46.0 C 259.5 45.9 258.8 46.3 258.8 46.3 C 258.8 46.1 258.9 45.8 258.9 45.6 C 258.6 45.3 258.3 45.0 258.1 44.8 C 258.1 44.8 257.3 44.3 257.3 44.4 C 257.2 44.5 256.9 45.1 256.7 45.3 C 256.6 45.4 256.1 45.3 256.1 45.1 C 256.2 44.9 256.3 44.1 256.3 44.1 C 256.3 44.1 256.3 43.6 256.1 43.4 C 255.9 43.2 255.4 43.1 255.3 43.2 C 255.1 43.2 254.5 43.4 254.5 43.4 C 254.5 43.2 254.6 43.0 254.6 42.7 C 254.6 42.7 253.9 42.6 253.6 41.7 C 253.6 41.7 253.6 41.7 253.6 41.7 Z M 267.6 52.3 C 266.9 51.7 265.6 54.1 265.5 54.8 C 265.4 55.4 266.1 55.5 266.5 56.0 C 266.9 56.4 267.3 55.7 267.7 55.7 C 268.1 55.8 267.6 56.1 267.5 56.5 C 267.3 56.9 268.2 57.2 268.6 57.6 C 269.0 58.0 270.0 57.7 270.4 58.0 C 270.7 58.2 270.4 57.4 271.0 57.9 C 271.5 58.5 270.9 58.6 270.0 58.2 C 269.2 57.8 270.0 58.8 270.2 59.2 C 270.5 59.6 271.4 59.9 271.7 60.2 C 271.9 60.5 272.0 59.6 272.4 60.1 C 272.8 60.5 272.1 60.8 272.5 61.2 C 272.8 61.7 273.2 61.2 273.5 61.3 C 273.8 61.4 273.5 61.6 273.7 61.8 C 273.8 62.0 273.9 62.4 274.4 62.7 C 274.9 63.0 275.0 62.7 275.2 62.9 C 275.4 63.0 275.7 63.3 275.7 63.3 C 275.5 63.5 275.4 63.7 275.3 63.9 C 275.3 63.9 275.9 64.6 276.1 64.8 C 276.3 65.1 276.9 65.4 276.9 65.1 C 276.9 64.9 277.7 65.1 277.7 65.2 C 277.7 65.4 277.8 66.0 278.0 66.3 C 278.1 66.7 279.3 65.4 279.4 65.3 C 279.6 65.1 280.4 64.6 280.3 64.3 C 280.2 64.0 279.7 64.1 280.0 64.0 C 280.2 63.8 279.4 63.4 279.2 63.2 C 279.0 63.0 278.4 63.2 278.4 63.2 C 278.4 63.2 277.8 63.4 277.5 63.2 C 277.2 62.9 277.9 62.0 277.9 62.0 C 277.9 62.0 277.7 61.5 277.3 61.2 C 276.9 60.9 275.9 61.1 275.7 61.2 C 275.5 61.3 276.1 60.7 275.9 60.4 C 275.7 60.1 275.5 59.5 275.4 59.5 C 275.2 59.4 274.7 59.6 274.7 59.6 C 274.7 59.6 274.0 59.4 273.9 59.3 C 273.8 59.2 274.5 58.8 274.5 58.8 C 274.5 58.8 273.7 57.7 273.5 57.5 C 273.4 57.2 272.9 57.1 272.7 57.0 C 272.5 56.9 271.7 57.4 271.5 57.2 C 271.4 56.9 272.2 56.9 272.0 56.6 C 271.8 56.4 271.6 55.8 271.5 55.7 C 271.4 55.6 271.0 55.8 270.8 55.6 C 270.5 55.5 269.8 55.8 269.5 55.6 C 269.2 55.3 269.4 54.8 269.3 54.7 C 269.3 54.5 269.6 54.0 269.4 53.7 C 269.2 53.5 269.0 54.0 268.8 53.8 C 268.6 53.6 268.3 54.0 268.1 53.7 C 268.0 53.4 268.6 52.9 268.3 52.8 C 268.2 52.8 268.3 52.8 267.6 52.3 C 267.6 52.3 267.6 52.3 267.6 52.3 Z M 281.1 66.2 C 280.9 66.2 281.1 65.7 280.9 65.2 C 280.7 64.8 280.3 64.3 280.1 64.6 C 280.0 64.9 279.9 65.2 279.5 65.3 C 279.0 65.4 278.3 65.7 278.4 66.1 C 278.4 66.5 278.8 68.0 279.4 68.0 C 279.9 68.1 280.1 68.1 280.5 68.2 C 280.9 68.2 280.2 68.6 280.2 68.6 C 280.2 68.6 280.6 69.2 280.9 69.6 C 281.3 70.1 281.7 70.6 281.8 70.5 C 281.9 70.5 282.3 70.4 282.3 70.4 C 282.3 70.4 282.2 70.9 282.4 71.2 C 282.6 71.6 282.7 71.3 282.8 71.2 C 282.9 71.0 282.9 70.3 283.0 70.4 C 283.2 70.5 282.9 71.5 283.0 71.7 C 283.2 72.0 283.6 72.4 283.6 72.4 C 283.6 72.4 283.9 72.1 284.0 72.1 C 284.2 72.0 284.6 72.5 284.5 72.6 C 284.4 72.7 284.0 73.0 284.2 73.3 C 284.8 74.1 285.4 73.4 285.4 73.4 C 285.5 73.5 285.0 73.9 285.1 74.2 C 285.1 74.4 286.4 75.8 286.6 75.8 C 286.8 75.8 286.8 76.7 287.3 76.6 C 287.8 76.6 287.9 76.6 288.1 76.5 C 288.2 76.5 288.9 76.4 288.8 76.7 C 288.7 77.0 287.7 76.9 287.7 77.2 C 287.6 77.5 288.4 78.5 288.7 78.5 C 289.1 78.5 289.6 78.2 289.7 78.3 C 289.8 78.5 289.6 79.5 289.7 79.5 C 289.9 79.5 290.5 79.1 290.6 79.0 C 290.7 78.9 291.8 78.3 291.9 78.1 C 291.9 77.9 291.8 77.0 291.6 77.3 C 291.4 77.6 291.1 78.0 290.8 77.9 C 290.6 77.8 290.5 77.7 290.5 77.6 C 290.6 77.5 290.8 77.5 290.7 77.0 C 290.6 76.5 291.0 76.5 290.7 76.2 C 290.4 75.9 290.1 75.7 290.0 75.9 C 289.8 76.1 289.2 76.0 289.0 75.7 C 288.9 75.5 289.6 75.5 289.3 74.6 C 288.9 73.8 288.5 73.3 288.2 73.2 C 287.8 73.2 287.2 73.6 287.2 73.1 C 287.2 72.5 287.5 72.6 287.1 72.2 C 286.7 71.7 286.1 71.9 285.8 71.7 C 285.6 71.4 285.5 71.3 285.5 71.3 C 285.5 71.3 286.3 70.9 285.7 70.2 C 285.2 69.6 285.2 69.4 284.8 69.9 C 284.5 70.5 284.0 70.0 284.3 69.7 C 284.6 69.4 284.5 68.9 284.3 68.6 C 284.1 68.4 283.3 69.0 283.2 68.9 C 283.1 68.9 283.0 68.6 283.3 68.5 C 283.6 68.3 283.4 68.1 283.4 67.8 C 283.3 67.5 282.7 67.0 282.6 67.1 C 282.4 67.2 282.2 68.0 282.1 67.4 C 282.0 66.8 282.3 66.3 281.9 66.0 C 281.5 65.6 281.4 66.4 281.1 66.2 C 281.1 66.2 281.1 66.2 281.1 66.2 Z M 292.5 78.5 C 292.5 78.0 291.9 78.0 291.6 78.2 C 291.4 78.5 290.7 79.2 290.4 79.3 C 290.1 79.3 289.2 79.4 289.6 80.0 C 289.9 80.7 290.2 80.7 290.4 80.5 C 290.6 80.4 291.5 79.9 291.6 80.1 C 291.6 80.3 291.5 80.6 291.4 80.8 C 291.3 80.9 290.7 81.7 291.1 81.9 C 291.4 82.1 291.8 82.2 291.8 82.2 C 292.0 82.4 292.1 82.5 292.2 82.6 C 292.2 82.6 292.0 83.4 292.4 83.6 C 292.7 83.9 293.0 84.2 293.1 84.5 C 293.3 84.8 293.5 85.0 293.7 84.9 C 294.0 84.8 294.9 84.6 294.9 84.6 C 294.9 84.6 295.3 84.9 295.3 85.1 C 295.3 85.3 295.0 85.7 294.8 85.7 C 294.6 85.8 294.3 86.1 294.4 86.4 C 294.5 86.7 294.9 88.0 295.2 88.0 C 295.6 88.1 295.8 87.8 296.0 87.9 C 296.2 87.9 296.7 88.6 296.5 88.8 C 296.4 89.0 295.9 89.3 296.1 89.4 C 296.3 89.6 296.5 90.1 296.6 90.0 C 296.7 90.0 296.9 90.0 297.2 89.9 C 297.4 89.7 297.9 90.0 298.0 90.0 C 298.2 90.1 298.5 90.4 298.5 90.4 C 298.4 90.6 298.4 90.8 298.4 91.0 C 298.4 91.0 297.8 91.1 297.6 91.0 C 297.5 90.9 297.3 91.3 297.4 91.5 C 297.4 91.6 298.0 92.4 298.0 92.4 C 298.4 92.2 298.7 92.0 299.0 91.8 C 299.2 91.9 299.4 92.1 299.6 92.3 C 299.6 92.3 298.4 92.9 298.7 93.3 C 298.9 93.7 299.2 94.1 299.2 94.1 C 299.2 94.1 299.9 94.3 300.0 94.3 C 300.1 94.4 301.2 93.8 301.2 93.8 C 301.5 93.5 301.9 93.3 302.3 93.0 C 302.3 93.0 302.4 92.3 302.0 92.1 C 301.7 91.9 301.4 92.4 301.2 92.5 C 301.0 92.6 300.5 92.3 300.5 92.3 C 300.6 92.0 300.7 91.7 300.9 91.4 C 300.9 91.4 300.9 91.1 301.0 90.8 C 301.1 90.5 300.8 89.8 300.6 89.7 C 300.4 89.6 300.1 89.6 299.7 89.5 C 299.4 89.4 299.1 89.7 299.2 89.2 C 299.3 88.8 299.5 88.5 299.4 88.3 C 299.3 88.2 298.5 87.9 298.5 87.9 C 298.4 87.8 298.2 87.7 298.0 87.6 C 298.0 87.6 297.5 87.4 297.7 87.1 C 297.9 86.9 297.0 86.3 297.0 86.3 C 297.0 86.3 297.8 85.9 297.7 85.6 C 297.7 85.3 297.6 84.9 297.3 84.6 C 296.9 84.4 296.1 84.6 296.1 84.6 C 296.2 84.3 296.3 84.1 296.4 83.9 C 296.2 83.5 296.0 83.2 295.8 82.9 C 295.8 82.9 295.3 82.2 295.2 82.3 C 295.1 82.3 294.5 82.8 294.4 82.9 C 294.2 83.0 293.7 82.7 293.9 82.6 C 294.0 82.4 294.3 81.7 294.3 81.7 C 294.3 81.7 294.4 81.1 294.3 80.9 C 294.2 80.7 293.8 80.5 293.6 80.5 C 293.4 80.5 292.8 80.5 292.8 80.5 C 292.9 80.3 293.0 80.0 293.1 79.8 C 293.1 79.8 292.4 79.5 292.5 78.5 C 292.5 78.5 292.5 78.5 292.5 78.5 Z M 302.8 93.1 C 302.3 92.3 300.4 94.3 300.1 94.9 C 299.9 95.4 300.5 95.8 300.7 96.3 C 301.0 96.9 301.6 96.3 302.0 96.5 C 302.4 96.6 301.8 96.8 301.6 97.2 C 301.3 97.5 302.1 98.1 302.4 98.6 C 302.6 99.1 303.7 99.2 304.0 99.5 C 304.2 99.9 304.2 99.0 304.5 99.7 C 304.9 100.4 304.3 100.3 303.6 99.6 C 302.9 99.0 303.3 100.2 303.5 100.7 C 303.7 101.2 304.4 101.8 304.6 102.1 C 304.8 102.5 305.1 101.7 305.4 102.3 C 305.6 102.8 304.9 102.9 305.1 103.4 C 305.3 104.0 305.8 103.6 306.1 103.8 C 306.4 104.0 306.0 104.2 306.1 104.4 C 306.2 104.7 306.2 105.1 306.6 105.5 C 307.0 106.0 307.1 105.7 307.3 105.9 C 307.4 106.1 307.7 106.6 307.7 106.6 C 307.5 106.7 307.3 106.8 307.1 107.0 C 307.1 107.0 307.6 107.9 307.7 108.2 C 307.8 108.5 308.4 109.0 308.4 108.7 C 308.4 108.5 309.1 108.9 309.1 109.1 C 309.1 109.3 309.1 109.9 309.1 110.3 C 309.1 110.7 310.6 109.8 310.8 109.7 C 311.0 109.6 312.0 109.4 311.9 109.0 C 311.8 108.7 311.4 108.6 311.7 108.6 C 311.9 108.5 311.3 107.8 311.1 107.5 C 311.0 107.3 310.3 107.3 310.3 107.3 C 310.3 107.3 309.7 107.4 309.5 107.0 C 309.3 106.6 310.2 106.0 310.2 106.0 C 310.2 106.0 310.1 105.4 309.8 105.0 C 309.5 104.5 308.5 104.5 308.3 104.5 C 308.0 104.5 308.8 104.1 308.7 103.7 C 308.6 103.4 308.5 102.8 308.4 102.6 C 308.3 102.5 307.7 102.6 307.7 102.6 C 307.7 102.6 307.1 102.1 307.0 102.0 C 306.9 101.9 307.8 101.7 307.8 101.7 C 307.8 101.7 307.2 100.4 307.2 100.1 C 307.1 99.8 306.7 99.5 306.5 99.4 C 306.4 99.2 305.3 99.4 305.3 99.1 C 305.2 98.8 306.0 99.1 305.9 98.8 C 305.8 98.4 305.7 97.9 305.6 97.7 C 305.6 97.6 305.2 97.6 305.0 97.4 C 304.8 97.2 304.0 97.3 303.8 96.9 C 303.6 96.6 303.8 96.2 303.8 96.0 C 303.8 95.8 304.3 95.4 304.2 95.1 C 304.0 94.8 303.8 95.2 303.6 95.0 C 303.5 94.7 303.0 95.0 303.0 94.6 C 302.9 94.3 303.7 94.1 303.4 93.8 C 303.3 93.7 303.4 93.8 302.8 93.1 C 302.8 93.1 302.8 93.1 302.8 93.1 Z M 302.8 93.1 " fill="#FF2600"></path><path d="M 15.7 2.1 C 15.7 1.8 16.7 1.2 16.1 2.0 C 16.0 2.1 15.6 2.3 15.7 2.1 Z M 14.2 3.4 C 14.3 3.3 14.4 3.2 14.5 3.2 C 14.9 3.4 13.8 3.7 14.2 3.4 Z M 16.6 1.9 C 16.6 1.8 17.1 1.4 17.1 1.5 C 17.0 1.7 16.6 1.9 16.6 1.9 Z M 13.3 5.1 C 13.2 5.0 13.7 4.6 13.9 4.5 C 14.3 4.5 13.5 5.4 13.3 5.1 Z M 18.3 7.2 C 18.3 7.2 18.3 7.3 18.4 7.3 C 18.3 7.2 18.3 7.2 18.3 7.2 Z M 6.1 10.7 C 6.2 10.6 6.5 10.5 6.5 10.7 C 6.6 10.9 5.9 11.0 6.1 10.7 Z M 20.4 18.0 C 20.4 18.0 20.5 17.7 20.6 17.8 C 20.8 17.9 20.6 18.1 20.4 18.0 Z M 20.6 18.0 C 20.8 17.9 20.9 18.1 20.8 18.1 C 20.6 18.1 20.5 18.0 20.6 18.0 Z M 11.4 17.1 C 11.4 17.1 11.3 17.1 11.4 17.1 C 11.5 17.0 11.6 17.2 11.4 17.1 Z M 11.8 17.0 C 11.9 16.9 12.0 17.2 11.9 17.2 C 11.7 17.2 11.6 17.1 11.8 17.0 Z M 13.3 18.5 C 13.2 18.5 13.1 18.5 13.2 18.5 C 13.3 18.4 13.4 18.6 13.3 18.5 Z M 20.2 13.4 C 20.2 13.5 20.2 13.8 20.1 13.8 C 19.9 13.8 20.0 13.3 20.2 13.4 Z M 20.3 13.9 C 20.4 13.8 20.5 14.0 20.4 14.0 C 20.3 14.0 20.2 13.9 20.3 13.9 Z M 19.8 12.5 C 19.6 12.6 19.6 12.2 19.6 12.1 C 19.6 12.0 19.6 11.8 19.7 11.7 C 19.7 11.6 20.1 12.5 19.8 12.5 Z M 19.2 9.6 C 19.2 9.6 19.3 9.7 19.2 9.8 C 19.2 9.9 19.1 9.7 19.2 9.6 Z M 19.5 11.3 C 19.6 11.3 19.7 11.3 19.6 11.4 C 19.6 11.6 19.5 11.3 19.5 11.3 Z M 10.2 7.2 C 10.1 7.1 10.6 6.9 10.6 6.9 C 10.7 6.9 10.5 7.0 10.6 7.0 C 10.8 6.9 10.8 7.4 10.2 7.2 Z M 13.4 4.1 C 13.5 4.1 13.5 4.1 13.5 4.2 C 13.6 4.2 13.2 4.4 13.4 4.1 Z M 11.1 7.2 C 11.1 7.2 11.2 7.1 11.2 7.1 C 11.2 7.2 11.2 7.2 11.1 7.2 Z M 10.9 7.5 C 11.0 7.4 11.3 7.4 11.3 7.5 C 11.4 7.7 10.7 7.8 10.9 7.5 Z M 9.7 7.4 C 9.8 7.3 9.8 7.3 9.8 7.4 C 9.7 7.5 9.7 7.4 9.7 7.4 Z M 11.4 5.6 C 11.6 5.5 11.6 5.5 11.5 5.6 C 11.5 5.7 11.4 5.6 11.4 5.6 Z M 9.0 8.4 C 9.0 8.4 9.1 8.1 9.3 8.2 C 9.7 8.4 9.0 8.4 9.0 8.4 Z M 7.9 9.8 C 8.0 9.8 8.0 9.9 7.9 9.9 C 7.8 10.0 7.8 9.9 7.9 9.8 Z M 7.8 10.7 C 7.6 10.8 7.4 10.7 7.6 10.6 C 7.9 10.4 8.0 10.6 7.8 10.7 Z M 7.9 10.4 C 8.0 10.4 7.9 10.5 7.8 10.4 C 7.8 10.4 7.9 10.3 7.9 10.4 Z M 8.8 9.1 C 8.8 8.9 9.1 8.9 9.0 9.1 C 8.8 9.3 8.7 9.3 8.8 9.1 Z M 18.8 5.5 C 18.8 5.4 18.9 5.4 19.0 5.5 C 19.1 5.5 18.9 5.6 18.8 5.5 Z M 19.2 11.9 C 19.3 11.8 19.3 11.9 19.3 12.1 C 19.3 12.2 19.1 12.0 19.2 11.9 Z M 19.5 16.0 C 19.6 15.9 19.7 15.9 19.6 16.1 C 19.6 16.3 19.5 16.1 19.5 16.0 Z M 18.9 10.3 C 19.0 10.3 19.4 10.6 19.1 10.9 C 18.9 11.2 18.7 10.5 18.9 10.3 Z M 15.1 6.9 C 15.0 6.8 15.2 6.9 15.2 6.9 C 15.2 7.0 15.2 7.0 15.1 6.9 Z M 18.6 11.3 C 18.6 11.2 18.7 11.2 18.8 11.3 C 18.9 11.3 18.7 11.4 18.6 11.3 Z M 19.7 15.2 C 19.7 15.0 20.0 15.1 20.1 15.2 C 20.4 15.4 20.1 15.7 20.0 16.0 C 19.9 16.2 19.6 15.3 19.7 15.2 Z M 18.0 4.7 C 18.0 4.8 18.0 4.9 18.0 4.9 C 18.1 4.9 18.1 5.0 18.0 5.1 C 18.1 5.5 18.5 5.7 18.7 5.9 C 19.0 6.4 18.3 6.8 18.3 7.2 C 18.3 7.1 18.3 7.0 18.2 6.9 C 17.9 6.8 18.3 8.2 18.3 8.3 C 18.7 9.4 18.6 8.0 19.0 7.9 C 19.2 7.9 18.9 8.8 18.9 8.8 C 18.8 9.2 19.2 9.2 19.1 9.6 C 19.0 9.7 18.2 10.3 18.4 10.5 C 18.5 10.5 18.4 10.9 18.5 11.1 C 18.5 11.3 18.6 11.7 18.9 11.4 C 19.1 11.2 19.3 11.1 19.1 11.5 C 19.0 11.7 18.7 13.2 19.4 13.0 C 19.4 13.0 19.6 12.7 19.5 12.6 C 19.8 13.0 19.7 14.2 20.1 14.5 C 20.8 15.0 19.7 14.3 19.5 14.7 C 19.3 15.3 19.2 15.6 19.4 16.2 C 19.5 16.4 19.6 17.0 19.9 16.7 C 20.1 16.4 20.3 16.5 20.3 16.1 C 20.7 16.5 20.1 16.9 20.3 17.0 C 20.5 17.1 20.5 16.8 20.6 17.1 C 20.6 17.5 20.7 17.4 20.3 17.5 C 20.2 17.5 20.2 17.9 20.2 17.9 C 20.2 17.9 20.1 17.9 20.1 17.9 C 20.2 18.2 20.9 18.6 20.8 18.7 C 20.7 18.8 20.2 18.7 20.1 18.7 C 20.1 18.8 20.1 18.8 20.1 18.8 C 20.2 19.0 20.5 19.2 20.4 19.3 C 20.4 19.4 19.7 19.2 19.9 19.3 C 20.1 19.5 20.0 20.2 19.9 20.3 C 19.7 20.4 18.9 20.7 18.9 20.8 C 18.9 20.9 18.4 20.7 18.3 20.7 C 18.2 20.7 18.0 20.4 18.0 20.3 C 18.0 20.3 17.6 20.2 17.6 20.2 C 17.6 20.2 17.5 20.2 17.2 20.1 C 16.9 20.1 16.8 19.8 16.5 19.6 C 16.2 19.4 16.0 19.5 15.7 19.4 C 15.4 19.4 15.3 18.8 15.1 18.6 C 14.9 18.5 14.7 18.8 14.4 18.8 C 14.1 18.7 13.9 18.5 14.0 18.5 C 14.2 18.4 14.1 18.3 14.0 18.3 C 13.9 18.2 13.6 18.0 13.4 18.0 C 13.3 18.0 14.1 18.7 12.9 18.2 C 12.3 17.9 12.0 17.4 12.2 17.4 C 12.6 17.6 11.9 16.6 11.9 16.8 C 11.8 17.0 10.7 16.5 10.9 17.0 C 10.9 17.1 9.8 16.8 9.7 16.7 C 9.6 16.6 9.1 16.5 9.0 16.1 C 9.0 15.9 8.3 16.1 8.1 16.0 C 8.0 16.0 7.2 15.6 7.1 15.5 C 6.9 15.3 7.3 15.4 7.5 15.5 C 7.7 15.6 7.9 15.9 8.1 15.9 C 8.2 15.9 8.0 15.6 7.8 15.5 C 7.6 15.4 7.6 15.2 7.4 15.1 C 7.3 15.1 7.2 15.1 7.1 15.0 C 7.0 15.0 6.9 15.0 6.9 15.0 C 6.8 15.1 6.9 15.2 6.9 15.3 C 6.8 15.3 6.7 15.3 6.4 15.2 C 6.2 15.1 6.0 15.0 5.7 14.8 C 5.4 14.6 5.2 14.6 5.0 14.6 C 4.8 14.5 4.6 14.4 4.6 14.3 C 4.6 14.2 4.9 14.3 5.0 14.3 C 5.0 14.2 4.8 13.9 4.6 13.8 C 4.1 13.5 4.8 13.2 4.2 12.9 C 3.8 12.7 4.3 12.7 4.6 12.5 C 4.5 12.5 4.5 12.4 4.7 12.2 C 4.6 12.1 5.0 11.9 5.2 11.7 C 5.3 11.6 5.8 11.0 5.5 11.5 C 5.5 11.5 5.5 11.6 5.5 11.6 C 5.5 11.6 5.5 11.6 5.5 11.6 C 5.5 11.6 5.5 12.0 5.6 12.0 C 5.6 12.0 5.5 11.6 5.5 11.6 C 5.7 11.6 5.8 11.7 5.9 11.7 C 5.9 11.7 6.0 11.6 6.0 11.6 C 6.0 11.5 6.0 11.5 6.0 11.5 C 6.0 11.5 6.0 11.5 6.0 11.5 C 5.9 11.4 5.9 11.4 6.0 11.3 C 6.2 11.0 6.8 10.8 7.1 10.7 C 7.0 11.7 8.0 10.8 8.2 10.5 C 8.5 10.1 7.9 9.5 7.8 9.6 C 8.0 9.4 8.1 9.4 8.4 9.6 C 8.3 9.6 9.0 9.7 8.9 9.7 C 9.7 9.5 9.1 9.0 9.2 8.9 C 9.3 8.7 9.4 8.5 9.6 8.3 C 9.7 8.1 9.5 8.1 9.5 8.0 C 9.4 7.6 10.3 7.7 10.4 7.6 C 10.4 7.8 10.2 8.0 10.2 8.2 C 10.2 7.9 10.6 8.1 10.7 8.1 C 11.0 8.0 11.2 7.7 11.3 7.6 C 11.6 7.3 11.9 7.0 12.2 6.6 C 12.0 6.7 11.3 6.7 11.2 6.8 C 11.3 6.6 11.7 6.5 11.4 6.3 C 10.8 6.1 11.8 5.6 12.0 5.5 C 12.4 5.2 12.5 4.4 13.3 4.5 C 13.3 4.5 12.8 5.2 12.9 5.2 C 13.3 5.5 13.6 5.5 14.0 5.1 C 14.1 5.0 14.4 4.2 14.4 4.2 C 14.4 4.2 13.1 3.9 13.9 3.7 C 14.0 3.7 13.9 4.0 14.1 4.0 C 14.4 3.9 14.6 3.6 14.8 3.4 C 14.8 3.4 15.3 3.3 15.3 3.2 C 15.3 3.0 15.1 2.9 15.2 2.7 C 15.3 2.5 15.5 2.5 15.6 2.6 C 15.6 2.6 15.6 2.7 15.6 2.7 C 15.7 2.6 15.7 2.7 15.8 2.7 C 15.8 2.7 15.9 2.6 16.1 2.6 C 16.1 2.6 16.0 2.8 15.8 2.8 C 15.9 2.9 15.9 2.9 15.9 3.0 C 16.1 2.8 16.2 2.6 16.2 2.6 C 16.3 2.1 16.2 2.0 17.0 2.0 C 17.5 2.0 18.1 3.2 18.0 4.1 C 18.1 4.2 18.1 4.4 18.0 4.7 Z M 6.7 14.6 C 6.8 14.6 6.8 14.6 6.8 14.6 C 6.8 14.5 6.9 14.5 6.9 14.4 C 6.7 14.3 6.9 14.5 6.7 14.4 C 6.5 14.3 6.5 14.4 6.7 14.6 Z M 6.6 12.8 C 6.4 12.8 6.4 12.8 6.5 12.9 C 6.5 12.9 6.6 12.8 6.6 12.8 Z M 6.1 12.1 C 5.9 12.3 6.5 12.3 6.7 12.0 C 6.4 12.0 6.2 12.0 6.1 12.1 Z M 6.3 11.4 C 6.3 11.4 6.3 11.5 6.4 11.5 C 6.4 11.6 6.5 11.4 6.6 11.4 C 6.6 11.5 6.5 11.8 6.7 11.7 C 6.7 11.7 6.8 11.7 6.8 11.7 C 6.8 11.7 6.8 11.6 6.8 11.6 C 6.8 11.4 6.5 11.3 6.3 11.4 Z M 8.1 14.5 C 7.9 14.5 8.0 14.5 8.1 14.5 C 8.2 14.6 8.2 14.4 8.1 14.5 Z M 9.2 15.7 C 9.1 15.6 9.0 15.6 9.1 15.7 C 9.1 15.9 9.3 15.8 9.2 15.7 Z M 10.8 13.3 C 10.8 13.4 10.8 13.4 10.9 13.4 C 11.0 13.4 10.9 13.3 10.8 13.3 Z M 10.7 11.8 C 10.7 11.7 10.6 11.6 10.5 11.7 C 10.5 11.8 10.6 11.9 10.7 11.8 Z M 11.1 15.2 C 11.2 15.2 11.1 15.1 11.0 15.1 C 10.9 15.2 10.9 15.2 11.1 15.2 Z M 10.4 13.3 C 10.5 13.4 10.6 13.4 10.6 13.3 C 10.7 13.3 10.6 13.2 10.5 13.1 C 10.3 13.1 10.3 13.1 10.4 13.3 Z M 10.1 12.1 C 10.4 11.8 10.3 11.6 10.0 12.0 C 9.6 12.4 9.9 12.2 10.1 12.1 Z M 10.2 16.6 C 10.1 16.5 9.9 16.5 9.9 16.5 C 9.9 16.5 10.4 16.8 10.2 16.6 Z M 9.6 8.7 C 9.5 8.8 9.5 9.0 9.7 8.8 C 9.9 8.7 9.8 8.6 9.6 8.7 Z M 10.5 9.2 C 10.2 9.0 9.9 9.1 9.9 9.1 C 9.9 9.1 10.0 9.4 10.0 9.5 C 9.8 9.7 9.4 9.7 9.3 10.0 C 9.2 10.4 9.7 10.0 9.8 9.9 C 9.8 10.0 9.7 10.1 9.8 10.2 C 9.9 10.2 10.0 10.2 10.0 10.1 C 10.1 9.9 10.9 9.4 10.5 9.2 Z M 11.1 12.7 C 10.9 12.7 10.8 12.8 10.9 12.9 C 11.0 13.1 11.2 13.1 11.2 13.1 C 11.3 13.0 11.2 12.7 11.1 12.7 Z M 11.4 13.8 C 11.2 13.9 11.3 13.9 11.4 13.9 C 11.7 14.0 11.5 13.7 11.4 13.8 Z M 14.2 18.1 C 14.3 18.1 14.1 18.0 14.0 18.0 C 14.0 18.1 14.1 18.1 14.2 18.1 Z M 13.8 16.3 C 14.1 16.3 13.9 16.1 13.8 16.1 C 13.7 16.1 13.6 16.3 13.8 16.3 Z M 12.5 15.4 C 12.7 15.4 12.5 15.2 12.4 15.3 C 12.4 15.3 12.5 15.4 12.5 15.4 Z M 12.3 14.7 C 12.4 14.7 12.4 14.5 12.2 14.6 C 12.1 14.6 12.2 14.6 12.3 14.7 Z M 11.9 8.6 C 11.9 8.6 12.0 8.9 12.1 8.6 C 12.1 8.4 12.1 8.4 11.9 8.6 Z M 11.7 10.8 C 11.5 11.0 11.4 11.2 11.7 11.8 C 12.0 12.3 12.1 12.1 12.1 11.7 C 12.2 11.3 12.6 12.2 12.6 11.5 C 12.6 11.2 11.9 10.7 11.7 10.8 Z M 13.4 14.4 C 13.1 14.1 12.6 14.3 12.9 14.5 C 13.3 14.7 13.6 14.7 13.4 14.4 Z M 13.5 14.7 C 13.4 14.7 13.4 14.7 13.5 14.8 C 13.6 14.8 13.6 14.7 13.5 14.7 Z M 11.7 6.0 C 11.2 6.6 12.1 6.4 12.1 6.4 C 12.9 6.1 12.2 5.4 11.7 6.0 Z M 19.8 17.6 C 19.8 17.6 19.8 17.6 19.8 17.5 C 19.8 17.5 19.8 17.5 19.7 17.5 C 19.6 17.4 19.5 17.7 19.5 17.7 C 19.6 17.7 19.7 17.7 19.8 17.6 Z M 19.3 13.8 C 19.3 14.0 19.3 14.1 19.5 14.2 C 19.8 14.0 19.6 12.9 19.1 13.4 C 19.0 13.5 18.6 14.3 18.9 14.3 C 19.1 14.4 19.2 13.4 19.3 13.8 Z M 19.0 15.1 C 19.0 14.6 18.6 15.5 18.8 15.4 C 19.0 15.3 19.0 15.2 19.0 15.1 Z M 18.5 18.6 C 18.9 19.2 19.8 18.9 19.1 18.0 C 18.5 17.2 18.1 17.2 18.3 17.6 C 18.5 18.1 18.0 17.8 18.5 18.6 Z M 17.7 13.7 C 18.4 13.7 18.1 13.4 17.6 13.3 C 17.5 13.3 17.3 13.7 17.7 13.7 Z M 17.4 12.3 C 17.4 12.1 17.4 12.1 17.3 12.3 C 17.2 12.4 17.3 12.5 17.4 12.3 Z M 17.8 19.8 C 17.9 20.0 18.2 20.1 18.1 20.1 C 17.9 20.1 18.0 20.2 18.1 20.3 C 18.3 20.4 18.2 20.1 18.2 20.0 C 18.2 19.8 17.7 19.5 17.8 19.8 Z M 14.7 14.8 C 14.8 14.9 14.7 14.7 14.6 14.7 C 14.6 14.7 14.6 14.8 14.7 14.8 Z M 13.1 9.7 C 13.1 9.7 13.2 9.9 13.3 9.7 C 13.3 9.6 13.3 9.6 13.1 9.7 Z M 12.7 5.5 C 12.6 5.6 12.9 5.6 12.9 5.8 C 12.9 5.9 12.7 5.8 12.7 5.8 C 12.7 5.8 12.9 6.3 13.0 5.9 C 13.1 5.8 12.9 5.2 12.7 5.5 Z M 14.6 13.4 C 14.4 13.2 14.4 14.1 14.2 14.0 C 14.0 13.8 14.0 13.9 14.2 14.1 C 14.4 14.3 14.9 13.6 14.6 13.4 Z M 15.2 15.6 C 15.1 15.4 14.6 15.1 14.7 15.3 C 14.9 15.5 15.2 15.7 15.0 15.7 C 14.9 15.7 14.9 15.7 15.1 15.9 C 15.2 16.0 15.2 15.7 15.2 15.6 Z M 15.9 19.2 C 15.9 19.2 15.6 19.1 15.7 19.2 C 15.8 19.3 16.0 19.3 15.9 19.2 Z M 14.4 8.9 C 14.4 9.0 14.4 9.1 14.6 8.9 C 14.7 8.7 14.5 8.7 14.4 8.9 Z M 16.5 18.8 C 16.3 18.6 16.5 19.0 16.3 18.8 C 16.1 18.7 16.1 18.8 16.3 19.0 C 16.5 19.1 16.7 19.0 16.5 18.8 Z M 14.4 5.4 C 14.4 5.5 14.5 5.6 14.6 5.5 C 14.6 5.4 14.4 5.3 14.4 5.4 Z M 15.2 6.7 C 15.1 6.7 15.1 6.8 15.0 6.8 C 14.3 7.6 15.8 6.8 15.2 6.7 Z M 15.4 8.9 C 15.3 8.6 15.2 9.0 15.2 9.0 C 15.4 9.0 15.4 9.0 15.4 8.9 Z M 15.8 11.2 C 16.0 11.2 15.9 11.0 15.8 11.1 C 15.7 11.1 15.7 11.2 15.8 11.2 Z M 15.0 3.6 C 14.9 3.6 14.9 3.7 15.0 3.7 C 15.1 3.6 15.1 3.5 15.0 3.6 Z M 16.1 9.4 C 16.0 9.4 16.0 9.4 16.0 9.5 C 16.1 9.6 16.1 9.4 16.1 9.4 Z M 17.3 16.5 C 17.2 16.5 17.1 16.4 17.1 16.4 C 17.0 16.5 17.0 16.9 16.8 16.9 C 16.8 16.9 16.8 16.9 16.8 16.9 C 16.8 16.9 16.8 16.9 16.8 16.9 C 16.7 16.9 16.6 16.9 16.7 16.9 C 16.7 16.8 16.6 16.7 16.6 16.6 C 16.5 16.8 16.4 17.0 16.5 17.1 C 16.7 17.2 17.0 17.2 17.3 17.1 C 17.3 17.0 17.3 16.9 17.3 16.8 C 17.3 16.8 17.3 16.8 17.3 16.8 C 17.1 16.8 17.0 16.6 17.1 16.6 C 17.2 16.6 17.3 16.6 17.3 16.7 C 17.3 16.6 17.3 16.6 17.3 16.5 Z M 16.5 10.2 C 16.4 10.1 16.4 10.2 16.3 10.4 C 16.3 10.6 16.7 10.4 16.5 10.2 Z M 15.3 3.8 C 15.3 3.9 15.3 3.9 15.4 4.0 C 15.4 3.9 15.4 3.9 15.4 3.8 C 15.4 3.7 15.4 3.6 15.4 3.4 C 15.3 3.5 15.2 3.6 15.3 3.8 Z M 16.3 5.7 C 16.2 5.7 16.1 4.8 16.0 5.0 C 15.7 5.3 15.3 5.0 15.6 5.6 C 15.7 5.8 16.2 6.0 16.3 6.3 C 16.9 7.8 16.6 5.8 16.7 5.4 C 16.7 5.3 16.3 5.8 16.3 5.7 Z M 17.1 7.6 C 17.2 7.7 17.3 7.4 17.3 7.3 C 17.2 7.0 16.9 7.6 17.1 7.6 Z M 16.6 3.4 C 16.6 3.4 16.5 3.4 16.5 3.4 C 16.5 3.4 16.6 3.4 16.6 3.4 C 16.6 3.4 16.6 3.4 16.6 3.4 Z M 16.6 2.3 C 16.2 2.7 17.0 2.6 17.2 2.5 C 17.4 2.3 16.8 2.1 16.6 2.3 Z M 17.6 6.4 C 17.6 6.7 18.6 6.9 18.4 6.4 C 18.3 5.9 17.5 5.7 17.6 6.4 Z M 19.2 9.3 C 19.1 9.2 19.2 8.9 19.4 9.0 C 19.5 9.1 19.3 9.4 19.2 9.3 Z M 18.9 4.6 C 18.9 4.7 18.8 4.6 18.8 4.6 C 19.0 4.5 19.0 4.5 18.9 4.6 Z M 18.4 5.1 C 18.4 5.0 18.4 4.8 18.4 4.6 C 18.5 4.5 18.6 4.8 18.6 4.9 C 18.6 5.0 18.4 5.1 18.4 5.1 Z M 18.7 7.6 C 18.8 7.5 18.8 7.7 18.8 7.8 C 18.8 7.9 18.7 7.7 18.7 7.6 Z M 18.8 7.0 C 18.8 7.1 18.7 7.0 18.7 6.9 C 18.7 6.8 18.8 6.9 18.8 7.0 Z M 18.5 8.1 C 18.4 7.9 18.2 7.5 18.5 7.5 C 18.6 7.5 18.7 8.6 18.5 8.1 Z M 18.5 8.1 " fill="#FF2600"></path></g></svg>