<?xml version="1.0" encoding="UTF-8" standalone="no"?><svg xmlns="http://www.w3.org/2000/svg" xmlns:xlink="http://www.w3.org/1999/xlink" clip-rule="evenodd" stroke-miterlimit="4.00" viewBox="0 0 1024 768"><desc>SVG generated by Keynote</desc><defs></defs><g transform="matrix(1.00, 0.00, -0.00, -1.00, 0.0, 768.0)"><path d="M 0.0 768.0 L 1024.0 768.0 L 1024.0 0.0 L 0.0 0.0 Z M 0.0 768.0 " fill="#FEFFFF"></path><text xml:space="preserve" font-family="Helvetica-Bold" font-weight="bold" font-size="80.0" fill="#000000" transform="matrix(1.00, 0.00, -0.00, -1.00, 150.0, 618.0)">E</text><text xml:space="preserve" font-family="Helvetica-Bold" font-weight="bold" font-size="80.0" fill="#000000" transform="matrix(1.00, 0.00, -0.00, -1.00, 203.4, 618.0)">x</text><text xml:space="preserve" font-family="Helvetica-Bold" font-weight="bold" font-size="80.0" fill="#000000" transform="matrix(1.00, 0.00, -0.00, -1.00, 247.9, 618.0)">p</text><text xml:space="preserve" font-family="Helvetica-Bold" font-weight="bold" font-size="80.0" fill="#000000" transform="matrix(1.00, 0.00, -0.00, -1.00, 296.7, 618.0)">e</text><text xml:space="preserve" font-family="Helvetica-Bold" font-weight="bold" font-size="80.0" fill="#000000" transform="matrix(1.00, 0.00, -0.00, -1.00, 341.2, 618.0)">r</text><text xml:space="preserve" font-family="Helvetica-Bold" font-weight="bold" font-size="80.0" fill="#000000" transform="matrix(1.00, 0.00, -0.00, -1.00, 372.4, 618.0)">i</text><text xml:space="preserve" font-family="Helvetica-Bold" font-weight="bold" font-size="80.0" fill="#000000" transform="matrix(1.00, 0.00, -0.00, -1.00, 394.6, 618.0)">m</text><text xml:space="preserve" font-family="Helvetica-Bold" font-weight="bold" font-size="80.0" fill="#000000" transform="matrix(1.00, 0.00, -0.00, -1.00, 465.7, 618.0)">e</text><text xml:space="preserve" font-family="Helvetica-Bold" font-weight="bold" font-size="80.0" fill="#000000" transform="matrix(1.00, 0.00, -0.00, -1.00, 510.2, 618.0)">n</text><text xml:space="preserve" font-family="Helvetica-Bold" font-weight="bold" font-size="80.0" fill="#000000" transform="matrix(1.00, 0.00, -0.00, -1.00, 559.1, 618.0)">t</text><text xml:space="preserve" font-family="Helvetica-Bold" font-weight="bold" font-size="80.0" fill="#000000" transform="matrix(1.00, 0.00, -0.00, -1.00, 585.7, 618.0)"> </text><text xml:space="preserve" font-family="Helvetica-Bold" font-weight="bold" font-size="80.0" fill="#000000" transform="matrix(1.00, 0.00, -0.00, -1.00, 607.9, 618.0)">D</text><text xml:space="preserve" font-family="Helvetica-Bold" font-weight="bold" font-size="80.0" fill="#000000" transform="matrix(1.00, 0.00, -0.00, -1.00, 665.7, 618.0)">e</text><text xml:space="preserve" font-family="Helvetica-Bold" font-weight="bold" font-size="80.0" fill="#000000" transform="matrix(1.00, 0.00, -0.00, -1.00, 710.2, 618.0)">s</text><text xml:space="preserve" font-family="Helvetica-Bold" font-weight="bold" font-size="80.0" fill="#000000" transform="matrix(1.00, 0.00, -0.00, -1.00, 754.8, 618.0)">i</text><text xml:space="preserve" font-family="Helvetica-Bold" font-weight="bold" font-size="80.0" fill="#000000" transform="matrix(1.00, 0.00, -0.00, -1.00, 777.0, 618.0)">g</text><text xml:space="preserve" font-family="Helvetica-Bold" font-weight="bold" font-size="80.0" fill="#000000" transform="matrix(1.00, 0.00, -0.00, -1.00, 825.8, 618.0)">n</text><g opacity="0.05"><g><clipPath id="clip-937"><path d="M 396.0 639.0 L 1172.0 639.0 L 1172.0 -129.0 L 396.0 -129.0 Z M 396.5 639.4 "></path></clipPath><g clip-path="url(#clip-937)"><g><clipPath id="clip-938"><path d="M 395.0 0.0 L 1024.0 0.0 L 1024.0 641.0 L 395.0 641.0 Z M 395.0 0.0 "></path></clipPath><g clip-path="url(#clip-938)"><image xlink:href="../../615F7CD4-E262-41F7-8138-806EC6AB1FAB/assets/9A6F1F7F57DE1899BBA6D829851F14E0.png" width="546.00" height="540.00" transform="matrix(1.42, 0.00, -0.00, -1.42, 396.0, 639.0)"></image></g></g></g></g></g><g><clipPath id="clip-939"><path d="M 0.2 705.8 L 55.1 705.8 L 55.1 768.2 L 0.2 768.2 Z M 0.2 705.8 "></path></clipPath><g clip-path="url(#clip-939)"><image xlink:href="../../615F7CD4-E262-41F7-8138-806EC6AB1FAB/assets/FCA65AB6163C3244B97FA67EDF156BF9.png" width="55.00" height="63.00" transform="matrix(1.00, 0.00, -0.00, -0.98, 0.0, 768.0)"></image></g></g><g><clipPath id="clip-940"><path d="M 53.7 704.8 L 1026.5 704.8 L 1026.5 769.2 L 53.7 769.2 Z M 53.7 704.8 "></path></clipPath><g clip-path="url(#clip-940)"><path d="M 54.7 768.2 L 1025.5 768.2 L 1025.5 705.8 L 54.7 705.8 Z M 54.7 768.2 " fill="#F15F18"></path></g></g><image xlink:href="../../DE87691F-2CA5-4CAF-9CA4-E02691EAFD98/assets/DF59CC4A283EB5A75DEDA906CBE38B2C.png" width="264.00" height="434.00" transform="matrix(1.00, 0.00, -0.00, -1.00, 381.3, 505.1)" opacity="0.70"></image><image xlink:href="../../B09B99B2-9A29-4F00-BB5A-357C3C5A969F/assets/6765956A23A5BD91E869D3DF217B09CD.png" width="254.00" height="424.00" transform="matrix(1.00, 0.00, -0.00, -1.00, 385.0, 502.0)"></image><path d="M -0.3 -0.2 L 253.7 -0.2 L 253.7 423.8 L -0.3 423.8 Z M -0.3 -0.2 " fill="none" stroke="#F2F6F5" stroke-width="2.00" transform="matrix(1.00, 0.00, 0.00, -1.00, 385.3, 501.8)"></path><text xml:space="preserve" font-family="Helvetica-Bold" font-weight="bold" font-size="36.0" fill="#000000" transform="matrix(1.00, 0.00, -0.00, -1.00, 283.0, 559.0)">T</text><text xml:space="preserve" font-family="Helvetica-Bold" font-weight="bold" font-size="36.0" fill="#000000" transform="matrix(1.00, 0.00, -0.00, -1.00, 302.3, 559.0)">e</text><text xml:space="preserve" font-family="Helvetica-Bold" font-weight="bold" font-size="36.0" fill="#000000" transform="matrix(1.00, 0.00, -0.00, -1.00, 322.4, 559.0)">s</text><text xml:space="preserve" font-family="Helvetica-Bold" font-weight="bold" font-size="36.0" fill="#000000" transform="matrix(1.00, 0.00, -0.00, -1.00, 342.4, 559.0)">t</text><text xml:space="preserve" font-family="Helvetica-Bold" font-weight="bold" font-size="36.0" fill="#000000" transform="matrix(1.00, 0.00, -0.00, -1.00, 354.4, 559.0)">i</text><text xml:space="preserve" font-family="Helvetica-Bold" font-weight="bold" font-size="36.0" fill="#000000" transform="matrix(1.00, 0.00, -0.00, -1.00, 364.4, 559.0)">n</text><text xml:space="preserve" font-family="Helvetica-Bold" font-weight="bold" font-size="36.0" fill="#000000" transform="matrix(1.00, 0.00, -0.00, -1.00, 386.4, 559.0)">g</text><text xml:space="preserve" font-family="Helvetica-Bold" font-weight="bold" font-size="36.0" fill="#000000" transform="matrix(1.00, 0.00, -0.00, -1.00, 408.3, 559.0)"> </text><text xml:space="preserve" font-family="Helvetica-Bold" font-weight="bold" font-size="36.0" fill="#000000" transform="matrix(1.00, 0.00, -0.00, -1.00, 417.0, 559.0)">A</text><text xml:space="preserve" font-family="Helvetica-Bold" font-weight="bold" font-size="36.0" fill="#000000" transform="matrix(1.00, 0.00, -0.00, -1.00, 443.0, 559.0)">p</text><text xml:space="preserve" font-family="Helvetica-Bold" font-weight="bold" font-size="36.0" fill="#000000" transform="matrix(1.00, 0.00, -0.00, -1.00, 465.0, 559.0)">p</text><text xml:space="preserve" font-family="Helvetica-Bold" font-weight="bold" font-size="36.0" fill="#000000" transform="matrix(1.00, 0.00, -0.00, -1.00, 487.0, 559.0)">l</text><text xml:space="preserve" font-family="Helvetica-Bold" font-weight="bold" font-size="36.0" fill="#000000" transform="matrix(1.00, 0.00, -0.00, -1.00, 497.0, 559.0)">i</text><text xml:space="preserve" font-family="Helvetica-Bold" font-weight="bold" font-size="36.0" fill="#000000" transform="matrix(1.00, 0.00, -0.00, -1.00, 507.0, 559.0)">c</text><text xml:space="preserve" font-family="Helvetica-Bold" font-weight="bold" font-size="36.0" fill="#000000" transform="matrix(1.00, 0.00, -0.00, -1.00, 527.0, 559.0)">a</text><text xml:space="preserve" font-family="Helvetica-Bold" font-weight="bold" font-size="36.0" fill="#000000" transform="matrix(1.00, 0.00, -0.00, -1.00, 547.0, 559.0)">t</text><text xml:space="preserve" font-family="Helvetica-Bold" font-weight="bold" font-size="36.0" fill="#000000" transform="matrix(1.00, 0.00, -0.00, -1.00, 559.0, 559.0)">i</text><text xml:space="preserve" font-family="Helvetica-Bold" font-weight="bold" font-size="36.0" fill="#000000" transform="matrix(1.00, 0.00, -0.00, -1.00, 569.0, 559.0)">o</text><text xml:space="preserve" font-family="Helvetica-Bold" font-weight="bold" font-size="36.0" fill="#000000" transform="matrix(1.00, 0.00, -0.00, -1.00, 591.0, 559.0)">n</text><text xml:space="preserve" font-family="Helvetica-Bold" font-weight="bold" font-size="36.0" fill="#000000" transform="matrix(1.00, 0.00, -0.00, -1.00, 613.0, 559.0)"> </text><text xml:space="preserve" font-family="Helvetica-Bold" font-weight="bold" font-size="36.0" fill="#000000" transform="matrix(1.00, 0.00, -0.00, -1.00, 623.0, 559.0)">f</text><text xml:space="preserve" font-family="Helvetica-Bold" font-weight="bold" font-size="36.0" fill="#000000" transform="matrix(1.00, 0.00, -0.00, -1.00, 635.0, 559.0)">o</text><text xml:space="preserve" font-family="Helvetica-Bold" font-weight="bold" font-size="36.0" fill="#000000" transform="matrix(1.00, 0.00, -0.00, -1.00, 656.9, 559.0)">r</text><text xml:space="preserve" font-family="Helvetica-Bold" font-weight="bold" font-size="36.0" fill="#000000" transform="matrix(1.00, 0.00, -0.00, -1.00, 671.0, 559.0)"> </text><text xml:space="preserve" font-family="Helvetica-Bold" font-weight="bold" font-size="36.0" fill="#000000" transform="matrix(1.00, 0.00, -0.00, -1.00, 681.0, 559.0)">T</text><text xml:space="preserve" font-family="Helvetica-Bold" font-weight="bold" font-size="36.0" fill="#000000" transform="matrix(1.00, 0.00, -0.00, -1.00, 700.3, 559.0)">a</text><text xml:space="preserve" font-family="Helvetica-Bold" font-weight="bold" font-size="36.0" fill="#000000" transform="matrix(1.00, 0.00, -0.00, -1.00, 720.3, 559.0)">p</text><g><clipPath id="clip-941"><path d="M 722.2 71.3 L 986.4 71.3 L 986.4 505.1 L 722.2 505.1 Z M 722.2 71.3 "></path></clipPath><g clip-path="url(#clip-941)"><image xlink:href="../../DE87691F-2CA5-4CAF-9CA4-E02691EAFD98/assets/FBB9D7642E7CF8EECAA1478EA29E7354.png" width="264.00" height="434.00" transform="matrix(1.00, 0.00, -0.00, -1.00, 722.2, 505.1)" opacity="0.70"></image><image xlink:href="../../B09B99B2-9A29-4F00-BB5A-357C3C5A969F/assets/6765956A23A5BD91E869D3DF217B09CD.png" width="254.00" height="424.00" transform="matrix(1.00, 0.00, -0.00, -1.00, 726.0, 502.0)"></image><path d="M -0.2 -0.2 L 253.8 -0.2 L 253.8 423.8 L -0.2 423.8 Z M -0.2 -0.2 " fill="none" stroke="#F2F6F5" stroke-width="2.00" transform="matrix(1.00, 0.00, 0.00, -1.00, 726.2, 501.8)"></path></g></g><g><clipPath id="clip-942"><path d="M 798.0 233.9 L 906.0 233.9 L 906.0 341.9 L 798.0 341.9 Z M 798.0 233.9 "></path></clipPath><g clip-path="url(#clip-942)"><image xlink:href="../../DE87691F-2CA5-4CAF-9CA4-E02691EAFD98/assets/7E27D7D74B2DA92C336D6AD660991410.png" width="106.00" height="106.00" transform="matrix(1.00, 0.00, -0.00, -1.00, 799.0, 340.9)" opacity="0.50"></image><path d="M 802.0 339.9 L 902.0 339.9 L 902.0 239.9 L 802.0 239.9 Z M 802.0 339.9 " fill="#000000"></path></g></g><g><clipPath id="clip-943"><path d="M 839.2 266.0 L 866.5 266.0 L 866.5 286.2 L 839.2 286.2 Z M 839.2 266.0 "></path></clipPath><g clip-path="url(#clip-943)"><image xlink:href="../../DE87691F-2CA5-4CAF-9CA4-E02691EAFD98/assets/2D877C2EA01FA0FD0A4DBBC975708EF8.png" width="25.00" height="18.00" transform="matrix(1.01, 0.00, -0.00, -1.01, 840.2, 285.2)" opacity="0.50"></image><path d="M 0.0 0.0 L 18.3 0.0 L 18.3 11.2 L 0.0 11.2 Z M 0.0 0.0 " fill="none" stroke="#FEFFFF" stroke-width="1.00" transform="matrix(1.00, 0.00, 0.00, -1.00, 843.7, 283.7)"></path></g></g><g><clipPath id="clip-944"><path d="M 40.3 71.3 L 304.5 71.3 L 304.5 505.1 L 40.3 505.1 Z M 40.3 71.3 "></path></clipPath><g clip-path="url(#clip-944)"><image xlink:href="../../DE87691F-2CA5-4CAF-9CA4-E02691EAFD98/assets/50C23296C56CA6398E3BC0C0FEB9C8ED.png" width="264.00" height="434.00" transform="matrix(1.00, 0.00, -0.00, -1.00, 40.3, 505.1)" opacity="0.70"></image><image xlink:href="../../B09B99B2-9A29-4F00-BB5A-357C3C5A969F/assets/6765956A23A5BD91E869D3DF217B09CD.png" width="254.00" height="424.00" transform="matrix(1.00, 0.00, -0.00, -1.00, 44.0, 502.0)"></image><path d="M -0.3 -0.2 L 254.7 -0.2 L 254.7 423.8 L -0.3 423.8 Z M -0.3 -0.2 " fill="none" stroke="#F2F6F5" stroke-width="2.00" transform="matrix(1.00, 0.00, 0.00, -1.00, 44.3, 501.8)"></path></g></g><g><clipPath id="clip-945"><path d="M 117.4 222.1 L 225.4 222.1 L 225.4 330.1 L 117.4 330.1 Z M 117.4 222.1 "></path></clipPath><g clip-path="url(#clip-945)"><image xlink:href="../../DE87691F-2CA5-4CAF-9CA4-E02691EAFD98/assets/7E27D7D74B2DA92C336D6AD660991410.png" width="106.00" height="106.00" transform="matrix(1.00, 0.00, -0.00, -1.00, 118.4, 329.1)" opacity="0.50"></image><path d="M 121.4 328.1 L 221.4 328.1 L 221.4 228.1 L 121.4 228.1 Z M 121.4 328.1 " fill="#000000"></path></g></g><g><clipPath id="clip-946"><path d="M 117.4 239.2 L 231.8 239.2 L 231.8 325.1 L 117.4 325.1 Z M 117.4 239.2 "></path></clipPath><g clip-path="url(#clip-946)"><image xlink:href="../../DE87691F-2CA5-4CAF-9CA4-E02691EAFD98/assets/3758F06EAE8E3BBA79DA79A77580E24E.png" width="112.00" height="84.00" transform="matrix(1.00, 0.00, -0.00, -1.00, 118.4, 324.1)" opacity="0.50"></image><path d="M 0.0 0.0 L 105.4 0.0 L 105.4 76.9 L 0.0 76.9 Z M 0.0 0.0 " fill="none" stroke="#FEFFFF" stroke-width="1.00" transform="matrix(1.00, 0.00, 0.00, -1.00, 121.9, 322.6)"></path></g></g><text xml:space="preserve" font-family="Helvetica-Light" font-size="36.0" fill="#000000" transform="matrix(1.00, 0.00, -0.00, -1.00, 132.0, 24.0)">T</text><text xml:space="preserve" font-family="Helvetica-Light" font-size="36.0" fill="#000000" transform="matrix(1.00, 0.00, -0.00, -1.00, 148.0, 24.0)">a</text><text xml:space="preserve" font-family="Helvetica-Light" font-size="36.0" fill="#000000" transform="matrix(1.00, 0.00, -0.00, -1.00, 168.0, 24.0)">p</text><text xml:space="preserve" font-family="Helvetica-Light" font-size="36.0" fill="#000000" transform="matrix(1.00, 0.00, -0.00, -1.00, 190.0, 24.0)"> </text><text xml:space="preserve" font-family="Helvetica-Light" font-size="36.0" fill="#000000" transform="matrix(1.00, 0.00, -0.00, -1.00, 200.0, 24.0)">I</text><text xml:space="preserve" font-family="Helvetica-Light" font-size="36.0" fill="#000000" transform="matrix(1.00, 0.00, -0.00, -1.00, 469.0, 24.0)">T</text><text xml:space="preserve" font-family="Helvetica-Light" font-size="36.0" fill="#000000" transform="matrix(1.00, 0.00, -0.00, -1.00, 485.0, 24.0)">a</text><text xml:space="preserve" font-family="Helvetica-Light" font-size="36.0" fill="#000000" transform="matrix(1.00, 0.00, -0.00, -1.00, 505.0, 24.0)">p</text><text xml:space="preserve" font-family="Helvetica-Light" font-size="36.0" fill="#000000" transform="matrix(1.00, 0.00, -0.00, -1.00, 527.0, 24.0)"> </text><text xml:space="preserve" font-family="Helvetica-Light" font-size="36.0" fill="#000000" transform="matrix(1.00, 0.00, -0.00, -1.00, 537.0, 24.0)">I</text><text xml:space="preserve" font-family="Helvetica-Light" font-size="36.0" fill="#000000" transform="matrix(1.00, 0.00, -0.00, -1.00, 547.0, 24.0)">I</text><text xml:space="preserve" font-family="Helvetica-Light" font-size="36.0" fill="#000000" transform="matrix(1.00, 0.00, -0.00, -1.00, 810.0, 24.0)">T</text><text xml:space="preserve" font-family="Helvetica-Light" font-size="36.0" fill="#000000" transform="matrix(1.00, 0.00, -0.00, -1.00, 826.0, 24.0)">a</text><text xml:space="preserve" font-family="Helvetica-Light" font-size="36.0" fill="#000000" transform="matrix(1.00, 0.00, -0.00, -1.00, 846.0, 24.0)">p</text><text xml:space="preserve" font-family="Helvetica-Light" font-size="36.0" fill="#000000" transform="matrix(1.00, 0.00, -0.00, -1.00, 868.0, 24.0)"> </text><text xml:space="preserve" font-family="Helvetica-Light" font-size="36.0" fill="#000000" transform="matrix(1.00, 0.00, -0.00, -1.00, 878.0, 24.0)">I</text><text xml:space="preserve" font-family="Helvetica-Light" font-size="36.0" fill="#000000" transform="matrix(1.00, 0.00, -0.00, -1.00, 888.0, 24.0)">I</text><text xml:space="preserve" font-family="Helvetica-Light" font-size="36.0" fill="#000000" transform="matrix(1.00, 0.00, -0.00, -1.00, 898.1, 24.0)">I</text></g></svg>