<?xml version="1.0" encoding="UTF-8" standalone="no"?><svg xmlns="http://www.w3.org/2000/svg" xmlns:xlink="http://www.w3.org/1999/xlink" clip-rule="evenodd" stroke-miterlimit="4.00" viewBox="0 0 1024 768"><desc>SVG generated by Keynote</desc><defs></defs><g transform="matrix(1.00, 0.00, -0.00, -1.00, 0.0, 768.0)"><path d="M 0.0 768.0 L 1024.0 768.0 L 1024.0 0.0 L 0.0 0.0 Z M 0.0 768.0 " fill="#FEFFFF"></path><text xml:space="preserve" font-family="Helvetica-Bold" font-weight="bold" font-size="80.0" fill="#000000" transform="matrix(1.00, 0.00, -0.00, -1.00, 277.0, 618.0)">F</text><text xml:space="preserve" font-family="Helvetica-Bold" font-weight="bold" font-size="80.0" fill="#000000" transform="matrix(1.00, 0.00, -0.00, -1.00, 325.9, 618.0)">u</text><text xml:space="preserve" font-family="Helvetica-Bold" font-weight="bold" font-size="80.0" fill="#000000" transform="matrix(1.00, 0.00, -0.00, -1.00, 374.7, 618.0)">t</text><text xml:space="preserve" font-family="Helvetica-Bold" font-weight="bold" font-size="80.0" fill="#000000" transform="matrix(1.00, 0.00, -0.00, -1.00, 401.3, 618.0)">u</text><text xml:space="preserve" font-family="Helvetica-Bold" font-weight="bold" font-size="80.0" fill="#000000" transform="matrix(1.00, 0.00, -0.00, -1.00, 450.2, 618.0)">r</text><text xml:space="preserve" font-family="Helvetica-Bold" font-weight="bold" font-size="80.0" fill="#000000" transform="matrix(1.00, 0.00, -0.00, -1.00, 481.3, 618.0)">e</text><text xml:space="preserve" font-family="Helvetica-Bold" font-weight="bold" font-size="80.0" fill="#000000" transform="matrix(1.00, 0.00, -0.00, -1.00, 525.9, 618.0)"> </text><text xml:space="preserve" font-family="Helvetica-Bold" font-weight="bold" font-size="80.0" fill="#000000" transform="matrix(1.00, 0.00, -0.00, -1.00, 548.1, 618.0)">W</text><text xml:space="preserve" font-family="Helvetica-Bold" font-weight="bold" font-size="80.0" fill="#000000" transform="matrix(1.00, 0.00, -0.00, -1.00, 622.2, 618.0)">o</text><text xml:space="preserve" font-family="Helvetica-Bold" font-weight="bold" font-size="80.0" fill="#000000" transform="matrix(1.00, 0.00, -0.00, -1.00, 671.0, 618.0)">r</text><text xml:space="preserve" font-family="Helvetica-Bold" font-weight="bold" font-size="80.0" fill="#000000" transform="matrix(1.00, 0.00, -0.00, -1.00, 702.2, 618.0)">k</text><g opacity="0.05"><g><clipPath id="clip-1653"><path d="M 396.0 639.0 L 1172.0 639.0 L 1172.0 -129.0 L 396.0 -129.0 Z M 396.5 639.4 "></path></clipPath><g clip-path="url(#clip-1653)"><g><clipPath id="clip-1654"><path d="M 395.0 0.0 L 1024.0 0.0 L 1024.0 641.0 L 395.0 641.0 Z M 395.0 0.0 "></path></clipPath><g clip-path="url(#clip-1654)"><image xlink:href="../../615F7CD4-E262-41F7-8138-806EC6AB1FAB/assets/9A6F1F7F57DE1899BBA6D829851F14E0.png" width="546.00" height="540.00" transform="matrix(1.42, 0.00, -0.00, -1.42, 396.0, 639.0)"></image></g></g></g></g></g><g><clipPath id="clip-1655"><path d="M 0.2 705.8 L 55.1 705.8 L 55.1 768.2 L 0.2 768.2 Z M 0.2 705.8 "></path></clipPath><g clip-path="url(#clip-1655)"><image xlink:href="../../615F7CD4-E262-41F7-8138-806EC6AB1FAB/assets/FCA65AB6163C3244B97FA67EDF156BF9.png" width="55.00" height="63.00" transform="matrix(1.00, 0.00, -0.00, -0.98, 0.0, 768.0)"></image></g></g><g><clipPath id="clip-1656"><path d="M 53.7 704.8 L 1026.5 704.8 L 1026.5 769.2 L 53.7 769.2 Z M 53.7 704.8 "></path></clipPath><g clip-path="url(#clip-1656)"><path d="M 54.7 768.2 L 1025.5 768.2 L 1025.5 705.8 L 54.7 705.8 Z M 54.7 768.2 " fill="#F15F18"></path></g></g><text xml:space="preserve" font-family="Helvetica-Bold" font-weight="bold" font-size="36.0" fill="#000000" transform="matrix(1.00, 0.00, -0.00, -1.00, 51.0, 513.0)">A</text><text xml:space="preserve" font-family="Helvetica-Bold" font-weight="bold" font-size="36.0" fill="#000000" transform="matrix(1.00, 0.00, -0.00, -1.00, 77.0, 513.0)">u</text><text xml:space="preserve" font-family="Helvetica-Bold" font-weight="bold" font-size="36.0" fill="#000000" transform="matrix(1.00, 0.00, -0.00, -1.00, 99.0, 513.0)">t</text><text xml:space="preserve" font-family="Helvetica-Bold" font-weight="bold" font-size="36.0" fill="#000000" transform="matrix(1.00, 0.00, -0.00, -1.00, 111.0, 513.0)">i</text><text xml:space="preserve" font-family="Helvetica-Bold" font-weight="bold" font-size="36.0" fill="#000000" transform="matrix(1.00, 0.00, -0.00, -1.00, 121.0, 513.0)">s</text><text xml:space="preserve" font-family="Helvetica-Bold" font-weight="bold" font-size="36.0" fill="#000000" transform="matrix(1.00, 0.00, -0.00, -1.00, 141.0, 513.0)">m</text><text xml:space="preserve" font-family="Helvetica-Bold" font-weight="bold" font-size="36.0" fill="#000000" transform="matrix(1.00, 0.00, -0.00, -1.00, 173.0, 513.0)"> </text><text xml:space="preserve" font-family="Helvetica-Bold" font-weight="bold" font-size="36.0" fill="#000000" transform="matrix(1.00, 0.00, -0.00, -1.00, 183.0, 513.0)">S</text><text xml:space="preserve" font-family="Helvetica-Bold" font-weight="bold" font-size="36.0" fill="#000000" transform="matrix(1.00, 0.00, -0.00, -1.00, 207.0, 513.0)">p</text><text xml:space="preserve" font-family="Helvetica-Bold" font-weight="bold" font-size="36.0" fill="#000000" transform="matrix(1.00, 0.00, -0.00, -1.00, 229.0, 513.0)">e</text><text xml:space="preserve" font-family="Helvetica-Bold" font-weight="bold" font-size="36.0" fill="#000000" transform="matrix(1.00, 0.00, -0.00, -1.00, 249.0, 513.0)">c</text><text xml:space="preserve" font-family="Helvetica-Bold" font-weight="bold" font-size="36.0" fill="#000000" transform="matrix(1.00, 0.00, -0.00, -1.00, 269.1, 513.0)">t</text><text xml:space="preserve" font-family="Helvetica-Bold" font-weight="bold" font-size="36.0" fill="#000000" transform="matrix(1.00, 0.00, -0.00, -1.00, 281.1, 513.0)">r</text><text xml:space="preserve" font-family="Helvetica-Bold" font-weight="bold" font-size="36.0" fill="#000000" transform="matrix(1.00, 0.00, -0.00, -1.00, 295.1, 513.0)">u</text><text xml:space="preserve" font-family="Helvetica-Bold" font-weight="bold" font-size="36.0" fill="#000000" transform="matrix(1.00, 0.00, -0.00, -1.00, 317.1, 513.0)">m</text><text xml:space="preserve" font-family="Helvetica-Bold" font-weight="bold" font-size="36.0" fill="#000000" transform="matrix(1.00, 0.00, -0.00, -1.00, 349.1, 513.0)"> </text><text xml:space="preserve" font-family="Helvetica-Bold" font-weight="bold" font-size="36.0" fill="#000000" transform="matrix(1.00, 0.00, -0.00, -1.00, 359.1, 513.0)">D</text><text xml:space="preserve" font-family="Helvetica-Bold" font-weight="bold" font-size="36.0" fill="#000000" transform="matrix(1.00, 0.00, -0.00, -1.00, 385.1, 513.0)">i</text><text xml:space="preserve" font-family="Helvetica-Bold" font-weight="bold" font-size="36.0" fill="#000000" transform="matrix(1.00, 0.00, -0.00, -1.00, 395.1, 513.0)">s</text><text xml:space="preserve" font-family="Helvetica-Bold" font-weight="bold" font-size="36.0" fill="#000000" transform="matrix(1.00, 0.00, -0.00, -1.00, 415.1, 513.0)">o</text><text xml:space="preserve" font-family="Helvetica-Bold" font-weight="bold" font-size="36.0" fill="#000000" transform="matrix(1.00, 0.00, -0.00, -1.00, 437.1, 513.0)">r</text><text xml:space="preserve" font-family="Helvetica-Bold" font-weight="bold" font-size="36.0" fill="#000000" transform="matrix(1.00, 0.00, -0.00, -1.00, 451.1, 513.0)">d</text><text xml:space="preserve" font-family="Helvetica-Bold" font-weight="bold" font-size="36.0" fill="#000000" transform="matrix(1.00, 0.00, -0.00, -1.00, 473.1, 513.0)">e</text><text xml:space="preserve" font-family="Helvetica-Bold" font-weight="bold" font-size="36.0" fill="#000000" transform="matrix(1.00, 0.00, -0.00, -1.00, 493.1, 513.0)">r</text><text xml:space="preserve" font-family="Helvetica-Bold" font-weight="bold" font-size="36.0" fill="#000000" transform="matrix(1.00, 0.00, -0.00, -1.00, 507.1, 513.0)"> </text><text xml:space="preserve" font-family="Helvetica-Bold" font-weight="bold" font-size="36.0" fill="#000000" transform="matrix(1.00, 0.00, -0.00, -1.00, 517.1, 513.0)">(</text><text xml:space="preserve" font-family="Helvetica-Bold" font-weight="bold" font-size="36.0" fill="#000000" transform="matrix(1.00, 0.00, -0.00, -1.00, 529.1, 513.0)">A</text><text xml:space="preserve" font-family="Helvetica-Bold" font-weight="bold" font-size="36.0" fill="#000000" transform="matrix(1.00, 0.00, -0.00, -1.00, 555.1, 513.0)">S</text><text xml:space="preserve" font-family="Helvetica-Bold" font-weight="bold" font-size="36.0" fill="#000000" transform="matrix(1.00, 0.00, -0.00, -1.00, 579.1, 513.0)">D</text><text xml:space="preserve" font-family="Helvetica-Bold" font-weight="bold" font-size="36.0" fill="#000000" transform="matrix(1.00, 0.00, -0.00, -1.00, 605.1, 513.0)">)</text><text xml:space="preserve" font-family="Helvetica-Light" font-size="30.0" fill="#000000" transform="matrix(1.00, 0.00, -0.00, -1.00, 51.0, 454.0)">W</text><text xml:space="preserve" font-family="Helvetica-Light" font-size="30.0" fill="#000000" transform="matrix(1.00, 0.00, -0.00, -1.00, 77.1, 454.0)">e</text><text xml:space="preserve" font-family="Helvetica-Light" font-size="30.0" fill="#000000" transform="matrix(1.00, 0.00, -0.00, -1.00, 93.8, 454.0)"> </text><text xml:space="preserve" font-family="Helvetica-Light" font-size="30.0" fill="#000000" transform="matrix(1.00, 0.00, -0.00, -1.00, 111.5, 454.0)">h</text><text xml:space="preserve" font-family="Helvetica-Light" font-size="30.0" fill="#000000" transform="matrix(1.00, 0.00, -0.00, -1.00, 128.2, 454.0)">a</text><text xml:space="preserve" font-family="Helvetica-Light" font-size="30.0" fill="#000000" transform="matrix(1.00, 0.00, -0.00, -1.00, 144.9, 454.0)">d</text><text xml:space="preserve" font-family="Helvetica-Light" font-size="30.0" fill="#000000" transform="matrix(1.00, 0.00, -0.00, -1.00, 163.2, 454.0)"> </text><text xml:space="preserve" font-family="Helvetica-Light" font-size="30.0" fill="#000000" transform="matrix(1.00, 0.00, -0.00, -1.00, 181.0, 454.0)">o</text><text xml:space="preserve" font-family="Helvetica-Light" font-size="30.0" fill="#000000" transform="matrix(1.00, 0.00, -0.00, -1.00, 197.7, 454.0)">b</text><text xml:space="preserve" font-family="Helvetica-Light" font-size="30.0" fill="#000000" transform="matrix(1.00, 0.00, -0.00, -1.00, 216.0, 454.0)">s</text><text xml:space="preserve" font-family="Helvetica-Light" font-size="30.0" fill="#000000" transform="matrix(1.00, 0.00, -0.00, -1.00, 231.0, 454.0)">e</text><text xml:space="preserve" font-family="Helvetica-Light" font-size="30.0" fill="#000000" transform="matrix(1.00, 0.00, -0.00, -1.00, 247.7, 454.0)">r</text><text xml:space="preserve" font-family="Helvetica-Light" font-size="30.0" fill="#000000" transform="matrix(1.00, 0.00, -0.00, -1.00, 257.7, 454.0)">v</text><text xml:space="preserve" font-family="Helvetica-Light" font-size="30.0" fill="#000000" transform="matrix(1.00, 0.00, -0.00, -1.00, 272.7, 454.0)">e</text><text xml:space="preserve" font-family="Helvetica-Light" font-size="30.0" fill="#000000" transform="matrix(1.00, 0.00, -0.00, -1.00, 289.3, 454.0)">d</text><text xml:space="preserve" font-family="Helvetica-Light" font-size="30.0" fill="#000000" transform="matrix(1.00, 0.00, -0.00, -1.00, 307.7, 454.0)"> </text><text xml:space="preserve" font-family="Helvetica-Light" font-size="30.0" fill="#000000" transform="matrix(1.00, 0.00, -0.00, -1.00, 325.4, 454.0)">t</text><text xml:space="preserve" font-family="Helvetica-Light" font-size="30.0" fill="#000000" transform="matrix(1.00, 0.00, -0.00, -1.00, 333.7, 454.0)">h</text><text xml:space="preserve" font-family="Helvetica-Light" font-size="30.0" fill="#000000" transform="matrix(1.00, 0.00, -0.00, -1.00, 350.4, 454.0)">a</text><text xml:space="preserve" font-family="Helvetica-Light" font-size="30.0" fill="#000000" transform="matrix(1.00, 0.00, -0.00, -1.00, 367.1, 454.0)">t</text><text xml:space="preserve" font-family="Helvetica-Light" font-size="30.0" fill="#000000" transform="matrix(1.00, 0.00, -0.00, -1.00, 375.4, 454.0)"> </text><text xml:space="preserve" font-family="Helvetica-Light" font-size="30.0" fill="#000000" transform="matrix(1.00, 0.00, -0.00, -1.00, 393.2, 454.0)">C</text><text xml:space="preserve" font-family="Helvetica-Light" font-size="30.0" fill="#000000" transform="matrix(1.00, 0.00, -0.00, -1.00, 414.8, 454.0)">h</text><text xml:space="preserve" font-family="Helvetica-Light" font-size="30.0" fill="#000000" transform="matrix(1.00, 0.00, -0.00, -1.00, 431.5, 454.0)">i</text><text xml:space="preserve" font-family="Helvetica-Light" font-size="30.0" fill="#000000" transform="matrix(1.00, 0.00, -0.00, -1.00, 438.2, 454.0)">n</text><text xml:space="preserve" font-family="Helvetica-Light" font-size="30.0" fill="#000000" transform="matrix(1.00, 0.00, -0.00, -1.00, 454.9, 454.0)">e</text><text xml:space="preserve" font-family="Helvetica-Light" font-size="30.0" fill="#000000" transform="matrix(1.00, 0.00, -0.00, -1.00, 471.5, 454.0)">s</text><text xml:space="preserve" font-family="Helvetica-Light" font-size="30.0" fill="#000000" transform="matrix(1.00, 0.00, -0.00, -1.00, 486.5, 454.0)">e</text><text xml:space="preserve" font-family="Helvetica-Light" font-size="30.0" fill="#000000" transform="matrix(1.00, 0.00, -0.00, -1.00, 503.2, 454.0)"> </text><text xml:space="preserve" font-family="Helvetica-Light" font-size="30.0" fill="#000000" transform="matrix(1.00, 0.00, -0.00, -1.00, 521.0, 454.0)">c</text><text xml:space="preserve" font-family="Helvetica-Light" font-size="30.0" fill="#000000" transform="matrix(1.00, 0.00, -0.00, -1.00, 537.6, 454.0)">h</text><text xml:space="preserve" font-family="Helvetica-Light" font-size="30.0" fill="#000000" transform="matrix(1.00, 0.00, -0.00, -1.00, 554.3, 454.0)">i</text><text xml:space="preserve" font-family="Helvetica-Light" font-size="30.0" fill="#000000" transform="matrix(1.00, 0.00, -0.00, -1.00, 561.0, 454.0)">l</text><text xml:space="preserve" font-family="Helvetica-Light" font-size="30.0" fill="#000000" transform="matrix(1.00, 0.00, -0.00, -1.00, 567.6, 454.0)">d</text><text xml:space="preserve" font-family="Helvetica-Light" font-size="30.0" fill="#000000" transform="matrix(1.00, 0.00, -0.00, -1.00, 586.0, 454.0)">r</text><text xml:space="preserve" font-family="Helvetica-Light" font-size="30.0" fill="#000000" transform="matrix(1.00, 0.00, -0.00, -1.00, 595.4, 454.0)">e</text><text xml:space="preserve" font-family="Helvetica-Light" font-size="30.0" fill="#000000" transform="matrix(1.00, 0.00, -0.00, -1.00, 612.1, 454.0)">n</text><text xml:space="preserve" font-family="Helvetica-Light" font-size="30.0" fill="#000000" transform="matrix(1.00, 0.00, -0.00, -1.00, 628.8, 454.0)"> </text><text xml:space="preserve" font-family="Helvetica-Light" font-size="30.0" fill="#000000" transform="matrix(1.00, 0.00, -0.00, -1.00, 51.0, 418.0)">w</text><text xml:space="preserve" font-family="Helvetica-Light" font-size="30.0" fill="#000000" transform="matrix(1.00, 0.00, -0.00, -1.00, 72.7, 418.0)">i</text><text xml:space="preserve" font-family="Helvetica-Light" font-size="30.0" fill="#000000" transform="matrix(1.00, 0.00, -0.00, -1.00, 79.3, 418.0)">t</text><text xml:space="preserve" font-family="Helvetica-Light" font-size="30.0" fill="#000000" transform="matrix(1.00, 0.00, -0.00, -1.00, 87.7, 418.0)">h</text><text xml:space="preserve" font-family="Helvetica-Light" font-size="30.0" fill="#000000" transform="matrix(1.00, 0.00, -0.00, -1.00, 104.3, 418.0)"> </text><text xml:space="preserve" font-family="Helvetica-Light" font-size="30.0" fill="#000000" transform="matrix(1.00, 0.00, -0.00, -1.00, 114.4, 418.0)">A</text><text xml:space="preserve" font-family="Helvetica-Light" font-size="30.0" fill="#000000" transform="matrix(1.00, 0.00, -0.00, -1.00, 134.4, 418.0)">S</text><text xml:space="preserve" font-family="Helvetica-Light" font-size="30.0" fill="#000000" transform="matrix(1.00, 0.00, -0.00, -1.00, 152.7, 418.0)">D</text><text xml:space="preserve" font-family="Helvetica-Light" font-size="30.0" fill="#000000" transform="matrix(1.00, 0.00, -0.00, -1.00, 174.4, 418.0)"> </text><text xml:space="preserve" font-family="Helvetica-Light" font-size="30.0" fill="#000000" transform="matrix(1.00, 0.00, -0.00, -1.00, 184.5, 418.0)">a</text><text xml:space="preserve" font-family="Helvetica-Light" font-size="30.0" fill="#000000" transform="matrix(1.00, 0.00, -0.00, -1.00, 201.1, 418.0)">r</text><text xml:space="preserve" font-family="Helvetica-Light" font-size="30.0" fill="#000000" transform="matrix(1.00, 0.00, -0.00, -1.00, 210.6, 418.0)">e</text><text xml:space="preserve" font-family="Helvetica-Light" font-size="30.0" fill="#000000" transform="matrix(1.00, 0.00, -0.00, -1.00, 227.3, 418.0)"> </text><text xml:space="preserve" font-family="Helvetica-Light" font-size="30.0" fill="#000000" transform="matrix(1.00, 0.00, -0.00, -1.00, 237.3, 418.0)">m</text><text xml:space="preserve" font-family="Helvetica-Light" font-size="30.0" fill="#000000" transform="matrix(1.00, 0.00, -0.00, -1.00, 262.3, 418.0)">o</text><text xml:space="preserve" font-family="Helvetica-Light" font-size="30.0" fill="#000000" transform="matrix(1.00, 0.00, -0.00, -1.00, 279.0, 418.0)">r</text><text xml:space="preserve" font-family="Helvetica-Light" font-size="30.0" fill="#000000" transform="matrix(1.00, 0.00, -0.00, -1.00, 288.4, 418.0)">e</text><text xml:space="preserve" font-family="Helvetica-Light" font-size="30.0" fill="#000000" transform="matrix(1.00, 0.00, -0.00, -1.00, 305.1, 418.0)"> </text><text xml:space="preserve" font-family="Helvetica-Light" font-size="30.0" fill="#000000" transform="matrix(1.00, 0.00, -0.00, -1.00, 315.2, 418.0)">i</text><text xml:space="preserve" font-family="Helvetica-Light" font-size="30.0" fill="#000000" transform="matrix(1.00, 0.00, -0.00, -1.00, 321.8, 418.0)">n</text><text xml:space="preserve" font-family="Helvetica-Light" font-size="30.0" fill="#000000" transform="matrix(1.00, 0.00, -0.00, -1.00, 338.5, 418.0)">c</text><text xml:space="preserve" font-family="Helvetica-Light" font-size="30.0" fill="#000000" transform="matrix(1.00, 0.00, -0.00, -1.00, 355.2, 418.0)">l</text><text xml:space="preserve" font-family="Helvetica-Light" font-size="30.0" fill="#000000" transform="matrix(1.00, 0.00, -0.00, -1.00, 361.9, 418.0)">i</text><text xml:space="preserve" font-family="Helvetica-Light" font-size="30.0" fill="#000000" transform="matrix(1.00, 0.00, -0.00, -1.00, 368.5, 418.0)">n</text><text xml:space="preserve" font-family="Helvetica-Light" font-size="30.0" fill="#000000" transform="matrix(1.00, 0.00, -0.00, -1.00, 385.2, 418.0)">e</text><text xml:space="preserve" font-family="Helvetica-Light" font-size="30.0" fill="#000000" transform="matrix(1.00, 0.00, -0.00, -1.00, 401.9, 418.0)">d</text><text xml:space="preserve" font-family="Helvetica-Light" font-size="30.0" fill="#000000" transform="matrix(1.00, 0.00, -0.00, -1.00, 420.2, 418.0)"> </text><text xml:space="preserve" font-family="Helvetica-Light" font-size="30.0" fill="#000000" transform="matrix(1.00, 0.00, -0.00, -1.00, 430.3, 418.0)">t</text><text xml:space="preserve" font-family="Helvetica-Light" font-size="30.0" fill="#000000" transform="matrix(1.00, 0.00, -0.00, -1.00, 438.6, 418.0)">o</text><text xml:space="preserve" font-family="Helvetica-Light" font-size="30.0" fill="#000000" transform="matrix(1.00, 0.00, -0.00, -1.00, 455.3, 418.0)"> </text><text xml:space="preserve" font-family="Helvetica-Light" font-size="30.0" fill="#000000" transform="matrix(1.00, 0.00, -0.00, -1.00, 465.3, 418.0)">i</text><text xml:space="preserve" font-family="Helvetica-Light" font-size="30.0" fill="#000000" transform="matrix(1.00, 0.00, -0.00, -1.00, 472.0, 418.0)">n</text><text xml:space="preserve" font-family="Helvetica-Light" font-size="30.0" fill="#000000" transform="matrix(1.00, 0.00, -0.00, -1.00, 488.7, 418.0)">t</text><text xml:space="preserve" font-family="Helvetica-Light" font-size="30.0" fill="#000000" transform="matrix(1.00, 0.00, -0.00, -1.00, 497.0, 418.0)">e</text><text xml:space="preserve" font-family="Helvetica-Light" font-size="30.0" fill="#000000" transform="matrix(1.00, 0.00, -0.00, -1.00, 513.7, 418.0)">r</text><text xml:space="preserve" font-family="Helvetica-Light" font-size="30.0" fill="#000000" transform="matrix(1.00, 0.00, -0.00, -1.00, 523.7, 418.0)">a</text><text xml:space="preserve" font-family="Helvetica-Light" font-size="30.0" fill="#000000" transform="matrix(1.00, 0.00, -0.00, -1.00, 540.4, 418.0)">c</text><text xml:space="preserve" font-family="Helvetica-Light" font-size="30.0" fill="#000000" transform="matrix(1.00, 0.00, -0.00, -1.00, 557.0, 418.0)">t</text><text xml:space="preserve" font-family="Helvetica-Light" font-size="30.0" fill="#000000" transform="matrix(1.00, 0.00, -0.00, -1.00, 565.4, 418.0)"> </text><text xml:space="preserve" font-family="Helvetica-Light" font-size="30.0" fill="#000000" transform="matrix(1.00, 0.00, -0.00, -1.00, 575.4, 418.0)">w</text><text xml:space="preserve" font-family="Helvetica-Light" font-size="30.0" fill="#000000" transform="matrix(1.00, 0.00, -0.00, -1.00, 597.1, 418.0)">i</text><text xml:space="preserve" font-family="Helvetica-Light" font-size="30.0" fill="#000000" transform="matrix(1.00, 0.00, -0.00, -1.00, 603.8, 418.0)">t</text><text xml:space="preserve" font-family="Helvetica-Light" font-size="30.0" fill="#000000" transform="matrix(1.00, 0.00, -0.00, -1.00, 612.1, 418.0)">h</text><text xml:space="preserve" font-family="Helvetica-Light" font-size="30.0" fill="#000000" transform="matrix(1.00, 0.00, -0.00, -1.00, 628.8, 418.0)"> </text><text xml:space="preserve" font-family="Helvetica-Light" font-size="30.0" fill="#000000" transform="matrix(1.00, 0.00, -0.00, -1.00, 51.0, 382.0)">t</text><text xml:space="preserve" font-family="Helvetica-Light" font-size="30.0" fill="#000000" transform="matrix(1.00, 0.00, -0.00, -1.00, 60.2, 382.0)">h</text><text xml:space="preserve" font-family="Helvetica-Light" font-size="30.0" fill="#000000" transform="matrix(1.00, 0.00, -0.00, -1.00, 77.8, 382.0)">e</text><text xml:space="preserve" font-family="Helvetica-Light" font-size="30.0" fill="#000000" transform="matrix(1.00, 0.00, -0.00, -1.00, 94.5, 382.0)"> </text><text xml:space="preserve" font-family="Helvetica-Light" font-size="30.0" fill="#000000" transform="matrix(1.00, 0.00, -0.00, -1.00, 118.3, 382.0)">t</text><text xml:space="preserve" font-family="Helvetica-Light" font-size="30.0" fill="#000000" transform="matrix(1.00, 0.00, -0.00, -1.00, 127.5, 382.0)">o</text><text xml:space="preserve" font-family="Helvetica-Light" font-size="30.0" fill="#000000" transform="matrix(1.00, 0.00, -0.00, -1.00, 145.1, 382.0)">u</text><text xml:space="preserve" font-family="Helvetica-Light" font-size="30.0" fill="#000000" transform="matrix(1.00, 0.00, -0.00, -1.00, 162.7, 382.0)">c</text><text xml:space="preserve" font-family="Helvetica-Light" font-size="30.0" fill="#000000" transform="matrix(1.00, 0.00, -0.00, -1.00, 180.3, 382.0)">h</text><text xml:space="preserve" font-family="Helvetica-Light" font-size="30.0" fill="#000000" transform="matrix(1.00, 0.00, -0.00, -1.00, 197.9, 382.0)">-</text><text xml:space="preserve" font-family="Helvetica-Light" font-size="30.0" fill="#000000" transform="matrix(1.00, 0.00, -0.00, -1.00, 208.8, 382.0)">s</text><text xml:space="preserve" font-family="Helvetica-Light" font-size="30.0" fill="#000000" transform="matrix(1.00, 0.00, -0.00, -1.00, 224.7, 382.0)">c</text><text xml:space="preserve" font-family="Helvetica-Light" font-size="30.0" fill="#000000" transform="matrix(1.00, 0.00, -0.00, -1.00, 242.2, 382.0)">r</text><text xml:space="preserve" font-family="Helvetica-Light" font-size="30.0" fill="#000000" transform="matrix(1.00, 0.00, -0.00, -1.00, 252.6, 382.0)">e</text><text xml:space="preserve" font-family="Helvetica-Light" font-size="30.0" fill="#000000" transform="matrix(1.00, 0.00, -0.00, -1.00, 270.2, 382.0)">e</text><text xml:space="preserve" font-family="Helvetica-Light" font-size="30.0" fill="#000000" transform="matrix(1.00, 0.00, -0.00, -1.00, 287.8, 382.0)">n</text><text xml:space="preserve" font-family="Helvetica-Light" font-size="30.0" fill="#000000" transform="matrix(1.00, 0.00, -0.00, -1.00, 305.4, 382.0)">-</text><text xml:space="preserve" font-family="Helvetica-Light" font-size="30.0" fill="#000000" transform="matrix(1.00, 0.00, -0.00, -1.00, 316.2, 382.0)">e</text><text xml:space="preserve" font-family="Helvetica-Light" font-size="30.0" fill="#000000" transform="matrix(1.00, 0.00, -0.00, -1.00, 333.8, 382.0)">n</text><text xml:space="preserve" font-family="Helvetica-Light" font-size="30.0" fill="#000000" transform="matrix(1.00, 0.00, -0.00, -1.00, 351.4, 382.0)">a</text><text xml:space="preserve" font-family="Helvetica-Light" font-size="30.0" fill="#000000" transform="matrix(1.00, 0.00, -0.00, -1.00, 369.0, 382.0)">b</text><text xml:space="preserve" font-family="Helvetica-Light" font-size="30.0" fill="#000000" transform="matrix(1.00, 0.00, -0.00, -1.00, 388.2, 382.0)">l</text><text xml:space="preserve" font-family="Helvetica-Light" font-size="30.0" fill="#000000" transform="matrix(1.00, 0.00, -0.00, -1.00, 395.8, 382.0)">e</text><text xml:space="preserve" font-family="Helvetica-Light" font-size="30.0" fill="#000000" transform="matrix(1.00, 0.00, -0.00, -1.00, 413.4, 382.0)">d</text><text xml:space="preserve" font-family="Helvetica-Light" font-size="30.0" fill="#000000" transform="matrix(1.00, 0.00, -0.00, -1.00, 431.7, 382.0)"> </text><text xml:space="preserve" font-family="Helvetica-Light" font-size="30.0" fill="#000000" transform="matrix(1.00, 0.00, -0.00, -1.00, 455.5, 382.0)">a</text><text xml:space="preserve" font-family="Helvetica-Light" font-size="30.0" fill="#000000" transform="matrix(1.00, 0.00, -0.00, -1.00, 473.1, 382.0)">p</text><text xml:space="preserve" font-family="Helvetica-Light" font-size="30.0" fill="#000000" transform="matrix(1.00, 0.00, -0.00, -1.00, 492.3, 382.0)">p</text><text xml:space="preserve" font-family="Helvetica-Light" font-size="30.0" fill="#000000" transform="matrix(1.00, 0.00, -0.00, -1.00, 511.5, 382.0)">l</text><text xml:space="preserve" font-family="Helvetica-Light" font-size="30.0" fill="#000000" transform="matrix(1.00, 0.00, -0.00, -1.00, 519.1, 382.0)">i</text><text xml:space="preserve" font-family="Helvetica-Light" font-size="30.0" fill="#000000" transform="matrix(1.00, 0.00, -0.00, -1.00, 526.7, 382.0)">c</text><text xml:space="preserve" font-family="Helvetica-Light" font-size="30.0" fill="#000000" transform="matrix(1.00, 0.00, -0.00, -1.00, 544.3, 382.0)">a</text><text xml:space="preserve" font-family="Helvetica-Light" font-size="30.0" fill="#000000" transform="matrix(1.00, 0.00, -0.00, -1.00, 561.8, 382.0)">t</text><text xml:space="preserve" font-family="Helvetica-Light" font-size="30.0" fill="#000000" transform="matrix(1.00, 0.00, -0.00, -1.00, 571.1, 382.0)">i</text><text xml:space="preserve" font-family="Helvetica-Light" font-size="30.0" fill="#000000" transform="matrix(1.00, 0.00, -0.00, -1.00, 578.6, 382.0)">o</text><text xml:space="preserve" font-family="Helvetica-Light" font-size="30.0" fill="#000000" transform="matrix(1.00, 0.00, -0.00, -1.00, 596.2, 382.0)">n</text><text xml:space="preserve" font-family="Helvetica-Light" font-size="30.0" fill="#000000" transform="matrix(1.00, 0.00, -0.00, -1.00, 613.8, 382.0)">s</text><text xml:space="preserve" font-family="Helvetica-Light" font-size="30.0" fill="#000000" transform="matrix(1.00, 0.00, -0.00, -1.00, 628.8, 382.0)"> </text><text xml:space="preserve" font-family="Helvetica-Light" font-size="30.0" fill="#000000" transform="matrix(1.00, 0.00, -0.00, -1.00, 51.0, 346.0)">d</text><text xml:space="preserve" font-family="Helvetica-Light" font-size="30.0" fill="#000000" transform="matrix(1.00, 0.00, -0.00, -1.00, 69.3, 346.0)">u</text><text xml:space="preserve" font-family="Helvetica-Light" font-size="30.0" fill="#000000" transform="matrix(1.00, 0.00, -0.00, -1.00, 86.0, 346.0)">r</text><text xml:space="preserve" font-family="Helvetica-Light" font-size="30.0" fill="#000000" transform="matrix(1.00, 0.00, -0.00, -1.00, 96.0, 346.0)">i</text><text xml:space="preserve" font-family="Helvetica-Light" font-size="30.0" fill="#000000" transform="matrix(1.00, 0.00, -0.00, -1.00, 102.7, 346.0)">n</text><text xml:space="preserve" font-family="Helvetica-Light" font-size="30.0" fill="#000000" transform="matrix(1.00, 0.00, -0.00, -1.00, 119.3, 346.0)">g</text><text xml:space="preserve" font-family="Helvetica-Light" font-size="30.0" fill="#000000" transform="matrix(1.00, 0.00, -0.00, -1.00, 137.7, 346.0)"> </text><text xml:space="preserve" font-family="Helvetica-Light" font-size="30.0" fill="#000000" transform="matrix(1.00, 0.00, -0.00, -1.00, 146.0, 346.0)">t</text><text xml:space="preserve" font-family="Helvetica-Light" font-size="30.0" fill="#000000" transform="matrix(1.00, 0.00, -0.00, -1.00, 154.4, 346.0)">h</text><text xml:space="preserve" font-family="Helvetica-Light" font-size="30.0" fill="#000000" transform="matrix(1.00, 0.00, -0.00, -1.00, 171.0, 346.0)">e</text><text xml:space="preserve" font-family="Helvetica-Light" font-size="30.0" fill="#000000" transform="matrix(1.00, 0.00, -0.00, -1.00, 187.7, 346.0)"> </text><text xml:space="preserve" font-family="Helvetica-Light" font-size="30.0" fill="#000000" transform="matrix(1.00, 0.00, -0.00, -1.00, 196.1, 346.0)">t</text><text xml:space="preserve" font-family="Helvetica-Light" font-size="30.0" fill="#000000" transform="matrix(1.00, 0.00, -0.00, -1.00, 204.4, 346.0)">e</text><text xml:space="preserve" font-family="Helvetica-Light" font-size="30.0" fill="#000000" transform="matrix(1.00, 0.00, -0.00, -1.00, 221.1, 346.0)">s</text><text xml:space="preserve" font-family="Helvetica-Light" font-size="30.0" fill="#000000" transform="matrix(1.00, 0.00, -0.00, -1.00, 236.1, 346.0)">t</text><text xml:space="preserve" font-family="Helvetica-Light" font-size="30.0" fill="#000000" transform="matrix(1.00, 0.00, -0.00, -1.00, 244.4, 346.0)">i</text><text xml:space="preserve" font-family="Helvetica-Light" font-size="30.0" fill="#000000" transform="matrix(1.00, 0.00, -0.00, -1.00, 251.1, 346.0)">n</text><text xml:space="preserve" font-family="Helvetica-Light" font-size="30.0" fill="#000000" transform="matrix(1.00, 0.00, -0.00, -1.00, 267.8, 346.0)">g</text><text xml:space="preserve" font-family="Helvetica-Light" font-size="30.0" fill="#000000" transform="matrix(1.00, 0.00, -0.00, -1.00, 286.1, 346.0)"> </text><text xml:space="preserve" font-family="Helvetica-Light" font-size="30.0" fill="#000000" transform="matrix(1.00, 0.00, -0.00, -1.00, 294.4, 346.0)">o</text><text xml:space="preserve" font-family="Helvetica-Light" font-size="30.0" fill="#000000" transform="matrix(1.00, 0.00, -0.00, -1.00, 311.1, 346.0)">f</text><text xml:space="preserve" font-family="Helvetica-Light" font-size="30.0" fill="#000000" transform="matrix(1.00, 0.00, -0.00, -1.00, 319.4, 346.0)"> </text><text xml:space="preserve" font-family="Helvetica-Light" font-size="30.0" fill="#000000" transform="matrix(1.00, 0.00, -0.00, -1.00, 327.8, 346.0)">o</text><text xml:space="preserve" font-family="Helvetica-Light" font-size="30.0" fill="#000000" transform="matrix(1.00, 0.00, -0.00, -1.00, 344.5, 346.0)">t</text><text xml:space="preserve" font-family="Helvetica-Light" font-size="30.0" fill="#000000" transform="matrix(1.00, 0.00, -0.00, -1.00, 352.8, 346.0)">h</text><text xml:space="preserve" font-family="Helvetica-Light" font-size="30.0" fill="#000000" transform="matrix(1.00, 0.00, -0.00, -1.00, 369.5, 346.0)">e</text><text xml:space="preserve" font-family="Helvetica-Light" font-size="30.0" fill="#000000" transform="matrix(1.00, 0.00, -0.00, -1.00, 386.2, 346.0)">r</text><text xml:space="preserve" font-family="Helvetica-Light" font-size="30.0" fill="#000000" transform="matrix(1.00, 0.00, -0.00, -1.00, 396.1, 346.0)"> </text><text xml:space="preserve" font-family="Helvetica-Light" font-size="30.0" fill="#000000" transform="matrix(1.00, 0.00, -0.00, -1.00, 404.5, 346.0)">a</text><text xml:space="preserve" font-family="Helvetica-Light" font-size="30.0" fill="#000000" transform="matrix(1.00, 0.00, -0.00, -1.00, 421.2, 346.0)">p</text><text xml:space="preserve" font-family="Helvetica-Light" font-size="30.0" fill="#000000" transform="matrix(1.00, 0.00, -0.00, -1.00, 439.5, 346.0)">p</text><text xml:space="preserve" font-family="Helvetica-Light" font-size="30.0" fill="#000000" transform="matrix(1.00, 0.00, -0.00, -1.00, 457.8, 346.0)">l</text><text xml:space="preserve" font-family="Helvetica-Light" font-size="30.0" fill="#000000" transform="matrix(1.00, 0.00, -0.00, -1.00, 464.5, 346.0)">i</text><text xml:space="preserve" font-family="Helvetica-Light" font-size="30.0" fill="#000000" transform="matrix(1.00, 0.00, -0.00, -1.00, 471.1, 346.0)">c</text><text xml:space="preserve" font-family="Helvetica-Light" font-size="30.0" fill="#000000" transform="matrix(1.00, 0.00, -0.00, -1.00, 487.8, 346.0)">a</text><text xml:space="preserve" font-family="Helvetica-Light" font-size="30.0" fill="#000000" transform="matrix(1.00, 0.00, -0.00, -1.00, 504.5, 346.0)">t</text><text xml:space="preserve" font-family="Helvetica-Light" font-size="30.0" fill="#000000" transform="matrix(1.00, 0.00, -0.00, -1.00, 512.8, 346.0)">i</text><text xml:space="preserve" font-family="Helvetica-Light" font-size="30.0" fill="#000000" transform="matrix(1.00, 0.00, -0.00, -1.00, 519.5, 346.0)">o</text><text xml:space="preserve" font-family="Helvetica-Light" font-size="30.0" fill="#000000" transform="matrix(1.00, 0.00, -0.00, -1.00, 536.2, 346.0)">n</text><text xml:space="preserve" font-family="Helvetica-Light" font-size="30.0" fill="#000000" transform="matrix(1.00, 0.00, -0.00, -1.00, 552.9, 346.0)">s</text><text xml:space="preserve" font-family="Helvetica-Light" font-size="30.0" fill="#000000" transform="matrix(1.00, 0.00, -0.00, -1.00, 567.9, 346.0)">.</text><image xlink:href="423F6230BAB35D0F9FA0ACC1EDFB417C.png" width="245.00" height="401.00" transform="matrix(1.00, 0.00, -0.00, -1.00, 717.6, 555.4)" opacity="0.70"></image><g><clipPath id="clip-1657"><path d="M 722.0 552.0 L 956.0 552.0 L 956.0 161.0 L 722.0 161.0 Z M 721.6 552.2 "></path></clipPath><g clip-path="url(#clip-1657)"><image xlink:href="F3A727DCE8C646507DCC10A28F310E2A.png" width="961.00" height="445.00" transform="matrix(1.01, 0.00, -0.00, -0.88, 722.0, 552.0)"></image></g></g><path d="M 0.0 0.0 L 0.0 391.1 L 234.5 391.1 L 234.5 0.0 L 0.0 0.0 Z M 0.0 0.0 " fill="none" stroke="#F2F6F5" stroke-width="2.00" transform="matrix(1.00, 0.00, 0.00, -1.00, 721.6, 552.2)"></path><path d="M 610.9 257.4 C 610.7 257.4 610.6 256.9 610.0 256.6 C 609.4 256.3 608.7 256.1 608.8 256.4 C 608.8 256.8 609.0 257.0 608.6 257.3 C 608.1 257.6 607.6 258.2 608.0 258.6 C 608.3 258.9 609.9 260.1 610.5 259.8 C 611.1 259.6 611.4 259.5 611.8 259.4 C 612.3 259.2 611.8 259.9 611.8 259.9 C 611.8 259.9 612.7 260.2 613.4 260.4 C 614.1 260.6 614.9 260.8 615.0 260.7 C 615.1 260.6 615.4 260.4 615.4 260.4 C 615.4 260.4 615.7 260.8 616.1 261.0 C 616.6 261.2 616.5 261.0 616.5 260.8 C 616.4 260.5 615.9 259.9 616.1 260.0 C 616.4 260.0 616.8 260.9 617.2 261.1 C 617.5 261.2 618.3 261.3 618.3 261.3 C 618.3 261.3 618.3 260.9 618.4 260.8 C 618.5 260.7 619.3 260.8 619.3 261.0 C 619.3 261.1 619.2 261.6 619.6 261.7 C 620.8 262.0 620.8 261.1 620.9 261.1 C 621.0 261.1 620.9 261.8 621.2 261.9 C 621.4 262.1 623.9 262.4 624.0 262.3 C 624.2 262.1 624.9 262.8 625.3 262.5 C 625.7 262.1 625.8 262.0 625.9 261.9 C 626.0 261.8 626.6 261.2 626.7 261.5 C 626.9 261.8 625.9 262.4 626.1 262.7 C 626.4 262.9 627.9 263.2 628.2 263.0 C 628.6 262.8 628.7 262.2 629.0 262.2 C 629.2 262.2 629.9 263.2 630.0 263.0 C 630.1 262.9 630.3 262.2 630.3 262.1 C 630.3 262.0 630.8 260.8 630.6 260.6 C 630.4 260.4 629.6 259.8 629.7 260.2 C 629.8 260.5 629.9 261.0 629.6 261.1 C 629.2 261.2 629.1 261.2 629.0 261.1 C 628.9 261.0 629.1 260.8 628.6 260.5 C 628.2 260.2 628.5 260.0 628.0 259.9 C 627.5 259.9 627.0 259.9 627.0 260.2 C 627.1 260.4 626.5 260.8 626.1 260.7 C 625.8 260.6 626.5 260.1 625.4 259.7 C 624.3 259.3 623.6 259.1 623.3 259.3 C 622.9 259.4 622.7 260.1 622.2 259.7 C 621.8 259.3 622.1 259.2 621.4 259.1 C 620.7 259.0 620.3 259.5 619.8 259.4 C 619.4 259.4 619.2 259.3 619.2 259.3 C 619.2 259.3 619.6 258.5 618.6 258.3 C 617.6 258.0 617.4 257.9 617.5 258.6 C 617.6 259.2 616.8 259.1 616.8 258.7 C 616.9 258.3 616.3 257.9 616.0 257.8 C 615.6 257.6 615.3 258.6 615.2 258.6 C 615.0 258.6 614.6 258.4 614.8 258.2 C 615.1 257.9 614.7 257.7 614.4 257.5 C 614.1 257.3 613.1 257.2 613.1 257.4 C 613.1 257.6 613.4 258.3 612.8 257.9 C 612.2 257.4 612.2 256.8 611.6 256.7 C 610.9 256.6 611.3 257.3 610.9 257.4 C 610.9 257.4 610.9 257.4 610.9 257.4 Z M 631.0 260.3 C 629.9 260.2 630.3 262.9 630.7 263.5 C 631.0 264.1 631.8 263.8 632.5 264.0 C 633.2 264.2 633.1 263.3 633.5 263.2 C 634.0 263.0 633.8 263.5 633.9 263.9 C 634.0 264.3 635.2 264.1 635.9 264.2 C 636.5 264.3 637.3 263.5 637.9 263.5 C 638.4 263.5 637.4 263.0 638.4 263.1 C 639.3 263.2 638.8 263.7 637.7 263.8 C 636.6 264.0 638.1 264.4 638.7 264.5 C 639.3 264.7 640.3 264.4 640.8 264.4 C 641.3 264.5 640.7 263.8 641.4 263.9 C 642.1 263.9 641.7 264.6 642.4 264.7 C 643.1 264.9 643.1 264.3 643.4 264.1 C 643.8 264.0 643.7 264.4 644.0 264.4 C 644.3 264.5 644.8 264.7 645.4 264.6 C 646.1 264.5 645.9 264.3 646.2 264.2 C 646.5 264.2 647.1 264.2 647.1 264.2 C 647.1 264.4 647.1 264.7 647.1 264.9 C 647.1 264.9 648.3 265.0 648.7 265.0 C 649.1 265.1 649.9 264.8 649.7 264.7 C 649.4 264.5 650.3 264.1 650.4 264.2 C 650.6 264.3 651.2 264.6 651.6 264.8 C 652.0 264.9 651.9 263.2 651.9 263.0 C 651.9 262.7 652.1 261.8 651.8 261.7 C 651.4 261.6 651.1 261.9 651.2 261.7 C 651.3 261.5 650.2 261.7 649.9 261.7 C 649.6 261.7 649.3 262.3 649.3 262.3 C 649.3 262.3 649.0 262.8 648.5 262.8 C 648.0 262.8 647.9 261.7 647.9 261.7 C 647.9 261.7 647.3 261.5 646.7 261.6 C 646.1 261.6 645.5 262.5 645.3 262.6 C 645.2 262.8 645.3 262.0 644.9 261.9 C 644.4 261.8 643.9 261.5 643.7 261.5 C 643.5 261.6 643.2 262.1 643.2 262.1 C 643.2 262.1 642.4 262.4 642.2 262.4 C 642.0 262.4 642.4 261.6 642.4 261.6 C 642.4 261.6 640.8 261.3 640.5 261.2 C 640.1 261.1 639.6 261.3 639.4 261.3 C 639.1 261.3 638.7 262.3 638.3 262.2 C 638.0 262.0 638.8 261.6 638.4 261.4 C 638.1 261.3 637.4 261.0 637.3 261.0 C 637.1 261.0 636.8 261.3 636.5 261.4 C 636.2 261.4 635.7 262.1 635.2 262.0 C 634.8 262.0 634.6 261.5 634.4 261.4 C 634.2 261.3 634.2 260.6 633.8 260.5 C 633.4 260.5 633.7 261.0 633.3 260.9 C 632.9 260.9 632.9 261.4 632.5 261.2 C 632.2 261.1 632.5 260.3 632.1 260.4 C 631.9 260.4 632.1 260.4 631.0 260.3 C 631.0 260.3 631.0 260.3 631.0 260.3 Z M 652.7 261.8 C 652.2 261.4 651.7 261.9 651.8 262.3 C 651.8 262.6 652.0 263.6 651.8 263.9 C 651.6 264.1 651.0 264.8 652.0 265.0 C 652.8 265.1 653.0 264.8 653.0 264.6 C 653.0 264.4 653.2 263.4 653.4 263.5 C 653.7 263.5 653.9 263.8 654.0 263.9 C 654.0 264.1 654.4 265.1 654.8 264.9 C 655.3 264.8 655.6 264.5 655.6 264.5 C 655.9 264.5 656.1 264.4 656.3 264.4 C 656.3 264.4 656.9 265.0 657.4 264.8 C 657.9 264.7 658.4 264.7 658.8 264.7 C 659.1 264.7 659.5 264.6 659.5 264.4 C 659.6 264.1 660.0 263.3 660.0 263.3 C 660.0 263.3 660.5 263.0 660.7 263.2 C 661.0 263.3 661.1 263.7 661.0 263.9 C 661.0 264.1 661.1 264.6 661.4 264.6 C 661.8 264.7 663.4 265.1 663.6 264.8 C 663.8 264.5 663.7 264.1 663.9 264.0 C 664.0 263.9 665.0 263.8 665.1 264.0 C 665.2 264.2 665.2 264.7 665.5 264.7 C 665.8 264.6 666.4 264.7 666.4 264.5 C 666.4 264.4 666.6 264.2 666.6 264.0 C 666.6 263.7 667.1 263.4 667.2 263.2 C 667.3 263.1 667.8 263.0 667.8 263.0 C 668.0 263.1 668.2 263.3 668.4 263.4 C 668.4 263.4 668.1 263.9 667.9 264.1 C 667.8 264.2 668.1 264.5 668.3 264.5 C 668.5 264.5 669.6 264.3 669.6 264.3 C 669.6 263.9 669.5 263.5 669.5 263.1 C 669.8 263.0 670.0 262.9 670.3 262.8 C 670.3 262.8 670.3 264.2 670.9 264.1 C 671.4 264.0 672.0 263.9 672.0 263.9 C 672.0 263.9 672.5 263.4 672.6 263.3 C 672.8 263.2 672.7 262.0 672.7 262.0 C 672.6 261.6 672.5 261.1 672.3 260.7 C 672.3 260.7 671.7 260.3 671.3 260.5 C 671.0 260.8 671.4 261.2 671.3 261.5 C 671.3 261.7 670.8 262.0 670.8 262.0 C 670.6 261.8 670.3 261.5 670.0 261.3 C 670.0 261.3 669.8 261.1 669.5 260.9 C 669.3 260.7 668.5 260.7 668.2 260.8 C 668.0 260.9 667.8 261.2 667.6 261.5 C 667.3 261.8 667.4 262.2 667.0 261.9 C 666.6 261.6 666.4 261.2 666.3 261.3 C 666.1 261.3 665.4 261.8 665.4 261.8 C 665.2 261.9 665.0 262.0 664.8 262.2 C 664.8 262.2 664.2 262.4 664.1 262.2 C 664.0 261.9 662.9 262.3 662.9 262.3 C 662.9 262.3 663.0 261.5 662.7 261.4 C 662.4 261.2 661.9 261.1 661.4 261.3 C 661.0 261.4 660.7 262.2 660.7 262.2 C 660.5 262.0 660.4 261.8 660.2 261.6 C 659.8 261.6 659.3 261.6 658.9 261.5 C 658.9 261.5 657.9 261.6 657.9 261.8 C 657.9 261.9 658.1 262.6 658.0 262.8 C 658.0 263.0 657.4 263.2 657.4 263.0 C 657.3 262.8 656.8 262.1 656.8 262.1 C 656.8 262.1 656.4 261.7 656.1 261.7 C 655.8 261.6 655.4 261.9 655.2 262.0 C 655.1 262.2 654.7 262.7 654.7 262.7 C 654.5 262.5 654.4 262.3 654.3 262.0 C 654.3 262.0 653.5 262.4 652.7 261.8 C 652.7 261.8 652.7 261.8 652.7 261.8 Z M 672.7 260.2 C 671.7 260.4 672.7 262.9 673.2 263.4 C 673.7 263.9 674.3 263.4 675.0 263.4 C 675.7 263.4 675.4 262.6 675.7 262.3 C 676.1 262.0 676.0 262.6 676.3 262.9 C 676.5 263.3 677.5 262.8 678.2 262.7 C 678.8 262.6 679.3 261.6 679.8 261.5 C 680.3 261.3 679.3 261.1 680.2 261.0 C 681.1 260.9 680.7 261.4 679.7 261.9 C 678.7 262.4 680.2 262.3 680.8 262.3 C 681.4 262.3 682.3 261.7 682.8 261.7 C 683.2 261.6 682.5 261.1 683.2 261.0 C 683.8 260.8 683.6 261.6 684.3 261.5 C 685.0 261.5 684.8 260.9 685.1 260.7 C 685.4 260.4 685.4 260.8 685.7 260.8 C 686.0 260.8 686.5 260.9 687.1 260.6 C 687.7 260.3 687.4 260.2 687.7 260.0 C 688.0 259.9 688.5 259.8 688.5 259.8 C 688.6 260.0 688.7 260.2 688.8 260.4 C 688.8 260.4 689.9 260.2 690.2 260.2 C 690.6 260.1 691.3 259.6 691.0 259.5 C 690.8 259.5 691.4 258.8 691.6 258.9 C 691.8 258.9 692.5 259.1 692.9 259.1 C 693.3 259.2 692.7 257.5 692.7 257.3 C 692.6 257.1 692.6 256.1 692.2 256.1 C 691.9 256.1 691.7 256.5 691.7 256.3 C 691.7 256.0 690.7 256.5 690.5 256.6 C 690.2 256.7 690.0 257.4 690.0 257.4 C 690.0 257.4 689.9 258.0 689.5 258.1 C 689.0 258.2 688.6 257.2 688.6 257.2 C 688.6 257.2 688.0 257.2 687.4 257.3 C 686.9 257.5 686.5 258.5 686.5 258.7 C 686.4 259.0 686.2 258.2 685.8 258.2 C 685.4 258.1 684.8 258.0 684.6 258.1 C 684.5 258.2 684.3 258.8 684.3 258.8 C 684.3 258.8 683.7 259.3 683.5 259.3 C 683.3 259.3 683.4 258.5 683.4 258.5 C 683.4 258.5 681.9 258.6 681.6 258.6 C 681.2 258.6 680.8 258.9 680.6 259.0 C 680.4 259.1 680.2 260.1 679.9 260.1 C 679.5 260.1 680.1 259.4 679.7 259.4 C 679.4 259.4 678.7 259.3 678.6 259.3 C 678.4 259.3 678.3 259.7 678.0 259.8 C 677.7 259.9 677.4 260.7 677.0 260.8 C 676.5 260.9 676.2 260.5 676.1 260.4 C 675.9 260.3 675.7 259.7 675.3 259.7 C 675.0 259.8 675.3 260.2 674.9 260.2 C 674.6 260.3 674.7 260.8 674.3 260.7 C 674.0 260.7 674.1 259.8 673.7 260.0 C 673.5 260.1 673.7 260.0 672.7 260.2 C 672.7 260.2 672.7 260.2 672.7 260.2 Z M 693.0 256.0 C 692.5 255.7 692.2 256.3 692.3 256.6 C 692.5 257.0 692.9 257.9 692.9 258.2 C 692.8 258.5 692.4 259.3 693.3 259.2 C 694.1 259.1 694.2 258.8 694.2 258.6 C 694.1 258.4 694.0 257.3 694.2 257.3 C 694.5 257.4 694.8 257.6 694.9 257.7 C 695.0 257.8 695.6 258.6 696.0 258.4 C 696.3 258.1 696.6 257.7 696.6 257.7 C 696.8 257.7 697.0 257.6 697.2 257.5 C 697.2 257.5 698.0 257.9 698.4 257.6 C 698.8 257.3 699.3 257.2 699.6 257.1 C 700.0 257.0 700.3 256.8 700.2 256.6 C 700.2 256.4 700.4 255.4 700.4 255.4 C 700.4 255.4 700.8 255.0 701.1 255.1 C 701.3 255.1 701.6 255.5 701.6 255.7 C 701.6 255.9 701.8 256.3 702.1 256.3 C 702.5 256.3 704.1 256.2 704.2 255.9 C 704.4 255.5 704.2 255.2 704.3 255.0 C 704.4 254.9 705.4 254.5 705.5 254.7 C 705.7 254.9 705.8 255.4 706.1 255.2 C 706.3 255.0 706.9 255.0 706.9 254.8 C 706.8 254.7 707.0 254.5 706.9 254.2 C 706.8 254.0 707.3 253.5 707.3 253.4 C 707.4 253.2 707.8 253.0 707.8 253.0 C 708.0 253.0 708.3 253.1 708.5 253.2 C 708.5 253.2 708.4 253.8 708.2 253.9 C 708.1 254.1 708.5 254.3 708.7 254.3 C 708.9 254.2 709.9 253.7 709.9 253.7 C 709.8 253.4 709.6 253.0 709.5 252.6 C 709.7 252.4 709.9 252.3 710.2 252.1 C 710.2 252.1 710.6 253.4 711.1 253.2 C 711.6 253.0 712.2 252.7 712.2 252.7 C 712.2 252.7 712.5 252.0 712.6 251.9 C 712.7 251.8 712.3 250.7 712.3 250.7 C 712.0 250.3 711.8 249.9 711.6 249.5 C 711.6 249.5 710.8 249.3 710.6 249.6 C 710.3 249.9 710.8 250.3 710.8 250.5 C 710.9 250.7 710.5 251.1 710.5 251.1 C 710.1 251.0 709.8 250.9 709.5 250.7 C 709.5 250.7 709.2 250.6 708.9 250.5 C 708.6 250.3 707.8 250.5 707.6 250.7 C 707.4 250.9 707.3 251.3 707.2 251.6 C 707.0 251.9 707.2 252.3 706.7 252.1 C 706.3 251.9 706.0 251.7 705.8 251.7 C 705.7 251.8 705.1 252.5 705.1 252.5 C 705.0 252.7 704.8 252.8 704.7 253.0 C 704.7 253.0 704.2 253.4 704.0 253.2 C 703.9 253.0 702.9 253.7 702.9 253.7 C 702.9 253.7 702.7 252.8 702.4 252.8 C 702.1 252.8 701.6 252.8 701.2 253.1 C 700.8 253.3 700.8 254.2 700.8 254.2 C 700.6 254.1 700.4 253.9 700.2 253.8 C 699.7 253.9 699.3 253.9 698.9 254.0 C 698.9 254.0 698.0 254.4 698.0 254.5 C 698.1 254.6 698.4 255.3 698.4 255.5 C 698.4 255.7 698.0 256.0 697.8 255.8 C 697.7 255.6 697.1 255.2 697.1 255.2 C 697.1 255.2 696.6 254.9 696.3 254.9 C 696.0 255.0 695.6 255.3 695.5 255.5 C 695.5 255.7 695.2 256.3 695.2 256.3 C 695.0 256.1 694.8 255.9 694.6 255.8 C 694.6 255.8 694.0 256.3 693.0 256.0 C 693.0 256.0 693.0 256.0 693.0 256.0 Z M 711.8 248.9 C 710.9 249.4 712.6 251.5 713.2 251.8 C 713.8 252.2 714.3 251.5 715.0 251.3 C 715.6 251.1 715.1 250.5 715.3 250.1 C 715.6 249.7 715.7 250.2 716.0 250.5 C 716.4 250.8 717.2 250.0 717.8 249.8 C 718.4 249.5 718.6 248.4 719.1 248.1 C 719.5 247.8 718.5 247.9 719.3 247.5 C 720.2 247.1 720.0 247.8 719.2 248.5 C 718.3 249.3 719.8 248.8 720.4 248.6 C 720.9 248.4 721.7 247.6 722.1 247.4 C 722.5 247.3 721.7 246.9 722.3 246.6 C 722.9 246.3 722.9 247.1 723.6 246.8 C 724.3 246.6 723.9 246.1 724.1 245.8 C 724.4 245.5 724.5 245.9 724.8 245.8 C 725.1 245.7 725.6 245.6 726.1 245.1 C 726.6 244.7 726.3 244.6 726.6 244.4 C 726.8 244.2 727.3 244.0 727.3 244.0 C 727.4 244.1 727.6 244.3 727.7 244.5 C 727.7 244.5 728.8 243.9 729.1 243.8 C 729.5 243.7 730.0 243.0 729.8 243.0 C 729.5 242.9 730.0 242.2 730.2 242.1 C 730.4 242.1 731.1 242.1 731.5 242.0 C 732.0 241.9 731.0 240.5 730.8 240.3 C 730.7 240.1 730.4 239.2 730.1 239.3 C 729.7 239.4 729.6 239.8 729.6 239.6 C 729.5 239.4 728.7 240.1 728.4 240.3 C 728.2 240.4 728.2 241.2 728.2 241.2 C 728.2 241.2 728.2 241.8 727.8 242.0 C 727.4 242.3 726.7 241.4 726.7 241.4 C 726.7 241.4 726.1 241.5 725.6 241.9 C 725.1 242.2 725.0 243.3 725.0 243.5 C 725.0 243.8 724.6 243.0 724.2 243.1 C 723.8 243.3 723.1 243.3 723.0 243.5 C 722.9 243.6 722.8 244.2 722.8 244.2 C 722.8 244.2 722.3 244.9 722.2 244.9 C 722.0 245.0 721.9 244.2 721.9 244.2 C 721.9 244.2 720.4 244.7 720.1 244.8 C 719.8 244.9 719.4 245.3 719.2 245.5 C 719.0 245.6 719.2 246.7 718.8 246.8 C 718.5 246.8 718.8 246.0 718.5 246.1 C 718.1 246.2 717.5 246.3 717.3 246.4 C 717.2 246.4 717.1 246.8 716.9 247.0 C 716.6 247.2 716.6 248.0 716.2 248.2 C 715.7 248.4 715.3 248.1 715.1 248.1 C 714.9 248.1 714.6 247.6 714.2 247.7 C 713.9 247.8 714.3 248.1 714.0 248.3 C 713.7 248.4 713.9 248.9 713.5 248.9 C 713.2 249.0 713.0 248.2 712.7 248.4 C 712.6 248.5 712.7 248.4 711.8 248.9 C 711.8 248.9 711.8 248.9 711.8 248.9 Z M 732.4 238.7 C 732.3 238.9 731.9 238.6 731.3 238.8 C 730.7 239.0 730.1 239.3 730.4 239.5 C 730.6 239.7 730.9 239.8 730.9 240.3 C 730.8 240.8 730.9 241.6 731.4 241.6 C 731.9 241.6 733.7 241.3 733.9 240.7 C 734.2 240.1 734.2 239.9 734.4 239.5 C 734.6 239.1 734.8 239.9 734.8 239.9 C 734.8 239.9 735.7 239.5 736.3 239.1 C 736.8 238.8 737.5 238.4 737.5 238.2 C 737.5 238.1 737.5 237.7 737.5 237.7 C 737.5 237.7 738.0 237.8 738.5 237.6 C 739.0 237.4 738.7 237.3 738.5 237.2 C 738.4 237.1 737.6 237.0 737.8 236.9 C 737.9 236.8 738.9 237.0 739.3 236.9 C 739.6 236.8 740.2 236.3 740.2 236.3 C 740.2 236.3 739.9 235.9 739.9 235.8 C 739.9 235.7 740.5 235.2 740.6 235.3 C 740.8 235.4 741.0 235.8 741.3 235.6 C 742.4 235.0 741.7 234.4 741.8 234.3 C 741.9 234.2 742.3 234.8 742.6 234.7 C 742.9 234.6 744.8 233.0 744.8 232.8 C 744.8 232.6 745.8 232.6 745.9 232.1 C 745.9 231.5 745.9 231.3 745.9 231.2 C 745.9 231.1 745.9 230.3 746.2 230.3 C 746.5 230.4 746.2 231.6 746.6 231.6 C 747.0 231.6 748.2 230.7 748.3 230.3 C 748.4 229.9 748.1 229.3 748.3 229.2 C 748.4 229.0 749.7 229.2 749.6 229.0 C 749.6 228.9 749.3 228.2 749.2 228.1 C 749.1 228.0 748.5 226.8 748.3 226.8 C 748.1 226.8 747.0 227.0 747.3 227.2 C 747.7 227.4 748.1 227.7 747.9 228.0 C 747.8 228.3 747.7 228.4 747.5 228.4 C 747.4 228.3 747.4 228.1 746.8 228.2 C 746.3 228.4 746.3 228.0 745.9 228.3 C 745.6 228.6 745.2 229.0 745.4 229.2 C 745.7 229.4 745.5 230.0 745.2 230.2 C 744.9 230.4 745.0 229.6 743.9 230.0 C 742.9 230.5 742.3 230.9 742.1 231.3 C 742.0 231.7 742.4 232.3 741.8 232.4 C 741.1 232.4 741.3 232.1 740.7 232.5 C 740.1 233.0 740.2 233.6 739.9 233.9 C 739.5 234.2 739.4 234.2 739.4 234.2 C 739.4 234.2 739.1 233.4 738.2 234.0 C 737.3 234.5 737.1 234.6 737.6 234.9 C 738.2 235.3 737.5 235.8 737.3 235.5 C 737.0 235.2 736.4 235.3 736.1 235.5 C 735.7 235.6 736.2 236.5 736.1 236.6 C 736.0 236.7 735.6 236.9 735.6 236.5 C 735.5 236.2 735.2 236.3 734.8 236.4 C 734.5 236.5 733.8 237.1 733.9 237.2 C 734.0 237.3 734.7 237.7 734.0 237.7 C 733.3 237.8 732.9 237.5 732.4 237.8 C 731.9 238.1 732.7 238.4 732.4 238.7 C 732.4 238.7 732.4 238.7 732.4 238.7 Z M 732.4 238.7 " fill="#EB5C56"></path><path d="M 611.7 249.0 C 611.9 248.7 613.0 248.6 612.1 249.1 C 612.1 249.1 611.6 249.1 611.7 249.0 Z M 609.8 249.5 C 610.0 249.4 610.1 249.4 610.2 249.5 C 610.5 249.8 609.3 249.6 609.8 249.5 Z M 612.7 249.1 C 612.7 249.1 613.3 248.9 613.2 249.1 C 613.2 249.2 612.7 249.2 612.7 249.1 Z M 608.3 250.7 C 608.3 250.5 608.9 250.4 609.0 250.4 C 609.4 250.5 608.3 251.0 608.3 250.7 Z M 611.9 254.7 C 611.9 254.7 611.9 254.8 611.9 254.8 C 611.9 254.8 611.9 254.7 611.9 254.7 Z M 599.4 252.6 C 599.5 252.6 599.8 252.6 599.8 252.8 C 599.7 253.0 599.1 252.8 599.4 252.6 Z M 609.2 265.4 C 609.2 265.4 609.4 265.2 609.5 265.3 C 609.5 265.4 609.3 265.5 609.2 265.4 Z M 609.4 265.4 C 609.6 265.4 609.6 265.7 609.5 265.6 C 609.3 265.5 609.3 265.4 609.4 265.4 Z M 601.5 260.7 C 601.4 260.7 601.3 260.7 601.4 260.6 C 601.5 260.6 601.6 260.8 601.5 260.7 Z M 601.8 260.8 C 602.0 260.7 601.9 261.0 601.8 261.0 C 601.7 260.9 601.6 260.8 601.8 260.8 Z M 602.5 262.8 C 602.4 262.7 602.4 262.7 602.5 262.7 C 602.6 262.7 602.6 262.9 602.5 262.8 Z M 610.9 261.1 C 611.0 261.2 610.8 261.5 610.7 261.5 C 610.5 261.4 610.8 261.0 610.9 261.1 Z M 610.9 261.6 C 611.0 261.6 611.0 261.8 610.9 261.7 C 610.8 261.7 610.8 261.6 610.9 261.6 Z M 611.0 260.2 C 610.8 260.1 610.9 259.7 611.0 259.7 C 611.1 259.6 611.2 259.4 611.3 259.3 C 611.3 259.3 611.2 260.2 611.0 260.2 Z M 611.6 257.3 C 611.7 257.3 611.7 257.3 611.6 257.4 C 611.5 257.6 611.6 257.3 611.6 257.3 Z M 611.3 258.9 C 611.4 258.9 611.4 259.0 611.3 259.1 C 611.2 259.2 611.2 258.9 611.3 258.9 Z M 604.7 251.2 C 604.6 251.1 605.1 251.1 605.1 251.1 C 605.2 251.1 605.0 251.2 605.1 251.2 C 605.2 251.2 605.1 251.6 604.7 251.2 Z M 608.8 249.8 C 608.9 249.8 608.9 249.9 608.9 250.0 C 608.9 250.0 608.5 250.0 608.8 249.8 Z M 605.4 251.6 C 605.4 251.6 605.5 251.6 605.5 251.6 C 605.6 251.6 605.5 251.7 605.4 251.6 Z M 605.1 251.8 C 605.2 251.8 605.5 251.8 605.5 252.0 C 605.4 252.2 604.8 252.0 605.1 251.8 Z M 604.0 251.2 C 604.2 251.2 604.2 251.2 604.1 251.2 C 604.0 251.3 604.0 251.2 604.0 251.2 Z M 606.4 250.3 C 606.6 250.3 606.6 250.3 606.5 250.4 C 606.4 250.5 606.4 250.3 606.4 250.3 Z M 603.0 251.8 C 603.0 251.8 603.2 251.5 603.4 251.8 C 603.6 252.1 603.0 251.8 603.0 251.8 Z M 601.4 252.6 C 601.5 252.6 601.5 252.7 601.4 252.7 C 601.2 252.7 601.3 252.6 601.4 252.6 Z M 600.9 253.3 C 600.7 253.3 600.5 253.2 600.8 253.2 C 601.1 253.1 601.1 253.4 600.9 253.3 Z M 601.2 253.1 C 601.2 253.2 601.1 253.2 601.1 253.1 C 601.1 253.1 601.2 253.1 601.2 253.1 Z M 602.5 252.3 C 602.6 252.2 602.9 252.3 602.6 252.4 C 602.4 252.5 602.4 252.5 602.5 252.3 Z M 613.1 253.4 C 613.1 253.3 613.2 253.4 613.3 253.5 C 613.3 253.5 613.1 253.5 613.1 253.4 Z M 610.7 259.4 C 610.8 259.3 610.8 259.4 610.7 259.5 C 610.6 259.7 610.6 259.4 610.7 259.4 Z M 609.3 263.2 C 609.4 263.1 609.4 263.2 609.3 263.3 C 609.2 263.5 609.2 263.2 609.3 263.2 Z M 611.2 257.8 C 611.2 257.8 611.4 258.3 611.1 258.4 C 610.7 258.6 610.9 257.9 611.2 257.8 Z M 609.2 253.1 C 609.1 253.0 609.2 253.1 609.2 253.1 C 609.2 253.2 609.2 253.2 609.2 253.1 Z M 610.4 258.5 C 610.4 258.4 610.6 258.5 610.6 258.6 C 610.7 258.7 610.5 258.7 610.4 258.5 Z M 609.7 262.5 C 609.8 262.4 610.1 262.5 610.1 262.7 C 610.3 263.1 609.9 263.2 609.7 263.4 C 609.5 263.5 609.6 262.6 609.7 262.5 Z M 612.8 252.3 C 612.7 252.4 612.7 252.5 612.6 252.5 C 612.7 252.6 612.7 252.6 612.6 252.7 C 612.5 253.1 612.8 253.4 612.8 253.7 C 612.9 254.3 612.1 254.3 611.9 254.7 C 612.0 254.6 612.0 254.5 611.9 254.4 C 611.8 254.2 611.5 255.6 611.5 255.7 C 611.3 256.9 611.9 255.6 612.3 255.7 C 612.5 255.7 611.8 256.4 611.8 256.4 C 611.5 256.7 611.9 256.9 611.6 257.2 C 611.5 257.3 610.5 257.5 610.6 257.7 C 610.6 257.8 610.4 258.1 610.4 258.3 C 610.3 258.5 610.3 258.9 610.6 258.7 C 610.9 258.7 611.2 258.7 610.9 258.9 C 610.7 259.1 609.7 260.3 610.4 260.4 C 610.4 260.4 610.7 260.2 610.7 260.2 C 610.8 260.6 610.2 261.7 610.4 262.0 C 610.8 262.8 610.1 261.7 609.8 262.0 C 609.4 262.4 609.1 262.7 609.0 263.4 C 609.0 263.5 608.9 264.1 609.3 263.9 C 609.6 263.8 609.7 264.0 609.9 263.6 C 610.1 264.2 609.4 264.3 609.5 264.4 C 609.6 264.6 609.8 264.4 609.7 264.7 C 609.5 265.0 609.7 264.9 609.3 264.9 C 609.2 264.9 609.0 265.2 609.0 265.2 C 609.0 265.2 609.0 265.2 609.0 265.2 C 608.9 265.5 609.4 266.1 609.2 266.2 C 609.1 266.2 608.7 265.9 608.6 265.9 C 608.6 265.9 608.6 266.0 608.5 266.0 C 608.5 266.1 608.7 266.5 608.6 266.5 C 608.6 266.6 608.0 266.2 608.2 266.4 C 608.3 266.6 607.9 267.2 607.7 267.2 C 607.5 267.2 606.7 267.1 606.6 267.2 C 606.5 267.4 606.2 267.0 606.1 266.9 C 606.0 266.9 606.0 266.5 606.0 266.4 C 606.0 266.4 605.7 266.2 605.7 266.2 C 605.7 266.2 605.6 266.1 605.4 265.9 C 605.2 265.7 605.2 265.5 605.0 265.1 C 604.8 264.8 604.6 264.9 604.3 264.7 C 604.1 264.5 604.3 263.9 604.1 263.7 C 604.0 263.4 603.7 263.7 603.4 263.5 C 603.2 263.2 603.1 263.0 603.2 263.1 C 603.3 263.1 603.4 262.9 603.3 262.9 C 603.2 262.8 603.0 262.4 602.9 262.3 C 602.7 262.3 603.2 263.3 602.3 262.3 C 601.9 261.8 601.9 261.2 602.0 261.3 C 602.4 261.6 602.1 260.5 602.0 260.6 C 601.8 260.7 601.1 259.9 601.0 260.3 C 601.0 260.5 600.1 259.7 600.1 259.6 C 600.0 259.4 599.6 259.1 599.7 258.7 C 599.8 258.6 599.1 258.4 599.0 258.3 C 598.9 258.2 598.3 257.5 598.2 257.3 C 598.2 257.2 598.5 257.4 598.6 257.6 C 598.7 257.8 598.8 258.1 598.9 258.2 C 599.1 258.3 599.0 257.9 598.8 257.7 C 598.7 257.5 598.8 257.4 598.7 257.2 C 598.6 257.2 598.5 257.0 598.4 256.9 C 598.4 256.8 598.3 256.8 598.3 256.9 C 598.2 256.9 598.2 257.1 598.1 257.1 C 598.1 257.1 597.9 257.1 597.7 256.9 C 597.5 256.7 597.4 256.5 597.2 256.1 C 597.1 255.8 596.9 255.8 596.7 255.7 C 596.6 255.5 596.4 255.3 596.5 255.2 C 596.5 255.2 596.8 255.4 596.8 255.3 C 596.9 255.3 596.8 254.9 596.7 254.8 C 596.3 254.3 597.1 254.3 596.7 253.7 C 596.5 253.4 596.9 253.6 597.2 253.6 C 597.2 253.5 597.2 253.5 597.5 253.4 C 597.5 253.3 597.9 253.3 598.1 253.2 C 598.2 253.1 599.0 252.8 598.6 253.1 C 598.5 253.1 598.5 253.2 598.5 253.2 C 598.5 253.2 598.5 253.2 598.5 253.2 C 598.5 253.2 598.3 253.6 598.3 253.6 C 598.3 253.6 598.5 253.2 598.5 253.2 C 598.6 253.3 598.7 253.4 598.8 253.5 C 598.9 253.4 598.9 253.4 598.9 253.3 C 598.9 253.3 598.9 253.3 598.9 253.3 C 598.9 253.3 598.9 253.3 598.9 253.3 C 598.9 253.2 598.9 253.2 599.0 253.2 C 599.3 252.9 600.0 253.0 600.3 253.0 C 599.8 253.9 601.0 253.5 601.4 253.3 C 601.8 253.1 601.6 252.3 601.4 252.3 C 601.7 252.3 601.8 252.4 601.9 252.6 C 601.9 252.6 602.4 253.0 602.4 253.0 C 603.2 253.1 602.8 252.4 603.0 252.3 C 603.1 252.1 603.4 252.1 603.6 252.0 C 603.8 251.8 603.5 251.8 603.6 251.6 C 603.8 251.2 604.4 251.7 604.6 251.7 C 604.5 251.8 604.3 251.9 604.2 252.1 C 604.4 251.8 604.6 252.2 604.7 252.2 C 605.0 252.3 605.3 252.1 605.5 252.1 C 605.9 251.9 606.3 251.7 606.6 251.6 C 606.5 251.5 605.8 251.2 605.7 251.3 C 605.9 251.2 606.3 251.2 606.0 251.0 C 605.7 250.5 606.7 250.5 606.9 250.5 C 607.5 250.4 607.9 249.7 608.6 250.2 C 608.6 250.2 607.8 250.5 607.9 250.6 C 608.2 251.0 608.4 251.2 609.0 250.9 C 609.0 250.9 609.7 250.3 609.7 250.3 C 609.7 250.4 608.7 249.5 609.4 249.6 C 609.6 249.7 609.3 249.9 609.5 250.0 C 609.8 250.0 610.1 249.9 610.4 249.8 C 610.4 249.8 610.9 249.8 610.9 249.8 C 611.0 249.6 610.9 249.4 611.0 249.3 C 611.2 249.2 611.4 249.3 611.4 249.4 C 611.5 249.4 611.5 249.5 611.5 249.5 C 611.5 249.5 611.5 249.5 611.6 249.6 C 611.6 249.6 611.7 249.5 611.9 249.6 C 611.9 249.6 611.7 249.7 611.6 249.7 C 611.6 249.7 611.6 249.8 611.6 249.9 C 611.8 249.8 612.0 249.7 612.0 249.7 C 612.3 249.3 612.3 249.2 612.9 249.5 C 613.4 249.7 613.4 251.0 613.0 251.8 C 613.0 251.9 613.0 252.1 612.8 252.3 Z M 598.3 256.4 C 598.3 256.4 598.3 256.4 598.3 256.5 C 598.4 256.4 598.5 256.4 598.5 256.3 C 598.4 256.1 598.4 256.4 598.3 256.3 C 598.2 256.1 598.2 256.2 598.3 256.4 Z M 598.9 254.7 C 598.8 254.6 598.8 254.7 598.8 254.8 C 598.9 254.8 598.9 254.7 598.9 254.7 Z M 598.8 253.9 C 598.5 254.0 599.0 254.2 599.4 254.0 C 599.1 253.9 598.9 253.8 598.8 253.9 Z M 599.3 253.3 C 599.3 253.4 599.3 253.4 599.3 253.5 C 599.3 253.6 599.5 253.4 599.5 253.5 C 599.5 253.6 599.3 253.8 599.5 253.8 C 599.5 253.8 599.6 253.8 599.6 253.8 C 599.6 253.8 599.7 253.8 599.7 253.7 C 599.8 253.6 599.5 253.3 599.3 253.3 Z M 599.6 256.9 C 599.4 256.8 599.5 256.9 599.5 257.0 C 599.6 257.0 599.7 256.9 599.6 256.9 Z M 600.1 258.5 C 600.0 258.3 599.9 258.3 599.9 258.4 C 599.9 258.6 600.1 258.7 600.1 258.5 Z M 602.5 257.0 C 602.5 257.0 602.5 257.1 602.6 257.1 C 602.7 257.2 602.6 257.0 602.5 257.0 Z M 603.0 255.6 C 603.1 255.5 603.0 255.4 603.0 255.5 C 602.9 255.5 603.0 255.7 603.0 255.6 Z M 601.9 258.8 C 602.0 258.9 602.1 258.8 601.9 258.8 C 601.8 258.7 601.8 258.8 601.9 258.8 Z M 602.2 256.8 C 602.2 257.0 602.3 257.0 602.4 256.9 C 602.4 256.9 602.4 256.8 602.3 256.7 C 602.2 256.6 602.1 256.6 602.2 256.8 Z M 602.4 255.6 C 602.8 255.5 602.8 255.3 602.3 255.5 C 601.9 255.7 602.2 255.6 602.4 255.6 Z M 600.5 259.7 C 600.5 259.6 600.3 259.5 600.3 259.5 C 600.3 259.5 600.7 260.0 600.5 259.7 Z M 603.5 252.3 C 603.3 252.4 603.3 252.5 603.5 252.5 C 603.7 252.5 603.6 252.3 603.5 252.3 Z M 604.0 253.1 C 603.8 252.8 603.5 252.8 603.5 252.8 C 603.5 252.9 603.5 253.1 603.4 253.2 C 603.2 253.4 602.8 253.2 602.6 253.4 C 602.3 253.7 603.0 253.6 603.1 253.5 C 603.0 253.6 603.0 253.6 603.0 253.7 C 603.0 253.8 603.1 253.8 603.2 253.7 C 603.3 253.6 604.3 253.5 604.0 253.1 Z M 603.0 256.6 C 602.9 256.5 602.7 256.5 602.8 256.7 C 602.8 256.9 602.9 257.0 603.0 257.0 C 603.1 257.0 603.1 256.7 603.0 256.6 Z M 602.8 257.7 C 602.7 257.7 602.7 257.7 602.8 257.8 C 603.0 258.0 603.0 257.7 602.8 257.7 Z M 603.5 262.8 C 603.6 262.8 603.5 262.6 603.4 262.7 C 603.4 262.7 603.4 262.8 603.5 262.8 Z M 604.0 261.0 C 604.2 261.1 604.1 260.8 604.0 260.8 C 604.0 260.8 603.8 260.9 604.0 261.0 Z M 603.2 259.6 C 603.3 259.7 603.3 259.5 603.2 259.5 C 603.1 259.5 603.1 259.6 603.2 259.6 Z M 603.3 258.9 C 603.4 259.0 603.4 258.8 603.3 258.7 C 603.2 258.7 603.2 258.8 603.3 258.9 Z M 605.5 253.2 C 605.5 253.2 605.5 253.5 605.7 253.3 C 605.8 253.1 605.8 253.1 605.5 253.2 Z M 604.4 255.2 C 604.2 255.2 604.0 255.4 604.0 256.0 C 604.0 256.6 604.2 256.4 604.4 256.1 C 604.6 255.8 604.6 256.8 604.9 256.2 C 605.1 255.9 604.6 255.1 604.4 255.2 Z M 604.4 259.1 C 604.3 258.7 603.7 258.7 603.9 259.0 C 604.2 259.3 604.5 259.5 604.4 259.1 Z M 604.3 259.4 C 604.2 259.4 604.2 259.4 604.4 259.5 C 604.4 259.6 604.4 259.4 604.3 259.4 Z M 606.5 250.8 C 605.8 251.1 606.7 251.4 606.7 251.4 C 607.5 251.4 607.2 250.4 606.5 250.8 Z M 608.8 264.8 C 608.8 264.7 608.8 264.7 608.8 264.7 C 608.8 264.7 608.8 264.7 608.8 264.6 C 608.7 264.5 608.5 264.7 608.5 264.7 C 608.6 264.8 608.7 264.8 608.8 264.8 Z M 610.0 261.1 C 609.9 261.2 609.9 261.4 610.0 261.5 C 610.3 261.5 610.6 260.4 610.0 260.7 C 609.8 260.7 609.2 261.3 609.4 261.4 C 609.6 261.5 610.1 260.7 610.0 261.1 Z M 609.2 262.1 C 609.3 261.7 608.6 262.4 608.9 262.3 C 609.0 262.3 609.1 262.3 609.2 262.1 Z M 607.2 265.1 C 607.3 265.8 608.2 265.9 608.0 264.9 C 607.8 263.8 607.4 263.6 607.4 264.1 C 607.4 264.7 607.1 264.1 607.2 265.1 Z M 608.6 260.3 C 609.2 260.6 609.1 260.3 608.7 260.0 C 608.6 259.9 608.2 260.1 608.6 260.3 Z M 608.9 258.9 C 609.0 258.8 609.0 258.8 608.9 258.8 C 608.7 258.9 608.8 259.1 608.9 258.9 Z M 606.1 265.8 C 606.1 266.1 606.3 266.3 606.2 266.3 C 606.0 266.2 606.1 266.3 606.1 266.5 C 606.2 266.7 606.3 266.3 606.3 266.2 C 606.4 266.1 606.0 265.6 606.1 265.8 Z M 605.4 260.1 C 605.5 260.1 605.5 260.0 605.4 259.9 C 605.3 259.9 605.3 260.0 605.4 260.1 Z M 606.2 254.8 C 606.2 254.8 606.2 254.9 606.3 254.8 C 606.4 254.7 606.4 254.7 606.2 254.8 Z M 607.6 250.7 C 607.4 250.8 607.7 250.9 607.6 251.1 C 607.6 251.2 607.5 251.0 607.5 251.0 C 607.5 251.1 607.4 251.6 607.7 251.3 C 607.8 251.2 607.9 250.6 607.6 250.7 Z M 606.0 258.7 C 605.8 258.4 605.4 259.2 605.3 259.0 C 605.2 258.9 605.1 258.9 605.3 259.2 C 605.4 259.4 606.1 259.0 606.0 258.7 Z M 605.5 260.9 C 605.5 260.8 605.2 260.3 605.2 260.5 C 605.2 260.8 605.5 261.0 605.3 261.0 C 605.1 260.9 605.2 261.0 605.3 261.2 C 605.4 261.4 605.5 261.0 605.5 260.9 Z M 604.6 264.6 C 604.6 264.5 604.4 264.3 604.4 264.5 C 604.4 264.6 604.6 264.6 604.6 264.6 Z M 607.7 254.6 C 607.6 254.7 607.6 254.8 607.8 254.7 C 608.0 254.6 607.8 254.4 607.7 254.6 Z M 605.3 264.4 C 605.2 264.1 605.2 264.5 605.1 264.3 C 605.0 264.2 604.9 264.2 605.1 264.5 C 605.2 264.7 605.4 264.7 605.3 264.4 Z M 609.2 251.4 C 609.2 251.5 609.2 251.7 609.3 251.6 C 609.4 251.5 609.3 251.3 609.2 251.4 Z M 609.3 252.9 C 609.3 252.9 609.2 252.9 609.1 252.9 C 608.1 253.3 609.8 253.3 609.3 252.9 Z M 608.6 255.0 C 608.6 254.7 608.4 255.0 608.4 255.0 C 608.5 255.1 608.6 255.1 608.6 255.0 Z M 608.0 257.3 C 608.1 257.4 608.1 257.1 608.0 257.1 C 607.9 257.1 607.9 257.2 608.0 257.3 Z M 610.5 250.0 C 610.4 250.0 610.4 250.1 610.5 250.1 C 610.6 250.1 610.6 250.0 610.5 250.0 Z M 609.0 255.7 C 608.9 255.7 608.9 255.7 608.9 255.8 C 608.9 255.9 609.0 255.8 609.0 255.7 Z M 607.0 262.7 C 607.0 262.6 606.9 262.5 606.9 262.5 C 606.7 262.5 606.6 262.9 606.4 262.9 C 606.4 262.9 606.4 262.9 606.4 262.9 C 606.4 262.9 606.4 262.9 606.4 262.9 C 606.3 262.8 606.2 262.7 606.3 262.7 C 606.3 262.7 606.3 262.6 606.3 262.5 C 606.1 262.6 606.0 262.7 606.1 262.9 C 606.2 263.0 606.5 263.2 606.7 263.2 C 606.8 263.1 606.9 263.1 606.9 263.0 C 606.9 263.0 606.9 263.0 606.9 263.0 C 606.7 262.8 606.7 262.7 606.8 262.7 C 606.9 262.7 606.9 262.8 607.0 262.8 C 607.0 262.8 607.0 262.7 607.0 262.7 Z M 609.0 256.7 C 609.0 256.5 608.9 256.6 608.8 256.8 C 608.7 257.0 609.1 256.9 609.0 256.7 Z M 610.6 250.3 C 610.6 250.4 610.7 250.5 610.7 250.5 C 610.7 250.5 610.7 250.5 610.7 250.4 C 610.8 250.3 610.9 250.2 610.9 250.1 C 610.8 250.0 610.6 250.1 610.6 250.3 Z M 610.7 252.5 C 610.7 252.4 611.0 251.6 610.8 251.7 C 610.4 251.9 610.2 251.4 610.2 252.1 C 610.1 252.4 610.5 252.7 610.5 253.0 C 610.4 254.6 611.0 252.8 611.2 252.4 C 611.2 252.3 610.7 252.6 610.7 252.5 Z M 610.6 254.6 C 610.7 254.7 611.0 254.5 611.0 254.4 C 611.0 254.0 610.5 254.4 610.6 254.6 Z M 612.0 250.5 C 612.0 250.5 612.0 250.5 611.9 250.5 C 611.9 250.5 612.0 250.6 612.0 250.6 C 612.0 250.6 612.0 250.5 612.0 250.5 Z M 612.5 249.5 C 611.9 249.8 612.7 250.0 612.9 249.9 C 613.3 249.9 612.7 249.4 612.5 249.5 Z M 611.6 253.7 C 611.5 253.9 612.3 254.5 612.4 254.0 C 612.5 253.5 611.9 253.0 611.6 253.7 Z M 611.8 257.0 C 611.8 256.9 612.0 256.6 612.1 256.8 C 612.1 257.0 611.9 257.1 611.8 257.0 Z M 613.6 252.6 C 613.5 252.7 613.5 252.6 613.5 252.6 C 613.7 252.5 613.7 252.5 613.6 252.6 Z M 612.9 252.9 C 613.0 252.7 613.1 252.6 613.1 252.5 C 613.2 252.4 613.2 252.7 613.2 252.7 C 613.1 252.8 612.9 252.8 612.9 252.9 Z M 612.1 255.3 C 612.2 255.2 612.2 255.4 612.1 255.5 C 612.1 255.5 612.0 255.4 612.1 255.3 Z M 612.5 254.8 C 612.4 254.8 612.3 254.7 612.4 254.6 C 612.4 254.5 612.5 254.7 612.5 254.8 Z M 611.7 255.6 C 611.7 255.3 611.7 255.0 612.0 255.1 C 612.1 255.1 611.7 256.2 611.7 255.6 Z M 611.7 255.6 " fill="#EB5C56"></path><text xml:space="preserve" font-family="Helvetica-BoldOblique" font-style="italic" font-weight="bold" font-size="29.0" fill="#000000" transform="matrix(1.00, 0.00, -0.00, -1.00, 218.0, 221.0)">T</text><text xml:space="preserve" font-family="Helvetica-BoldOblique" font-style="italic" font-weight="bold" font-size="29.0" fill="#000000" transform="matrix(1.00, 0.00, -0.00, -1.00, 235.7, 221.0)">h</text><text xml:space="preserve" font-family="Helvetica-BoldOblique" font-style="italic" font-weight="bold" font-size="29.0" fill="#000000" transform="matrix(1.00, 0.00, -0.00, -1.00, 253.4, 221.0)">e</text><text xml:space="preserve" font-family="Helvetica-BoldOblique" font-style="italic" font-weight="bold" font-size="29.0" fill="#000000" transform="matrix(1.00, 0.00, -0.00, -1.00, 269.6, 221.0)">y</text><text xml:space="preserve" font-family="Helvetica-BoldOblique" font-style="italic" font-weight="bold" font-size="29.0" fill="#000000" transform="matrix(1.00, 0.00, -0.00, -1.00, 285.7, 221.0)"> </text><text xml:space="preserve" font-family="Helvetica-BoldOblique" font-style="italic" font-weight="bold" font-size="29.0" fill="#000000" transform="matrix(1.00, 0.00, -0.00, -1.00, 293.7, 221.0)">l</text><text xml:space="preserve" font-family="Helvetica-BoldOblique" font-style="italic" font-weight="bold" font-size="29.0" fill="#000000" transform="matrix(1.00, 0.00, -0.00, -1.00, 301.8, 221.0)">i</text><text xml:space="preserve" font-family="Helvetica-BoldOblique" font-style="italic" font-weight="bold" font-size="29.0" fill="#000000" transform="matrix(1.00, 0.00, -0.00, -1.00, 309.8, 221.0)">k</text><text xml:space="preserve" font-family="Helvetica-BoldOblique" font-style="italic" font-weight="bold" font-size="29.0" fill="#000000" transform="matrix(1.00, 0.00, -0.00, -1.00, 326.0, 221.0)">e</text><text xml:space="preserve" font-family="Helvetica-BoldOblique" font-style="italic" font-weight="bold" font-size="29.0" fill="#000000" transform="matrix(1.00, 0.00, -0.00, -1.00, 342.1, 221.0)"> </text><text xml:space="preserve" font-family="Helvetica-BoldOblique" font-style="italic" font-weight="bold" font-size="29.0" fill="#000000" transform="matrix(1.00, 0.00, -0.00, -1.00, 350.2, 221.0)">p</text><text xml:space="preserve" font-family="Helvetica-BoldOblique" font-style="italic" font-weight="bold" font-size="29.0" fill="#000000" transform="matrix(1.00, 0.00, -0.00, -1.00, 367.9, 221.0)">a</text><text xml:space="preserve" font-family="Helvetica-BoldOblique" font-style="italic" font-weight="bold" font-size="29.0" fill="#000000" transform="matrix(1.00, 0.00, -0.00, -1.00, 384.0, 221.0)">l</text><text xml:space="preserve" font-family="Helvetica-BoldOblique" font-style="italic" font-weight="bold" font-size="29.0" fill="#000000" transform="matrix(1.00, 0.00, -0.00, -1.00, 392.1, 221.0)">e</text><text xml:space="preserve" font-family="Helvetica-BoldOblique" font-style="italic" font-weight="bold" font-size="29.0" fill="#000000" transform="matrix(1.00, 0.00, -0.00, -1.00, 408.2, 221.0)"> </text><text xml:space="preserve" font-family="Helvetica-BoldOblique" font-style="italic" font-weight="bold" font-size="29.0" fill="#000000" transform="matrix(1.00, 0.00, -0.00, -1.00, 416.2, 221.0)">b</text><text xml:space="preserve" font-family="Helvetica-BoldOblique" font-style="italic" font-weight="bold" font-size="29.0" fill="#000000" transform="matrix(1.00, 0.00, -0.00, -1.00, 433.9, 221.0)">l</text><text xml:space="preserve" font-family="Helvetica-BoldOblique" font-style="italic" font-weight="bold" font-size="29.0" fill="#000000" transform="matrix(1.00, 0.00, -0.00, -1.00, 442.0, 221.0)">u</text><text xml:space="preserve" font-family="Helvetica-BoldOblique" font-style="italic" font-weight="bold" font-size="29.0" fill="#000000" transform="matrix(1.00, 0.00, -0.00, -1.00, 459.7, 221.0)">e</text><text xml:space="preserve" font-family="Helvetica-BoldOblique" font-style="italic" font-weight="bold" font-size="29.0" fill="#000000" transform="matrix(1.00, 0.00, -0.00, -1.00, 475.8, 221.0)"> </text><text xml:space="preserve" font-family="Helvetica-BoldOblique" font-style="italic" font-weight="bold" font-size="29.0" fill="#000000" transform="matrix(1.00, 0.00, -0.00, -1.00, 483.9, 221.0)">t</text><text xml:space="preserve" font-family="Helvetica-BoldOblique" font-style="italic" font-weight="bold" font-size="29.0" fill="#000000" transform="matrix(1.00, 0.00, -0.00, -1.00, 493.6, 221.0)">h</text><text xml:space="preserve" font-family="Helvetica-BoldOblique" font-style="italic" font-weight="bold" font-size="29.0" fill="#000000" transform="matrix(1.00, 0.00, -0.00, -1.00, 511.3, 221.0)">i</text><text xml:space="preserve" font-family="Helvetica-BoldOblique" font-style="italic" font-weight="bold" font-size="29.0" fill="#000000" transform="matrix(1.00, 0.00, -0.00, -1.00, 519.3, 221.0)">n</text><text xml:space="preserve" font-family="Helvetica-BoldOblique" font-style="italic" font-weight="bold" font-size="29.0" fill="#000000" transform="matrix(1.00, 0.00, -0.00, -1.00, 537.0, 221.0)">g</text><text xml:space="preserve" font-family="Helvetica-BoldOblique" font-style="italic" font-weight="bold" font-size="29.0" fill="#000000" transform="matrix(1.00, 0.00, -0.00, -1.00, 554.7, 221.0)">s</text><text xml:space="preserve" font-family="Helvetica-BoldOblique" font-style="italic" font-weight="bold" font-size="29.0" fill="#000000" transform="matrix(1.00, 0.00, -0.00, -1.00, 570.9, 221.0)">!</text></g></svg>