<?xml version="1.0" encoding="iso-8859-1"?>
<!-- Generator: Adobe Illustrator 19.0.0, SVG Export Plug-In . SVG Version: 6.00 Build 0)  -->
<svg version="1.1" id="Capa_1" xmlns="http://www.w3.org/2000/svg" xmlns:xlink="http://www.w3.org/1999/xlink" x="0px" y="0px"
	 viewBox="0 0 375.36 375.36" style="enable-background:new 0 0 375.36 375.36;" xml:space="preserve">
<g>
	<g>
		<path d="M274.8,63c-17.466-48.137-70.648-73.001-118.785-55.535C130.19,16.835,109.85,37.175,100.48,63
			C38.48,80.04,0,113.64,0,151.4c0,56,82.4,99.68,187.68,99.68s187.68-43.76,187.68-99.68C375.36,113.64,336.88,80.04,274.8,63z
			 M111.6,91.72c1.927-41.974,37.515-74.438,79.488-72.512c39.276,1.803,70.709,33.236,72.512,72.512v51.68
			c-26.724,5.421-53.932,8.102-81.2,8c-23.788,0.019-47.531-2.042-70.96-6.16L111.6,91.72z M187.68,235.08
			C94.64,235.08,16,196.76,16,151.4c0-28.16,31.12-55.12,80-70.56c-0.356,3.615-0.49,7.249-0.4,10.88v60.4
			c-0.016,0.293-0.016,0.587,0,0.88c-0.057,0.505-0.057,1.015,0,1.52c0.159,0.502,0.373,0.985,0.64,1.44
			c0.227,0.425,0.495,0.827,0.8,1.2c0.33,0.414,0.706,0.79,1.12,1.12l1.2,0.8l1.52,0.64h0.72c26.524,5.08,53.474,7.599,80.48,7.52
			c30.587,0.116,61.094-3.157,90.96-9.76h0.64l1.44-0.64l1.2-0.8l1.04-1.12c0.329-0.401,0.623-0.829,0.88-1.28
			c0.237-0.459,0.425-0.941,0.56-1.44c0.064-0.531,0.064-1.069,0-1.6c0,0,0-0.48,0-0.72V91.72c-0.009-3.638-0.249-7.272-0.72-10.88
			c49.2,15.36,80,42.32,80,70.56C359.36,196.76,280.72,235.08,187.68,235.08z"/>
	</g>
</g>
<g>
	<g>
		<path d="M191.92,253.96c-4.418,0-8,3.582-8,8v103.52c0,4.418,3.582,8,8,8s8-3.582,8-8V261.96
			C199.92,257.542,196.338,253.96,191.92,253.96z"/>
	</g>
</g>
<g>
	<g>
		<path d="M125.6,249.88c-3.921-2.036-8.75-0.508-10.786,3.414c-0.005,0.009-0.009,0.018-0.014,0.026l-48.72,94.4
			c-2.032,3.932-0.492,8.768,3.44,10.8c3.932,2.032,8.768,0.492,10.8-3.44l48.72-94.48
			C131.027,256.688,129.492,251.905,125.6,249.88z"/>
	</g>
</g>
<g>
	<g>
		<path d="M317.84,347.72l-48.8-94.4c-2.032-3.932-6.868-5.472-10.8-3.44s-5.472,6.868-3.44,10.8l48.8,94.48
			c2.055,3.932,6.908,5.454,10.84,3.4C318.372,356.506,319.895,351.652,317.84,347.72z"/>
	</g>
</g>
<g>
</g>
<g>
</g>
<g>
</g>
<g>
</g>
<g>
</g>
<g>
</g>
<g>
</g>
<g>
</g>
<g>
</g>
<g>
</g>
<g>
</g>
<g>
</g>
<g>
</g>
<g>
</g>
<g>
</g>
</svg>
