<?xml version="1.0" encoding="iso-8859-1"?>
<!-- Generator: Adobe Illustrator 19.0.0, SVG Export Plug-In . SVG Version: 6.00 Build 0)  -->
<svg version="1.1" id="Capa_1" xmlns="http://www.w3.org/2000/svg" xmlns:xlink="http://www.w3.org/1999/xlink" x="0px" y="0px"
	 viewBox="0 0 375.105 375.105" style="enable-background:new 0 0 375.105 375.105;" xml:space="preserve">
<g>
	<g>
		<path d="M360.756,229.63l-0.16-0.08c-4.162-2.307-8.842-3.518-13.6-3.52l-58.72-99.44c4.816-14.649-3.156-30.427-17.804-35.243
			c-10.893-3.581-22.869-0.138-30.196,8.683l-98.16,7.68c0.562-15.365-11.438-28.277-26.803-28.839
			c-7.241-0.265-14.299,2.303-19.677,7.159l-40.56-32c3.316-12.306-2.2-25.285-13.36-31.44c-13.483-7.572-30.552-2.78-38.124,10.703
			s-2.78,30.552,10.703,38.124c10.442,5.864,23.457,4.438,32.381-3.547l40.56,32c-3.989,14.804,4.779,30.038,19.582,34.026
			c5.69,1.533,11.72,1.216,17.218-0.906l1.76,78.72c-11.847,9.801-13.506,27.35-3.705,39.197c2.233,2.7,4.956,4.953,8.025,6.643
			c4.162,2.307,8.842,3.518,13.6,3.52c3.082-0.023,6.138-0.564,9.04-1.6l44.88,53.2c0,0.56-0.72,1.04-1.12,1.68
			c-7.594,13.471-2.831,30.547,10.64,38.142s30.547,2.831,38.142-10.64c2.698-4.786,3.929-10.261,3.538-15.742l80-50.4
			c1.294,1.088,2.686,2.052,4.16,2.88c13.341,7.731,30.424,3.183,38.156-10.158c0.138-0.239,0.273-0.479,0.404-0.722
			C379.082,254.212,374.248,237.168,360.756,229.63z M38.596,53.23l-0.08,0.32c-3.296,5.497-10.274,7.521-16,4.64
			c-5.789-3.226-7.867-10.534-4.641-16.324c2.077-3.727,5.976-6.071,10.241-6.156c2.046-0.01,4.059,0.514,5.84,1.52
			C39.555,40.447,41.606,47.517,38.596,53.23z M124.886,112.688c-0.068,0.129-0.138,0.256-0.21,0.382
			c-3.296,5.497-10.274,7.521-16,4.64c-5.863-3.09-8.112-10.347-5.022-16.21c3.089-5.863,10.347-8.112,16.21-5.022
			S127.975,106.825,124.886,112.688z M251.556,111.63c2.118-3.802,6.128-6.159,10.48-6.16c2.046-0.01,4.059,0.514,5.84,1.52
			c5.6,3.216,7.65,10.287,4.64,16c-3.296,5.497-10.274,7.521-16,4.64C250.798,124.524,248.597,117.426,251.556,111.63z
			 M154.196,238.75c-3.296,5.497-10.274,7.521-16,4.64c-5.788-3.228-7.863-10.537-4.635-16.325
			c2.118-3.798,6.126-6.153,10.475-6.155c2.046-0.014,4.06,0.51,5.84,1.52C155.546,225.767,157.473,233.046,154.196,238.75z
			 M231.476,333.71l0-0.08c-3.296,5.497-10.274,7.521-16,4.64c-5.744-3.305-7.721-10.642-4.416-16.386
			c2.115-3.676,6.015-5.963,10.256-6.014c2.046-0.01,4.059,0.514,5.84,1.52C232.826,320.727,234.753,328.006,231.476,333.71z
			 M322.596,240.35c-3.632,6.479-4.525,14.14-2.48,21.28v0.64l-77.2,48.48c-7.821-10.147-21.557-13.647-33.28-8.48l-44-52.16
			c0.857-1.116,1.632-2.293,2.32-3.52c7.511-13.517,2.642-30.564-10.875-38.075c-4.138-2.299-8.791-3.512-13.525-3.525h-2.08
			l-1.92-80.8l94.16-8c-0.739,15.314,11.077,28.327,26.39,29.065c6.193,0.299,12.308-1.484,17.37-5.065l54.08,90.64
			C327.854,233.245,324.782,236.509,322.596,240.35z M357.796,259.47l-0.32,0.24c-3.27,5.531-10.278,7.563-16,4.64
			c-5.744-3.306-7.721-10.642-4.416-16.386c2.116-3.676,6.015-5.963,10.256-6.014c2.046-0.01,4.059,0.514,5.84,1.52
			C358.755,246.687,360.806,253.757,357.796,259.47z"/>
	</g>
</g>
<g>
</g>
<g>
</g>
<g>
</g>
<g>
</g>
<g>
</g>
<g>
</g>
<g>
</g>
<g>
</g>
<g>
</g>
<g>
</g>
<g>
</g>
<g>
</g>
<g>
</g>
<g>
</g>
<g>
</g>
</svg>
