<?xml version="1.0" encoding="iso-8859-1"?>
<!-- Generator: Adobe Illustrator 19.0.0, SVG Export Plug-In . SVG Version: 6.00 Build 0)  -->
<svg version="1.1" id="Capa_1" xmlns="http://www.w3.org/2000/svg" xmlns:xlink="http://www.w3.org/1999/xlink" x="0px" y="0px"
	 viewBox="0 0 456.066 456.066" style="enable-background:new 0 0 456.066 456.066;" xml:space="preserve">
<g>
	<g>
		<path d="M453.666,322.596c-2.4-2.4-8.8-0.8-11.2-0.8c-59.2,6.4-112.8-35.2-120-94.4c-6.4-57.6,35.2-111.2,88.8-119.2
			c0.8,0,2.4,0,2.4,0c4-0.8,7.2-4.8,7.2-8.8c0-2.4-1.6-4.8-4-6.4c-29.6-16-63.2-22.4-96-16.8c-59.2,8.8-108,51.2-124.8,108
			c-14.4-23.2-45.6-30.4-68.8-16c-12,7.2-20,19.2-22.4,32.8c-4.8-0.8-10.4-0.8-15.2,0c-24.8,4-42.4,24.8-42.4,49.6
			c-5.6,9.6-7.2,20.8-5.6,32c-4.8,0.8-9.6,2.4-14.4,4.8c-24.8,12.8-34.4,42.4-21.6,67.2s42.4,34.4,67.2,21.6c0.8,0,1.6-0.8,2.4-0.8
			c1.6-0.8,3.2-1.6,4.8-3.2c8,6.4,18.4,9.6,28.8,9.6c9.6,0,19.2-2.4,27.2-7.2c12.8-6.4,22.4-17.6,27.2-30.4
			c5.6-0.8,10.4-2.4,15.2-5.6c14.4-8,24-21.6,26.4-38.4h3.2h1.6c26.4,49.6,78.4,80,134.4,80c8,0,15.2-0.8,23.2-1.6
			c32.8-4.8,63.2-20.8,86.4-44.8C456.866,330.596,456.866,325.796,453.666,322.596z M187.266,304.996c-4,13.6-16.8,23.2-31.2,24
			c-4,0-7.2,3.2-7.2,6.4c-2.4,11.2-10.4,20-20,25.6c-15.2,8-33.6,6.4-42.4-4c-1.6-1.6-3.2-3.2-5.6-3.2h-0.8c-2.4,0-4,0.8-5.6,2.4
			c-2.4,2.4-4.8,4-7.2,5.6c-16.8,8-37.6,0-44.8-16.8c-7.2-15.2-1.6-33.6,12.8-43.2c4.8-3.2,11.2-4,16.8-4c2.4,0,4.8-0.8,6.4-3.2
			c1.6-2.4,1.6-4.8,0.8-7.2c-6.4-17.6,2.4-36.8,20-43.2c16-5.6,32.8,0.8,41.6,15.2c0.8,1.6,1.6,3.2,2.4,4.8c1.6,4,6.4,6.4,10.4,4.8
			c0.8,0,1.6-0.8,2.4-0.8l0.8-0.8c0.8-0.8,1.6-0.8,2.4-1.6c16.8-8.8,36.8-3.2,46.4,13.6
			C188.866,286.596,189.666,296.196,187.266,304.996z M212.866,285.796c-4-0.8-6.4-0.8-9.6-0.8c-5.6-27.2-32-44-59.2-38.4
			c-3.2,0.8-7.2,1.6-10.4,3.2c-12.8-22.4-40-31.2-63.2-20.8c5.6-6.4,13.6-11.2,21.6-12c5.6-0.8,12,0,16.8,2.4
			c4,1.6,8.8-0.8,10.4-4.8c0.8-0.8,0.8-2.4,0.8-3.2c0-18.4,14.4-34.4,33.6-34.4c16.8,0,31.2,12,33.6,28.8c0,1.6,0,4,0,5.6
			c0,4.8,3.2,8,8,8c0.8,0,1.6,0,2.4,0h0.8c0.8,0,1.6-0.8,3.2-0.8c18.4-4,32.8,7.2,36.8,25.6c4,18.4-7.1,36.7-21.6,40.8
			C215.266,284.996,213.666,285.796,212.866,285.796z M364.066,364.196c-55.2,8.8-110.4-17.6-139.2-66.4
			c25.6-10.4,37.6-39.2,27.2-64.8c-7.2-18.4-24.8-30.4-44-31.2c12-56.8,57.6-100.8,115.2-109.6c21.6-3.2,43.2-1.6,64,5.6
			c-64.8,21.6-98,92-76.4,157.6c16.8,49.6,60.4,83.2,112.4,84.8C405.666,352.996,385.666,360.996,364.066,364.196z"/>
	</g>
</g>
<g>
	<g>
		<path d="M300.066,145.796c-1.6-12.8-13.6-21.6-26.4-20c-12.8,1.6-21.6,13.6-20,26.4c1.6,11.2,11.2,20,23.2,20c0.8,0,2.4,0,3.2,0
			c6.4,0,12-4,16-8.8C299.266,158.596,300.866,152.196,300.066,145.796z M283.266,153.796c-2.4,3.2-7.2,4-10.4,1.6
			c-1.6-0.8-2.4-3.2-3.2-4.8c-0.8-4,2.4-8,6.4-8h0.8c4,0,7.2,2.4,7.2,6.4C284.866,150.596,284.066,152.196,283.266,153.796z"/>
	</g>
</g>
<g>
	<g>
		<path d="M329.666,315.396c-1.6-12-13.6-20.8-26.4-20c-12.8,2.4-21.6,14.4-19.2,27.2c1.6,11.2,11.2,19.2,22.4,19.2
			c0.8,0,2.4,0,3.2,0C322.466,340.196,331.266,328.196,329.666,315.396z M312.866,323.396c-2.4,3.2-7.2,4-10.4,1.6
			c-3.2-2.4-4-7.2-1.6-10.4c0.8-1.6,3.2-2.4,4.8-3.2h0.8c4,0,7.2,2.4,7.2,6.4C314.466,320.196,313.666,321.796,312.866,323.396z"/>
	</g>
</g>
<g>
</g>
<g>
</g>
<g>
</g>
<g>
</g>
<g>
</g>
<g>
</g>
<g>
</g>
<g>
</g>
<g>
</g>
<g>
</g>
<g>
</g>
<g>
</g>
<g>
</g>
<g>
</g>
<g>
</g>
</svg>
