<?xml version="1.0" encoding="iso-8859-1"?>
<!-- Generator: Adobe Illustrator 19.0.0, SVG Export Plug-In . SVG Version: 6.00 Build 0)  -->
<svg version="1.1" id="Capa_1" xmlns="http://www.w3.org/2000/svg" xmlns:xlink="http://www.w3.org/1999/xlink" x="0px" y="0px"
	 viewBox="0 0 429.907 429.907" style="enable-background:new 0 0 429.907 429.907;" xml:space="preserve">
<g>
	<g>
		<path d="M426.858,125.354c-13.6-27.68-69.36-29.04-149.52-3.68c-57.078-31.816-129.141-11.336-160.956,45.742
			c-6.693,12.007-11.242,25.089-13.444,38.658c-69.52,47.2-102.96,91.84-89.44,120c7.52,15.44,26.88,22.08,53.2,22.08
			c32.707-1.344,65.045-7.434,96-18.08C220,361.85,292.213,341.158,323.989,283.856c6.637-11.968,11.153-24.995,13.349-38.503
			C399.098,203.514,441.978,156.794,426.858,125.354z M123.018,191.994c18.221-53.632,76.469-82.338,130.1-64.117
			c33.627,11.424,58.95,39.433,66.94,74.037c-27.508,19.257-56.568,36.195-86.88,50.64c-30.094,14.912-61.408,27.223-93.6,36.8
			c-4.613-5.694-8.609-11.862-11.92-18.4C115.581,246.322,113.909,217.87,123.018,191.994z M317.614,157.728
			c34.706-7.963,45.405-3.492,46.284-1.574c0.88,1.92-1.84,12.88-30,35.36c-1.799-6.037-4.073-11.922-6.8-17.6
			C324.372,168.275,321.2,162.863,317.614,157.728z M106.458,259.994c3.367,12.059,8.779,23.451,16,33.68
			c-28.08,6.48-44.4,5.84-46.4,1.68C75.578,293.434,78.938,282.234,106.458,259.994z M265.098,318.314h-0.08
			c-25.038,12.078-53.901,13.492-80,3.92c23.125-8.322,45.796-17.856,67.92-28.56c22.128-10.701,43.677-22.557,64.56-35.52
			C308.875,284.462,289.974,306.162,265.098,318.314z M246.138,278.954c-113.28,55.2-205.84,65.2-218.16,40
			c-7.12-14.72,13.28-49.2,73.44-92.16c0.008,5.353,0.382,10.698,1.12,16c-33.6,25.52-47.28,45.6-40.48,59.6
			c4.08,8.48,14.48,11.92,28.56,11.92c40,0,109.12-27.76,149.6-47.36c36.588-17.182,71.26-38.178,103.44-62.64
			c29.84-24,41.28-41.84,34.8-55.2c-6.48-13.36-31.04-16-72-5.12c-3.745-3.899-7.754-7.534-12-10.88
			c71.04-20.56,110.8-15.2,117.92-0.48C424.698,157.914,359.418,224.394,246.138,278.954z"/>
	</g>
</g>
<g>
	<g>
		<path d="M47.933,170.989c-4.23-8.671-13.027-14.178-22.675-14.195C11.296,156.806-0.012,168.134,0,182.096
			c0.003,3.817,0.871,7.584,2.538,11.018c4.379,8.547,13.197,13.9,22.8,13.84c3.769,0.115,7.516-0.624,10.96-2.16
			C48.846,198.671,54.055,183.536,47.933,170.989z M29.338,190.394c-4.622,2.141-10.109,0.23-12.4-4.32
			c-2.232-4.613-0.302-10.163,4.311-12.396c0.003-0.001,0.006-0.003,0.009-0.004c1.243-0.62,2.611-0.949,4-0.96
			c5.125-0.076,9.341,4.017,9.417,9.141C34.729,185.503,32.641,188.844,29.338,190.394z"/>
	</g>
</g>
<g>
	<g>
		<path d="M273.453,23.309c-4.23-8.671-13.027-14.178-22.675-14.195c-3.828-0.004-7.605,0.872-11.04,2.56
			c-12.548,6.122-17.757,21.257-11.635,33.805c4.23,8.671,13.027,14.178,22.675,14.195c3.827,0.002,7.604-0.874,11.04-2.56
			C274.366,50.991,279.575,35.856,273.453,23.309z M254.938,42.794c-4.622,2.141-10.109,0.23-12.4-4.32
			c-2.251-4.604-0.344-10.162,4.26-12.413c0.046-0.023,0.093-0.045,0.14-0.067c1.243-0.62,2.611-0.949,4-0.96
			c5.124-0.131,9.383,3.916,9.514,9.039C260.549,37.828,258.372,41.271,254.938,42.794z"/>
	</g>
</g>
<g>
	<g>
		<path d="M259.498,384.474c-4.267-8.702-13.108-14.224-22.8-14.24c-13.962,0.012-25.27,11.34-25.258,25.302
			c0.003,3.817,0.871,7.584,2.538,11.018c4.267,8.702,13.108,14.224,22.8,14.24c13.962-0.012,25.27-11.34,25.258-25.302
			C262.033,391.674,261.165,387.908,259.498,384.474z M245.498,398.954c-0.806,2.319-2.505,4.22-4.72,5.28
			c-4.62,2.187-10.139,0.264-12.4-4.32c-2.224-4.618-0.283-10.164,4.335-12.387c4.618-2.224,10.164-0.283,12.387,4.335
			C246.168,394.079,246.311,396.63,245.498,398.954z"/>
	</g>
</g>
<g>
</g>
<g>
</g>
<g>
</g>
<g>
</g>
<g>
</g>
<g>
</g>
<g>
</g>
<g>
</g>
<g>
</g>
<g>
</g>
<g>
</g>
<g>
</g>
<g>
</g>
<g>
</g>
<g>
</g>
</svg>
