<?xml version="1.0" encoding="iso-8859-1"?>
<!-- Generator: Adobe Illustrator 19.0.0, SVG Export Plug-In . SVG Version: 6.00 Build 0)  -->
<svg version="1.1" id="Capa_1" xmlns="http://www.w3.org/2000/svg" xmlns:xlink="http://www.w3.org/1999/xlink" x="0px" y="0px"
	 viewBox="0 0 406.987 406.987" style="enable-background:new 0 0 406.987 406.987;" xml:space="preserve">
<g>
	<g>
		<path d="M340.656,191.824c-2.874-3.356-7.924-3.747-11.28-0.873c-0.313,0.268-0.605,0.56-0.873,0.873h0.32l-105.12,105.04
			c15.793-60.537-20.479-122.414-81.016-138.207c-18.707-4.88-38.352-4.892-57.064-0.033l75.6-75.6
			c3.356-2.874,3.747-7.924,0.873-11.28c-2.874-3.356-7.924-3.747-11.28-0.873c-0.313,0.268-0.605,0.56-0.873,0.873l-116.64,116.56
			c-44.404,44.404-44.404,116.396,0,160.8s116.396,44.404,160.8,0l145.68-146C343.139,200.231,343.529,195.18,340.656,191.824z
			 M183.751,336.897c-0.307,0.311-0.616,0.621-0.928,0.928c-38.152,38.141-99.999,38.132-138.14-0.02
			c-38.141-38.152-38.132-99.999,0.02-138.14c38.144-38.133,99.977-38.133,138.121,0
			C220.975,237.304,221.39,298.745,183.751,336.897z"/>
	</g>
</g>
<g>
	<g>
		<g>
			<polygon points="393.783,126.784 393.783,126.784 393.863,126.704 			"/>
			<path d="M404.19,126.784c-2.995-2.565-7.412-2.565-10.407,0l-35.6,35.6c-3.356,2.874-3.747,7.924-0.873,11.28
				c2.874,3.356,7.924,3.747,11.28,0.873c0.313-0.268,0.605-0.56,0.873-0.873l35.6-35.6
				C407.937,134.709,407.546,129.658,404.19,126.784z"/>
		</g>
	</g>
</g>
<g>
	<g>
		<path d="M206.821,27.733c-2.677-3.515-7.696-4.195-11.211-1.518c-0.602,0.459-1.137,1.001-1.587,1.609l-23.2,23.2
			c-3.137,3.111-3.158,8.177-0.047,11.314c1.513,1.526,3.577,2.379,5.727,2.366l-0.08-0.24c2.126,0.012,4.17-0.823,5.68-2.32
			l23.2-23.2C208.818,36.268,209.498,31.248,206.821,27.733z"/>
	</g>
</g>
<g>
	<g>
		<path d="M264.976,61.744c-2.874-3.356-7.924-3.747-11.28-0.873c-0.313,0.268-0.605,0.56-0.873,0.873l-72,72
			c-3.218,3.028-3.547,7.905-0.519,11.122c0.111,0.118,0.226,0.233,0.519,0.158c3.12,3.102,8.16,3.102,11.28,0l72-72
			C267.459,70.151,267.849,65.1,264.976,61.744z"/>
	</g>
</g>
<g>
	<g>
		<path d="M325.385,99.756c-2.86-2.114-6.772-2.086-9.602,0.069l-72,72c-2.997,3.101-2.997,8.019,0,11.12
			c3.12,3.102,8.16,3.102,11.28,0l72-72C329.689,107.391,328.938,102.382,325.385,99.756z"/>
	</g>
</g>
<g>
	<g>
		<path d="M370.023,56.544c-3.12-3.102-8.16-3.102-11.28,0l-24,24c-3.622,2.531-4.506,7.519-1.975,11.14
			c2.531,3.622,7.519,4.506,11.14,1.975c0.721-0.504,1.355-1.124,1.875-1.835l24-24C372.952,64.771,373.059,59.73,370.023,56.544z"
			/>
	</g>
</g>
<g>
</g>
<g>
</g>
<g>
</g>
<g>
</g>
<g>
</g>
<g>
</g>
<g>
</g>
<g>
</g>
<g>
</g>
<g>
</g>
<g>
</g>
<g>
</g>
<g>
</g>
<g>
</g>
<g>
</g>
</svg>
