<?xml version="1.0" encoding="iso-8859-1"?>
<!-- Generator: Adobe Illustrator 19.0.0, SVG Export Plug-In . SVG Version: 6.00 Build 0)  -->
<svg xmlns="http://www.w3.org/2000/svg" xmlns:xlink="http://www.w3.org/1999/xlink" version="1.1" id="Capa_1" x="0px" y="0px" viewBox="0 0 377.659 377.659" style="enable-background:new 0 0 377.659 377.659;" xml:space="preserve" width="512px" height="512px">
<g>
	<g>
		<path d="M333.917,146.558c34.264-34.237,49.774-82.977,41.6-130.72c-0.657-3.089-3.071-5.503-6.16-6.16    c-7.915-1.453-15.954-2.123-24-2c-39.979-0.194-78.386,15.555-106.72,43.76l-10.4,10.8c-21.716-8.873-44.942-13.464-68.4-13.52    c-41.556-0.242-81.503,16.048-111.04,45.28c-3.159,3.089-3.216,8.154-0.127,11.313c0.042,0.043,0.084,0.085,0.127,0.127    l68.24,68.16l-9.6,9.44c-3.102,3.12-3.102,8.16,0,11.28l9.6,9.2c-17.917,5.169-34.129,15.029-46.96,28.56    c-3.137,3.111-3.158,8.177-0.046,11.314c0.015,0.016,0.031,0.031,0.046,0.046l72,72c1.51,1.497,3.554,2.332,5.68,2.32    c2.138-0.009,4.183-0.873,5.68-2.4c13.435-12.771,23.212-28.901,28.32-46.72l9.2,9.2c3.12,3.102,8.16,3.102,11.28,0l9.44-9.2    l68.16,68.16c1.51,1.497,3.554,2.332,5.68,2.32c2.15-0.03,4.197-0.924,5.68-2.48c68.88-72,40.72-157.44,32-179.36L333.917,146.558    z M65.916,99.998c25.857-22.995,59.318-35.592,93.92-35.36c19.094,0.111,38.03,3.465,56,9.92l-88,88L65.916,99.998z     M147.276,298.478l-0.08-0.08l-60.48-60.48c21.2-18.48,37.92-20.32,43.92-20.4l36.96,36.96    C167.677,260.238,165.917,276.638,147.276,298.478z M285.036,319.278l-62.24-62.24l43.84-43.84l43.84-43.84    C319.677,194.558,335.836,260.638,285.036,319.278z M322.237,135.278l-14.64,14.64l-101.6,101.44l-9.44,9.28l-36.08-36.08    l-20.56-20.56l-15.52-15.36l9.44-9.44l101.84-101.76l14.64-14.64c25.192-25.393,59.592-39.505,95.36-39.12    c5,0,9.995,0.294,14.96,0.88c4.668,40.696-9.4,81.31-38.24,110.4L322.237,135.278z" fill="#D80027"/>
	</g>
</g>
<g>
	<g>
		<path d="M334.494,95.084c-0.006-0.015-0.011-0.031-0.017-0.046c-7.095-21.225-23.932-37.764-45.28-44.48    c-4.286-1.149-8.691,1.394-9.84,5.68c-1.149,4.286,1.394,8.691,5.68,9.84c16.297,5.415,29.061,18.238,34.4,34.56    c1.172,3.136,4.172,5.211,7.52,5.2c0.955,0.008,1.903-0.154,2.8-0.48C333.902,103.829,336.023,99.229,334.494,95.084z" fill="#D80027"/>
	</g>
</g>
<g>
	<g>
		<path d="M65.997,249.998c-3.12-3.102-8.16-3.102-11.28,0l-51.92,51.84c-3.356,2.874-3.747,7.924-0.873,11.28    c2.874,3.356,7.924,3.747,11.28,0.873c0.313-0.268,0.605-0.56,0.873-0.873l51.84-51.84    C69.041,258.18,69.076,253.14,65.997,249.998z" fill="#D80027"/>
	</g>
</g>
<g>
	<g>
		<path d="M89.909,273.358c-2.874-3.356-7.924-3.747-11.28-0.873c-0.313,0.268-0.605,0.56-0.873,0.873l-31.36,31.36    c-3.356,2.874-3.747,7.924-0.873,11.28c2.874,3.356,7.924,3.747,11.28,0.873c0.313-0.268,0.605-0.56,0.873-0.873l31.36-31.36    C92.392,281.764,92.783,276.714,89.909,273.358z" fill="#D80027"/>
	</g>
</g>
<g>
	<g>
		<path d="M112.156,296.158c-3.12-3.102-8.16-3.102-11.28,0l-45.28,45.28c-3.356,2.874-3.747,7.924-0.873,11.28    c2.874,3.356,7.924,3.747,11.28,0.873c0.313-0.268,0.605-0.56,0.873-0.873l45.28-45.28    C115.258,304.318,115.258,299.278,112.156,296.158z" fill="#D80027"/>
	</g>
</g>
<g>
	<g>
		<path d="M134.404,319.278c-2.995-2.565-7.412-2.565-10.407,0l-36.64,36.64c-3.356,2.874-3.747,7.924-0.873,11.28    c2.874,3.356,7.924,3.747,11.28,0.873c0.313-0.268,0.605-0.56,0.873-0.873l36.64-36.64    C138.15,327.202,137.76,322.152,134.404,319.278z" fill="#D80027"/>
	</g>
</g>
<g>
</g>
<g>
</g>
<g>
</g>
<g>
</g>
<g>
</g>
<g>
</g>
<g>
</g>
<g>
</g>
<g>
</g>
<g>
</g>
<g>
</g>
<g>
</g>
<g>
</g>
<g>
</g>
<g>
</g>
</svg>
