<?xml version="1.0" encoding="iso-8859-1"?>
<!-- Generator: Adobe Illustrator 19.0.0, SVG Export Plug-In . SVG Version: 6.00 Build 0)  -->
<svg version="1.1" id="Capa_1" xmlns="http://www.w3.org/2000/svg" xmlns:xlink="http://www.w3.org/1999/xlink" x="0px" y="0px"
	 viewBox="0 0 384 384" style="enable-background:new 0 0 384 384;" xml:space="preserve">
<g>
	<g>
		<path d="M192,0C85.961,0,0,85.961,0,192s85.961,192,192,192s192-85.961,192-192S298.039,0,192,0z M180.16,16.48
			c0.074,1.252,0.074,2.508,0,3.76c-0.74,17.392-15.44,30.891-32.832,30.151C135.485,49.887,124.927,42.781,120,32
			C138.964,23.271,159.34,18.014,180.16,16.48z M146.403,362.058C52.521,336.869-3.165,240.343,22.025,146.461
			C34.255,100.878,64.281,62.116,105.36,38.88c10.326,24.08,38.218,35.229,62.297,24.903c17.419-7.47,28.72-24.59,28.743-43.543
			c0-1.36,0-2.72,0-4.08c77.905,1.957,145.247,54.913,165.52,130.16c-4.034-1.159-8.203-1.778-12.4-1.84
			c-26.242-0.332-47.786,20.672-48.118,46.914c-0.333,26.242,20.672,47.786,46.914,48.118c4.626,0.059,9.236-0.559,13.684-1.832
			C336.811,331.562,240.285,387.248,146.403,362.058z M349.52,223.44c-17.386-0.877-30.769-15.682-29.892-33.068
			c0.815-16.16,13.733-29.078,29.892-29.892c5.826,0.004,11.535,1.639,16.48,4.72c1.345,8.87,2.013,17.829,2,26.8
			c0.009,8.944-0.659,17.877-2,26.72C361.055,221.801,355.346,223.436,349.52,223.44z"/>
	</g>
</g>
<g>
	<g>
		<path d="M109.44,128c-26.245,0-47.52,21.275-47.52,47.52c0,26.245,21.275,47.52,47.52,47.52s47.52-21.275,47.52-47.52
			C156.96,149.275,135.685,128,109.44,128z M109.44,207.04c-17.408,0-31.52-14.112-31.52-31.52c0-17.408,14.112-31.52,31.52-31.52
			s31.52,14.112,31.52,31.52C140.96,192.928,126.848,207.04,109.44,207.04z"/>
	</g>
</g>
<g>
	<g>
		<path d="M217.04,269.04c-16.038,0-29.04,13.002-29.04,29.04c0,16.038,13.002,29.04,29.04,29.04s29.04-13.002,29.04-29.04
			C246.08,282.042,233.078,269.04,217.04,269.04z M230.08,298.08c-0.044,7.171-5.869,12.96-13.04,12.96
			c-7.202,0-13.04-5.838-13.04-13.04c0-7.202,5.838-13.04,13.04-13.04c7.202,0,13.04,5.838,13.04,13.04
			C230.08,298.027,230.08,298.053,230.08,298.08z"/>
	</g>
</g>
<g>
	<g>
		<path d="M250.56,72.88c-16.038,0-29.04,13.002-29.04,29.04c0,16.038,13.002,29.04,29.04,29.04c16.038,0,29.04-13.002,29.04-29.04
			C279.6,85.882,266.598,72.88,250.56,72.88z M263.6,101.92c-0.044,7.171-5.869,12.96-13.04,12.96c-7.202,0-13.04-5.838-13.04-13.04
			c0-7.202,5.838-13.04,13.04-13.04c7.202,0,13.04,5.839,13.04,13.04C263.6,101.867,263.6,101.893,263.6,101.92z"/>
	</g>
</g>
<g>
</g>
<g>
</g>
<g>
</g>
<g>
</g>
<g>
</g>
<g>
</g>
<g>
</g>
<g>
</g>
<g>
</g>
<g>
</g>
<g>
</g>
<g>
</g>
<g>
</g>
<g>
</g>
<g>
</g>
</svg>
