<?xml version="1.0" encoding="UTF-8" standalone="no"?><svg xmlns="http://www.w3.org/2000/svg" xmlns:xlink="http://www.w3.org/1999/xlink" clip-rule="evenodd" stroke-miterlimit="4.00" viewBox="0 0 125 26"><desc>SVG generated by Keynote</desc><defs></defs><g transform="matrix(1.00, 0.00, -0.00, -1.00, 0.0, 26.0)"><path d="M 16.1 9.4 C 15.9 9.4 15.9 8.9 15.5 8.5 C 15.0 8.1 14.4 7.7 14.4 8.1 C 14.4 8.4 14.5 8.7 14.0 8.9 C 13.5 9.1 12.9 9.6 13.1 10.0 C 13.4 10.4 14.6 11.8 15.2 11.7 C 15.8 11.6 16.0 11.6 16.5 11.5 C 16.9 11.5 16.4 12.1 16.4 12.1 C 16.4 12.1 17.1 12.5 17.7 12.9 C 18.3 13.2 18.9 13.5 19.1 13.4 C 19.2 13.4 19.5 13.2 19.5 13.2 C 19.5 13.2 19.7 13.7 20.1 13.9 C 20.5 14.2 20.4 13.9 20.4 13.7 C 20.4 13.5 20.1 12.8 20.3 12.9 C 20.5 13.0 20.7 14.0 21.0 14.2 C 21.3 14.4 22.0 14.6 22.0 14.6 C 22.0 14.6 22.1 14.2 22.2 14.1 C 22.4 14.1 23.1 14.3 23.0 14.5 C 23.0 14.6 22.7 15.0 23.1 15.2 C 24.1 15.7 24.3 14.9 24.4 14.9 C 24.5 14.9 24.3 15.5 24.5 15.7 C 24.7 15.9 26.9 16.6 27.0 16.5 C 27.2 16.4 27.7 17.2 28.2 17.0 C 28.6 16.7 28.8 16.6 28.9 16.5 C 29.0 16.4 29.6 15.9 29.7 16.3 C 29.8 16.6 28.7 17.0 28.9 17.3 C 29.1 17.6 30.4 18.1 30.7 18.0 C 31.1 17.8 31.4 17.2 31.6 17.3 C 31.8 17.3 32.3 18.4 32.4 18.3 C 32.5 18.2 32.8 17.5 32.8 17.4 C 32.9 17.3 33.5 16.1 33.4 15.9 C 33.3 15.7 32.6 15.0 32.6 15.4 C 32.6 15.8 32.7 16.3 32.3 16.3 C 32.0 16.4 31.8 16.3 31.8 16.2 C 31.8 16.1 32.0 16.0 31.6 15.6 C 31.2 15.2 31.6 15.0 31.1 14.9 C 30.7 14.8 30.3 14.7 30.2 15.0 C 30.2 15.3 29.6 15.5 29.3 15.3 C 29.0 15.2 29.7 14.8 28.8 14.2 C 27.9 13.7 27.3 13.4 27.0 13.5 C 26.6 13.6 26.3 14.2 25.9 13.8 C 25.6 13.3 25.9 13.2 25.3 13.0 C 24.7 12.7 24.2 13.2 23.8 13.0 C 23.4 12.9 23.3 12.8 23.3 12.8 C 23.3 12.8 23.8 12.1 22.9 11.7 C 22.1 11.3 21.9 11.2 21.9 11.8 C 21.8 12.4 21.1 12.2 21.2 11.8 C 21.4 11.4 21.0 10.9 20.7 10.7 C 20.4 10.6 19.9 11.4 19.7 11.4 C 19.6 11.4 19.3 11.1 19.5 10.9 C 19.8 10.7 19.5 10.5 19.3 10.2 C 19.0 10.0 18.2 9.7 18.1 9.9 C 18.1 10.0 18.2 10.8 17.8 10.3 C 17.4 9.7 17.4 9.2 16.9 8.9 C 16.4 8.7 16.5 9.5 16.1 9.4 C 16.1 9.4 16.1 9.4 16.1 9.4 Z M 33.8 15.7 C 32.8 15.5 32.7 18.2 32.9 18.8 C 33.1 19.4 33.9 19.3 34.5 19.6 C 35.1 19.9 35.1 19.0 35.6 18.9 C 36.0 18.8 35.8 19.3 35.8 19.7 C 35.9 20.1 37.0 20.0 37.6 20.2 C 38.2 20.4 39.0 19.7 39.5 19.8 C 40.0 19.9 39.2 19.3 40.0 19.5 C 40.9 19.8 40.4 20.1 39.3 20.2 C 38.2 20.2 39.6 20.8 40.1 21.0 C 40.6 21.2 41.6 21.0 42.1 21.2 C 42.5 21.3 42.1 20.5 42.7 20.7 C 43.3 20.8 42.9 21.4 43.5 21.7 C 44.1 21.9 44.2 21.3 44.5 21.2 C 44.9 21.1 44.7 21.5 45.0 21.6 C 45.3 21.7 45.7 21.9 46.3 21.9 C 46.9 21.9 46.8 21.6 47.1 21.6 C 47.4 21.6 47.8 21.7 47.8 21.7 C 47.8 21.9 47.8 22.2 47.8 22.4 C 47.8 22.4 48.9 22.6 49.3 22.7 C 49.6 22.8 50.4 22.6 50.2 22.5 C 50.0 22.3 50.8 22.0 51.0 22.1 C 51.1 22.2 51.6 22.6 52.0 22.8 C 52.3 23.0 52.4 21.3 52.5 21.0 C 52.5 20.8 52.8 19.9 52.5 19.7 C 52.2 19.6 51.9 19.9 52.0 19.7 C 52.1 19.4 51.1 19.6 50.8 19.5 C 50.5 19.5 50.1 20.1 50.1 20.1 C 50.1 20.1 49.8 20.6 49.4 20.5 C 48.9 20.4 48.9 19.4 48.9 19.4 C 48.9 19.4 48.4 19.1 47.9 19.0 C 47.3 19.0 46.6 19.8 46.5 20.0 C 46.3 20.1 46.5 19.3 46.1 19.2 C 45.8 19.0 45.3 18.6 45.1 18.7 C 44.9 18.7 44.6 19.2 44.6 19.2 C 44.6 19.2 43.8 19.3 43.6 19.3 C 43.5 19.3 43.9 18.6 43.9 18.6 C 43.9 18.6 42.5 18.0 42.2 17.9 C 42.0 17.8 41.4 17.9 41.2 17.9 C 41.0 17.9 40.5 18.8 40.2 18.6 C 39.9 18.4 40.6 18.0 40.3 17.9 C 40.0 17.7 39.5 17.4 39.3 17.3 C 39.2 17.3 38.9 17.6 38.6 17.5 C 38.3 17.5 37.8 18.1 37.3 18.0 C 36.9 17.9 36.8 17.4 36.7 17.3 C 36.6 17.1 36.6 16.5 36.3 16.4 C 36.0 16.3 36.1 16.7 35.8 16.7 C 35.4 16.6 35.3 17.0 35.0 16.8 C 34.7 16.7 35.1 16.0 34.8 16.0 C 34.6 15.9 34.8 16.0 33.8 15.7 C 33.8 15.7 33.8 15.7 33.8 15.7 Z M 53.3 19.9 C 52.9 19.5 52.4 19.9 52.4 20.3 C 52.4 20.7 52.5 21.6 52.3 21.9 C 52.1 22.2 51.5 22.8 52.3 23.0 C 53.1 23.3 53.3 23.0 53.3 22.8 C 53.3 22.5 53.6 21.5 53.8 21.6 C 54.0 21.8 54.2 22.1 54.3 22.2 C 54.3 22.3 54.5 23.3 55.0 23.2 C 55.4 23.1 55.8 22.9 55.8 22.9 C 56.0 22.9 56.2 22.9 56.4 22.9 C 56.4 22.9 56.9 23.5 57.4 23.4 C 57.8 23.3 58.3 23.3 58.7 23.4 C 59.0 23.5 59.3 23.4 59.4 23.2 C 59.5 22.9 59.9 22.1 59.9 22.1 C 59.9 22.1 60.4 21.9 60.6 22.0 C 60.9 22.2 60.9 22.7 60.8 22.8 C 60.8 23.0 60.8 23.5 61.2 23.6 C 61.5 23.7 62.9 24.2 63.2 23.9 C 63.4 23.6 63.3 23.2 63.5 23.1 C 63.7 23.1 64.6 23.0 64.7 23.2 C 64.8 23.5 64.7 24.0 65.0 23.9 C 65.3 23.9 65.9 24.0 65.9 23.9 C 65.9 23.7 66.0 23.6 66.1 23.3 C 66.1 23.0 66.6 22.8 66.7 22.6 C 66.8 22.5 67.3 22.4 67.3 22.4 C 67.5 22.6 67.7 22.7 67.8 22.9 C 67.8 22.9 67.5 23.4 67.4 23.5 C 67.2 23.6 67.5 23.9 67.7 23.9 C 67.8 24.0 68.9 23.8 68.9 23.8 C 68.9 23.5 68.9 23.1 68.9 22.7 C 69.2 22.6 69.4 22.5 69.7 22.4 C 69.7 22.4 69.6 23.8 70.1 23.7 C 70.6 23.7 71.3 23.6 71.3 23.6 C 71.3 23.6 71.8 23.1 71.9 23.0 C 72.0 23.0 72.0 21.8 72.0 21.8 C 71.9 21.3 71.8 20.9 71.7 20.4 C 71.7 20.4 71.1 20.0 70.8 20.2 C 70.5 20.4 70.8 20.9 70.7 21.1 C 70.7 21.4 70.2 21.6 70.2 21.6 C 70.0 21.4 69.7 21.1 69.5 20.9 C 69.5 20.9 69.3 20.7 69.1 20.5 C 68.8 20.2 68.1 20.1 67.8 20.2 C 67.6 20.3 67.4 20.7 67.2 20.9 C 66.9 21.2 67.0 21.6 66.6 21.2 C 66.3 20.9 66.1 20.6 66.0 20.6 C 65.8 20.6 65.1 21.1 65.1 21.1 C 64.9 21.2 64.7 21.3 64.5 21.4 C 64.5 21.4 64.0 21.6 63.9 21.3 C 63.8 21.1 62.7 21.4 62.7 21.4 C 62.7 21.4 62.9 20.6 62.6 20.4 C 62.3 20.3 61.9 20.1 61.5 20.2 C 61.0 20.3 60.7 21.1 60.7 21.1 C 60.5 20.9 60.4 20.7 60.3 20.5 C 59.9 20.4 59.5 20.3 59.1 20.3 C 59.1 20.3 58.2 20.3 58.1 20.4 C 58.1 20.5 58.2 21.2 58.1 21.4 C 58.1 21.6 57.6 21.8 57.5 21.6 C 57.5 21.3 57.1 20.7 57.1 20.7 C 57.1 20.7 56.7 20.2 56.5 20.2 C 56.2 20.1 55.8 20.3 55.6 20.4 C 55.5 20.5 55.0 21.0 55.0 21.0 C 54.9 20.8 54.8 20.6 54.8 20.3 C 54.8 20.3 54.0 20.6 53.3 19.9 C 53.3 19.9 53.3 19.9 53.3 19.9 Z M 72.1 20.0 C 71.1 20.1 72.0 22.7 72.4 23.2 C 72.9 23.7 73.5 23.3 74.2 23.3 C 74.9 23.3 74.5 22.5 74.9 22.2 C 75.3 21.9 75.2 22.5 75.4 22.9 C 75.6 23.2 76.6 22.8 77.2 22.7 C 77.8 22.7 78.4 21.7 78.8 21.6 C 79.3 21.5 78.3 21.2 79.2 21.1 C 80.1 21.0 79.8 21.6 78.8 22.0 C 77.8 22.4 79.3 22.4 79.8 22.5 C 80.4 22.5 81.3 21.9 81.7 21.9 C 82.2 21.9 81.5 21.3 82.2 21.2 C 82.8 21.1 82.6 21.8 83.3 21.8 C 84.0 21.8 83.7 21.2 84.0 20.9 C 84.4 20.7 84.4 21.1 84.6 21.1 C 84.9 21.1 85.4 21.2 86.0 20.9 C 86.6 20.7 86.4 20.5 86.6 20.4 C 86.9 20.3 87.4 20.2 87.4 20.2 C 87.5 20.4 87.6 20.6 87.7 20.8 C 87.7 20.8 88.8 20.6 89.1 20.5 C 89.5 20.5 90.2 20.0 89.9 19.9 C 89.7 19.9 90.3 19.2 90.5 19.3 C 90.7 19.3 91.4 19.5 91.8 19.5 C 92.2 19.6 91.6 18.0 91.6 17.7 C 91.5 17.5 91.5 16.5 91.1 16.5 C 90.8 16.5 90.6 16.9 90.6 16.7 C 90.6 16.4 89.7 16.9 89.4 17.0 C 89.1 17.1 89.0 17.8 89.0 17.8 C 89.0 17.8 88.8 18.4 88.4 18.5 C 87.9 18.6 87.5 17.6 87.5 17.6 C 87.5 17.6 86.9 17.5 86.4 17.7 C 85.9 17.8 85.5 18.8 85.4 19.1 C 85.3 19.3 85.2 18.5 84.8 18.5 C 84.4 18.4 83.8 18.3 83.6 18.4 C 83.5 18.5 83.3 19.0 83.3 19.0 C 83.3 19.0 82.7 19.5 82.5 19.5 C 82.3 19.6 82.5 18.7 82.5 18.7 C 82.5 18.7 81.0 18.8 80.7 18.8 C 80.3 18.8 79.9 19.1 79.7 19.1 C 79.5 19.2 79.3 20.3 79.0 20.2 C 78.6 20.2 79.2 19.5 78.9 19.5 C 78.5 19.4 77.9 19.3 77.7 19.4 C 77.6 19.4 77.4 19.7 77.2 19.8 C 76.9 19.9 76.6 20.7 76.2 20.8 C 75.7 20.8 75.5 20.4 75.3 20.3 C 75.1 20.2 74.9 19.6 74.6 19.6 C 74.3 19.6 74.5 20.1 74.2 20.1 C 73.9 20.1 74.0 20.6 73.6 20.6 C 73.3 20.5 73.4 19.7 73.1 19.8 C 72.9 19.9 73.1 19.8 72.1 20.0 C 72.1 20.0 72.1 20.0 72.1 20.0 Z M 92.0 16.4 C 91.4 16.2 91.1 16.7 91.3 17.1 C 91.4 17.4 91.9 18.3 91.8 18.6 C 91.7 18.9 91.3 19.7 92.2 19.6 C 93.1 19.5 93.2 19.2 93.1 19.0 C 93.0 18.8 92.9 17.8 93.2 17.8 C 93.4 17.8 93.7 18.0 93.8 18.1 C 93.9 18.2 94.5 19.1 94.9 18.8 C 95.2 18.6 95.5 18.2 95.5 18.2 C 95.7 18.1 95.9 18.0 96.1 17.9 C 96.1 17.9 96.9 18.3 97.3 18.0 C 97.7 17.8 98.2 17.6 98.6 17.5 C 98.9 17.4 99.2 17.2 99.2 17.0 C 99.2 16.8 99.4 15.8 99.4 15.8 C 99.4 15.8 99.8 15.4 100.1 15.5 C 100.3 15.5 100.6 15.9 100.6 16.1 C 100.6 16.3 100.8 16.7 101.1 16.7 C 101.5 16.7 103.2 16.5 103.3 16.2 C 103.4 15.9 103.2 15.5 103.4 15.4 C 103.5 15.2 104.4 14.8 104.6 15.0 C 104.8 15.2 104.9 15.7 105.2 15.5 C 105.4 15.3 106.1 15.2 106.0 15.1 C 106.0 15.0 106.1 14.8 106.0 14.5 C 105.9 14.3 106.4 13.8 106.5 13.6 C 106.5 13.5 106.9 13.2 106.9 13.2 C 107.2 13.3 107.4 13.3 107.7 13.4 C 107.7 13.4 107.6 14.0 107.4 14.2 C 107.3 14.3 107.7 14.5 107.9 14.5 C 108.1 14.4 109.1 13.9 109.1 13.9 C 109.0 13.5 108.9 13.2 108.7 12.8 C 108.9 12.6 109.2 12.4 109.4 12.2 C 109.4 12.2 109.8 13.5 110.4 13.3 C 110.9 13.1 111.5 12.8 111.5 12.8 C 111.5 12.8 111.8 12.1 111.9 12.0 C 112.0 11.9 111.6 10.7 111.6 10.7 C 111.3 10.3 111.1 9.9 110.9 9.5 C 110.9 9.5 110.1 9.4 109.8 9.7 C 109.6 10.0 110.0 10.4 110.1 10.6 C 110.1 10.9 109.7 11.3 109.7 11.3 C 109.4 11.2 109.0 11.0 108.7 10.9 C 108.7 10.9 108.4 10.8 108.1 10.7 C 107.8 10.5 107.0 10.8 106.8 10.9 C 106.6 11.1 106.5 11.5 106.3 11.8 C 106.1 12.2 106.3 12.5 105.9 12.4 C 105.4 12.2 105.1 11.9 104.9 12.0 C 104.8 12.1 104.2 12.8 104.2 12.8 C 104.1 13.0 103.9 13.2 103.7 13.3 C 103.7 13.3 103.3 13.8 103.1 13.5 C 102.9 13.3 101.9 14.0 101.9 14.0 C 101.9 14.0 101.8 13.2 101.4 13.2 C 101.1 13.2 100.6 13.2 100.2 13.5 C 99.8 13.7 99.8 14.6 99.8 14.6 C 99.5 14.5 99.3 14.3 99.1 14.2 C 98.7 14.3 98.3 14.4 97.8 14.4 C 97.8 14.4 96.9 14.8 97.0 14.9 C 97.0 15.1 97.3 15.7 97.3 15.9 C 97.3 16.1 96.9 16.5 96.8 16.3 C 96.6 16.1 96.0 15.6 96.0 15.6 C 96.0 15.6 95.5 15.3 95.2 15.4 C 94.9 15.4 94.5 15.8 94.5 15.9 C 94.4 16.1 94.1 16.7 94.1 16.7 C 93.9 16.6 93.7 16.4 93.6 16.2 C 93.6 16.2 92.9 16.7 92.0 16.4 C 92.0 16.4 92.0 16.4 92.0 16.4 Z M 92.0 16.4 " fill="#FF2600"></path><path d="M 110.5 13.5 C 109.4 13.7 109.6 11.5 108.5 11.6 C 107.3 11.8 108.5 10.1 109.1 9.3 C 109.2 9.3 109.2 9.2 109.2 9.2 C 109.4 9.0 109.6 8.9 109.8 8.8 C 109.4 9.0 109.9 8.0 109.5 7.9 C 109.5 7.8 108.8 8.2 108.8 8.1 C 108.4 7.9 108.0 7.9 107.4 7.7 C 107.4 7.7 107.3 7.7 107.2 7.6 C 107.2 7.6 107.1 7.6 107.1 7.6 C 106.9 7.5 106.8 6.8 106.7 6.7 C 106.6 6.7 106.1 6.7 106.0 6.7 C 105.9 6.6 106.1 7.2 106.0 7.1 C 105.9 7.1 105.7 6.9 105.7 6.9 C 105.4 6.7 105.3 6.7 105.0 6.6 C 104.9 6.6 104.8 6.6 104.8 6.6 C 104.3 6.8 103.9 6.3 103.4 6.0 C 103.4 6.0 102.7 5.0 102.6 5.0 C 102.5 4.9 102.5 5.0 102.4 4.9 C 102.3 4.9 102.3 4.8 102.3 4.7 C 102.3 4.5 102.6 4.2 102.9 4.4 C 103.2 4.5 101.5 4.2 101.7 3.9 C 102.0 3.4 102.2 3.9 102.6 4.1 C 103.0 4.1 103.2 3.4 103.7 3.8 C 103.9 3.9 105.0 4.8 105.1 4.4 C 104.8 4.1 104.7 4.5 104.8 4.0 C 104.8 3.5 105.4 3.9 105.6 3.9 C 105.8 4.0 105.9 3.7 106.0 3.7 C 106.5 3.7 106.9 3.6 107.4 3.7 C 107.5 3.7 108.2 5.1 108.4 4.2 C 108.5 3.8 108.5 3.6 109.0 3.8 C 109.1 3.8 109.1 3.9 109.2 4.0 C 109.2 4.0 109.3 4.1 109.3 4.2 C 109.3 4.2 109.4 4.3 109.5 4.3 C 109.7 4.3 109.9 4.3 110.1 4.3 C 110.0 4.2 110.1 4.2 110.1 4.0 C 110.6 4.2 111.1 4.6 111.6 4.7 C 112.1 4.7 111.0 4.4 111.1 3.9 C 111.4 3.8 112.7 4.0 113.0 4.2 C 113.3 4.2 112.5 4.8 112.8 5.1 C 112.9 5.3 113.6 4.8 113.7 5.1 C 113.7 5.3 114.4 5.1 114.6 5.1 C 114.7 5.1 114.9 4.5 114.9 4.5 C 115.1 4.5 115.2 4.4 115.2 4.4 C 115.3 4.4 115.4 4.4 115.6 4.5 C 115.6 4.5 115.8 5.0 115.8 5.1 C 115.7 5.0 116.0 4.8 116.0 4.7 C 116.2 4.5 116.6 4.5 116.7 4.6 C 116.7 4.7 116.9 4.8 116.9 4.8 C 117.4 4.9 117.0 5.0 117.5 5.0 C 117.7 5.0 117.9 5.0 118.2 4.9 L 119.4 5.1 C 119.4 5.2 120.1 5.3 120.2 5.3 C 121.6 5.5 120.3 6.6 120.3 6.8 C 120.3 6.8 120.1 7.3 120.1 7.4 C 119.8 7.8 119.5 8.2 119.5 8.7 C 119.5 8.7 119.3 9.0 119.3 9.0 C 119.4 6.7 117.9 11.4 119.0 10.5 C 119.0 10.5 119.0 10.6 119.0 10.7 C 119.0 10.7 118.8 10.9 118.8 11.0 C 118.7 11.1 118.6 10.9 118.4 11.1 C 118.2 11.5 118.2 11.6 117.9 11.8 C 117.6 12.0 118.1 11.9 117.8 12.9 C 117.6 9.8 116.5 12.0 116.1 13.0 C 115.9 13.3 117.1 13.6 116.9 14.0 C 116.1 15.4 116.2 13.9 116.1 13.8 C 116.1 14.0 115.8 13.4 115.4 14.8 C 115.4 15.0 115.6 15.4 115.5 15.5 C 115.5 15.8 115.2 16.3 114.9 16.6 C 114.5 16.7 114.0 16.5 113.8 16.8 C 113.6 17.2 113.9 17.4 114.1 17.7 C 114.1 17.8 113.1 18.5 113.3 18.7 C 113.4 18.6 113.4 18.6 113.5 18.5 L 113.6 18.6 C 113.4 18.8 113.6 19.0 113.5 19.1 L 113.2 19.7 C 113.1 19.8 112.7 18.3 112.6 18.4 C 109.9 21.7 112.6 20.1 112.5 20.3 C 112.5 20.3 112.3 20.4 112.0 20.6 C 112.0 20.7 111.9 20.7 111.8 20.8 C 111.7 21.2 111.4 21.5 111.1 21.7 C 111.0 21.8 110.9 21.8 110.8 21.9 C 110.6 22.0 110.2 22.1 110.1 21.9 C 110.0 21.2 110.2 20.8 110.4 20.1 C 110.4 20.1 110.4 20.0 110.4 19.9 C 110.5 19.7 110.6 19.4 110.5 19.0 C 110.5 18.9 110.6 18.9 110.6 18.8 C 110.7 18.1 110.6 17.4 110.5 16.8 C 110.5 16.7 111.1 16.4 111.1 16.4 C 111.0 16.2 110.5 16.2 110.7 16.0 C 110.7 16.0 111.3 15.3 111.4 15.2 C 111.5 15.0 111.0 15.4 111.1 15.1 C 111.1 15.1 111.2 15.0 111.2 14.9 C 111.0 14.3 112.4 13.5 111.6 13.1 C 110.5 13.3 111.7 13.3 110.5 13.5 Z M 102.3 5.4 C 102.5 5.3 102.5 5.3 102.5 5.5 C 102.4 5.5 102.3 5.4 102.3 5.4 Z M 103.0 5.1 C 103.1 5.1 103.2 5.1 103.3 5.1 C 103.6 4.9 103.7 5.1 103.9 5.3 C 103.9 5.4 104.1 5.7 104.1 5.8 C 104.3 6.1 104.3 6.3 104.3 6.1 C 104.3 6.1 104.4 6.2 104.7 6.2 C 104.7 6.1 104.6 6.0 104.5 5.9 C 104.5 5.9 104.8 5.7 104.8 5.6 C 104.7 5.6 104.3 5.6 104.2 5.5 C 104.2 5.4 104.0 5.0 104.0 5.0 C 103.9 5.0 103.3 4.8 103.2 5.0 C 103.1 5.1 103.1 5.1 103.0 5.1 Z M 107.6 6.0 C 107.9 6.1 108.1 6.3 108.2 6.5 C 108.2 6.5 108.3 6.6 108.3 6.6 C 108.4 6.8 108.4 6.9 108.4 6.9 C 108.6 7.0 108.6 6.7 108.6 6.9 C 108.5 6.7 108.5 6.6 108.5 6.6 C 108.5 6.5 108.5 6.5 108.5 6.4 C 108.5 6.0 108.2 5.8 107.7 5.8 C 107.6 5.9 107.6 5.9 107.6 6.0 Z M 104.8 4.8 C 105.4 6.1 105.6 6.0 105.0 4.7 C 104.9 4.7 104.9 4.8 104.8 4.8 Z M 106.5 7.2 C 106.4 7.2 106.3 7.2 106.3 7.2 C 106.3 7.3 106.6 7.5 106.6 7.3 C 106.5 7.3 106.5 7.4 106.5 7.2 Z M 107.0 5.8 C 107.4 5.7 107.4 5.7 107.5 5.5 C 107.6 5.5 107.7 5.4 107.7 5.4 C 107.7 5.4 107.5 5.4 107.4 5.5 C 107.2 5.5 107.1 5.6 107.1 5.6 C 107.1 5.6 107.1 5.7 107.0 5.8 Z M 107.2 4.8 C 107.0 4.7 106.8 4.7 106.7 4.7 C 106.7 5.2 107.2 5.1 107.4 4.9 C 107.4 4.8 107.3 4.8 107.2 4.8 Z M 108.1 7.7 C 108.2 7.7 108.7 7.7 108.8 7.9 C 109.3 7.7 109.2 7.5 108.9 7.1 C 108.9 7.6 107.8 7.2 107.1 7.0 C 107.1 7.0 108.1 7.7 108.1 7.7 Z M 109.1 5.2 C 109.2 5.3 109.1 5.5 109.1 5.6 C 109.1 5.7 109.1 5.8 109.1 5.9 C 109.1 6.0 109.1 6.1 109.1 6.1 C 109.1 6.2 109.1 6.2 109.1 6.3 C 109.5 6.5 109.3 7.2 109.8 7.2 C 109.7 7.0 109.7 7.0 109.6 6.7 C 109.5 6.7 109.5 6.6 109.5 6.6 C 109.4 6.5 109.4 6.4 109.4 6.4 C 109.4 6.3 109.4 6.2 109.4 6.2 C 109.3 6.1 109.3 6.0 109.3 5.9 C 109.3 5.8 109.3 5.8 109.2 5.7 C 109.2 5.5 109.2 5.4 109.3 5.3 C 109.3 5.3 109.2 5.2 109.1 5.2 Z M 115.8 6.8 C 115.7 6.9 115.8 7.0 115.9 7.0 C 115.9 6.9 116.0 6.9 116.1 6.8 C 116.1 6.8 116.1 6.7 116.2 6.7 C 116.1 6.7 116.1 6.7 116.0 6.7 C 115.9 6.7 115.9 6.8 115.8 6.8 Z M 117.8 6.8 C 117.9 6.9 118.0 6.8 118.1 6.8 C 118.2 6.7 118.3 6.7 118.3 6.6 C 118.3 6.6 118.4 6.5 118.5 6.5 C 118.5 6.4 118.6 6.4 118.6 6.4 C 119.0 6.3 118.9 6.6 119.1 6.0 C 118.7 6.2 118.5 5.6 118.4 6.3 C 118.4 6.3 118.3 6.3 118.2 6.3 C 118.2 6.3 118.1 6.4 118.0 6.4 C 118.0 6.4 118.0 6.3 117.9 6.4 L 117.9 6.4 C 117.7 6.3 117.6 6.8 117.8 6.8 Z M 116.8 5.2 C 114.4 6.4 115.6 6.1 116.8 5.4 C 116.8 5.3 116.8 5.3 116.8 5.2 Z M 117.7 8.3 C 117.8 8.2 117.8 8.1 117.9 8.1 L 117.9 8.1 C 117.8 8.0 117.8 7.9 117.6 8.0 C 117.4 8.1 117.5 8.2 117.5 8.4 C 117.4 8.4 117.1 8.7 117.2 8.7 C 117.4 8.7 117.7 8.5 117.7 8.3 Z M 117.8 9.4 C 117.6 9.4 117.4 9.8 117.4 10.0 C 117.4 9.8 118.0 9.5 117.8 9.4 Z M 116.3 8.2 C 116.4 8.1 116.5 8.1 116.5 8.0 C 116.5 7.9 116.5 7.9 116.6 7.8 L 116.5 7.8 C 116.4 7.8 116.4 7.7 116.3 7.8 C 116.2 7.9 116.3 8.0 116.2 8.1 C 116.2 8.2 116.1 8.2 116.0 8.2 C 116.1 8.3 116.2 8.2 116.3 8.2 Z M 113.3 6.2 C 113.3 6.3 113.3 6.3 113.4 6.3 C 113.4 6.3 113.5 6.3 113.5 6.3 C 113.6 6.3 113.5 6.2 113.4 6.1 C 113.3 6.1 113.2 6.1 113.3 6.2 Z M 113.4 6.6 C 113.8 6.9 114.0 6.8 114.4 6.7 C 114.1 6.6 113.7 6.5 113.4 6.6 Z M 114.4 8.0 C 114.4 7.9 114.5 7.9 114.6 7.8 C 114.5 7.8 114.4 7.8 114.4 7.7 C 114.3 7.8 114.3 7.9 114.4 8.0 Z M 113.2 4.7 C 113.2 4.8 113.1 4.8 113.1 4.9 C 113.2 4.8 113.2 4.8 113.3 4.8 C 113.3 4.8 113.2 4.8 113.2 4.7 Z M 114.5 4.5 C 114.3 4.5 114.1 4.6 113.9 4.6 L 113.6 4.7 C 113.9 4.9 114.2 4.8 114.4 4.8 C 114.5 4.8 114.6 4.7 114.5 4.5 Z M 114.5 5.7 C 114.3 5.5 114.2 5.4 114.0 5.6 C 114.1 5.6 114.3 5.7 114.5 5.7 Z M 117.3 12.7 C 117.3 12.8 117.1 13.2 117.1 13.2 C 117.4 13.2 117.4 12.6 117.3 12.7 Z M 118.3 11.0 C 118.2 10.8 117.8 10.8 117.7 11.0 C 117.9 11.5 118.1 11.3 118.3 11.0 Z M 116.2 11.1 C 116.3 11.0 116.5 10.8 116.5 10.8 C 116.2 10.9 116.2 11.0 116.0 11.1 C 116.2 11.0 116.2 11.0 116.2 11.1 Z M 116.0 10.4 C 116.0 10.2 116.2 10.2 116.3 10.1 C 116.0 10.1 115.8 10.2 115.6 10.3 C 115.5 10.4 115.5 10.4 115.6 10.5 C 115.5 10.8 115.9 10.4 116.0 10.4 Z M 111.2 20.0 C 111.2 19.9 111.3 19.8 111.3 19.6 C 111.4 19.4 111.5 19.1 111.2 18.9 C 111.3 19.1 111.4 19.3 111.2 19.5 C 111.2 19.6 111.1 19.7 111.1 19.7 C 111.1 19.8 111.2 19.9 111.2 20.0 Z M 110.9 17.8 C 110.8 18.2 110.6 18.4 110.9 18.8 C 111.2 18.4 111.0 17.9 111.0 17.6 C 110.9 17.7 110.9 17.8 110.9 17.8 Z M 111.3 18.5 C 111.4 18.2 111.6 18.5 111.7 18.3 C 111.6 18.2 111.5 18.2 111.4 18.4 C 111.4 18.4 111.3 18.5 111.3 18.5 Z M 111.2 17.0 C 111.6 17.0 111.1 17.6 111.6 17.6 C 111.5 17.4 111.4 17.1 111.3 17.0 C 111.3 17.0 111.2 16.9 111.2 17.0 Z M 109.6 4.7 C 110.4 6.1 110.6 6.0 109.9 4.7 C 109.7 4.7 109.6 4.7 109.6 4.7 Z M 110.3 8.1 C 110.9 7.9 110.0 8.2 110.7 7.9 C 110.7 7.9 110.9 8.1 111.0 8.1 C 110.9 8.1 111.0 8.3 110.8 8.4 C 110.0 8.7 110.7 8.7 109.9 8.4 C 109.9 8.4 110.3 8.1 110.3 8.1 Z M 111.2 5.4 C 111.2 5.5 111.2 5.5 111.3 5.5 C 111.5 5.5 111.6 5.4 111.8 5.4 C 111.6 5.4 111.4 5.4 111.2 5.4 Z M 113.7 9.3 C 113.8 9.3 113.9 9.2 114.0 9.2 C 113.9 9.1 113.7 9.2 113.7 9.3 Z M 119.2 9.8 C 119.2 9.8 119.2 9.7 119.3 9.7 C 119.2 9.7 119.2 9.6 119.1 9.7 C 119.1 9.7 119.2 9.8 119.2 9.8 Z M 112.4 5.7 C 112.5 5.6 112.4 5.6 112.4 5.5 C 112.3 5.4 112.2 5.4 112.1 5.4 C 112.1 5.4 112.0 5.5 112.0 5.5 C 112.1 5.7 112.1 5.7 112.3 5.7 C 112.3 5.7 112.4 5.7 112.4 5.7 Z M 111.3 14.0 C 111.3 13.9 111.3 13.9 111.3 13.8 C 111.3 13.7 111.1 13.7 111.0 13.7 C 111.0 13.7 110.9 13.8 110.9 13.8 C 111.0 14.0 111.0 14.0 111.2 14.0 C 111.2 14.0 111.3 14.0 111.3 14.0 Z M 101.9 4.7 C 102.0 4.5 101.9 4.4 101.9 4.4 C 101.8 4.2 101.5 4.1 101.3 4.2 C 101.2 4.2 101.1 4.2 101.0 4.3 C 101.3 4.7 101.3 4.7 101.6 4.8 C 101.7 4.7 101.9 4.7 101.9 4.7 Z M 108.3 3.7 C 108.3 3.6 108.3 3.6 108.2 3.5 C 108.2 3.5 108.1 3.4 108.0 3.4 C 107.9 3.5 107.9 3.5 107.8 3.5 C 107.9 3.7 107.9 3.7 108.1 3.8 C 108.2 3.7 108.2 3.7 108.3 3.7 Z M 116.9 12.6 C 116.9 12.5 117.1 11.9 117.0 11.9 C 116.9 12.0 116.5 12.8 116.4 13.0 C 116.5 13.1 116.7 12.6 116.9 12.6 Z M 114.6 12.7 C 114.9 12.3 115.0 12.2 114.6 11.7 C 114.5 11.8 114.4 12.0 114.3 12.1 C 114.2 12.3 114.1 12.5 114.1 12.6 C 114.2 12.9 114.2 12.9 114.2 13.1 C 114.3 13.1 114.4 13.0 114.5 12.9 C 114.5 12.8 114.6 12.7 114.6 12.7 Z M 112.5 19.5 C 112.7 19.3 112.8 19.2 112.5 18.9 C 112.4 19.0 112.4 19.1 112.3 19.2 C 112.3 19.3 112.2 19.4 112.2 19.5 C 112.3 19.7 112.3 19.7 112.3 19.8 C 112.3 19.8 112.4 19.8 112.4 19.7 C 112.5 19.6 112.5 19.6 112.5 19.5 Z M 114.5 11.6 C 114.4 11.5 114.3 11.6 114.2 11.8 C 114.3 11.8 114.4 11.7 114.5 11.6 Z M 112.3 12.4 C 112.4 12.3 112.4 12.2 112.3 12.0 C 111.8 12.1 111.4 12.5 111.0 12.8 C 111.5 12.8 111.9 12.5 112.3 12.4 Z M 112.5 8.9 C 112.5 9.1 111.8 8.9 111.9 9.4 C 112.0 9.4 112.0 9.4 112.1 9.4 C 112.2 9.3 112.3 9.3 112.4 9.1 C 112.5 9.0 112.5 9.0 112.5 8.9 Z M 116.5 14.9 C 116.5 15.1 115.8 14.9 115.9 15.4 C 116.0 15.4 116.0 15.4 116.1 15.4 C 116.2 15.3 116.3 15.2 116.4 15.1 C 116.5 15.0 116.5 15.0 116.5 14.9 Z M 114.5 15.3 C 114.6 15.2 114.6 15.1 114.6 14.9 C 114.5 14.8 114.5 14.7 114.5 14.6 C 114.3 14.8 114.1 14.9 114.2 15.0 C 114.1 15.1 114.1 15.2 114.1 15.2 C 114.1 15.3 114.1 15.4 114.1 15.6 C 114.3 15.4 114.3 15.5 114.5 15.3 Z M 114.4 17.0 C 114.3 17.0 114.0 17.0 114.1 17.2 C 114.1 17.3 114.4 17.0 114.4 17.0 Z M 113.4 16.9 C 113.4 16.9 113.2 17.0 113.1 17.1 C 113.1 17.2 113.6 17.1 113.4 16.9 Z M 112.9 15.8 C 112.8 15.9 112.7 16.0 112.6 16.0 C 112.8 16.1 112.9 15.9 112.9 15.8 Z M 111.6 16.0 C 111.4 16.0 111.4 16.0 111.4 16.3 C 111.4 16.4 111.5 16.5 111.5 16.5 C 111.6 16.7 111.8 16.9 111.6 17.0 C 111.9 17.1 111.9 16.6 112.1 16.5 C 112.1 16.3 112.0 16.1 111.8 16.0 C 111.8 16.0 111.7 16.0 111.7 16.0 C 111.7 16.0 111.6 16.0 111.6 16.0 Z M 112.9 17.8 L 113.0 17.7 C 113.1 17.5 113.2 17.3 113.0 17.3 C 112.9 17.4 112.8 17.7 112.9 17.8 Z M 111.9 15.7 C 112.0 15.7 112.0 15.7 112.3 15.6 C 112.3 15.5 112.4 15.5 112.5 15.5 C 112.8 15.2 113.0 15.0 113.1 14.6 C 112.8 14.6 112.6 14.9 112.4 15.3 C 112.4 15.3 112.3 15.4 112.3 15.4 C 112.2 15.6 112.0 15.7 112.0 15.7 C 112.0 15.7 111.9 15.7 111.9 15.7 Z M 112.3 14.6 C 112.4 14.6 112.5 14.5 112.6 14.5 C 112.8 14.3 113.0 14.1 112.5 14.4 C 112.5 14.4 112.4 14.4 112.3 14.5 C 112.2 14.6 112.2 14.6 112.3 14.6 Z M 113.2 14.4 C 113.4 14.4 113.5 14.4 113.6 14.3 C 113.7 14.3 113.8 14.3 113.8 14.4 C 113.9 14.4 114.0 14.4 114.1 14.4 C 114.2 14.3 114.2 14.2 114.2 14.0 C 114.1 14.3 113.8 14.0 113.6 14.1 C 113.5 14.1 113.5 14.1 113.4 14.2 C 113.3 14.3 113.3 14.4 113.2 14.4 Z M 112.4 10.3 C 112.1 10.2 111.8 9.6 111.6 10.1 C 111.8 10.3 112.2 10.4 112.4 10.3 Z M 110.5 9.7 C 110.5 9.8 110.6 9.8 110.6 9.8 C 110.6 9.8 110.6 9.9 110.7 10.0 C 110.7 10.0 110.7 10.0 110.8 10.0 C 111.0 10.0 111.1 10.0 111.2 9.8 C 111.2 9.6 111.1 9.7 110.9 9.8 C 110.8 9.8 110.7 9.9 110.6 9.9 C 110.5 9.9 110.5 9.8 110.5 9.7 L 110.5 9.7 Z M 111.1 11.4 C 111.1 11.4 111.1 11.3 111.1 11.2 C 111.2 11.1 111.2 11.0 111.2 10.9 C 111.1 10.9 111.0 10.9 110.9 11.0 C 110.8 11.0 110.7 11.1 110.6 11.1 C 110.5 11.2 110.3 11.3 110.1 11.6 C 110.1 11.6 110.1 11.7 110.1 11.7 C 110.1 11.8 110.1 11.8 110.2 11.9 C 110.2 11.9 110.4 11.8 110.5 11.8 C 110.7 11.7 110.8 11.6 110.9 11.6 C 110.9 11.5 111.0 11.5 111.1 11.4 Z M 110.5 12.1 C 110.4 12.0 110.3 12.0 110.2 12.1 C 110.2 12.2 110.3 12.2 110.5 12.1 Z M 109.8 10.6 C 109.9 10.5 109.6 10.6 109.6 10.7 C 109.7 10.7 109.7 10.6 109.8 10.6 Z M 110.0 13.0 C 110.4 12.7 110.0 12.5 109.9 12.5 C 109.9 12.5 110.0 12.9 110.0 13.0 Z M 110.0 13.0 " fill="#FF2600"></path><path d="M 16.4 8.5 C 17.2 9.3 15.2 10.3 16.0 11.2 C 16.8 12.0 14.7 12.0 13.7 11.9 C 13.6 11.9 13.5 11.9 13.5 11.9 C 13.3 11.8 13.1 11.7 12.9 11.6 C 13.3 11.8 12.2 11.9 12.3 12.3 C 12.3 12.4 12.8 12.8 12.9 12.8 C 12.9 13.3 13.1 13.6 13.3 14.2 C 13.3 14.2 13.3 14.3 13.3 14.4 C 13.3 14.5 13.3 14.5 13.3 14.6 C 13.4 14.7 12.8 15.2 12.8 15.3 C 12.8 15.4 13.2 15.9 13.2 15.9 C 13.2 16.1 13.5 15.6 13.5 15.7 C 13.5 15.8 13.5 16.0 13.5 16.1 C 13.4 16.4 13.5 16.5 13.6 16.8 C 13.7 16.9 13.7 17.0 13.7 17.0 C 14.1 17.3 14.0 17.9 14.0 18.4 C 14.0 18.5 13.5 19.7 13.6 19.7 C 13.6 19.8 13.6 19.8 13.6 19.9 C 13.6 20.0 13.5 20.1 13.5 20.1 C 13.3 20.2 12.9 20.1 12.9 19.8 C 12.8 19.4 13.5 21.0 13.1 21.0 C 12.5 21.1 12.9 20.6 12.8 20.2 C 12.6 19.9 11.9 20.1 11.9 19.4 C 11.9 19.2 12.1 17.8 11.7 17.9 C 11.6 18.3 12.0 18.2 11.6 18.4 C 11.2 18.7 11.1 18.0 11.1 17.8 C 11.0 17.6 10.7 17.6 10.6 17.5 C 10.4 17.1 10.0 16.9 9.9 16.4 C 9.8 16.3 10.7 15.0 9.8 15.3 C 9.4 15.4 9.2 15.5 9.1 15.0 C 9.1 14.9 9.1 14.8 9.1 14.7 C 9.2 14.6 9.2 14.6 9.3 14.5 C 9.3 14.4 9.3 14.4 9.2 14.3 C 9.1 14.1 9.0 14.0 8.9 13.8 C 8.9 13.9 8.8 13.9 8.7 14.0 C 8.6 13.4 8.7 12.8 8.4 12.3 C 8.2 11.9 8.5 13.0 8.0 13.2 C 7.8 12.9 7.3 11.7 7.3 11.4 C 7.1 11.1 8.1 11.5 8.2 11.1 C 8.3 10.8 7.4 10.6 7.7 10.3 C 7.8 10.2 7.3 9.7 7.2 9.6 C 7.1 9.5 6.5 9.7 6.5 9.6 C 6.4 9.5 6.3 9.5 6.2 9.4 C 6.1 9.4 6.1 9.3 6.1 9.1 C 6.1 9.0 6.5 8.6 6.5 8.6 C 6.4 8.7 6.1 8.5 6.1 8.6 C 5.8 8.6 5.6 8.2 5.6 8.1 C 5.6 8.0 5.6 7.8 5.6 7.8 C 5.4 7.3 5.8 7.6 5.5 7.2 C 5.4 7.0 5.3 6.8 5.1 6.7 L 4.6 5.5 C 4.6 5.5 4.4 4.8 4.3 4.7 C 3.7 3.5 5.4 4.0 5.5 3.9 C 5.6 3.9 6.1 3.7 6.1 3.7 C 6.6 3.7 7.2 3.7 7.5 3.5 C 7.6 3.5 7.9 3.5 7.9 3.5 C 5.9 4.7 10.7 3.4 9.4 3.0 C 9.3 3.0 9.4 2.9 9.5 2.8 C 9.5 2.8 9.8 2.9 9.8 2.9 C 10.0 2.9 9.9 3.1 10.2 3.1 C 10.5 3.1 10.7 3.1 11.0 3.2 C 11.3 3.3 11.0 2.9 12.0 2.7 C 9.5 4.5 11.9 4.3 13.0 4.0 C 13.4 4.0 13.0 2.8 13.3 2.8 C 15.0 2.7 13.7 3.4 13.6 3.6 C 13.9 3.5 13.5 4.0 14.9 3.6 C 15.1 3.5 15.3 3.2 15.4 3.1 C 15.7 3.0 16.3 3.0 16.6 3.1 C 17.0 3.3 17.1 3.9 17.5 3.9 C 17.9 3.9 17.9 3.5 18.0 3.1 C 18.1 3.1 19.2 3.6 19.3 3.3 C 19.2 3.2 19.1 3.2 19.1 3.3 L 19.1 3.1 C 19.4 3.2 19.4 2.9 19.5 2.9 L 20.2 2.9 C 20.3 2.9 19.3 4.0 19.5 4.1 C 23.7 4.5 20.9 3.1 21.1 3.1 C 21.1 3.1 21.3 3.2 21.6 3.3 C 21.7 3.4 21.8 3.4 21.8 3.4 C 22.2 3.3 22.6 3.4 23.0 3.5 C 23.1 3.6 23.2 3.6 23.3 3.7 C 23.5 3.8 23.9 4.0 23.8 4.2 C 23.2 4.7 22.7 4.8 22.1 5.0 C 22.0 5.0 21.9 5.0 21.9 5.0 C 21.6 5.1 21.3 5.2 21.1 5.4 C 21.0 5.5 20.9 5.5 20.8 5.5 C 20.2 5.8 19.7 6.2 19.2 6.7 C 19.2 6.7 18.6 6.4 18.6 6.4 C 18.4 6.6 18.7 7.0 18.5 6.9 C 18.4 6.9 17.5 6.8 17.4 6.8 C 17.1 6.8 17.7 7.0 17.5 7.1 C 17.4 7.1 17.3 7.1 17.2 7.1 C 16.8 7.6 15.4 6.9 15.5 7.7 C 16.3 8.6 15.6 7.6 16.4 8.5 Z M 14.1 19.7 C 13.9 19.7 13.9 19.7 14.1 19.5 C 14.1 19.6 14.1 19.7 14.1 19.7 Z M 13.4 19.3 C 13.3 19.3 13.3 19.2 13.3 19.1 C 13.0 19.0 13.0 18.7 13.2 18.5 C 13.2 18.4 13.4 18.1 13.4 18.0 C 13.6 17.6 13.7 17.6 13.6 17.6 C 13.6 17.7 13.6 17.5 13.4 17.3 C 13.4 17.3 13.3 17.5 13.3 17.6 C 13.3 17.6 13.0 17.5 12.9 17.5 C 12.9 17.6 13.2 17.9 13.1 18.1 C 13.1 18.1 12.8 18.5 12.8 18.6 C 12.9 18.6 13.1 19.2 13.3 19.2 C 13.3 19.2 13.4 19.3 13.4 19.3 Z M 11.6 15.0 C 11.6 14.6 11.7 14.4 11.8 14.2 C 11.8 14.1 11.8 14.1 11.9 14.0 C 11.9 13.9 12.0 13.8 12.0 13.8 C 12.0 13.6 11.8 13.7 11.9 13.7 C 11.8 13.8 11.7 13.9 11.8 13.9 C 11.7 13.9 11.6 14.0 11.6 14.0 C 11.2 14.2 11.2 14.6 11.5 15.0 C 11.6 15.0 11.6 15.1 11.6 15.0 Z M 12.2 18.0 C 13.0 16.7 12.8 16.6 12.0 17.8 C 12.1 17.9 12.1 17.9 12.2 18.0 Z M 13.3 15.2 C 13.4 15.3 13.4 15.4 13.5 15.4 C 13.5 15.3 13.5 15.0 13.3 15.1 C 13.4 15.2 13.4 15.1 13.3 15.2 Z M 11.9 15.5 C 11.5 15.3 11.5 15.3 11.4 15.3 C 11.3 15.2 11.2 15.2 11.2 15.2 C 11.2 15.2 11.3 15.3 11.4 15.4 C 11.5 15.5 11.6 15.6 11.6 15.6 C 11.7 15.6 11.7 15.6 11.9 15.5 Z M 10.9 16.0 C 10.9 16.2 11.0 16.3 11.1 16.5 C 11.5 16.2 11.2 15.7 10.9 15.7 C 10.8 15.8 10.8 15.9 10.9 16.0 Z M 12.9 13.7 C 12.9 13.5 12.5 13.1 12.6 12.9 C 12.2 12.6 12.1 12.8 11.9 13.3 C 12.3 12.9 12.6 14.1 12.8 14.8 C 12.8 14.9 12.8 13.7 12.9 13.7 Z M 10.2 14.1 C 10.3 14.0 10.4 14.0 10.6 13.9 C 10.7 13.9 10.8 13.8 10.8 13.8 C 10.9 13.7 11.0 13.7 11.0 13.7 C 11.1 13.6 11.1 13.6 11.1 13.5 C 11.1 13.1 11.8 12.9 11.5 12.5 C 11.4 12.7 11.4 12.7 11.2 12.9 C 11.2 13.0 11.2 13.0 11.2 13.1 C 11.1 13.1 11.1 13.2 11.1 13.3 C 11.0 13.3 11.0 13.3 10.9 13.4 C 10.9 13.4 10.8 13.5 10.7 13.6 C 10.7 13.6 10.6 13.7 10.6 13.7 C 10.4 13.8 10.3 13.9 10.2 13.9 C 10.2 14.0 10.2 14.0 10.2 14.1 Z M 7.9 7.6 C 8.1 7.6 8.1 7.5 8.0 7.5 C 8.0 7.4 7.9 7.4 7.8 7.4 C 7.8 7.4 7.7 7.4 7.6 7.4 C 7.7 7.4 7.7 7.5 7.8 7.5 C 7.8 7.6 7.9 7.6 7.9 7.6 Z M 6.9 5.9 C 6.9 5.9 6.8 5.8 6.7 5.7 C 6.6 5.7 6.5 5.6 6.5 5.6 C 6.4 5.6 6.3 5.6 6.2 5.6 C 6.2 5.5 6.1 5.5 6.1 5.5 C 5.8 5.2 6.1 5.1 5.4 5.3 C 5.9 5.5 5.5 6.0 6.1 5.7 C 6.1 5.7 6.2 5.8 6.2 5.9 C 6.3 5.9 6.3 5.9 6.4 6.0 C 6.4 6.0 6.4 6.1 6.4 6.1 L 6.4 6.1 C 6.5 6.3 6.9 6.1 6.9 5.9 Z M 6.1 7.6 C 8.4 9.0 7.5 8.2 6.2 7.6 C 6.1 7.6 6.1 7.6 6.1 7.6 Z M 8.2 5.2 C 8.1 5.2 8.0 5.3 7.9 5.2 L 7.9 5.2 C 7.9 5.3 7.8 5.4 8.0 5.5 C 8.1 5.6 8.2 5.4 8.4 5.4 C 8.4 5.4 8.8 5.5 8.8 5.4 C 8.6 5.3 8.4 5.1 8.2 5.2 Z M 9.1 4.5 C 9.2 4.8 9.6 4.7 9.7 4.6 C 9.6 4.6 9.1 4.3 9.1 4.5 Z M 8.8 6.5 C 8.7 6.4 8.7 6.4 8.6 6.4 C 8.5 6.4 8.5 6.5 8.4 6.4 L 8.4 6.4 C 8.5 6.5 8.4 6.7 8.5 6.7 C 8.6 6.7 8.7 6.6 8.8 6.6 C 8.9 6.6 8.9 6.7 9.0 6.7 C 9.0 6.5 8.9 6.6 8.8 6.5 Z M 8.8 10.1 C 8.9 10.0 8.9 10.0 8.9 9.9 C 8.8 9.9 8.8 9.9 8.7 9.8 C 8.7 9.8 8.7 9.9 8.7 10.0 C 8.7 10.1 8.7 10.2 8.8 10.1 Z M 9.0 9.7 C 9.1 9.3 8.9 9.1 8.6 8.9 C 8.7 9.2 8.8 9.5 9.0 9.7 Z M 9.7 8.2 C 9.7 8.2 9.5 8.1 9.4 8.1 C 9.4 8.2 9.5 8.3 9.5 8.3 C 9.6 8.3 9.7 8.3 9.7 8.2 Z M 7.6 10.9 C 7.6 10.9 7.7 10.9 7.8 10.9 C 7.7 10.9 7.7 10.8 7.6 10.8 C 7.6 10.8 7.6 10.9 7.6 10.9 Z M 6.8 10.0 C 6.9 10.1 7.0 10.3 7.2 10.4 L 7.4 10.7 C 7.4 10.2 7.1 10.1 7.0 9.9 C 7.0 9.8 6.8 9.8 6.8 10.0 Z M 7.7 9.4 C 7.6 9.6 7.6 9.8 7.9 9.8 C 7.9 9.7 7.8 9.5 7.7 9.4 Z M 12.1 3.2 C 12.2 3.2 12.6 3.1 12.7 3.1 C 12.4 2.8 11.9 3.1 12.1 3.2 Z M 10.1 3.3 C 10.0 3.5 10.2 3.8 10.5 3.7 C 10.7 3.3 10.5 3.2 10.1 3.3 Z M 11.3 5.0 C 11.2 5.0 11.0 4.9 11.0 4.9 C 11.1 5.1 11.3 5.0 11.5 5.1 C 11.3 5.1 11.2 5.0 11.3 5.0 Z M 10.9 5.6 C 10.7 5.6 10.6 5.5 10.4 5.5 C 10.6 5.6 10.8 5.8 11.0 5.9 C 11.1 5.9 11.1 5.9 11.2 5.8 C 11.5 5.7 10.9 5.6 10.9 5.6 Z M 21.5 4.3 C 21.4 4.4 21.3 4.4 21.2 4.4 C 20.9 4.5 20.6 4.6 20.6 5.0 C 20.7 4.7 20.9 4.5 21.1 4.6 C 21.2 4.6 21.3 4.6 21.3 4.5 C 21.4 4.5 21.5 4.4 21.5 4.3 Z M 19.9 5.8 C 20.2 5.6 20.5 5.7 20.7 5.3 C 20.2 5.3 19.9 5.7 19.7 5.9 C 19.7 5.8 19.8 5.8 19.9 5.8 Z M 20.2 5.0 C 19.9 5.1 20.1 4.8 19.8 4.9 C 19.8 5.0 19.8 5.1 20.1 5.1 C 20.1 5.1 20.2 5.1 20.2 5.0 Z M 19.0 6.0 C 18.8 5.6 19.6 5.8 19.3 5.3 C 19.1 5.5 19.0 5.8 19.0 5.9 C 18.9 5.9 18.9 6.0 19.0 6.0 Z M 9.5 13.9 C 10.3 12.6 10.1 12.5 9.4 13.8 C 9.5 13.9 9.5 13.9 9.5 13.9 Z M 12.0 11.5 C 11.5 11.1 12.3 11.7 11.6 11.3 C 11.6 11.3 11.7 11.0 11.6 11.0 C 11.7 11.0 11.8 10.9 11.9 11.0 C 12.7 11.5 12.3 10.9 12.5 11.8 C 12.5 11.7 12.0 11.5 12.0 11.5 Z M 9.3 12.3 C 9.3 12.2 9.3 12.2 9.3 12.1 C 9.2 12.0 9.1 11.9 8.9 11.8 C 9.0 12.0 9.1 12.1 9.3 12.3 Z M 11.2 8.1 C 11.1 8.0 11.0 7.9 11.0 7.9 C 10.9 8.0 11.1 8.1 11.2 8.1 Z M 8.6 3.2 C 8.6 3.2 8.5 3.2 8.5 3.2 C 8.5 3.2 8.5 3.3 8.6 3.3 C 8.6 3.2 8.6 3.2 8.6 3.2 Z M 8.8 11.1 C 8.8 11.1 8.7 11.1 8.7 11.2 C 8.7 11.3 8.7 11.4 8.8 11.5 C 8.8 11.5 8.9 11.5 8.9 11.6 C 9.0 11.3 9.0 11.3 8.9 11.2 C 8.9 11.1 8.9 11.1 8.8 11.1 Z M 16.4 7.5 C 16.3 7.5 16.3 7.6 16.3 7.6 C 16.2 7.7 16.3 7.8 16.3 7.9 C 16.4 7.9 16.4 8.0 16.5 8.0 C 16.6 7.8 16.6 7.8 16.5 7.6 C 16.5 7.6 16.4 7.5 16.4 7.5 Z M 13.7 20.4 C 13.5 20.5 13.5 20.6 13.4 20.7 C 13.3 20.8 13.4 21.1 13.6 21.2 C 13.6 21.3 13.7 21.4 13.8 21.4 C 14.1 21.0 14.1 21.0 13.9 20.7 C 13.8 20.6 13.7 20.5 13.7 20.4 Z M 9.4 15.6 C 9.4 15.7 9.3 15.7 9.3 15.8 C 9.3 15.9 9.3 16.0 9.4 16.0 C 9.4 16.1 9.5 16.1 9.5 16.1 C 9.6 15.9 9.6 15.9 9.5 15.8 C 9.5 15.7 9.5 15.7 9.4 15.6 Z M 12.2 3.6 C 12.1 3.6 11.6 3.8 11.6 3.9 C 11.7 3.9 12.7 3.8 12.8 3.8 C 12.8 3.6 12.4 3.7 12.2 3.6 Z M 13.5 5.5 C 13.1 5.5 12.9 5.3 12.7 6.0 C 12.9 6.0 13.1 6.0 13.2 6.0 C 13.4 6.0 13.6 6.0 13.8 5.9 C 14.0 5.7 14.0 5.7 14.1 5.5 C 14.1 5.5 13.9 5.4 13.8 5.4 C 13.7 5.4 13.6 5.5 13.5 5.5 Z M 20.4 3.5 C 20.1 3.5 20.1 3.4 19.9 3.8 C 20.0 3.9 20.1 3.9 20.2 3.9 C 20.4 3.8 20.5 3.8 20.6 3.8 C 20.7 3.6 20.7 3.6 20.8 3.6 C 20.7 3.5 20.7 3.5 20.6 3.5 C 20.5 3.5 20.5 3.5 20.4 3.5 Z M 12.7 6.1 C 12.7 6.3 12.8 6.3 13.0 6.3 C 12.9 6.2 12.8 6.1 12.7 6.1 Z M 14.6 7.5 C 14.4 7.6 14.3 7.6 14.2 7.7 C 14.6 8.2 15.2 8.3 15.6 8.4 C 15.3 8.1 14.9 7.8 14.6 7.5 Z M 11.5 9.3 C 11.7 9.2 11.9 9.8 12.3 9.5 C 12.2 9.4 12.2 9.4 12.1 9.4 C 12.0 9.3 11.9 9.2 11.7 9.2 C 11.6 9.2 11.6 9.2 11.5 9.3 Z M 14.3 2.7 C 14.6 2.6 14.7 3.2 15.1 2.9 C 15.1 2.8 15.0 2.8 15.0 2.8 C 14.9 2.7 14.8 2.6 14.6 2.6 C 14.5 2.6 14.4 2.6 14.3 2.7 Z M 15.8 4.1 C 15.7 4.1 15.6 4.2 15.5 4.3 C 15.4 4.4 15.3 4.5 15.3 4.5 C 15.5 4.6 15.7 4.7 15.7 4.6 C 15.8 4.6 15.9 4.5 16.0 4.5 C 16.1 4.5 16.1 4.4 16.2 4.3 C 16.0 4.2 16.1 4.2 15.8 4.1 Z M 17.3 3.3 C 17.3 3.4 17.5 3.7 17.6 3.4 C 17.7 3.3 17.3 3.3 17.3 3.3 Z M 17.7 4.1 C 17.8 4.2 17.9 4.3 18.0 4.3 C 18.2 4.3 17.8 3.9 17.7 4.1 Z M 17.1 5.2 C 17.2 5.2 17.3 5.3 17.4 5.3 C 17.4 5.2 17.2 5.2 17.1 5.2 Z M 17.9 6.2 C 18.1 6.4 18.1 6.4 18.3 6.2 C 18.4 6.1 18.4 6.1 18.4 6.0 C 18.5 5.8 18.6 5.5 18.8 5.6 C 18.7 5.3 18.3 5.6 18.1 5.5 C 18.0 5.6 17.9 5.8 17.9 6.0 C 17.9 6.0 17.9 6.1 17.9 6.1 C 17.9 6.2 17.9 6.1 17.9 6.2 Z M 18.8 4.1 L 18.6 4.1 C 18.5 4.1 18.2 4.1 18.3 4.4 C 18.4 4.3 18.7 4.2 18.8 4.1 Z M 17.6 6.1 C 17.5 6.0 17.5 6.0 17.2 5.8 C 17.2 5.8 17.1 5.8 17.0 5.8 C 16.7 5.6 16.4 5.6 16.0 5.7 C 16.1 6.0 16.5 5.9 16.9 5.9 C 17.0 5.9 17.0 5.9 17.1 5.9 C 17.3 5.9 17.5 6.0 17.4 6.0 C 17.5 6.1 17.5 6.1 17.6 6.1 Z M 16.4 6.3 C 16.3 6.3 16.3 6.2 16.2 6.2 C 15.9 6.1 15.6 6.0 16.1 6.3 C 16.1 6.3 16.2 6.4 16.3 6.4 C 16.4 6.4 16.5 6.4 16.4 6.3 Z M 15.8 5.7 C 15.6 5.6 15.5 5.5 15.5 5.4 C 15.4 5.3 15.4 5.2 15.4 5.2 C 15.4 5.1 15.3 5.0 15.2 4.9 C 15.1 4.9 15.0 4.9 14.9 5.1 C 15.1 5.0 15.1 5.4 15.3 5.6 C 15.3 5.6 15.4 5.6 15.5 5.6 C 15.6 5.6 15.7 5.7 15.8 5.7 Z M 12.7 8.6 C 12.8 8.9 12.5 9.5 13.0 9.3 C 13.0 9.1 13.0 8.7 12.7 8.6 Z M 13.3 10.5 C 13.3 10.4 13.3 10.4 13.3 10.4 C 13.3 10.3 13.3 10.3 13.4 10.2 C 13.4 10.2 13.4 10.1 13.4 10.1 C 13.3 10.0 13.1 9.9 13.0 9.9 C 12.8 10.0 13.0 10.0 13.1 10.2 C 13.2 10.2 13.3 10.3 13.3 10.3 C 13.4 10.4 13.4 10.5 13.3 10.5 L 13.3 10.5 Z M 14.4 9.1 C 14.3 9.1 14.2 9.1 14.2 9.2 C 14.1 9.2 14.0 9.2 13.9 9.3 C 13.9 9.4 14.0 9.4 14.1 9.5 C 14.2 9.6 14.3 9.6 14.4 9.6 C 14.5 9.7 14.7 9.8 15.0 9.8 C 15.1 9.8 15.1 9.8 15.2 9.7 C 15.2 9.7 15.2 9.7 15.3 9.6 C 15.2 9.5 15.1 9.5 15.0 9.4 C 14.8 9.3 14.7 9.2 14.6 9.2 C 14.6 9.2 14.5 9.1 14.4 9.1 Z M 15.2 9.2 C 15.3 9.3 15.3 9.4 15.4 9.5 C 15.5 9.4 15.5 9.3 15.2 9.2 Z M 14.4 10.6 C 14.2 10.6 14.5 10.8 14.6 10.8 C 14.5 10.7 14.5 10.7 14.4 10.6 Z M 16.3 9.2 C 15.8 9.0 15.9 9.4 15.9 9.5 C 16.0 9.5 16.2 9.2 16.3 9.2 Z M 16.3 9.2 " fill="#FF2600"></path></g></svg>