<?xml version="1.0" encoding="UTF-8" standalone="no"?><svg xmlns="http://www.w3.org/2000/svg" xmlns:xlink="http://www.w3.org/1999/xlink" clip-rule="evenodd" stroke-miterlimit="4.00" viewBox="0 0 1024 768"><desc>SVG generated by Keynote</desc><defs></defs><g transform="matrix(1.00, 0.00, -0.00, -1.00, 0.0, 768.0)"><path d="M 0.0 768.0 L 1024.0 768.0 L 1024.0 0.0 L 0.0 0.0 Z M 0.0 768.0 " fill="#FEFFFF"></path><g><clipPath id="clip-982"><path d="M 722.2 71.3 L 986.4 71.3 L 986.4 505.1 L 722.2 505.1 Z M 722.2 71.3 "></path></clipPath><g clip-path="url(#clip-982)"><image xlink:href="../../DE87691F-2CA5-4CAF-9CA4-E02691EAFD98/assets/FBB9D7642E7CF8EECAA1478EA29E7354.png" width="264.00" height="434.00" transform="matrix(1.00, 0.00, -0.00, -1.00, 722.2, 505.1)" opacity="0.70"></image><image xlink:href="../../B09B99B2-9A29-4F00-BB5A-357C3C5A969F/assets/6765956A23A5BD91E869D3DF217B09CD.png" width="254.00" height="424.00" transform="matrix(1.00, 0.00, -0.00, -1.00, 726.0, 502.0)"></image><path d="M -0.2 -0.2 L 253.8 -0.2 L 253.8 423.8 L -0.2 423.8 Z M -0.2 -0.2 " fill="none" stroke="#F2F6F5" stroke-width="2.00" transform="matrix(1.00, 0.00, 0.00, -1.00, 726.2, 501.8)"></path></g></g><g><clipPath id="clip-983"><path d="M 798.0 233.9 L 906.0 233.9 L 906.0 341.9 L 798.0 341.9 Z M 798.0 233.9 "></path></clipPath><g clip-path="url(#clip-983)"><image xlink:href="../../DE87691F-2CA5-4CAF-9CA4-E02691EAFD98/assets/7E27D7D74B2DA92C336D6AD660991410.png" width="106.00" height="106.00" transform="matrix(1.00, 0.00, -0.00, -1.00, 799.0, 340.9)" opacity="0.50"></image><path d="M 802.0 339.9 L 902.0 339.9 L 902.0 239.9 L 802.0 239.9 Z M 802.0 339.9 " fill="#000000"></path></g></g><g><clipPath id="clip-984"><path d="M 737.8 282.6 L 752.5 282.6 L 752.5 297.3 L 737.8 297.3 Z M 737.8 282.6 "></path></clipPath><g clip-path="url(#clip-984)"><path d="M 738.8 296.3 L 751.5 296.3 L 751.5 283.6 L 738.8 283.6 Z M 738.8 296.3 " fill="#FEFFFF"></path></g></g><text xml:space="preserve" font-family="Helvetica-Bold" font-weight="bold" font-size="80.0" fill="#000000" transform="matrix(1.00, 0.00, -0.00, -1.00, 150.0, 618.0)">E</text><text xml:space="preserve" font-family="Helvetica-Bold" font-weight="bold" font-size="80.0" fill="#000000" transform="matrix(1.00, 0.00, -0.00, -1.00, 203.4, 618.0)">x</text><text xml:space="preserve" font-family="Helvetica-Bold" font-weight="bold" font-size="80.0" fill="#000000" transform="matrix(1.00, 0.00, -0.00, -1.00, 247.9, 618.0)">p</text><text xml:space="preserve" font-family="Helvetica-Bold" font-weight="bold" font-size="80.0" fill="#000000" transform="matrix(1.00, 0.00, -0.00, -1.00, 296.7, 618.0)">e</text><text xml:space="preserve" font-family="Helvetica-Bold" font-weight="bold" font-size="80.0" fill="#000000" transform="matrix(1.00, 0.00, -0.00, -1.00, 341.2, 618.0)">r</text><text xml:space="preserve" font-family="Helvetica-Bold" font-weight="bold" font-size="80.0" fill="#000000" transform="matrix(1.00, 0.00, -0.00, -1.00, 372.4, 618.0)">i</text><text xml:space="preserve" font-family="Helvetica-Bold" font-weight="bold" font-size="80.0" fill="#000000" transform="matrix(1.00, 0.00, -0.00, -1.00, 394.6, 618.0)">m</text><text xml:space="preserve" font-family="Helvetica-Bold" font-weight="bold" font-size="80.0" fill="#000000" transform="matrix(1.00, 0.00, -0.00, -1.00, 465.7, 618.0)">e</text><text xml:space="preserve" font-family="Helvetica-Bold" font-weight="bold" font-size="80.0" fill="#000000" transform="matrix(1.00, 0.00, -0.00, -1.00, 510.2, 618.0)">n</text><text xml:space="preserve" font-family="Helvetica-Bold" font-weight="bold" font-size="80.0" fill="#000000" transform="matrix(1.00, 0.00, -0.00, -1.00, 559.1, 618.0)">t</text><text xml:space="preserve" font-family="Helvetica-Bold" font-weight="bold" font-size="80.0" fill="#000000" transform="matrix(1.00, 0.00, -0.00, -1.00, 585.7, 618.0)"> </text><text xml:space="preserve" font-family="Helvetica-Bold" font-weight="bold" font-size="80.0" fill="#000000" transform="matrix(1.00, 0.00, -0.00, -1.00, 607.9, 618.0)">D</text><text xml:space="preserve" font-family="Helvetica-Bold" font-weight="bold" font-size="80.0" fill="#000000" transform="matrix(1.00, 0.00, -0.00, -1.00, 665.7, 618.0)">e</text><text xml:space="preserve" font-family="Helvetica-Bold" font-weight="bold" font-size="80.0" fill="#000000" transform="matrix(1.00, 0.00, -0.00, -1.00, 710.2, 618.0)">s</text><text xml:space="preserve" font-family="Helvetica-Bold" font-weight="bold" font-size="80.0" fill="#000000" transform="matrix(1.00, 0.00, -0.00, -1.00, 754.8, 618.0)">i</text><text xml:space="preserve" font-family="Helvetica-Bold" font-weight="bold" font-size="80.0" fill="#000000" transform="matrix(1.00, 0.00, -0.00, -1.00, 777.0, 618.0)">g</text><text xml:space="preserve" font-family="Helvetica-Bold" font-weight="bold" font-size="80.0" fill="#000000" transform="matrix(1.00, 0.00, -0.00, -1.00, 825.8, 618.0)">n</text><g opacity="0.05"><g><clipPath id="clip-985"><path d="M 396.0 639.0 L 1172.0 639.0 L 1172.0 -129.0 L 396.0 -129.0 Z M 396.5 639.4 "></path></clipPath><g clip-path="url(#clip-985)"><g><clipPath id="clip-986"><path d="M 395.0 0.0 L 1024.0 0.0 L 1024.0 641.0 L 395.0 641.0 Z M 395.0 0.0 "></path></clipPath><g clip-path="url(#clip-986)"><image xlink:href="../../615F7CD4-E262-41F7-8138-806EC6AB1FAB/assets/9A6F1F7F57DE1899BBA6D829851F14E0.png" width="546.00" height="540.00" transform="matrix(1.42, 0.00, -0.00, -1.42, 396.0, 639.0)"></image></g></g></g></g></g><g><clipPath id="clip-987"><path d="M 0.2 705.8 L 55.1 705.8 L 55.1 768.2 L 0.2 768.2 Z M 0.2 705.8 "></path></clipPath><g clip-path="url(#clip-987)"><image xlink:href="../../615F7CD4-E262-41F7-8138-806EC6AB1FAB/assets/FCA65AB6163C3244B97FA67EDF156BF9.png" width="55.00" height="63.00" transform="matrix(1.00, 0.00, -0.00, -0.98, 0.0, 768.0)"></image></g></g><g><clipPath id="clip-988"><path d="M 53.7 704.8 L 1026.5 704.8 L 1026.5 769.2 L 53.7 769.2 Z M 53.7 704.8 "></path></clipPath><g clip-path="url(#clip-988)"><path d="M 54.7 768.2 L 1025.5 768.2 L 1025.5 705.8 L 54.7 705.8 Z M 54.7 768.2 " fill="#F15F18"></path></g></g><text xml:space="preserve" font-family="Helvetica-Bold" font-weight="bold" font-size="36.0" fill="#000000" transform="matrix(1.00, 0.00, -0.00, -1.00, 262.0, 559.0)">T</text><text xml:space="preserve" font-family="Helvetica-Bold" font-weight="bold" font-size="36.0" fill="#000000" transform="matrix(1.00, 0.00, -0.00, -1.00, 281.3, 559.0)">e</text><text xml:space="preserve" font-family="Helvetica-Bold" font-weight="bold" font-size="36.0" fill="#000000" transform="matrix(1.00, 0.00, -0.00, -1.00, 301.4, 559.0)">s</text><text xml:space="preserve" font-family="Helvetica-Bold" font-weight="bold" font-size="36.0" fill="#000000" transform="matrix(1.00, 0.00, -0.00, -1.00, 321.4, 559.0)">t</text><text xml:space="preserve" font-family="Helvetica-Bold" font-weight="bold" font-size="36.0" fill="#000000" transform="matrix(1.00, 0.00, -0.00, -1.00, 333.4, 559.0)">i</text><text xml:space="preserve" font-family="Helvetica-Bold" font-weight="bold" font-size="36.0" fill="#000000" transform="matrix(1.00, 0.00, -0.00, -1.00, 343.4, 559.0)">n</text><text xml:space="preserve" font-family="Helvetica-Bold" font-weight="bold" font-size="36.0" fill="#000000" transform="matrix(1.00, 0.00, -0.00, -1.00, 365.4, 559.0)">g</text><text xml:space="preserve" font-family="Helvetica-Bold" font-weight="bold" font-size="36.0" fill="#000000" transform="matrix(1.00, 0.00, -0.00, -1.00, 387.3, 559.0)"> </text><text xml:space="preserve" font-family="Helvetica-Bold" font-weight="bold" font-size="36.0" fill="#000000" transform="matrix(1.00, 0.00, -0.00, -1.00, 396.0, 559.0)">A</text><text xml:space="preserve" font-family="Helvetica-Bold" font-weight="bold" font-size="36.0" fill="#000000" transform="matrix(1.00, 0.00, -0.00, -1.00, 422.0, 559.0)">p</text><text xml:space="preserve" font-family="Helvetica-Bold" font-weight="bold" font-size="36.0" fill="#000000" transform="matrix(1.00, 0.00, -0.00, -1.00, 444.0, 559.0)">p</text><text xml:space="preserve" font-family="Helvetica-Bold" font-weight="bold" font-size="36.0" fill="#000000" transform="matrix(1.00, 0.00, -0.00, -1.00, 466.0, 559.0)">l</text><text xml:space="preserve" font-family="Helvetica-Bold" font-weight="bold" font-size="36.0" fill="#000000" transform="matrix(1.00, 0.00, -0.00, -1.00, 476.0, 559.0)">i</text><text xml:space="preserve" font-family="Helvetica-Bold" font-weight="bold" font-size="36.0" fill="#000000" transform="matrix(1.00, 0.00, -0.00, -1.00, 486.0, 559.0)">c</text><text xml:space="preserve" font-family="Helvetica-Bold" font-weight="bold" font-size="36.0" fill="#000000" transform="matrix(1.00, 0.00, -0.00, -1.00, 506.0, 559.0)">a</text><text xml:space="preserve" font-family="Helvetica-Bold" font-weight="bold" font-size="36.0" fill="#000000" transform="matrix(1.00, 0.00, -0.00, -1.00, 526.0, 559.0)">t</text><text xml:space="preserve" font-family="Helvetica-Bold" font-weight="bold" font-size="36.0" fill="#000000" transform="matrix(1.00, 0.00, -0.00, -1.00, 538.0, 559.0)">i</text><text xml:space="preserve" font-family="Helvetica-Bold" font-weight="bold" font-size="36.0" fill="#000000" transform="matrix(1.00, 0.00, -0.00, -1.00, 548.0, 559.0)">o</text><text xml:space="preserve" font-family="Helvetica-Bold" font-weight="bold" font-size="36.0" fill="#000000" transform="matrix(1.00, 0.00, -0.00, -1.00, 570.0, 559.0)">n</text><text xml:space="preserve" font-family="Helvetica-Bold" font-weight="bold" font-size="36.0" fill="#000000" transform="matrix(1.00, 0.00, -0.00, -1.00, 592.0, 559.0)"> </text><text xml:space="preserve" font-family="Helvetica-Bold" font-weight="bold" font-size="36.0" fill="#000000" transform="matrix(1.00, 0.00, -0.00, -1.00, 602.0, 559.0)">f</text><text xml:space="preserve" font-family="Helvetica-Bold" font-weight="bold" font-size="36.0" fill="#000000" transform="matrix(1.00, 0.00, -0.00, -1.00, 614.0, 559.0)">o</text><text xml:space="preserve" font-family="Helvetica-Bold" font-weight="bold" font-size="36.0" fill="#000000" transform="matrix(1.00, 0.00, -0.00, -1.00, 635.9, 559.0)">r</text><text xml:space="preserve" font-family="Helvetica-Bold" font-weight="bold" font-size="36.0" fill="#000000" transform="matrix(1.00, 0.00, -0.00, -1.00, 650.0, 559.0)"> </text><text xml:space="preserve" font-family="Helvetica-Bold" font-weight="bold" font-size="36.0" fill="#000000" transform="matrix(1.00, 0.00, -0.00, -1.00, 660.0, 559.0)">S</text><text xml:space="preserve" font-family="Helvetica-Bold" font-weight="bold" font-size="36.0" fill="#000000" transform="matrix(1.00, 0.00, -0.00, -1.00, 684.0, 559.0)">w</text><text xml:space="preserve" font-family="Helvetica-Bold" font-weight="bold" font-size="36.0" fill="#000000" transform="matrix(1.00, 0.00, -0.00, -1.00, 712.0, 559.0)">i</text><text xml:space="preserve" font-family="Helvetica-Bold" font-weight="bold" font-size="36.0" fill="#000000" transform="matrix(1.00, 0.00, -0.00, -1.00, 722.0, 559.0)">p</text><text xml:space="preserve" font-family="Helvetica-Bold" font-weight="bold" font-size="36.0" fill="#000000" transform="matrix(1.00, 0.00, -0.00, -1.00, 743.9, 559.0)">e</text><g><clipPath id="clip-989"><path d="M 40.3 71.3 L 304.5 71.3 L 304.5 505.1 L 40.3 505.1 Z M 40.3 71.3 "></path></clipPath><g clip-path="url(#clip-989)"><image xlink:href="../../DE87691F-2CA5-4CAF-9CA4-E02691EAFD98/assets/50C23296C56CA6398E3BC0C0FEB9C8ED.png" width="264.00" height="434.00" transform="matrix(1.00, 0.00, -0.00, -1.00, 40.3, 505.1)" opacity="0.70"></image><image xlink:href="../../B09B99B2-9A29-4F00-BB5A-357C3C5A969F/assets/6765956A23A5BD91E869D3DF217B09CD.png" width="254.00" height="424.00" transform="matrix(1.00, 0.00, -0.00, -1.00, 44.0, 502.0)"></image><path d="M -0.3 -0.2 L 254.7 -0.2 L 254.7 423.8 L -0.3 423.8 Z M -0.3 -0.2 " fill="none" stroke="#F2F6F5" stroke-width="2.00" transform="matrix(1.00, 0.00, 0.00, -1.00, 44.3, 501.8)"></path></g></g><g><clipPath id="clip-990"><path d="M 117.4 222.1 L 225.4 222.1 L 225.4 330.1 L 117.4 330.1 Z M 117.4 222.1 "></path></clipPath><g clip-path="url(#clip-990)"><image xlink:href="../../DE87691F-2CA5-4CAF-9CA4-E02691EAFD98/assets/7E27D7D74B2DA92C336D6AD660991410.png" width="106.00" height="106.00" transform="matrix(1.00, 0.00, -0.00, -1.00, 118.4, 329.1)" opacity="0.50"></image><path d="M 121.4 328.1 L 221.4 328.1 L 221.4 228.1 L 121.4 228.1 Z M 121.4 328.1 " fill="#000000"></path></g></g><g><clipPath id="clip-991"><path d="M 117.4 239.2 L 231.8 239.2 L 231.8 325.1 L 117.4 325.1 Z M 117.4 239.2 "></path></clipPath><g clip-path="url(#clip-991)"><image xlink:href="../../DE87691F-2CA5-4CAF-9CA4-E02691EAFD98/assets/3758F06EAE8E3BBA79DA79A77580E24E.png" width="112.00" height="84.00" transform="matrix(1.00, 0.00, -0.00, -1.00, 118.4, 324.1)" opacity="0.50"></image><path d="M 0.0 0.0 L 105.4 0.0 L 105.4 76.9 L 0.0 76.9 Z M 0.0 0.0 " fill="none" stroke="#FEFFFF" stroke-width="1.00" transform="matrix(1.00, 0.00, 0.00, -1.00, 121.9, 322.6)"></path></g></g><g><clipPath id="clip-992"><path d="M 58.4 233.9 L 270.1 233.9 L 270.1 341.9 L 58.4 341.9 Z M 58.4 233.9 "></path></clipPath><g clip-path="url(#clip-992)"><image xlink:href="../../CF142DD0-22FE-438A-A83E-C1EF0B622219/assets/A94456F0F3CCEB2D0FC63A17360E6CC2.png" width="210.00" height="106.00" transform="matrix(1.00, 0.00, -0.00, -1.00, 59.4, 340.9)" opacity="0.50"></image><path d="M 62.4 339.9 L 266.1 339.9 L 266.1 239.9 L 62.4 239.9 Z M 62.4 339.9 " fill="#000000"></path></g></g><g><clipPath id="clip-993"><path d="M 61.4 244.5 L 152.4 244.5 L 152.4 335.4 L 61.4 335.4 Z M 61.4 244.5 "></path></clipPath><g clip-path="url(#clip-993)"><path d="M 62.4 334.4 L 151.4 334.4 L 151.4 245.5 L 62.4 245.5 Z M 62.4 334.4 " fill="#FEFFFF"></path></g></g><g><clipPath id="clip-994"><path d="M 381.3 71.3 L 645.5 71.3 L 645.5 505.1 L 381.3 505.1 Z M 381.3 71.3 "></path></clipPath><g clip-path="url(#clip-994)"><image xlink:href="../../DE87691F-2CA5-4CAF-9CA4-E02691EAFD98/assets/DF59CC4A283EB5A75DEDA906CBE38B2C.png" width="264.00" height="434.00" transform="matrix(1.00, 0.00, -0.00, -1.00, 381.3, 505.1)" opacity="0.70"></image><image xlink:href="../../B09B99B2-9A29-4F00-BB5A-357C3C5A969F/assets/6765956A23A5BD91E869D3DF217B09CD.png" width="254.00" height="424.00" transform="matrix(1.00, 0.00, -0.00, -1.00, 385.0, 502.0)"></image><path d="M -0.3 -0.2 L 253.7 -0.2 L 253.7 423.8 L -0.3 423.8 Z M -0.3 -0.2 " fill="none" stroke="#F2F6F5" stroke-width="2.00" transform="matrix(1.00, 0.00, 0.00, -1.00, 385.3, 501.8)"></path></g></g><g><clipPath id="clip-995"><path d="M 468.4 199.4 L 576.4 199.4 L 576.4 307.4 L 468.4 307.4 Z M 468.4 199.4 "></path></clipPath><g clip-path="url(#clip-995)"><image xlink:href="../../DE87691F-2CA5-4CAF-9CA4-E02691EAFD98/assets/7E27D7D74B2DA92C336D6AD660991410.png" width="106.00" height="106.00" transform="matrix(1.00, 0.00, -0.00, -1.00, 469.4, 306.4)" opacity="0.50"></image><path d="M 472.4 305.4 L 572.4 305.4 L 572.4 205.4 L 472.4 205.4 Z M 472.4 305.4 " fill="#000000"></path></g></g><g><clipPath id="clip-996"><path d="M 400.0 257.8 L 464.4 257.8 L 464.4 322.1 L 400.0 322.1 Z M 400.0 257.8 "></path></clipPath><g clip-path="url(#clip-996)"><path d="M 401.0 321.1 L 463.4 321.1 L 463.4 258.8 L 401.0 258.8 Z M 401.0 321.1 " fill="#FEFFFF"></path></g></g><text xml:space="preserve" font-family="Helvetica-Light" font-size="36.0" fill="#000000" transform="matrix(1.00, 0.00, -0.00, -1.00, 112.0, 24.0)">S</text><text xml:space="preserve" font-family="Helvetica-Light" font-size="36.0" fill="#000000" transform="matrix(1.00, 0.00, -0.00, -1.00, 134.0, 24.0)">w</text><text xml:space="preserve" font-family="Helvetica-Light" font-size="36.0" fill="#000000" transform="matrix(1.00, 0.00, -0.00, -1.00, 160.0, 24.0)">i</text><text xml:space="preserve" font-family="Helvetica-Light" font-size="36.0" fill="#000000" transform="matrix(1.00, 0.00, -0.00, -1.00, 168.0, 24.0)">p</text><text xml:space="preserve" font-family="Helvetica-Light" font-size="36.0" fill="#000000" transform="matrix(1.00, 0.00, -0.00, -1.00, 190.0, 24.0)">e</text><text xml:space="preserve" font-family="Helvetica-Light" font-size="36.0" fill="#000000" transform="matrix(1.00, 0.00, -0.00, -1.00, 210.0, 24.0)"> </text><text xml:space="preserve" font-family="Helvetica-Light" font-size="36.0" fill="#000000" transform="matrix(1.00, 0.00, -0.00, -1.00, 220.0, 24.0)">I</text><text xml:space="preserve" font-family="Helvetica-Light" font-size="36.0" fill="#000000" transform="matrix(1.00, 0.00, -0.00, -1.00, 449.0, 24.0)">S</text><text xml:space="preserve" font-family="Helvetica-Light" font-size="36.0" fill="#000000" transform="matrix(1.00, 0.00, -0.00, -1.00, 471.0, 24.0)">w</text><text xml:space="preserve" font-family="Helvetica-Light" font-size="36.0" fill="#000000" transform="matrix(1.00, 0.00, -0.00, -1.00, 497.0, 24.0)">i</text><text xml:space="preserve" font-family="Helvetica-Light" font-size="36.0" fill="#000000" transform="matrix(1.00, 0.00, -0.00, -1.00, 505.0, 24.0)">p</text><text xml:space="preserve" font-family="Helvetica-Light" font-size="36.0" fill="#000000" transform="matrix(1.00, 0.00, -0.00, -1.00, 527.0, 24.0)">e</text><text xml:space="preserve" font-family="Helvetica-Light" font-size="36.0" fill="#000000" transform="matrix(1.00, 0.00, -0.00, -1.00, 547.0, 24.0)"> </text><text xml:space="preserve" font-family="Helvetica-Light" font-size="36.0" fill="#000000" transform="matrix(1.00, 0.00, -0.00, -1.00, 557.0, 24.0)">I</text><text xml:space="preserve" font-family="Helvetica-Light" font-size="36.0" fill="#000000" transform="matrix(1.00, 0.00, -0.00, -1.00, 567.0, 24.0)">I</text><text xml:space="preserve" font-family="Helvetica-Light" font-size="36.0" fill="#000000" transform="matrix(1.00, 0.00, -0.00, -1.00, 784.0, 24.0)">S</text><text xml:space="preserve" font-family="Helvetica-Light" font-size="36.0" fill="#000000" transform="matrix(1.00, 0.00, -0.00, -1.00, 806.0, 24.0)">w</text><text xml:space="preserve" font-family="Helvetica-Light" font-size="36.0" fill="#000000" transform="matrix(1.00, 0.00, -0.00, -1.00, 832.0, 24.0)">i</text><text xml:space="preserve" font-family="Helvetica-Light" font-size="36.0" fill="#000000" transform="matrix(1.00, 0.00, -0.00, -1.00, 840.0, 24.0)">p</text><text xml:space="preserve" font-family="Helvetica-Light" font-size="36.0" fill="#000000" transform="matrix(1.00, 0.00, -0.00, -1.00, 862.0, 24.0)">e</text><text xml:space="preserve" font-family="Helvetica-Light" font-size="36.0" fill="#000000" transform="matrix(1.00, 0.00, -0.00, -1.00, 882.0, 24.0)"> </text><text xml:space="preserve" font-family="Helvetica-Light" font-size="36.0" fill="#000000" transform="matrix(1.00, 0.00, -0.00, -1.00, 892.0, 24.0)">I</text><text xml:space="preserve" font-family="Helvetica-Light" font-size="36.0" fill="#000000" transform="matrix(1.00, 0.00, -0.00, -1.00, 902.0, 24.0)">I</text><text xml:space="preserve" font-family="Helvetica-Light" font-size="36.0" fill="#000000" transform="matrix(1.00, 0.00, -0.00, -1.00, 912.0, 24.0)">I</text></g></svg>