<?xml version="1.0" encoding="UTF-8" standalone="no"?><svg xmlns="http://www.w3.org/2000/svg" xmlns:xlink="http://www.w3.org/1999/xlink" clip-rule="evenodd" stroke-miterlimit="4.00" viewBox="0 0 78 53"><desc>SVG generated by Keynote</desc><defs></defs><g transform="matrix(1.00, 0.00, -0.00, -1.00, 0.0, 53.0)"><path d="M 19.6 40.1 C 19.3 40.3 18.9 39.8 18.1 39.8 C 17.3 39.7 16.2 39.8 16.5 40.1 C 16.7 40.4 17.0 40.6 16.6 41.0 C 16.2 41.5 15.8 42.2 16.4 42.4 C 17.1 42.6 19.5 43.0 20.1 42.6 C 20.8 42.1 21.0 41.9 21.5 41.6 C 22.0 41.3 21.8 42.1 21.8 42.1 C 21.8 42.1 23.0 42.0 23.9 41.9 C 24.8 41.8 25.8 41.7 25.9 41.5 C 26.0 41.4 26.2 41.0 26.2 41.0 C 26.2 41.0 26.7 41.3 27.4 41.3 C 28.1 41.2 27.8 41.1 27.7 40.9 C 27.5 40.7 26.7 40.4 26.9 40.3 C 27.2 40.3 28.2 40.9 28.6 40.9 C 29.1 40.8 30.1 40.6 30.1 40.6 C 30.1 40.6 29.9 40.2 30.0 40.0 C 30.0 39.9 31.0 39.6 31.0 39.8 C 31.1 39.9 31.2 40.4 31.6 40.3 C 33.2 40.0 32.7 39.2 32.9 39.2 C 33.0 39.1 33.2 39.8 33.5 39.8 C 33.9 39.8 36.7 38.9 36.8 38.7 C 36.9 38.5 38.0 38.8 38.3 38.2 C 38.6 37.7 38.6 37.5 38.7 37.4 C 38.7 37.3 39.0 36.4 39.4 36.6 C 39.7 36.8 38.9 37.9 39.3 38.0 C 39.7 38.0 41.4 37.5 41.6 37.2 C 41.9 36.8 41.7 36.1 42.0 36.0 C 42.2 35.9 43.4 36.4 43.4 36.2 C 43.5 36.0 43.3 35.3 43.3 35.2 C 43.2 35.1 43.0 33.8 42.8 33.7 C 42.5 33.7 41.4 33.6 41.7 33.9 C 41.9 34.2 42.3 34.5 42.0 34.8 C 41.8 35.1 41.6 35.2 41.5 35.1 C 41.3 35.0 41.5 34.7 40.8 34.7 C 40.2 34.7 40.4 34.3 39.8 34.6 C 39.3 34.8 38.9 35.0 39.0 35.3 C 39.1 35.5 38.7 36.1 38.3 36.2 C 37.9 36.3 38.4 35.5 37.1 35.7 C 35.7 35.9 34.9 36.0 34.6 36.4 C 34.3 36.7 34.4 37.4 33.7 37.3 C 33.0 37.2 33.3 36.9 32.5 37.1 C 31.6 37.3 31.4 38.0 30.9 38.2 C 30.3 38.3 30.2 38.3 30.2 38.3 C 30.2 38.3 30.3 37.4 29.0 37.7 C 27.8 37.9 27.5 37.9 27.9 38.4 C 28.2 39.0 27.3 39.2 27.2 38.8 C 27.0 38.5 26.2 38.3 25.8 38.4 C 25.3 38.4 25.4 39.4 25.2 39.5 C 25.0 39.6 24.5 39.6 24.6 39.2 C 24.8 38.9 24.2 38.9 23.8 38.9 C 23.4 38.8 22.2 39.1 22.2 39.3 C 22.2 39.4 23.0 40.0 22.1 39.8 C 21.2 39.6 20.9 39.1 20.1 39.3 C 19.3 39.4 20.1 39.9 19.6 40.1 C 19.6 40.1 19.6 40.1 19.6 40.1 Z M 43.0 33.3 C 41.9 33.8 43.7 35.9 44.3 36.2 C 45.0 36.5 45.7 35.9 46.5 35.6 C 47.3 35.4 46.7 34.7 47.0 34.3 C 47.3 33.9 47.4 34.4 47.8 34.7 C 48.1 35.0 49.1 34.1 49.8 33.8 C 50.5 33.5 50.7 32.3 51.2 32.0 C 51.7 31.6 50.6 31.8 51.5 31.3 C 52.4 30.9 52.2 31.5 51.3 32.4 C 50.4 33.2 52.0 32.6 52.6 32.3 C 53.2 32.1 54.0 31.2 54.5 30.9 C 54.9 30.7 54.0 30.5 54.7 30.1 C 55.3 29.7 55.4 30.4 56.1 30.1 C 56.8 29.8 56.3 29.3 56.5 28.9 C 56.8 28.6 56.9 29.0 57.2 28.8 C 57.5 28.7 58.1 28.5 58.5 28.0 C 59.0 27.4 58.7 27.4 58.9 27.1 C 59.2 26.9 59.6 26.5 59.6 26.5 C 59.8 26.7 60.0 26.8 60.1 27.0 C 60.1 27.0 61.2 26.2 61.5 26.0 C 61.8 25.8 62.2 25.0 62.0 25.0 C 61.7 25.1 62.0 24.2 62.2 24.1 C 62.5 24.1 63.1 23.9 63.6 23.7 C 64.0 23.5 62.7 22.3 62.5 22.1 C 62.3 22.0 61.9 21.1 61.5 21.3 C 61.2 21.5 61.2 22.0 61.1 21.7 C 61.0 21.5 60.4 22.4 60.1 22.6 C 59.9 22.8 60.1 23.6 60.1 23.6 C 60.1 23.6 60.2 24.2 59.8 24.5 C 59.5 24.8 58.6 24.1 58.6 24.1 C 58.6 24.1 58.0 24.3 57.6 24.8 C 57.2 25.2 57.2 26.3 57.2 26.5 C 57.2 26.8 56.7 26.1 56.3 26.3 C 55.9 26.4 55.2 26.6 55.1 26.8 C 55.0 26.9 55.1 27.5 55.1 27.5 C 55.1 27.5 54.6 28.3 54.4 28.4 C 54.3 28.5 54.1 27.6 54.1 27.6 C 54.1 27.6 52.5 28.4 52.2 28.5 C 51.9 28.6 51.5 29.1 51.3 29.3 C 51.1 29.5 51.3 30.5 50.9 30.6 C 50.5 30.7 50.9 29.9 50.6 30.0 C 50.2 30.1 49.5 30.2 49.3 30.3 C 49.1 30.4 49.1 30.9 48.8 31.1 C 48.5 31.2 48.5 32.1 48.0 32.4 C 47.5 32.6 47.1 32.3 46.9 32.3 C 46.6 32.3 46.2 31.8 45.9 31.9 C 45.5 32.1 45.9 32.4 45.6 32.5 C 45.2 32.7 45.4 33.1 45.0 33.2 C 44.6 33.3 44.5 32.5 44.1 32.8 C 44.0 32.9 44.1 32.8 43.0 33.3 C 43.0 33.3 43.0 33.3 43.0 33.3 Z M 62.2 20.8 C 61.6 20.9 61.6 21.5 61.9 21.7 C 62.2 21.9 63.0 22.5 63.1 22.8 C 63.2 23.2 63.2 24.1 64.0 23.5 C 64.7 23.0 64.7 22.6 64.5 22.5 C 64.3 22.3 63.7 21.5 64.0 21.3 C 64.2 21.2 64.6 21.2 64.7 21.3 C 64.9 21.3 65.9 21.7 66.1 21.3 C 66.3 20.8 66.3 20.3 66.3 20.3 C 66.5 20.1 66.6 20.0 66.7 19.8 C 66.7 19.8 67.6 19.7 67.8 19.2 C 68.0 18.7 68.4 18.2 68.7 18.0 C 68.9 17.7 69.1 17.3 68.9 17.1 C 68.8 16.9 68.4 16.0 68.4 16.0 C 68.4 16.0 68.5 15.5 68.8 15.3 C 69.1 15.2 69.5 15.4 69.6 15.6 C 69.7 15.7 70.1 15.9 70.4 15.7 C 70.7 15.4 72.0 14.2 71.9 13.9 C 71.8 13.5 71.5 13.4 71.5 13.1 C 71.5 12.9 72.0 12.0 72.3 12.0 C 72.5 12.0 72.9 12.3 73.0 12.0 C 73.2 11.7 73.6 11.2 73.5 11.1 C 73.4 11.1 73.3 10.8 73.1 10.7 C 72.9 10.5 73.0 9.8 72.9 9.7 C 72.8 9.5 73.0 9.0 73.0 9.0 C 73.3 8.9 73.5 8.8 73.7 8.6 C 73.7 8.6 74.0 9.2 74.0 9.4 C 74.0 9.6 74.4 9.5 74.6 9.3 C 74.7 9.2 75.2 8.0 75.2 8.0 C 74.8 7.8 74.5 7.6 74.1 7.5 C 74.2 7.1 74.2 6.8 74.3 6.5 C 74.3 6.5 75.5 7.2 75.7 6.6 C 76.0 6.1 76.2 5.4 76.2 5.4 C 76.2 5.4 76.0 4.6 76.0 4.5 C 76.0 4.3 74.9 3.8 74.9 3.8 C 74.5 3.7 74.0 3.6 73.6 3.4 C 73.6 3.4 72.9 3.9 72.9 4.3 C 72.9 4.8 73.5 4.7 73.7 4.8 C 73.9 4.9 73.9 5.6 73.9 5.6 C 73.6 5.7 73.2 5.9 72.9 6.0 C 72.9 6.0 72.6 6.1 72.3 6.2 C 71.9 6.4 71.4 7.1 71.4 7.4 C 71.4 7.6 71.6 8.0 71.6 8.4 C 71.7 8.8 72.1 8.9 71.6 9.1 C 71.2 9.3 70.8 9.3 70.7 9.4 C 70.6 9.6 70.6 10.5 70.6 10.5 C 70.6 10.8 70.6 11.0 70.6 11.3 C 70.6 11.3 70.5 11.9 70.2 11.8 C 69.9 11.8 69.5 13.0 69.5 13.0 C 69.5 13.0 68.9 12.4 68.6 12.6 C 68.3 12.8 67.9 13.1 67.8 13.6 C 67.6 14.0 68.0 14.8 68.0 14.8 C 67.8 14.8 67.5 14.8 67.3 14.8 C 67.0 15.2 66.7 15.5 66.3 15.8 C 66.3 15.8 65.8 16.7 65.9 16.7 C 66.0 16.8 66.6 17.2 66.7 17.3 C 66.8 17.5 66.7 18.1 66.4 18.0 C 66.2 17.9 65.4 17.8 65.4 17.8 C 65.4 17.8 64.8 17.9 64.6 18.1 C 64.3 18.3 64.2 18.8 64.2 19.0 C 64.3 19.2 64.3 19.9 64.3 19.9 C 64.1 19.8 63.8 19.8 63.6 19.7 C 63.6 19.7 63.2 20.6 62.2 20.8 C 62.2 20.8 62.2 20.8 62.2 20.8 Z M 62.2 20.8 " fill="#FF2600"></path><path d="M 16.7 32.1 C 16.8 31.8 17.8 31.3 17.1 32.1 C 17.1 32.1 16.7 32.3 16.7 32.1 Z M 15.1 33.2 C 15.2 33.1 15.3 33.1 15.5 33.1 C 15.8 33.3 14.7 33.5 15.1 33.2 Z M 17.7 31.9 C 17.7 31.9 18.2 31.5 18.2 31.7 C 18.1 31.8 17.7 32.0 17.7 31.9 Z M 14.1 34.9 C 14.0 34.7 14.6 34.4 14.7 34.4 C 15.1 34.4 14.2 35.2 14.1 34.9 Z M 18.9 37.4 C 18.9 37.4 18.9 37.5 18.9 37.5 C 18.9 37.5 18.8 37.4 18.9 37.4 Z M 6.4 39.7 C 6.4 39.6 6.7 39.6 6.8 39.7 C 6.8 39.9 6.1 40.0 6.4 39.7 Z M 19.9 48.4 C 19.9 48.4 20.0 48.1 20.1 48.2 C 20.2 48.3 20.0 48.5 19.9 48.4 Z M 20.1 48.4 C 20.2 48.3 20.3 48.6 20.2 48.5 C 20.0 48.5 20.0 48.4 20.1 48.4 Z M 11.0 46.6 C 11.0 46.6 10.9 46.6 11.0 46.6 C 11.1 46.5 11.2 46.7 11.0 46.6 Z M 11.4 46.6 C 11.5 46.5 11.6 46.8 11.4 46.7 C 11.3 46.7 11.2 46.7 11.4 46.6 Z M 12.7 48.2 C 12.6 48.2 12.6 48.2 12.7 48.2 C 12.7 48.1 12.8 48.3 12.7 48.2 Z M 20.1 43.8 C 20.1 43.9 20.1 44.2 19.9 44.2 C 19.8 44.2 20.0 43.7 20.1 43.8 Z M 20.2 44.3 C 20.3 44.2 20.4 44.5 20.2 44.4 C 20.1 44.4 20.1 44.3 20.2 44.3 Z M 19.8 42.9 C 19.7 42.9 19.6 42.5 19.6 42.4 C 19.7 42.3 19.7 42.2 19.8 42.0 C 19.8 42.0 20.1 42.9 19.8 42.9 Z M 19.5 39.9 C 19.5 39.9 19.6 40.0 19.5 40.1 C 19.4 40.2 19.4 40.0 19.5 39.9 Z M 19.7 41.6 C 19.7 41.6 19.8 41.6 19.7 41.8 C 19.7 41.9 19.6 41.6 19.7 41.6 Z M 10.8 36.6 C 10.7 36.6 11.2 36.3 11.2 36.3 C 11.3 36.3 11.1 36.5 11.2 36.4 C 11.4 36.4 11.3 36.9 10.8 36.6 Z M 14.2 33.9 C 14.3 33.9 14.4 33.9 14.4 34.0 C 14.4 34.0 14.0 34.1 14.2 33.9 Z M 11.7 36.7 C 11.7 36.7 11.8 36.6 11.8 36.7 C 11.8 36.7 11.7 36.8 11.7 36.7 Z M 11.5 37.0 C 11.5 36.9 11.8 36.9 11.9 37.0 C 11.9 37.2 11.2 37.3 11.5 37.0 Z M 10.2 36.8 C 10.4 36.7 10.4 36.7 10.3 36.8 C 10.3 36.9 10.2 36.8 10.2 36.8 Z M 12.2 35.2 C 12.3 35.1 12.3 35.1 12.3 35.2 C 12.2 35.3 12.2 35.2 12.2 35.2 Z M 9.4 37.7 C 9.4 37.7 9.6 37.4 9.8 37.6 C 10.1 37.8 9.5 37.7 9.4 37.7 Z M 8.2 39.0 C 8.3 39.0 8.3 39.1 8.2 39.1 C 8.1 39.2 8.1 39.1 8.2 39.0 Z M 8.0 39.9 C 7.8 39.9 7.6 39.9 7.9 39.7 C 8.1 39.6 8.2 39.8 8.0 39.9 Z M 8.2 39.6 C 8.2 39.6 8.2 39.7 8.1 39.6 C 8.1 39.6 8.2 39.5 8.2 39.6 Z M 9.2 38.4 C 9.3 38.2 9.5 38.3 9.3 38.4 C 9.2 38.6 9.1 38.5 9.2 38.4 Z M 19.5 35.8 C 19.5 35.7 19.6 35.7 19.7 35.8 C 19.8 35.9 19.6 35.9 19.5 35.8 Z M 19.3 42.2 C 19.4 42.1 19.4 42.2 19.3 42.4 C 19.3 42.5 19.2 42.3 19.3 42.2 Z M 19.2 46.3 C 19.3 46.2 19.3 46.3 19.3 46.4 C 19.2 46.6 19.1 46.4 19.2 46.3 Z M 19.2 40.6 C 19.2 40.5 19.6 41.0 19.3 41.2 C 19.0 41.5 18.9 40.7 19.2 40.6 Z M 15.7 36.9 C 15.6 36.8 15.7 36.8 15.7 36.8 C 15.7 36.9 15.7 36.9 15.7 36.9 Z M 18.7 41.5 C 18.7 41.5 18.9 41.5 18.9 41.5 C 19.0 41.6 18.8 41.7 18.7 41.5 Z M 19.4 45.5 C 19.5 45.4 19.7 45.4 19.8 45.5 C 20.1 45.8 19.8 46.1 19.6 46.4 C 19.5 46.5 19.4 45.6 19.4 45.5 Z M 18.8 34.9 C 18.8 35.0 18.8 35.1 18.8 35.2 C 18.9 35.2 18.8 35.2 18.8 35.3 C 18.8 35.7 19.2 35.9 19.3 36.2 C 19.6 36.8 18.9 37.0 18.9 37.4 C 18.8 37.3 18.8 37.2 18.8 37.2 C 18.5 37.0 18.7 38.4 18.7 38.5 C 19.0 39.7 19.1 38.2 19.5 38.2 C 19.7 38.2 19.3 39.0 19.3 39.1 C 19.1 39.5 19.5 39.5 19.4 39.9 C 19.3 40.0 18.4 40.5 18.6 40.7 C 18.7 40.8 18.6 41.2 18.6 41.3 C 18.6 41.5 18.7 41.9 19.0 41.7 C 19.2 41.5 19.5 41.4 19.3 41.8 C 19.1 42.0 18.6 43.4 19.3 43.3 C 19.4 43.3 19.6 43.0 19.5 43.0 C 19.7 43.4 19.6 44.6 19.9 44.8 C 20.5 45.4 19.5 44.7 19.3 45.0 C 19.1 45.6 18.9 45.9 19.1 46.5 C 19.1 46.7 19.2 47.3 19.5 47.0 C 19.7 46.8 19.9 46.9 20.0 46.5 C 20.3 47.0 19.7 47.3 19.8 47.4 C 20.0 47.5 20.1 47.2 20.1 47.6 C 20.1 48.0 20.2 47.8 19.8 47.9 C 19.7 47.9 19.7 48.3 19.7 48.3 C 19.7 48.3 19.6 48.3 19.6 48.3 C 19.6 48.6 20.3 49.1 20.2 49.2 C 20.1 49.2 19.6 49.1 19.5 49.1 C 19.5 49.1 19.5 49.2 19.5 49.2 C 19.5 49.3 19.8 49.6 19.8 49.7 C 19.7 49.7 19.1 49.5 19.3 49.7 C 19.4 49.8 19.3 50.6 19.1 50.6 C 18.9 50.7 18.1 50.9 18.1 51.0 C 18.0 51.2 17.6 50.9 17.5 50.9 C 17.4 50.9 17.3 50.5 17.2 50.5 C 17.2 50.4 16.9 50.3 16.9 50.3 C 16.9 50.3 16.7 50.3 16.5 50.2 C 16.2 50.1 16.1 49.8 15.9 49.6 C 15.6 49.4 15.4 49.5 15.1 49.4 C 14.8 49.3 14.7 48.7 14.5 48.5 C 14.3 48.3 14.1 48.7 13.8 48.5 C 13.5 48.4 13.4 48.2 13.5 48.2 C 13.6 48.2 13.6 48.1 13.5 48.0 C 13.4 48.0 13.1 47.7 12.9 47.7 C 12.7 47.7 13.5 48.5 12.4 47.8 C 11.8 47.5 11.6 46.9 11.7 47.0 C 12.2 47.2 11.6 46.2 11.5 46.3 C 11.4 46.5 10.4 46.0 10.5 46.4 C 10.5 46.5 9.5 46.1 9.3 46.0 C 9.2 45.9 8.7 45.7 8.8 45.4 C 8.8 45.2 8.0 45.3 7.9 45.2 C 7.7 45.2 7.0 44.7 6.9 44.5 C 6.7 44.4 7.1 44.6 7.3 44.7 C 7.5 44.8 7.6 45.0 7.8 45.1 C 8.0 45.1 7.7 44.8 7.5 44.7 C 7.4 44.6 7.4 44.4 7.2 44.2 C 7.1 44.2 7.0 44.2 6.9 44.0 C 6.8 44.0 6.7 44.0 6.7 44.1 C 6.7 44.2 6.7 44.3 6.7 44.3 C 6.6 44.4 6.4 44.4 6.2 44.3 C 6.0 44.1 5.8 44.0 5.5 43.7 C 5.2 43.5 5.1 43.5 4.9 43.5 C 4.6 43.4 4.5 43.2 4.5 43.2 C 4.5 43.1 4.8 43.2 4.9 43.1 C 4.9 43.1 4.7 42.8 4.6 42.7 C 4.0 42.3 4.8 42.0 4.2 41.7 C 3.9 41.5 4.4 41.5 4.7 41.4 C 4.6 41.3 4.6 41.3 4.8 41.0 C 4.8 41.0 5.2 40.8 5.3 40.7 C 5.4 40.6 6.0 40.0 5.7 40.4 C 5.7 40.5 5.7 40.5 5.7 40.6 C 5.7 40.6 5.7 40.6 5.7 40.6 C 5.7 40.6 5.7 41.0 5.7 41.0 C 5.7 41.0 5.7 40.6 5.7 40.6 C 5.8 40.6 6.0 40.7 6.1 40.7 C 6.1 40.6 6.1 40.6 6.1 40.5 C 6.1 40.5 6.1 40.5 6.2 40.5 C 6.1 40.5 6.1 40.5 6.1 40.5 C 6.1 40.4 6.1 40.4 6.2 40.3 C 6.4 40.0 7.1 39.8 7.4 39.8 C 7.1 40.8 8.2 40.0 8.5 39.7 C 8.8 39.4 8.3 38.7 8.1 38.8 C 8.4 38.6 8.5 38.7 8.7 38.8 C 8.7 38.8 9.3 39.0 9.3 39.0 C 10.0 38.9 9.5 38.4 9.6 38.2 C 9.7 38.0 9.9 37.8 10.0 37.7 C 10.2 37.5 10.0 37.5 10.0 37.4 C 10.0 36.9 10.8 37.2 11.0 37.1 C 10.9 37.2 10.7 37.4 10.6 37.6 C 10.8 37.3 11.1 37.6 11.2 37.5 C 11.5 37.5 11.7 37.3 11.9 37.1 C 12.2 36.9 12.5 36.6 12.8 36.3 C 12.7 36.3 11.9 36.3 11.8 36.3 C 12.0 36.2 12.3 36.1 12.0 35.9 C 11.5 35.6 12.5 35.2 12.7 35.1 C 13.2 34.9 13.4 34.1 14.1 34.3 C 14.1 34.3 13.5 34.9 13.6 34.9 C 14.0 35.2 14.4 35.3 14.8 34.9 C 14.8 34.8 15.3 34.1 15.3 34.0 C 15.3 34.1 14.0 33.6 14.8 33.5 C 14.9 33.5 14.8 33.8 15.0 33.8 C 15.3 33.7 15.5 33.5 15.7 33.4 C 15.8 33.3 16.2 33.2 16.2 33.2 C 16.2 33.0 16.1 32.8 16.2 32.6 C 16.3 32.5 16.5 32.5 16.6 32.6 C 16.6 32.6 16.6 32.7 16.6 32.7 C 16.7 32.6 16.7 32.7 16.8 32.8 C 16.8 32.7 16.9 32.6 17.1 32.7 C 17.1 32.7 17.0 32.8 16.8 32.8 C 16.9 32.9 16.9 32.9 16.9 33.0 C 17.1 32.8 17.2 32.7 17.2 32.6 C 17.4 32.2 17.3 32.1 18.0 32.1 C 18.6 32.2 19.0 33.5 18.9 34.3 C 18.9 34.4 18.9 34.6 18.8 34.9 Z M 6.6 43.6 C 6.6 43.7 6.6 43.7 6.7 43.7 C 6.7 43.6 6.7 43.5 6.8 43.4 C 6.6 43.3 6.7 43.6 6.6 43.5 C 6.4 43.4 6.4 43.4 6.6 43.6 Z M 6.6 41.8 C 6.5 41.8 6.5 41.9 6.5 41.9 C 6.6 41.9 6.6 41.9 6.6 41.8 Z M 6.2 41.1 C 6.0 41.3 6.6 41.3 6.8 41.0 C 6.5 41.0 6.3 41.0 6.2 41.1 Z M 6.5 40.4 C 6.5 40.5 6.5 40.5 6.5 40.6 C 6.6 40.7 6.7 40.4 6.8 40.5 C 6.8 40.6 6.6 40.8 6.8 40.8 C 6.9 40.8 6.9 40.8 7.0 40.8 C 7.0 40.7 7.0 40.7 7.0 40.7 C 7.0 40.5 6.7 40.3 6.5 40.4 Z M 7.9 43.6 C 7.8 43.6 7.9 43.7 8.0 43.7 C 8.1 43.8 8.1 43.6 7.9 43.6 Z M 9.0 45.0 C 8.9 44.9 8.8 44.8 8.8 45.0 C 8.9 45.2 9.1 45.2 9.0 45.0 Z M 10.8 42.8 C 10.7 42.8 10.8 42.8 10.9 42.9 C 11.0 42.9 10.9 42.7 10.8 42.8 Z M 10.8 41.3 C 10.9 41.2 10.7 41.1 10.7 41.2 C 10.7 41.3 10.7 41.4 10.8 41.3 Z M 10.8 44.7 C 11.0 44.7 10.9 44.6 10.8 44.6 C 10.7 44.6 10.7 44.7 10.8 44.7 Z M 10.4 42.7 C 10.5 42.9 10.6 42.8 10.6 42.8 C 10.7 42.7 10.6 42.6 10.5 42.5 C 10.3 42.5 10.3 42.6 10.4 42.7 Z M 10.2 41.5 C 10.5 41.2 10.5 41.1 10.1 41.4 C 9.7 41.8 10.0 41.6 10.2 41.5 Z M 9.8 46.0 C 9.8 45.9 9.5 45.9 9.5 45.9 C 9.5 45.9 10.0 46.2 9.8 46.0 Z M 10.1 38.1 C 10.0 38.1 9.9 38.3 10.2 38.2 C 10.4 38.1 10.2 38.0 10.1 38.1 Z M 10.9 38.6 C 10.6 38.4 10.3 38.5 10.3 38.5 C 10.3 38.5 10.4 38.8 10.3 38.9 C 10.2 39.1 9.7 39.1 9.6 39.4 C 9.5 39.7 10.0 39.4 10.1 39.3 C 10.1 39.4 10.0 39.5 10.1 39.5 C 10.2 39.6 10.3 39.6 10.3 39.5 C 10.4 39.3 11.2 38.9 10.9 38.6 Z M 11.1 42.2 C 10.9 42.1 10.8 42.3 10.9 42.4 C 11.0 42.5 11.2 42.6 11.2 42.6 C 11.3 42.5 11.2 42.2 11.1 42.2 Z M 11.3 43.3 C 11.1 43.4 11.2 43.4 11.3 43.4 C 11.6 43.5 11.4 43.2 11.3 43.3 Z M 13.7 47.9 C 13.8 47.9 13.6 47.7 13.5 47.8 C 13.5 47.9 13.6 47.9 13.7 47.9 Z M 13.5 46.0 C 13.8 46.1 13.5 45.8 13.5 45.8 C 13.4 45.8 13.3 46.0 13.5 46.0 Z M 12.3 45.0 C 12.4 45.0 12.3 44.9 12.2 44.9 C 12.1 44.9 12.2 45.0 12.3 45.0 Z M 12.1 44.3 C 12.3 44.3 12.2 44.1 12.0 44.1 C 12.0 44.2 12.0 44.2 12.1 44.3 Z M 12.3 38.2 C 12.3 38.2 12.4 38.5 12.5 38.3 C 12.6 38.0 12.6 38.0 12.3 38.2 Z M 11.9 40.4 C 11.7 40.6 11.6 40.7 11.8 41.3 C 12.1 41.9 12.2 41.7 12.3 41.3 C 12.3 40.9 12.7 41.9 12.8 41.2 C 12.8 40.9 12.1 40.3 11.9 40.4 Z M 13.2 44.2 C 13.0 43.8 12.5 43.9 12.8 44.1 C 13.1 44.4 13.4 44.5 13.2 44.2 Z M 13.3 44.4 C 13.2 44.4 13.2 44.5 13.3 44.5 C 13.5 44.6 13.4 44.4 13.3 44.4 Z M 12.4 35.6 C 11.8 36.1 12.8 36.1 12.8 36.1 C 13.6 35.8 12.9 35.0 12.4 35.6 Z M 19.3 48.0 C 19.3 47.9 19.3 47.9 19.3 47.9 C 19.3 47.9 19.3 47.9 19.3 47.8 C 19.2 47.7 19.0 48.0 19.0 48.0 C 19.1 48.0 19.2 48.0 19.3 48.0 Z M 19.2 44.1 C 19.2 44.3 19.2 44.4 19.3 44.5 C 19.6 44.4 19.6 43.2 19.0 43.7 C 18.9 43.8 18.5 44.6 18.8 44.6 C 18.9 44.6 19.2 43.7 19.2 44.1 Z M 18.8 45.3 C 18.8 44.9 18.3 45.8 18.6 45.6 C 18.7 45.6 18.8 45.5 18.8 45.3 Z M 17.9 48.8 C 18.2 49.4 19.1 49.2 18.6 48.3 C 18.1 47.4 17.7 47.4 17.8 47.8 C 18.0 48.3 17.5 47.9 17.9 48.8 Z M 17.6 43.8 C 18.3 43.9 18.1 43.6 17.6 43.5 C 17.5 43.4 17.2 43.8 17.6 43.8 Z M 17.4 42.4 C 17.5 42.2 17.5 42.3 17.4 42.4 C 17.2 42.5 17.4 42.6 17.4 42.4 Z M 17.1 49.9 C 17.2 50.1 17.5 50.2 17.3 50.3 C 17.2 50.3 17.2 50.3 17.4 50.4 C 17.5 50.6 17.5 50.3 17.5 50.1 C 17.4 50.0 17.0 49.7 17.1 49.9 Z M 14.5 44.7 C 14.6 44.7 14.6 44.6 14.4 44.6 C 14.4 44.6 14.4 44.6 14.5 44.7 Z M 13.5 39.4 C 13.5 39.4 13.5 39.6 13.6 39.4 C 13.6 39.3 13.6 39.3 13.5 39.4 Z M 13.4 35.2 C 13.3 35.3 13.6 35.3 13.6 35.5 C 13.6 35.6 13.4 35.5 13.4 35.5 C 13.4 35.5 13.5 36.0 13.7 35.7 C 13.8 35.5 13.7 34.9 13.4 35.2 Z M 14.6 43.2 C 14.4 43.0 14.3 43.9 14.1 43.8 C 13.9 43.6 13.9 43.7 14.1 43.9 C 14.3 44.1 14.8 43.4 14.6 43.2 Z M 14.9 45.4 C 14.9 45.3 14.4 44.9 14.5 45.2 C 14.6 45.4 14.9 45.5 14.7 45.6 C 14.6 45.6 14.7 45.6 14.8 45.7 C 14.9 45.9 14.9 45.6 14.9 45.4 Z M 15.3 49.2 C 15.2 49.1 15.0 49.0 15.1 49.2 C 15.1 49.3 15.3 49.3 15.3 49.2 Z M 14.8 38.7 C 14.8 38.9 14.8 38.9 15.0 38.8 C 15.1 38.6 14.9 38.6 14.8 38.7 Z M 15.9 48.8 C 15.7 48.6 15.8 48.9 15.7 48.8 C 15.5 48.7 15.5 48.8 15.7 49.0 C 15.9 49.1 16.1 49.0 15.9 48.8 Z M 15.2 35.3 C 15.2 35.4 15.2 35.5 15.3 35.4 C 15.4 35.3 15.2 35.2 15.2 35.3 Z M 15.8 36.6 C 15.7 36.7 15.7 36.7 15.6 36.7 C 14.8 37.4 16.4 36.8 15.8 36.6 Z M 15.8 38.8 C 15.7 38.5 15.6 38.9 15.6 38.9 C 15.7 38.9 15.8 38.9 15.8 38.8 Z M 16.0 41.2 C 16.1 41.2 16.1 41.0 16.0 41.0 C 15.8 41.1 15.9 41.1 16.0 41.2 Z M 15.9 33.5 C 15.8 33.5 15.8 33.6 15.9 33.6 C 16.0 33.6 16.0 33.4 15.9 33.5 Z M 16.4 39.4 C 16.3 39.4 16.3 39.4 16.4 39.5 C 16.4 39.6 16.4 39.4 16.4 39.4 Z M 16.9 46.6 C 16.9 46.6 16.8 46.5 16.7 46.4 C 16.6 46.5 16.6 47.0 16.4 47.0 C 16.4 47.0 16.4 47.0 16.4 47.0 C 16.4 47.0 16.4 47.0 16.4 47.0 C 16.3 47.0 16.2 46.9 16.3 46.9 C 16.2 46.8 16.2 46.8 16.2 46.7 C 16.1 46.8 16.0 47.0 16.1 47.1 C 16.2 47.2 16.6 47.3 16.8 47.2 C 16.9 47.1 16.9 47.0 16.9 46.9 C 16.9 46.9 16.9 46.9 16.9 46.9 C 16.7 46.8 16.6 46.7 16.8 46.7 C 16.8 46.7 16.9 46.7 16.9 46.8 C 16.9 46.7 16.9 46.7 16.9 46.6 Z M 16.8 40.3 C 16.7 40.1 16.6 40.2 16.6 40.5 C 16.6 40.6 16.9 40.5 16.8 40.3 Z M 16.2 33.8 C 16.2 33.8 16.2 33.9 16.3 33.9 C 16.3 33.9 16.3 33.8 16.3 33.8 C 16.3 33.7 16.3 33.5 16.3 33.4 C 16.2 33.4 16.1 33.5 16.2 33.8 Z M 17.0 35.8 C 16.9 35.7 16.9 34.8 16.7 35.0 C 16.5 35.3 16.1 34.9 16.3 35.5 C 16.4 35.8 16.8 36.1 16.9 36.3 C 17.4 37.8 17.3 35.9 17.4 35.5 C 17.4 35.4 17.0 35.9 17.0 35.8 Z M 17.6 37.7 C 17.7 37.8 17.9 37.6 17.9 37.5 C 17.8 37.1 17.4 37.7 17.6 37.7 Z M 17.5 33.5 C 17.5 33.4 17.5 33.4 17.4 33.5 C 17.4 33.5 17.5 33.5 17.5 33.5 C 17.5 33.5 17.5 33.5 17.5 33.5 Z M 17.6 32.4 C 17.2 32.8 18.0 32.7 18.2 32.6 C 18.5 32.5 17.8 32.2 17.6 32.4 Z M 18.2 36.5 C 18.2 36.8 19.1 37.1 19.1 36.6 C 19.0 36.1 18.2 35.9 18.2 36.5 Z M 19.6 39.7 C 19.4 39.6 19.6 39.2 19.7 39.4 C 19.8 39.5 19.6 39.7 19.6 39.7 Z M 19.7 34.9 C 19.7 35.0 19.6 34.9 19.6 34.9 C 19.8 34.8 19.8 34.8 19.7 34.9 Z M 19.1 35.4 C 19.2 35.2 19.2 35.0 19.2 34.9 C 19.3 34.8 19.4 35.1 19.4 35.1 C 19.3 35.3 19.1 35.3 19.1 35.4 Z M 19.2 37.9 C 19.3 37.8 19.3 38.0 19.3 38.1 C 19.3 38.2 19.1 38.0 19.2 37.9 Z M 19.4 37.3 C 19.4 37.4 19.2 37.3 19.2 37.2 C 19.3 37.1 19.4 37.2 19.4 37.3 Z M 18.9 38.4 C 18.8 38.1 18.8 37.8 19.0 37.8 C 19.1 37.8 19.1 38.9 18.9 38.4 Z M 18.9 38.4 " fill="#FF2600"></path></g></svg>