<?xml version="1.0" encoding="UTF-8" standalone="no"?><svg xmlns="http://www.w3.org/2000/svg" xmlns:xlink="http://www.w3.org/1999/xlink" clip-rule="evenodd" stroke-miterlimit="4.00" viewBox="0 0 265 435"><desc>SVG generated by Keynote</desc><defs></defs><g transform="matrix(1.00, 0.00, -0.00, -1.00, 0.0, 435.0)"><g><clipPath id="clip-955"><path d="M 0.1 0.4 L 264.3 0.4 L 264.3 434.1 L 0.1 434.1 Z M 0.1 0.4 "></path></clipPath><g clip-path="url(#clip-955)"><image xlink:href="../../B09B99B2-9A29-4F00-BB5A-357C3C5A969F/assets/6FEA8D10668D4387425C4F363ED52C7C.png" width="264.00" height="434.00" transform="matrix(1.00, 0.00, -0.00, -1.00, 0.1, 434.1)" opacity="0.70"></image><image xlink:href="../../B09B99B2-9A29-4F00-BB5A-357C3C5A969F/assets/6765956A23A5BD91E869D3DF217B09CD.png" width="254.00" height="424.00" transform="matrix(1.00, 0.00, -0.00, -1.00, 4.0, 431.0)"></image><path d="M -0.1 -0.1 L 253.9 -0.1 L 253.9 423.9 L -0.1 423.9 Z M -0.1 -0.1 " fill="none" stroke="#F2F6F5" stroke-width="2.00" transform="matrix(1.00, 0.00, 0.00, -1.00, 4.1, 430.9)"></path></g></g><g><clipPath id="clip-956"><path d="M 87.3 128.5 L 195.3 128.5 L 195.3 236.5 L 87.3 236.5 Z M 87.3 128.5 "></path></clipPath><g clip-path="url(#clip-956)"><image xlink:href="../../DE87691F-2CA5-4CAF-9CA4-E02691EAFD98/assets/7E27D7D74B2DA92C336D6AD660991410.png" width="106.00" height="106.00" transform="matrix(1.00, 0.00, -0.00, -1.00, 88.3, 235.5)" opacity="0.50"></image><path d="M 91.3 234.5 L 191.3 234.5 L 191.3 134.5 L 91.3 134.5 Z M 91.3 234.5 " fill="#000000"></path></g></g><g><clipPath id="clip-957"><path d="M 18.8 186.8 L 83.2 186.8 L 83.2 251.2 L 18.8 251.2 Z M 18.8 186.8 "></path></clipPath><g clip-path="url(#clip-957)"><path d="M 19.8 250.2 L 82.2 250.2 L 82.2 187.8 L 19.8 187.8 Z M 19.8 250.2 " fill="#FEFFFF"></path></g></g></g></svg>