<?xml version="1.0" encoding="UTF-8" standalone="no"?><svg xmlns="http://www.w3.org/2000/svg" xmlns:xlink="http://www.w3.org/1999/xlink" clip-rule="evenodd" stroke-miterlimit="4.00" viewBox="0 0 1024 768"><desc>SVG generated by Keynote</desc><defs></defs><g transform="matrix(1.00, 0.00, -0.00, -1.00, 0.0, 768.0)"><path d="M 0.0 768.0 L 1024.0 768.0 L 1024.0 0.0 L 0.0 0.0 Z M 0.0 768.0 " fill="#FEFFFF"></path><g opacity="0.05"><g><clipPath id="clip-841"><path d="M 395.0 0.0 L 1024.0 0.0 L 1024.0 641.0 L 395.0 641.0 Z M 395.0 0.0 "></path></clipPath><g clip-path="url(#clip-841)"><image xlink:href="9A6F1F7F57DE1899BBA6D829851F14E0.png" width="546.00" height="540.00" transform="matrix(1.42, 0.00, -0.00, -1.42, 396.0, 639.0)"></image></g></g></g><text xml:space="preserve" font-family="Helvetica-Bold" font-weight="bold" font-size="52.0" fill="#000000" transform="matrix(1.00, 0.00, -0.00, -1.00, 222.0, 581.0)">“</text><text xml:space="preserve" font-family="Helvetica-Bold" font-weight="bold" font-size="52.0" fill="#000000" transform="matrix(1.00, 0.00, -0.00, -1.00, 248.0, 581.0)">O</text><text xml:space="preserve" font-family="Helvetica-Bold" font-weight="bold" font-size="52.0" fill="#000000" transform="matrix(1.00, 0.00, -0.00, -1.00, 288.4, 581.0)">n</text><text xml:space="preserve" font-family="Helvetica-Bold" font-weight="bold" font-size="52.0" fill="#000000" transform="matrix(1.00, 0.00, -0.00, -1.00, 320.2, 581.0)">e</text><text xml:space="preserve" font-family="Helvetica-Bold" font-weight="bold" font-size="52.0" fill="#000000" transform="matrix(1.00, 0.00, -0.00, -1.00, 349.1, 581.0)"> </text><text xml:space="preserve" font-family="Helvetica-Bold" font-weight="bold" font-size="52.0" fill="#000000" transform="matrix(1.00, 0.00, -0.00, -1.00, 363.6, 581.0)">D</text><text xml:space="preserve" font-family="Helvetica-Bold" font-weight="bold" font-size="52.0" fill="#000000" transform="matrix(1.00, 0.00, -0.00, -1.00, 401.1, 581.0)">o</text><text xml:space="preserve" font-family="Helvetica-Bold" font-weight="bold" font-size="52.0" fill="#000000" transform="matrix(1.00, 0.00, -0.00, -1.00, 432.9, 581.0)">e</text><text xml:space="preserve" font-family="Helvetica-Bold" font-weight="bold" font-size="52.0" fill="#000000" transform="matrix(1.00, 0.00, -0.00, -1.00, 461.8, 581.0)">s</text><text xml:space="preserve" font-family="Helvetica-Bold" font-weight="bold" font-size="52.0" fill="#000000" transform="matrix(1.00, 0.00, -0.00, -1.00, 490.7, 581.0)">n</text><text xml:space="preserve" font-family="Helvetica-Bold" font-weight="bold" font-size="52.0" fill="#000000" transform="matrix(1.00, 0.00, -0.00, -1.00, 522.5, 581.0)">’</text><text xml:space="preserve" font-family="Helvetica-Bold" font-weight="bold" font-size="52.0" fill="#000000" transform="matrix(1.00, 0.00, -0.00, -1.00, 536.9, 581.0)">t</text><text xml:space="preserve" font-family="Helvetica-Bold" font-weight="bold" font-size="52.0" fill="#000000" transform="matrix(1.00, 0.00, -0.00, -1.00, 554.2, 581.0)"> </text><text xml:space="preserve" font-family="Helvetica-Bold" font-weight="bold" font-size="52.0" fill="#000000" transform="matrix(1.00, 0.00, -0.00, -1.00, 568.7, 581.0)">F</text><text xml:space="preserve" font-family="Helvetica-Bold" font-weight="bold" font-size="52.0" fill="#000000" transform="matrix(1.00, 0.00, -0.00, -1.00, 600.4, 581.0)">i</text><text xml:space="preserve" font-family="Helvetica-Bold" font-weight="bold" font-size="52.0" fill="#000000" transform="matrix(1.00, 0.00, -0.00, -1.00, 614.9, 581.0)">t</text><text xml:space="preserve" font-family="Helvetica-Bold" font-weight="bold" font-size="52.0" fill="#000000" transform="matrix(1.00, 0.00, -0.00, -1.00, 632.2, 581.0)"> </text><text xml:space="preserve" font-family="Helvetica-Bold" font-weight="bold" font-size="52.0" fill="#000000" transform="matrix(1.00, 0.00, -0.00, -1.00, 644.7, 581.0)">A</text><text xml:space="preserve" font-family="Helvetica-Bold" font-weight="bold" font-size="52.0" fill="#000000" transform="matrix(1.00, 0.00, -0.00, -1.00, 682.3, 581.0)">l</text><text xml:space="preserve" font-family="Helvetica-Bold" font-weight="bold" font-size="52.0" fill="#000000" transform="matrix(1.00, 0.00, -0.00, -1.00, 696.7, 581.0)">l</text><text xml:space="preserve" font-family="Helvetica-Bold" font-weight="bold" font-size="52.0" fill="#000000" transform="matrix(1.00, 0.00, -0.00, -1.00, 711.2, 581.0)">”</text><text xml:space="preserve" font-family="Helvetica-Bold" font-weight="bold" font-size="52.0" fill="#000000" transform="matrix(1.00, 0.00, -0.00, -1.00, 737.2, 581.0)">:</text><text xml:space="preserve" font-family="Helvetica-Bold" font-weight="bold" font-size="52.0" fill="#000000" transform="matrix(1.00, 0.00, -0.00, -1.00, 754.5, 581.0)"> </text><text xml:space="preserve" font-family="Helvetica-Bold" font-weight="bold" font-size="52.0" fill="#000000" transform="matrix(1.00, 0.00, -0.00, -1.00, 767.0, 581.0)">A</text><text xml:space="preserve" font-family="Helvetica-Bold" font-weight="bold" font-size="52.0" fill="#000000" transform="matrix(1.00, 0.00, -0.00, -1.00, 802.7, 581.0)"> </text><text xml:space="preserve" font-family="Helvetica-Bold" font-weight="bold" font-size="52.0" fill="#000000" transform="matrix(1.00, 0.00, -0.00, -1.00, 142.0, 519.0)">C</text><text xml:space="preserve" font-family="Helvetica-Bold" font-weight="bold" font-size="52.0" fill="#000000" transform="matrix(1.00, 0.00, -0.00, -1.00, 179.6, 519.0)">o</text><text xml:space="preserve" font-family="Helvetica-Bold" font-weight="bold" font-size="52.0" fill="#000000" transform="matrix(1.00, 0.00, -0.00, -1.00, 211.3, 519.0)">m</text><text xml:space="preserve" font-family="Helvetica-Bold" font-weight="bold" font-size="52.0" fill="#000000" transform="matrix(1.00, 0.00, -0.00, -1.00, 257.6, 519.0)">p</text><text xml:space="preserve" font-family="Helvetica-Bold" font-weight="bold" font-size="52.0" fill="#000000" transform="matrix(1.00, 0.00, -0.00, -1.00, 289.3, 519.0)">a</text><text xml:space="preserve" font-family="Helvetica-Bold" font-weight="bold" font-size="52.0" fill="#000000" transform="matrix(1.00, 0.00, -0.00, -1.00, 318.2, 519.0)">r</text><text xml:space="preserve" font-family="Helvetica-Bold" font-weight="bold" font-size="52.0" fill="#000000" transform="matrix(1.00, 0.00, -0.00, -1.00, 338.5, 519.0)">a</text><text xml:space="preserve" font-family="Helvetica-Bold" font-weight="bold" font-size="52.0" fill="#000000" transform="matrix(1.00, 0.00, -0.00, -1.00, 367.4, 519.0)">t</text><text xml:space="preserve" font-family="Helvetica-Bold" font-weight="bold" font-size="52.0" fill="#000000" transform="matrix(1.00, 0.00, -0.00, -1.00, 384.7, 519.0)">i</text><text xml:space="preserve" font-family="Helvetica-Bold" font-weight="bold" font-size="52.0" fill="#000000" transform="matrix(1.00, 0.00, -0.00, -1.00, 399.2, 519.0)">v</text><text xml:space="preserve" font-family="Helvetica-Bold" font-weight="bold" font-size="52.0" fill="#000000" transform="matrix(1.00, 0.00, -0.00, -1.00, 428.1, 519.0)">e</text><text xml:space="preserve" font-family="Helvetica-Bold" font-weight="bold" font-size="52.0" fill="#000000" transform="matrix(1.00, 0.00, -0.00, -1.00, 457.0, 519.0)"> </text><text xml:space="preserve" font-family="Helvetica-Bold" font-weight="bold" font-size="52.0" fill="#000000" transform="matrix(1.00, 0.00, -0.00, -1.00, 471.5, 519.0)">S</text><text xml:space="preserve" font-family="Helvetica-Bold" font-weight="bold" font-size="52.0" fill="#000000" transform="matrix(1.00, 0.00, -0.00, -1.00, 506.2, 519.0)">t</text><text xml:space="preserve" font-family="Helvetica-Bold" font-weight="bold" font-size="52.0" fill="#000000" transform="matrix(1.00, 0.00, -0.00, -1.00, 523.5, 519.0)">u</text><text xml:space="preserve" font-family="Helvetica-Bold" font-weight="bold" font-size="52.0" fill="#000000" transform="matrix(1.00, 0.00, -0.00, -1.00, 555.2, 519.0)">d</text><text xml:space="preserve" font-family="Helvetica-Bold" font-weight="bold" font-size="52.0" fill="#000000" transform="matrix(1.00, 0.00, -0.00, -1.00, 587.0, 519.0)">y</text><text xml:space="preserve" font-family="Helvetica-Bold" font-weight="bold" font-size="52.0" fill="#000000" transform="matrix(1.00, 0.00, -0.00, -1.00, 615.9, 519.0)"> </text><text xml:space="preserve" font-family="Helvetica-Bold" font-weight="bold" font-size="52.0" fill="#000000" transform="matrix(1.00, 0.00, -0.00, -1.00, 630.3, 519.0)">o</text><text xml:space="preserve" font-family="Helvetica-Bold" font-weight="bold" font-size="52.0" fill="#000000" transform="matrix(1.00, 0.00, -0.00, -1.00, 662.1, 519.0)">f</text><text xml:space="preserve" font-family="Helvetica-Bold" font-weight="bold" font-size="52.0" fill="#000000" transform="matrix(1.00, 0.00, -0.00, -1.00, 679.4, 519.0)"> </text><text xml:space="preserve" font-family="Helvetica-Bold" font-weight="bold" font-size="52.0" fill="#000000" transform="matrix(1.00, 0.00, -0.00, -1.00, 693.9, 519.0)">V</text><text xml:space="preserve" font-family="Helvetica-Bold" font-weight="bold" font-size="52.0" fill="#000000" transform="matrix(1.00, 0.00, -0.00, -1.00, 725.7, 519.0)">a</text><text xml:space="preserve" font-family="Helvetica-Bold" font-weight="bold" font-size="52.0" fill="#000000" transform="matrix(1.00, 0.00, -0.00, -1.00, 754.6, 519.0)">r</text><text xml:space="preserve" font-family="Helvetica-Bold" font-weight="bold" font-size="52.0" fill="#000000" transform="matrix(1.00, 0.00, -0.00, -1.00, 774.9, 519.0)">i</text><text xml:space="preserve" font-family="Helvetica-Bold" font-weight="bold" font-size="52.0" fill="#000000" transform="matrix(1.00, 0.00, -0.00, -1.00, 789.3, 519.0)">o</text><text xml:space="preserve" font-family="Helvetica-Bold" font-weight="bold" font-size="52.0" fill="#000000" transform="matrix(1.00, 0.00, -0.00, -1.00, 821.1, 519.0)">u</text><text xml:space="preserve" font-family="Helvetica-Bold" font-weight="bold" font-size="52.0" fill="#000000" transform="matrix(1.00, 0.00, -0.00, -1.00, 852.8, 519.0)">s</text><text xml:space="preserve" font-family="Helvetica-Bold" font-weight="bold" font-size="52.0" fill="#000000" transform="matrix(1.00, 0.00, -0.00, -1.00, 881.7, 519.0)"> </text><text xml:space="preserve" font-family="Helvetica-Bold" font-weight="bold" font-size="52.0" fill="#000000" transform="matrix(1.00, 0.00, -0.00, -1.00, 187.0, 457.0)">F</text><text xml:space="preserve" font-family="Helvetica-Bold" font-weight="bold" font-size="52.0" fill="#000000" transform="matrix(1.00, 0.00, -0.00, -1.00, 218.8, 457.0)">i</text><text xml:space="preserve" font-family="Helvetica-Bold" font-weight="bold" font-size="52.0" fill="#000000" transform="matrix(1.00, 0.00, -0.00, -1.00, 233.2, 457.0)">n</text><text xml:space="preserve" font-family="Helvetica-Bold" font-weight="bold" font-size="52.0" fill="#000000" transform="matrix(1.00, 0.00, -0.00, -1.00, 264.9, 457.0)">g</text><text xml:space="preserve" font-family="Helvetica-Bold" font-weight="bold" font-size="52.0" fill="#000000" transform="matrix(1.00, 0.00, -0.00, -1.00, 296.7, 457.0)">e</text><text xml:space="preserve" font-family="Helvetica-Bold" font-weight="bold" font-size="52.0" fill="#000000" transform="matrix(1.00, 0.00, -0.00, -1.00, 325.6, 457.0)">r</text><text xml:space="preserve" font-family="Helvetica-Bold" font-weight="bold" font-size="52.0" fill="#000000" transform="matrix(1.00, 0.00, -0.00, -1.00, 345.9, 457.0)"> </text><text xml:space="preserve" font-family="Helvetica-Bold" font-weight="bold" font-size="52.0" fill="#000000" transform="matrix(1.00, 0.00, -0.00, -1.00, 360.3, 457.0)">G</text><text xml:space="preserve" font-family="Helvetica-Bold" font-weight="bold" font-size="52.0" fill="#000000" transform="matrix(1.00, 0.00, -0.00, -1.00, 400.7, 457.0)">e</text><text xml:space="preserve" font-family="Helvetica-Bold" font-weight="bold" font-size="52.0" fill="#000000" transform="matrix(1.00, 0.00, -0.00, -1.00, 429.7, 457.0)">s</text><text xml:space="preserve" font-family="Helvetica-Bold" font-weight="bold" font-size="52.0" fill="#000000" transform="matrix(1.00, 0.00, -0.00, -1.00, 458.6, 457.0)">t</text><text xml:space="preserve" font-family="Helvetica-Bold" font-weight="bold" font-size="52.0" fill="#000000" transform="matrix(1.00, 0.00, -0.00, -1.00, 475.9, 457.0)">u</text><text xml:space="preserve" font-family="Helvetica-Bold" font-weight="bold" font-size="52.0" fill="#000000" transform="matrix(1.00, 0.00, -0.00, -1.00, 507.7, 457.0)">r</text><text xml:space="preserve" font-family="Helvetica-Bold" font-weight="bold" font-size="52.0" fill="#000000" transform="matrix(1.00, 0.00, -0.00, -1.00, 527.9, 457.0)">e</text><text xml:space="preserve" font-family="Helvetica-Bold" font-weight="bold" font-size="52.0" fill="#000000" transform="matrix(1.00, 0.00, -0.00, -1.00, 556.9, 457.0)"> </text><text xml:space="preserve" font-family="Helvetica-Bold" font-weight="bold" font-size="52.0" fill="#000000" transform="matrix(1.00, 0.00, -0.00, -1.00, 571.3, 457.0)">I</text><text xml:space="preserve" font-family="Helvetica-Bold" font-weight="bold" font-size="52.0" fill="#000000" transform="matrix(1.00, 0.00, -0.00, -1.00, 585.7, 457.0)">n</text><text xml:space="preserve" font-family="Helvetica-Bold" font-weight="bold" font-size="52.0" fill="#000000" transform="matrix(1.00, 0.00, -0.00, -1.00, 617.5, 457.0)">t</text><text xml:space="preserve" font-family="Helvetica-Bold" font-weight="bold" font-size="52.0" fill="#000000" transform="matrix(1.00, 0.00, -0.00, -1.00, 634.8, 457.0)">e</text><text xml:space="preserve" font-family="Helvetica-Bold" font-weight="bold" font-size="52.0" fill="#000000" transform="matrix(1.00, 0.00, -0.00, -1.00, 663.7, 457.0)">r</text><text xml:space="preserve" font-family="Helvetica-Bold" font-weight="bold" font-size="52.0" fill="#000000" transform="matrix(1.00, 0.00, -0.00, -1.00, 684.0, 457.0)">a</text><text xml:space="preserve" font-family="Helvetica-Bold" font-weight="bold" font-size="52.0" fill="#000000" transform="matrix(1.00, 0.00, -0.00, -1.00, 712.9, 457.0)">c</text><text xml:space="preserve" font-family="Helvetica-Bold" font-weight="bold" font-size="52.0" fill="#000000" transform="matrix(1.00, 0.00, -0.00, -1.00, 741.8, 457.0)">t</text><text xml:space="preserve" font-family="Helvetica-Bold" font-weight="bold" font-size="52.0" fill="#000000" transform="matrix(1.00, 0.00, -0.00, -1.00, 759.2, 457.0)">i</text><text xml:space="preserve" font-family="Helvetica-Bold" font-weight="bold" font-size="52.0" fill="#000000" transform="matrix(1.00, 0.00, -0.00, -1.00, 773.6, 457.0)">o</text><text xml:space="preserve" font-family="Helvetica-Bold" font-weight="bold" font-size="52.0" fill="#000000" transform="matrix(1.00, 0.00, -0.00, -1.00, 805.3, 457.0)">n</text><text xml:space="preserve" font-family="Helvetica-Bold" font-weight="bold" font-size="52.0" fill="#000000" transform="matrix(1.00, 0.00, -0.00, -1.00, 837.1, 457.0)"> </text><text xml:space="preserve" font-family="Helvetica-Bold" font-weight="bold" font-size="52.0" fill="#000000" transform="matrix(1.00, 0.00, -0.00, -1.00, 405.0, 395.0)">M</text><text xml:space="preserve" font-family="Helvetica-Bold" font-weight="bold" font-size="52.0" fill="#000000" transform="matrix(1.00, 0.00, -0.00, -1.00, 448.3, 395.0)">e</text><text xml:space="preserve" font-family="Helvetica-Bold" font-weight="bold" font-size="52.0" fill="#000000" transform="matrix(1.00, 0.00, -0.00, -1.00, 477.2, 395.0)">t</text><text xml:space="preserve" font-family="Helvetica-Bold" font-weight="bold" font-size="52.0" fill="#000000" transform="matrix(1.00, 0.00, -0.00, -1.00, 494.6, 395.0)">h</text><text xml:space="preserve" font-family="Helvetica-Bold" font-weight="bold" font-size="52.0" fill="#000000" transform="matrix(1.00, 0.00, -0.00, -1.00, 526.3, 395.0)">o</text><text xml:space="preserve" font-family="Helvetica-Bold" font-weight="bold" font-size="52.0" fill="#000000" transform="matrix(1.00, 0.00, -0.00, -1.00, 558.1, 395.0)">d</text><text xml:space="preserve" font-family="Helvetica-Bold" font-weight="bold" font-size="52.0" fill="#000000" transform="matrix(1.00, 0.00, -0.00, -1.00, 589.8, 395.0)">s</text><text xml:space="preserve" font-family="Helvetica-Light" font-size="32.0" fill="#000000" transform="matrix(1.00, 0.00, -0.00, -1.00, 121.0, 293.0)">T</text><text xml:space="preserve" font-family="Helvetica-Light" font-size="32.0" fill="#000000" transform="matrix(1.00, 0.00, -0.00, -1.00, 138.8, 293.0)">i</text><text xml:space="preserve" font-family="Helvetica-Light" font-size="32.0" fill="#000000" transform="matrix(1.00, 0.00, -0.00, -1.00, 145.9, 293.0)">f</text><text xml:space="preserve" font-family="Helvetica-Light" font-size="32.0" fill="#000000" transform="matrix(1.00, 0.00, -0.00, -1.00, 154.2, 293.0)">f</text><text xml:space="preserve" font-family="Helvetica-Light" font-size="32.0" fill="#000000" transform="matrix(1.00, 0.00, -0.00, -1.00, 163.1, 293.0)">a</text><text xml:space="preserve" font-family="Helvetica-Light" font-size="32.0" fill="#000000" transform="matrix(1.00, 0.00, -0.00, -1.00, 180.9, 293.0)">n</text><text xml:space="preserve" font-family="Helvetica-Light" font-size="32.0" fill="#000000" transform="matrix(1.00, 0.00, -0.00, -1.00, 198.7, 293.0)">y</text><text xml:space="preserve" font-family="Helvetica-Light" font-size="32.0" fill="#000000" transform="matrix(1.00, 0.00, -0.00, -1.00, 214.7, 293.0)"> </text><text xml:space="preserve" font-family="Helvetica-Light" font-size="32.0" fill="#000000" transform="matrix(1.00, 0.00, -0.00, -1.00, 223.6, 293.0)">Y</text><text xml:space="preserve" font-family="Helvetica-Light" font-size="32.0" fill="#000000" transform="matrix(1.00, 0.00, -0.00, -1.00, 239.6, 293.0)">.</text><text xml:space="preserve" font-family="Helvetica-Light" font-size="32.0" fill="#000000" transform="matrix(1.00, 0.00, -0.00, -1.00, 248.5, 293.0)"> </text><text xml:space="preserve" font-family="Helvetica-Light" font-size="32.0" fill="#000000" transform="matrix(1.00, 0.00, -0.00, -1.00, 257.4, 293.0)">T</text><text xml:space="preserve" font-family="Helvetica-Light" font-size="32.0" fill="#000000" transform="matrix(1.00, 0.00, -0.00, -1.00, 271.6, 293.0)">a</text><text xml:space="preserve" font-family="Helvetica-Light" font-size="32.0" fill="#000000" transform="matrix(1.00, 0.00, -0.00, -1.00, 289.4, 293.0)">n</text><text xml:space="preserve" font-family="Helvetica-Light" font-size="32.0" fill="#000000" transform="matrix(1.00, 0.00, -0.00, -1.00, 307.2, 293.0)">g</text><text xml:space="preserve" font-family="Helvetica-Light" font-size="32.0" fill="#000000" transform="matrix(1.00, 0.00, -0.00, -1.00, 326.8, 293.0)">,</text><text xml:space="preserve" font-family="Helvetica-Light" font-size="32.0" fill="#000000" transform="matrix(1.00, 0.00, -0.00, -1.00, 335.7, 293.0)"> </text><text xml:space="preserve" font-family="Helvetica-Light" font-size="32.0" fill="#000000" transform="matrix(1.00, 0.00, -0.00, -1.00, 344.6, 293.0)">M</text><text xml:space="preserve" font-family="Helvetica-Light" font-size="32.0" fill="#000000" transform="matrix(1.00, 0.00, -0.00, -1.00, 371.2, 293.0)">a</text><text xml:space="preserve" font-family="Helvetica-Light" font-size="32.0" fill="#000000" transform="matrix(1.00, 0.00, -0.00, -1.00, 389.0, 293.0)">l</text><text xml:space="preserve" font-family="Helvetica-Light" font-size="32.0" fill="#000000" transform="matrix(1.00, 0.00, -0.00, -1.00, 396.1, 293.0)">d</text><text xml:space="preserve" font-family="Helvetica-Light" font-size="32.0" fill="#000000" transform="matrix(1.00, 0.00, -0.00, -1.00, 415.7, 293.0)">i</text><text xml:space="preserve" font-family="Helvetica-Light" font-size="32.0" fill="#000000" transform="matrix(1.00, 0.00, -0.00, -1.00, 422.8, 293.0)">n</text><text xml:space="preserve" font-family="Helvetica-Light" font-size="32.0" fill="#000000" transform="matrix(1.00, 0.00, -0.00, -1.00, 440.6, 293.0)">i</text><text xml:space="preserve" font-family="Helvetica-Light" font-size="32.0" fill="#000000" transform="matrix(1.00, 0.00, -0.00, -1.00, 447.7, 293.0)"> </text><text xml:space="preserve" font-family="Helvetica-Light" font-size="32.0" fill="#000000" transform="matrix(1.00, 0.00, -0.00, -1.00, 456.6, 293.0)">Y</text><text xml:space="preserve" font-family="Helvetica-Light" font-size="32.0" fill="#000000" transform="matrix(1.00, 0.00, -0.00, -1.00, 475.5, 293.0)">i</text><text xml:space="preserve" font-family="Helvetica-Light" font-size="32.0" fill="#000000" transform="matrix(1.00, 0.00, -0.00, -1.00, 482.6, 293.0)">f</text><text xml:space="preserve" font-family="Helvetica-Light" font-size="32.0" fill="#000000" transform="matrix(1.00, 0.00, -0.00, -1.00, 491.5, 293.0)">a</text><text xml:space="preserve" font-family="Helvetica-Light" font-size="32.0" fill="#000000" transform="matrix(1.00, 0.00, -0.00, -1.00, 509.3, 293.0)">n</text><text xml:space="preserve" font-family="Helvetica-Light" font-size="32.0" fill="#000000" transform="matrix(1.00, 0.00, -0.00, -1.00, 527.0, 293.0)"> </text><text xml:space="preserve" font-family="Helvetica-Light" font-size="32.0" fill="#000000" transform="matrix(1.00, 0.00, -0.00, -1.00, 535.9, 293.0)">H</text><text xml:space="preserve" font-family="Helvetica-Light" font-size="32.0" fill="#000000" transform="matrix(1.00, 0.00, -0.00, -1.00, 559.0, 293.0)">e</text><text xml:space="preserve" font-family="Helvetica-Light" font-size="32.0" fill="#000000" transform="matrix(1.00, 0.00, -0.00, -1.00, 576.8, 293.0)"> </text><text xml:space="preserve" font-family="Helvetica-Light" font-size="32.0" fill="#000000" transform="matrix(1.00, 0.00, -0.00, -1.00, 585.7, 293.0)">a</text><text xml:space="preserve" font-family="Helvetica-Light" font-size="32.0" fill="#000000" transform="matrix(1.00, 0.00, -0.00, -1.00, 603.5, 293.0)">n</text><text xml:space="preserve" font-family="Helvetica-Light" font-size="32.0" fill="#000000" transform="matrix(1.00, 0.00, -0.00, -1.00, 621.3, 293.0)">d</text><text xml:space="preserve" font-family="Helvetica-Light" font-size="32.0" fill="#000000" transform="matrix(1.00, 0.00, -0.00, -1.00, 640.9, 293.0)"> </text><text xml:space="preserve" font-family="Helvetica-Light" font-size="32.0" fill="#000000" transform="matrix(1.00, 0.00, -0.00, -1.00, 649.8, 293.0)">V</text><text xml:space="preserve" font-family="Helvetica-Light" font-size="32.0" fill="#000000" transform="matrix(1.00, 0.00, -0.00, -1.00, 668.7, 293.0)">i</text><text xml:space="preserve" font-family="Helvetica-Light" font-size="32.0" fill="#000000" transform="matrix(1.00, 0.00, -0.00, -1.00, 675.8, 293.0)">n</text><text xml:space="preserve" font-family="Helvetica-Light" font-size="32.0" fill="#000000" transform="matrix(1.00, 0.00, -0.00, -1.00, 693.6, 293.0)">c</text><text xml:space="preserve" font-family="Helvetica-Light" font-size="32.0" fill="#000000" transform="matrix(1.00, 0.00, -0.00, -1.00, 711.4, 293.0)">e</text><text xml:space="preserve" font-family="Helvetica-Light" font-size="32.0" fill="#000000" transform="matrix(1.00, 0.00, -0.00, -1.00, 729.2, 293.0)"> </text><text xml:space="preserve" font-family="Helvetica-Light" font-size="32.0" fill="#000000" transform="matrix(1.00, 0.00, -0.00, -1.00, 738.1, 293.0)">L</text><text xml:space="preserve" font-family="Helvetica-Light" font-size="32.0" fill="#000000" transform="matrix(1.00, 0.00, -0.00, -1.00, 755.9, 293.0)">i</text><text xml:space="preserve" font-family="Helvetica-Light" font-size="32.0" fill="#000000" transform="matrix(1.00, 0.00, -0.00, -1.00, 763.0, 293.0)">n</text><text xml:space="preserve" font-family="Helvetica-Light" font-size="32.0" fill="#000000" transform="matrix(1.00, 0.00, -0.00, -1.00, 780.8, 293.0)">e</text><text xml:space="preserve" font-family="Helvetica-Light" font-size="32.0" fill="#000000" transform="matrix(1.00, 0.00, -0.00, -1.00, 798.6, 293.0)">n</text><text xml:space="preserve" font-family="Helvetica-Light" font-size="32.0" fill="#000000" transform="matrix(1.00, 0.00, -0.00, -1.00, 816.4, 293.0)">g</text><text xml:space="preserve" font-family="Helvetica-Light" font-size="32.0" fill="#000000" transform="matrix(1.00, 0.00, -0.00, -1.00, 835.9, 293.0)"> </text><text xml:space="preserve" font-family="Helvetica-Light" font-size="32.0" fill="#000000" transform="matrix(1.00, 0.00, -0.00, -1.00, 844.8, 293.0)">C</text><text xml:space="preserve" font-family="Helvetica-Light" font-size="32.0" fill="#000000" transform="matrix(1.00, 0.00, -0.00, -1.00, 867.9, 293.0)">a</text><text xml:space="preserve" font-family="Helvetica-Light" font-size="32.0" fill="#000000" transform="matrix(1.00, 0.00, -0.00, -1.00, 885.7, 293.0)">o</text><g><clipPath id="clip-842"><path d="M 0.2 705.8 L 55.1 705.8 L 55.1 768.2 L 0.2 768.2 Z M 0.2 705.8 "></path></clipPath><g clip-path="url(#clip-842)"><image xlink:href="FCA65AB6163C3244B97FA67EDF156BF9.png" width="55.00" height="63.00" transform="matrix(1.00, 0.00, -0.00, -0.98, 0.0, 768.0)"></image></g></g><g><clipPath id="clip-843"><path d="M 53.7 704.8 L 1026.5 704.8 L 1026.5 769.2 L 53.7 769.2 Z M 53.7 704.8 "></path></clipPath><g clip-path="url(#clip-843)"><path d="M 54.7 768.2 L 1025.5 768.2 L 1025.5 705.8 L 54.7 705.8 Z M 54.7 768.2 " fill="#F15F18"></path></g></g><text xml:space="preserve" font-family="Helvetica-Light" font-size="21.0" fill="#000000" transform="matrix(1.00, 0.00, -0.00, -1.00, 170.0, 255.0)">M</text><text xml:space="preserve" font-family="Helvetica-Light" font-size="21.0" fill="#000000" transform="matrix(1.00, 0.00, -0.00, -1.00, 187.5, 255.0)">e</text><text xml:space="preserve" font-family="Helvetica-Light" font-size="21.0" fill="#000000" transform="matrix(1.00, 0.00, -0.00, -1.00, 199.2, 255.0)">d</text><text xml:space="preserve" font-family="Helvetica-Light" font-size="21.0" fill="#000000" transform="matrix(1.00, 0.00, -0.00, -1.00, 212.0, 255.0)">i</text><text xml:space="preserve" font-family="Helvetica-Light" font-size="21.0" fill="#000000" transform="matrix(1.00, 0.00, -0.00, -1.00, 216.7, 255.0)">a</text><text xml:space="preserve" font-family="Helvetica-Light" font-size="21.0" fill="#000000" transform="matrix(1.00, 0.00, -0.00, -1.00, 228.3, 255.0)"> </text><text xml:space="preserve" font-family="Helvetica-Light" font-size="21.0" fill="#000000" transform="matrix(1.00, 0.00, -0.00, -1.00, 234.2, 255.0)">L</text><text xml:space="preserve" font-family="Helvetica-Light" font-size="21.0" fill="#000000" transform="matrix(1.00, 0.00, -0.00, -1.00, 245.9, 255.0)">a</text><text xml:space="preserve" font-family="Helvetica-Light" font-size="21.0" fill="#000000" transform="matrix(1.00, 0.00, -0.00, -1.00, 257.5, 255.0)">b</text><text xml:space="preserve" font-family="Helvetica-Light" font-size="21.0" fill="#000000" transform="matrix(1.00, 0.00, -0.00, -1.00, 270.4, 255.0)">,</text><text xml:space="preserve" font-family="Helvetica-Light" font-size="21.0" fill="#000000" transform="matrix(1.00, 0.00, -0.00, -1.00, 276.2, 255.0)"> </text><text xml:space="preserve" font-family="Helvetica-Light" font-size="21.0" fill="#000000" transform="matrix(1.00, 0.00, -0.00, -1.00, 282.0, 255.0)">D</text><text xml:space="preserve" font-family="Helvetica-Light" font-size="21.0" fill="#000000" transform="matrix(1.00, 0.00, -0.00, -1.00, 297.2, 255.0)">e</text><text xml:space="preserve" font-family="Helvetica-Light" font-size="21.0" fill="#000000" transform="matrix(1.00, 0.00, -0.00, -1.00, 308.9, 255.0)">p</text><text xml:space="preserve" font-family="Helvetica-Light" font-size="21.0" fill="#000000" transform="matrix(1.00, 0.00, -0.00, -1.00, 321.7, 255.0)">t</text><text xml:space="preserve" font-family="Helvetica-Light" font-size="21.0" fill="#000000" transform="matrix(1.00, 0.00, -0.00, -1.00, 327.5, 255.0)">.</text><text xml:space="preserve" font-family="Helvetica-Light" font-size="21.0" fill="#000000" transform="matrix(1.00, 0.00, -0.00, -1.00, 333.4, 255.0)"> </text><text xml:space="preserve" font-family="Helvetica-Light" font-size="21.0" fill="#000000" transform="matrix(1.00, 0.00, -0.00, -1.00, 339.2, 255.0)">o</text><text xml:space="preserve" font-family="Helvetica-Light" font-size="21.0" fill="#000000" transform="matrix(1.00, 0.00, -0.00, -1.00, 350.9, 255.0)">f</text><text xml:space="preserve" font-family="Helvetica-Light" font-size="21.0" fill="#000000" transform="matrix(1.00, 0.00, -0.00, -1.00, 356.7, 255.0)"> </text><text xml:space="preserve" font-family="Helvetica-Light" font-size="21.0" fill="#000000" transform="matrix(1.00, 0.00, -0.00, -1.00, 362.6, 255.0)">C</text><text xml:space="preserve" font-family="Helvetica-Light" font-size="21.0" fill="#000000" transform="matrix(1.00, 0.00, -0.00, -1.00, 377.7, 255.0)">o</text><text xml:space="preserve" font-family="Helvetica-Light" font-size="21.0" fill="#000000" transform="matrix(1.00, 0.00, -0.00, -1.00, 389.4, 255.0)">m</text><text xml:space="preserve" font-family="Helvetica-Light" font-size="21.0" fill="#000000" transform="matrix(1.00, 0.00, -0.00, -1.00, 406.9, 255.0)">p</text><text xml:space="preserve" font-family="Helvetica-Light" font-size="21.0" fill="#000000" transform="matrix(1.00, 0.00, -0.00, -1.00, 419.7, 255.0)">u</text><text xml:space="preserve" font-family="Helvetica-Light" font-size="21.0" fill="#000000" transform="matrix(1.00, 0.00, -0.00, -1.00, 431.4, 255.0)">t</text><text xml:space="preserve" font-family="Helvetica-Light" font-size="21.0" fill="#000000" transform="matrix(1.00, 0.00, -0.00, -1.00, 437.2, 255.0)">e</text><text xml:space="preserve" font-family="Helvetica-Light" font-size="21.0" fill="#000000" transform="matrix(1.00, 0.00, -0.00, -1.00, 448.9, 255.0)">r</text><text xml:space="preserve" font-family="Helvetica-Light" font-size="21.0" fill="#000000" transform="matrix(1.00, 0.00, -0.00, -1.00, 455.9, 255.0)"> </text><text xml:space="preserve" font-family="Helvetica-Light" font-size="21.0" fill="#000000" transform="matrix(1.00, 0.00, -0.00, -1.00, 461.8, 255.0)">S</text><text xml:space="preserve" font-family="Helvetica-Light" font-size="21.0" fill="#000000" transform="matrix(1.00, 0.00, -0.00, -1.00, 474.6, 255.0)">c</text><text xml:space="preserve" font-family="Helvetica-Light" font-size="21.0" fill="#000000" transform="matrix(1.00, 0.00, -0.00, -1.00, 486.3, 255.0)">i</text><text xml:space="preserve" font-family="Helvetica-Light" font-size="21.0" fill="#000000" transform="matrix(1.00, 0.00, -0.00, -1.00, 490.9, 255.0)">e</text><text xml:space="preserve" font-family="Helvetica-Light" font-size="21.0" fill="#000000" transform="matrix(1.00, 0.00, -0.00, -1.00, 502.6, 255.0)">n</text><text xml:space="preserve" font-family="Helvetica-Light" font-size="21.0" fill="#000000" transform="matrix(1.00, 0.00, -0.00, -1.00, 514.3, 255.0)">c</text><text xml:space="preserve" font-family="Helvetica-Light" font-size="21.0" fill="#000000" transform="matrix(1.00, 0.00, -0.00, -1.00, 525.9, 255.0)">e</text><text xml:space="preserve" font-family="Helvetica-Light" font-size="21.0" fill="#000000" transform="matrix(1.00, 0.00, -0.00, -1.00, 537.6, 255.0)">,</text><text xml:space="preserve" font-family="Helvetica-Light" font-size="21.0" fill="#000000" transform="matrix(1.00, 0.00, -0.00, -1.00, 543.5, 255.0)"> </text><text xml:space="preserve" font-family="Helvetica-Light" font-size="21.0" fill="#000000" transform="matrix(1.00, 0.00, -0.00, -1.00, 549.3, 255.0)">W</text><text xml:space="preserve" font-family="Helvetica-Light" font-size="21.0" fill="#000000" transform="matrix(1.00, 0.00, -0.00, -1.00, 567.6, 255.0)">e</text><text xml:space="preserve" font-family="Helvetica-Light" font-size="21.0" fill="#000000" transform="matrix(1.00, 0.00, -0.00, -1.00, 579.3, 255.0)">n</text><text xml:space="preserve" font-family="Helvetica-Light" font-size="21.0" fill="#000000" transform="matrix(1.00, 0.00, -0.00, -1.00, 590.9, 255.0)">z</text><text xml:space="preserve" font-family="Helvetica-Light" font-size="21.0" fill="#000000" transform="matrix(1.00, 0.00, -0.00, -1.00, 601.4, 255.0)">h</text><text xml:space="preserve" font-family="Helvetica-Light" font-size="21.0" fill="#000000" transform="matrix(1.00, 0.00, -0.00, -1.00, 613.1, 255.0)">o</text><text xml:space="preserve" font-family="Helvetica-Light" font-size="21.0" fill="#000000" transform="matrix(1.00, 0.00, -0.00, -1.00, 624.8, 255.0)">u</text><text xml:space="preserve" font-family="Helvetica-Light" font-size="21.0" fill="#000000" transform="matrix(1.00, 0.00, -0.00, -1.00, 636.5, 255.0)"> </text><text xml:space="preserve" font-family="Helvetica-Light" font-size="21.0" fill="#000000" transform="matrix(1.00, 0.00, -0.00, -1.00, 642.3, 255.0)">K</text><text xml:space="preserve" font-family="Helvetica-Light" font-size="21.0" fill="#000000" transform="matrix(1.00, 0.00, -0.00, -1.00, 656.3, 255.0)">e</text><text xml:space="preserve" font-family="Helvetica-Light" font-size="21.0" fill="#000000" transform="matrix(1.00, 0.00, -0.00, -1.00, 668.0, 255.0)">a</text><text xml:space="preserve" font-family="Helvetica-Light" font-size="21.0" fill="#000000" transform="matrix(1.00, 0.00, -0.00, -1.00, 679.7, 255.0)">n</text><text xml:space="preserve" font-family="Helvetica-Light" font-size="21.0" fill="#000000" transform="matrix(1.00, 0.00, -0.00, -1.00, 691.3, 255.0)"> </text><text xml:space="preserve" font-family="Helvetica-Light" font-size="21.0" fill="#000000" transform="matrix(1.00, 0.00, -0.00, -1.00, 697.2, 255.0)">U</text><text xml:space="preserve" font-family="Helvetica-Light" font-size="21.0" fill="#000000" transform="matrix(1.00, 0.00, -0.00, -1.00, 712.3, 255.0)">n</text><text xml:space="preserve" font-family="Helvetica-Light" font-size="21.0" fill="#000000" transform="matrix(1.00, 0.00, -0.00, -1.00, 724.0, 255.0)">i</text><text xml:space="preserve" font-family="Helvetica-Light" font-size="21.0" fill="#000000" transform="matrix(1.00, 0.00, -0.00, -1.00, 728.7, 255.0)">v</text><text xml:space="preserve" font-family="Helvetica-Light" font-size="21.0" fill="#000000" transform="matrix(1.00, 0.00, -0.00, -1.00, 739.2, 255.0)">e</text><text xml:space="preserve" font-family="Helvetica-Light" font-size="21.0" fill="#000000" transform="matrix(1.00, 0.00, -0.00, -1.00, 750.9, 255.0)">r</text><text xml:space="preserve" font-family="Helvetica-Light" font-size="21.0" fill="#000000" transform="matrix(1.00, 0.00, -0.00, -1.00, 757.9, 255.0)">s</text><text xml:space="preserve" font-family="Helvetica-Light" font-size="21.0" fill="#000000" transform="matrix(1.00, 0.00, -0.00, -1.00, 768.4, 255.0)">i</text><text xml:space="preserve" font-family="Helvetica-Light" font-size="21.0" fill="#000000" transform="matrix(1.00, 0.00, -0.00, -1.00, 773.0, 255.0)">t</text><text xml:space="preserve" font-family="Helvetica-Light" font-size="21.0" fill="#000000" transform="matrix(1.00, 0.00, -0.00, -1.00, 778.9, 255.0)">y</text><text xml:space="preserve" font-family="Helvetica-Light" font-size="21.0" fill="#000000" transform="matrix(1.00, 0.00, -0.00, -1.00, 787.4, 255.0)">,</text><text xml:space="preserve" font-family="Helvetica-Light" font-size="21.0" fill="#000000" transform="matrix(1.00, 0.00, -0.00, -1.00, 793.3, 255.0)"> </text><text xml:space="preserve" font-family="Helvetica-Light" font-size="21.0" fill="#000000" transform="matrix(1.00, 0.00, -0.00, -1.00, 799.1, 255.0)">C</text><text xml:space="preserve" font-family="Helvetica-Light" font-size="21.0" fill="#000000" transform="matrix(1.00, 0.00, -0.00, -1.00, 814.3, 255.0)">h</text><text xml:space="preserve" font-family="Helvetica-Light" font-size="21.0" fill="#000000" transform="matrix(1.00, 0.00, -0.00, -1.00, 825.9, 255.0)">i</text><text xml:space="preserve" font-family="Helvetica-Light" font-size="21.0" fill="#000000" transform="matrix(1.00, 0.00, -0.00, -1.00, 830.6, 255.0)">n</text><text xml:space="preserve" font-family="Helvetica-Light" font-size="21.0" fill="#000000" transform="matrix(1.00, 0.00, -0.00, -1.00, 842.3, 255.0)">a</text></g></svg>